<svg xmlns="http://www.w3.org/2000/svg" xmlns:xlink="http://www.w3.org/1999/xlink" width="224.2" height="142.711"><defs><linearGradient id="a" x1="-8.42" y1="-83.383" x2="-7.359" y2="-83.383" gradientUnits="objectBoundingBox"><stop offset="0" stop-color="#ffa100"/><stop offset=".165" stop-color="#ffbc00"/><stop offset=".169" stop-color="#ffc833"/><stop offset=".479" stop-color="#ffe793"/><stop offset=".801" stop-color="#ffd751"/><stop offset=".805" stop-color="#ffc000"/><stop offset="1" stop-color="#ffa200"/></linearGradient><linearGradient id="b" x1="-9.91" y1="-83.181" x2="-9.91" y2="-82.972" gradientUnits="objectBoundingBox"><stop offset="0" stop-color="#da6400"/><stop offset="1" stop-color="#fa8900"/></linearGradient><linearGradient id="c" x1="-12.87" y1="-44.646" x2="-11.716" y2="-44.646" gradientUnits="objectBoundingBox"><stop offset="0" stop-color="#e06700"/><stop offset=".261" stop-color="#ca5400"/><stop offset=".261" stop-color="#ba3900"/><stop offset=".498" stop-color="#983100"/><stop offset=".743" stop-color="#ba3600"/><stop offset=".743" stop-color="#c75400"/><stop offset="1" stop-color="#e56b00"/></linearGradient><linearGradient id="d" x1="-14.369" y1="-45.552" x2="-14.255" y2="-45.087" gradientUnits="objectBoundingBox"><stop offset="0" stop-color="#ffcd22"/><stop offset="1" stop-color="#fa8900"/></linearGradient><linearGradient id="e" x1="-22.307" y1="-47.776" x2="-21.902" y2="-47.029" gradientUnits="objectBoundingBox"><stop offset=".195" stop-color="#ffec7e"/><stop offset=".902" stop-color="#ffad00"/></linearGradient><linearGradient id="i" x1="3.784" y1="-80.908" x2="4.678" y2="-80.908" xlink:href="#a"/><linearGradient id="j" x1="3.969" y1="-110.604" x2="3.969" y2="-109.992" xlink:href="#b"/><linearGradient id="k" x1=".058" y1=".833" x2=".982" y2=".232" gradientUnits="objectBoundingBox"><stop offset="0" stop-color="#ff9e00"/><stop offset=".801" stop-color="#f47200"/></linearGradient><linearGradient id="l" x1=".232" y1="-77.656" x2="1.063" y2="-77.656" xlink:href="#a"/><linearGradient id="m" x1=".78" y1="-62.516" x2=".78" y2="-62.107" xlink:href="#b"/><linearGradient id="n" x1="-.854" y1="1.896" x2="-.022" y2="1.062" xlink:href="#k"/><linearGradient id="o" x1="10.453" y1="-32.589" x2="11.338" y2="-32.589" xlink:href="#a"/><linearGradient id="p" x1="16.215" y1="-28.354" x2="16.215" y2="-28.145" xlink:href="#b"/><linearGradient id="q" x1="33.749" y1="-38.094" x2="34.575" y2="-38.094" gradientUnits="objectBoundingBox"><stop offset="0" stop-color="#e06700"/><stop offset=".261" stop-color="#d15900"/><stop offset=".264" stop-color="#c24900"/><stop offset=".502" stop-color="#b63e00"/><stop offset=".759" stop-color="#c24a00"/><stop offset=".766" stop-color="#d25b00"/><stop offset="1" stop-color="#e56b00"/></linearGradient><linearGradient id="r" x1="34.493" y1="-46.836" x2="34.493" y2="-47.961" xlink:href="#d"/><linearGradient id="s" x1="50.201" y1="-57.395" x2="50.201" y2="-58.831" xlink:href="#e"/><linearGradient id="t" x1="17.847" y1="-54.484" x2="18.656" y2="-54.484" xlink:href="#q"/><linearGradient id="u" x1="29.781" y1="-40.595" x2="29.781" y2="-41.31" xlink:href="#d"/><linearGradient id="v" x1="22.443" y1="-89.447" x2="22.443" y2="-91.076" xlink:href="#e"/><linearGradient id="w" x1="-7.099" y1="-4.853" x2="-6.172" y2="-4.853" xlink:href="#q"/><linearGradient id="x" x1="-5.874" y1="-10.113" x2="-5.874" y2="-11.239" xlink:href="#d"/><linearGradient id="y" x1="-9.789" y1="-5.913" x2="-9.789" y2="-6.641" xlink:href="#e"/><linearGradient id="z" x1=".784" y1="4.257" x2="1.784" y2="4.257" xlink:href="#c"/><linearGradient id="aa" x1="2.721" y1="1.99" x2="2.846" y2="2.224" xlink:href="#d"/><linearGradient id="ab" x1="1.21" y1="7.886" x2="1.345" y2="10.474" xlink:href="#e"/><linearGradient id="ac" x1="3.033" y1="-.873" x2="4.201" y2="-.873" xlink:href="#c"/><linearGradient id="ad" x1="3.183" y1="-3.037" x2="3.226" y2="-2.352" xlink:href="#d"/><linearGradient id="ae" x1="3.94" y1="-1.674" x2="4.113" y2="-.921" xlink:href="#e"/></defs><g transform="translate(118.39 106.032)"><path d="M59.56 74c-.968.4-1.241 1.966-.611 3.507s1.925 2.47 2.892 2.074c.162-.066.4-.174.565-.24.967-.4 1.241-1.965.611-3.506s-1.925-2.47-2.892-2.075c-.163.071-.403.178-.565.24z" transform="translate(-57.807 -73.289)" fill="url(#a)"/><path d="M2.036 5.684a4.41 4.41 0 01-.938-1.444C.46 2.678.745 1.078 1.735.673l.281-.12c.1-.044.2-.087.283-.121a1.914 1.914 0 012.015.656 4.42 4.42 0 01.938 1.444c.638 1.562.353 3.163-.636 3.567-.081.033-.181.077-.282.12s-.2.087-.283.121a1.913 1.913 0 01-2.015-.656zm2.212-4.53A1.825 1.825 0 002.334.518l-.281.12c-.1.044-.2.087-.283.121-.942.385-1.2 1.93-.585 3.446a4.314 4.314 0 00.918 1.413 1.824 1.824 0 001.913.636c.081-.033.181-.076.281-.119s.2-.087.283-.121c.942-.386 1.2-1.931.585-3.446a4.309 4.309 0 00-.917-1.414z" fill="#ea7800"/><ellipse cx="1.892" cy="3.014" rx="1.892" ry="3.014" transform="rotate(-22.23 3.644 .716)" fill="url(#b)"/><path d="M2.035 5.684a4.41 4.41 0 01-.938-1.444C.459 2.678.744 1.078 1.734.673a1.912 1.912 0 012.015.656 4.41 4.41 0 01.938 1.444c.639 1.562.354 3.163-.636 3.567a1.913 1.913 0 01-2.016-.656zm1.647-4.289A1.825 1.825 0 001.768.759c-.942.385-1.2 1.93-.585 3.446a4.315 4.315 0 00.918 1.416 1.824 1.824 0 001.913.636c.942-.385 1.2-1.931.586-3.446a4.307 4.307 0 00-.918-1.416z" fill="#ffe576"/><path d="M1.375 4.126c.532 1.3 1.633 2.081 2.461 1.743a1.25 1.25 0 00.676-.753 1.125 1.125 0 01-.583.591c-.779.318-1.823-.43-2.331-1.673s-.287-2.507.493-2.826a1.123 1.123 0 01.831.014 1.248 1.248 0 00-1.01-.064c-.829.339-1.069 1.668-.537 2.968z" fill="#ffb900"/></g><path d="M123.134 109.206v-.005a.209.209 0 00.01-.162.09.09 0 10-.167.063.147.147 0 00.045.086.179.179 0 01.047.043c.02.033.065.006.065-.025z" fill="#fff"/><path d="M35 68.741c-2.051.583-3.082 3.277-2.3 6.017s3.073 4.487 5.124 3.9l1.024-.291c2.051-.583 3.081-3.277 2.3-6.017s-3.074-4.487-5.124-3.9z" transform="translate(25.294 34.448)" fill="url(#c)"/><path d="M62.305 113.281c-1.865 0-3.7-1.707-4.372-4.059-.787-2.766.264-5.5 2.342-6.089l1.023-.291a3 3 0 01.824-.114c1.865 0 3.7 1.707 4.373 4.059a6.16 6.16 0 01-.092 3.854 3.486 3.486 0 01-2.251 2.234l-1.023.291a3 3 0 01-.824.115zm-.184-10.437a2.867 2.867 0 00-.792.11l-1.024.291c-2.016.574-3.031 3.24-2.261 5.944.655 2.3 2.446 3.974 4.259 3.974a2.9 2.9 0 00.792-.11l1.023-.291a3.37 3.37 0 002.173-2.164 6.042 6.042 0 00.089-3.78c-.654-2.302-2.445-3.974-4.259-3.974z" fill="#a63000"/><g transform="translate(56.577 102.133)"><ellipse cx="3.861" cy="5.157" rx="3.861" ry="5.157" transform="rotate(-15.9 7.56 1.056)" fill="url(#d)"/><path d="M5.728 11.148c-1.865 0-3.7-1.707-4.372-4.059C.569 4.323 1.62 1.589 3.698 1a3 3 0 01.824-.114c1.865 0 3.7 1.707 4.373 4.059a6.162 6.162 0 01-.092 3.854 3.483 3.483 0 01-2.251 2.235 3 3 0 01-.824.114zM4.522 1.006a2.9 2.9 0 00-.792.11C1.714 1.69.699 4.356 1.469 7.06c.655 2.3 2.446 3.974 4.259 3.974a2.9 2.9 0 00.792-.11A3.37 3.37 0 008.693 8.76a6.042 6.042 0 00.088-3.78c-.655-2.306-2.446-3.974-4.259-3.974z" fill="#ffe576"/></g><path d="M34.639 69.117c-1.81.779-2.678 3.313-1.945 5.889s2.8 4.275 4.754 3.984z" transform="translate(25.294 34.2)" fill="url(#e)"/><path d="M58.485 109.064c.657 2.312 2.613 3.783 4.367 3.284a2.768 2.768 0 001.58-1.234 2.529 2.529 0 01-1.344.963c-1.653.47-3.5-.939-4.13-3.147s.2-4.379 1.856-4.849a2.529 2.529 0 011.651.112 2.771 2.771 0 00-1.994-.219c-1.755.499-2.644 2.778-1.986 5.09z" fill="#dd6200"/><path d="M62.889 112.311l.125-.047.151-.057a2.1 2.1 0 00.193-.1l.113-.061c.039-.022.076-.052.116-.08a1.873 1.873 0 00.248-.2 2.138 2.138 0 00.251-.256l.127-.148.115-.168a3.214 3.214 0 00.219-.373 5.94 5.94 0 00.181-.426 4.167 4.167 0 00.132-.461c.016-.082.042-.163.052-.247l.038-.256a2.527 2.527 0 00.023-.261c0-.088.016-.176.014-.265a5.154 5.154 0 00-.02-.541 5.709 5.709 0 00-.6-2.111 5.2 5.2 0 00-.266-.471c-.046-.077-.1-.146-.151-.218a2.446 2.446 0 00-.158-.21l-.166-.2c-.054-.066-.118-.121-.174-.183a4.162 4.162 0 00-.362-.328c-.059-.054-.127-.093-.189-.139a2.192 2.192 0 00-.189-.127 3.183 3.183 0 00-.382-.2l-.187-.082-.185-.059a2.1 2.1 0 00-.349-.086 1.837 1.837 0 00-.314-.036c-.049 0-.1-.009-.14-.007l-.128.007c-.081.007-.155 0-.217.018l-.158.031-.131.026.131-.03.157-.036a1.887 1.887 0 01.217-.025l.129-.012h.142a1.9 1.9 0 01.318.026 2.219 2.219 0 01.357.076l.189.056.191.08a3.262 3.262 0 01.392.2 2.254 2.254 0 01.195.126 2.208 2.208 0 01.195.138 4.071 4.071 0 01.375.328 3.94 3.94 0 01.351.383 2.594 2.594 0 01.161.212c.051.074.109.144.155.222a5.358 5.358 0 01.275.477 6.016 6.016 0 01.415 1.04 5.929 5.929 0 01.195 1.106 5.328 5.328 0 01.018.55c0 .091-.011.181-.016.271a2.423 2.423 0 01-.026.265 3.929 3.929 0 01-.1.51 4.2 4.2 0 01-.146.476c-.024.078-.063.148-.093.221s-.059.144-.1.209a3.335 3.335 0 01-.23.375l-.121.168-.131.148a2.205 2.205 0 01-.264.251 1.821 1.821 0 01-.258.19c-.042.027-.079.056-.119.077l-.117.058a1.9 1.9 0 01-.2.093l-.153.052z" fill="#ffb129"/><path d="M64.018 104.237a.841.841 0 00-.14-.147.191.191 0 00-.283.048c-.065.131.016.238.1.337a.205.205 0 00.283.044.2.2 0 00.04-.282zm-4.308 7.616a.363.363 0 00-.227-.124l-.022-.01c-.1-.048-.169.07-.121.149 0 .1.093.179.159.238a.167.167 0 00.233-.023.169.169 0 00-.022-.23zm.565-.726c-.044-.037-.108.024-.073.069.051.065.117.217.221.192a.042.042 0 00.034-.033c.029-.103-.116-.174-.182-.228zm3.486-6.042l-.016-.019c-.1-.117-.268.044-.153.144l.018.016c.089.075.23-.051.151-.141z" fill="#fff"/><path d="M2.562.4C.512.986-.519 3.68.26 6.42s3.073 4.487 5.124 3.9l1.024-.291c2.051-.583 3.081-3.277 2.3-6.017S5.637-.471 3.586.112z" transform="rotate(139 33.09 90.301)" fill="url(#c)"/><path d="M106.969 131.825c1.408-1.224 3.912-1.14 5.963.195 2.41 1.571 3.406 4.32 2.23 6.13l-.584.893a3 3 0 01-.548.628c-1.407 1.223-3.912 1.139-5.963-.195a6.16 6.16 0 01-2.459-2.969 3.486 3.486 0 01.233-3.163l.58-.891a3 3 0 01.548-.628zm6.985 7.757a2.867 2.867 0 00.525-.602l.582-.892c1.145-1.756.162-4.434-2.192-5.97-2.004-1.306-4.454-1.394-5.822-.205a2.9 2.9 0 00-.525.603l-.582.89a3.37 3.37 0 00-.221 3.06 6.042 6.042 0 002.412 2.912c2.006 1.307 4.454 1.394 5.823.204z" fill="#a63000"/><g transform="rotate(139 33.788 90.413)"><ellipse cx="3.861" cy="5.157" rx="3.861" ry="5.157" transform="rotate(-15.9 7.56 1.056)" fill="url(#d)"/><path d="M5.727 11.148c-1.865 0-3.704-1.707-4.373-4.063-.787-2.763.264-5.494 2.339-6.086a3 3 0 01.828-.114c1.865 0 3.704 1.707 4.372 4.059a6.162 6.162 0 01-.092 3.854 3.483 3.483 0 01-2.251 2.235 3 3 0 01-.823.115zM4.521 1.002a2.9 2.9 0 00-.792.11c-2.016.573-3.031 3.24-2.262 5.945.655 2.3 2.446 3.974 4.259 3.974a2.9 2.9 0 00.792-.11 3.37 3.37 0 002.175-2.165 6.042 6.042 0 00.088-3.78c-.656-2.302-2.447-3.974-4.26-3.974z" fill="#ffe576"/></g><path d="M2.205 0C.4.779-.473 3.313.26 5.889s2.8 4.275 4.754 3.984z" transform="rotate(139 32.992 90.036)" fill="url(#e)"/><path d="M112.619 132.501c-2.014-1.314-4.454-1.14-5.45.386a2.768 2.768 0 00-.383 1.968 2.529 2.529 0 01.383-1.609c.939-1.439 3.257-1.587 5.181-.334s2.72 3.438 1.783 4.88a2.529 2.529 0 01-1.324 1 2.771 2.771 0 001.65-1.15c.995-1.527.174-3.827-1.84-5.14z" fill="#dd6200"/><path d="M107.166 132.937l-.063.118-.077.142a2.1 2.1 0 00-.08.202l-.045.12c-.015.042-.023.09-.035.137a1.873 1.873 0 00-.056.313 2.138 2.138 0 00-.022.358l.002.195.023.202a3.212 3.212 0 00.08.425 2.212 2.212 0 00.066.218 2.206 2.206 0 00.076.223 4.167 4.167 0 00.206.442c.042.073.075.15.123.22l.14.219a2.526 2.526 0 00.153.212c.058.066.104.143.163.21a5.155 5.155 0 00.37.394 5.914 5.914 0 00.862.687 5.872 5.872 0 00.976.513 5.2 5.2 0 00.505.173c.085.028.171.045.257.066a2.447 2.447 0 00.257.055l.256.042c.084.014.169.014.252.024a4.163 4.163 0 00.49.01c.08.002.156-.013.233-.02a2.193 2.193 0 00.226-.027 3.184 3.184 0 00.42-.1l.196-.06.178-.076a2.1 2.1 0 00.32-.164 1.837 1.837 0 00.26-.18c.04-.03.08-.055.112-.086l.092-.09c.056-.059.113-.104.151-.155l.1-.128.084-.102-.082.105-.095.13a1.888 1.888 0 01-.143.159l-.093.097-.107.093a1.9 1.9 0 01-.26.186 2.219 2.219 0 01-.319.177l-.18.082-.196.065a3.262 3.262 0 01-.427.106 2.252 2.252 0 01-.23.033 2.206 2.206 0 01-.234.029 4.07 4.07 0 01-.499-.002 3.939 3.939 0 01-.516-.058 2.592 2.592 0 01-.26-.055c-.087-.022-.177-.037-.263-.066a5.356 5.356 0 01-.52-.18 6.017 6.017 0 01-.996-.512 5.929 5.929 0 01-.873-.707 5.327 5.327 0 01-.374-.403c-.06-.068-.11-.144-.165-.214a2.424 2.424 0 01-.154-.217 3.93 3.93 0 01-.26-.45 4.205 4.205 0 01-.202-.456c-.033-.074-.05-.153-.074-.227s-.05-.148-.062-.224a3.335 3.335 0 01-.073-.434l-.018-.206-.004-.197a2.205 2.205 0 01.035-.363 1.821 1.821 0 01.07-.312c.014-.048.023-.095.04-.137l.05-.12a1.9 1.9 0 01.09-.202l.08-.14z" fill="#ffb129"/><path d="M111.609 139.775a.841.841 0 00.201.02.191.191 0 00.183-.222c-.037-.141-.169-.17-.293-.192a.205.205 0 00-.241.15.2.2 0 00.15.244zm-1.745-8.575a.363.363 0 00.252-.055l.023-.007c.104-.026.082-.163-.006-.191-.066-.076-.188-.074-.276-.076a.167.167 0 00-.164.169.169.169 0 00.17.16zm.05.92c.056-.001.066-.089.01-.1-.081-.016-.233-.09-.294 0a.042.042 0 00-.004.047c.046.096.205.054.288.053zm1.333 6.846l.025.003c.154.022.173-.209.02-.209l-.023.002c-.119-.002-.14.187-.022.204z" fill="#fff"/><path d="M46.29 12.565c.741.824.339 2.4-.9 3.509s-2.843 1.348-3.584.523l-.4-.44c-.742-.824-.339-2.4.9-3.509s2.842-1.348 3.584-.523z" transform="translate(37.502 -6.289)" fill="url(#i)"/><path d="M80.353 10.827a3.572 3.572 0 002.564-1.017 3.914 3.914 0 001.2-1.88 1.777 1.777 0 00-.3-1.677l-.4-.44a1.585 1.585 0 00-1.069-.5 3.569 3.569 0 00-2.563 1.016c-1.25 1.124-1.654 2.721-.9 3.557l.4.44a1.584 1.584 0 001.068.501zm1.994-5.441a1.516 1.516 0 011.023.474l.4.44a1.709 1.709 0 01.285 1.614 3.844 3.844 0 01-1.181 1.846 3.5 3.5 0 01-2.511 1 1.519 1.519 0 01-1.024-.474l-.4-.44c-.728-.809-.326-2.362.9-3.461a3.505 3.505 0 012.508-1z" fill="#ea7800"/><g transform="translate(77.967 4.783)"><ellipse cx="3.014" cy="2.008" rx="3.014" ry="2.008" transform="rotate(-41.97 5.256 2.016)" fill="url(#j)"/><path d="M2.386 6.043A3.572 3.572 0 004.95 5.026a3.914 3.914 0 001.2-1.88 1.777 1.777 0 00-.3-1.677 1.582 1.582 0 00-1.069-.5 3.569 3.569 0 00-2.563 1.016c-1.25 1.124-1.654 2.721-.9 3.557a1.584 1.584 0 001.068.501zm2.39-5a1.516 1.516 0 011.023.474 1.709 1.709 0 01.285 1.614 3.844 3.844 0 01-1.181 1.846 3.5 3.5 0 01-2.511 1 1.519 1.519 0 01-1.027-.475c-.728-.809-.326-2.362.9-3.461a3.505 3.505 0 012.511-1.003z" fill="#ffe576"/></g><path d="M44.395 15.485a6.36 6.36 0 002.412-1.335 3.257 3.257 0 01-1.228 2.708c-1.219 1.1-2.8 1.327-3.529.515a1.691 1.691 0 01-.309-1.532 6.759 6.759 0 002.654-.356z" transform="translate(37.297 -7.091)" fill="url(#k)"/><path d="M82.715 9.585c-1.045.94-2.406 1.13-3.04.425a1.359 1.359 0 01-.318-1.014 1.228 1.228 0 00.3.82c.6.664 1.891.476 2.889-.422s1.322-2.163.724-2.828a1.234 1.234 0 00-.785-.384 1.365 1.365 0 01.975.424c.632.706.299 2.039-.745 2.979z" fill="#b62b00"/><path d="M79.66 9.992l-.045-.061-.055-.073c-.018-.03-.036-.067-.058-.107a.711.711 0 01-.059-.139c-.009-.026-.02-.052-.029-.081l-.019-.09a1.635 1.635 0 01-.03-.424c.007-.078.015-.159.03-.241a2.248 2.248 0 01.063-.253 2.99 2.99 0 01.217-.518 3.422 3.422 0 01.335-.5 3.913 3.913 0 01.425-.452 3.975 3.975 0 01.5-.377 3.465 3.465 0 01.532-.28 3.031 3.031 0 01.538-.161 2.2 2.2 0 01.258-.036c.084-.006.166-.006.243 0a1.656 1.656 0 01.418.074l.087.029c.028.011.053.025.078.037a.706.706 0 01.132.073c.037.027.072.048.1.069l.066.062.055.051-.053-.053-.065-.064c-.027-.022-.062-.046-.1-.074a.781.781 0 00-.131-.078c-.025-.012-.05-.027-.078-.04l-.087-.033a1.574 1.574 0 00-.423-.087h-.248a2.267 2.267 0 00-.263.032 2.768 2.768 0 00-.549.156 3.54 3.54 0 00-.542.281 3.94 3.94 0 00-.5.378 4.041 4.041 0 00-.431.462 3.559 3.559 0 00-.337.51 2.774 2.774 0 00-.213.53 2.2 2.2 0 00-.06.258c-.013.084-.02.168-.026.247a1.535 1.535 0 00.042.43l.023.091c.009.029.021.055.031.081a.7.7 0 00.064.138c.024.04.043.076.063.106l.057.071z" fill="#ffb81b"/><path d="M79.895 6.968c.043-.057.117-.15.2-.139h.018a.053.053 0 01.051.076v.007a.151.151 0 01-.047.084c-.026.031-.052.06-.076.094a.092.092 0 01-.131.009.094.094 0 01-.015-.131z" fill="#fff"/><path d="M74.636 26.71c-.456 1.317.775 2.931 2.75 3.6s3.946.153 4.4-1.164l.243-.7c.456-1.317-.775-2.931-2.749-3.606s-3.946-.153-4.4 1.164z" transform="translate(89.329 6.069)" fill="url(#l)"/><path d="M170.163 36.333a4.485 4.485 0 01-3.462.091 4.875 4.875 0 01-2.306-1.576 2.221 2.221 0 01-.47-2.084l.244-.7a2 2 0 011-1.1 4.486 4.486 0 013.461-.092c1.994.681 3.24 2.323 2.776 3.66l-.243.7a2.007 2.007 0 01-1 1.101zm-4.959-5.295a1.916 1.916 0 00-.954 1.052l-.244.7a2.137 2.137 0 00.457 2 4.781 4.781 0 002.266 1.547 4.4 4.4 0 003.393-.086 1.919 1.919 0 00.954-1.051l.243-.7c.448-1.292-.773-2.885-2.723-3.551a4.4 4.4 0 00-3.392.09z" fill="#ea7800"/><g transform="translate(163.154 30.4)"><ellipse cx="2.524" cy="3.778" rx="2.524" ry="3.778" transform="rotate(-71.362 3.33 2.392)" fill="url(#m)"/><path d="M7.009 5.933a4.485 4.485 0 01-3.462.091A4.88 4.88 0 011.24 4.448a2.222 2.222 0 01-.47-2.087 2.008 2.008 0 011-1.1 4.488 4.488 0 013.462-.092c1.994.681 3.24 2.323 2.776 3.66a2.007 2.007 0 01-.999 1.104zm-5.2-4.592a1.918 1.918 0 00-.954 1.051 2.138 2.138 0 00.456 2 4.787 4.787 0 002.267 1.547 4.4 4.4 0 003.393-.086 1.919 1.919 0 00.954-1.051c.448-1.292-.774-2.885-2.723-3.55a4.4 4.4 0 00-3.396.09z" fill="#ffe576"/></g><path d="M78.152 29.367a7.978 7.978 0 01-3.441-.352 4.057 4.057 0 002.742 2.519c1.945.664 3.885.151 4.335-1.147a2.115 2.115 0 00-.389-1.921 8.524 8.524 0 01-3.247.901z" transform="translate(89.275 4.82)" fill="url(#n)"/><path d="M166.825 36.066c1.667.569 3.334.117 3.725-1.01a1.705 1.705 0 00-.126-1.326 1.537 1.537 0 01.054 1.094c-.367 1.062-1.956 1.482-3.548.938s-2.584-1.844-2.216-2.905a1.557 1.557 0 01.721-.831 1.724 1.724 0 00-.922.97c-.39 1.126.645 2.5 2.312 3.07z" fill="#b62b00"/><path d="M170.557 35.029l.022-.092.027-.111c.007-.044.01-.1.016-.153a.92.92 0 000-.189c0-.034 0-.07-.007-.107l-.022-.114a2 2 0 00-.172-.5 3.142 3.142 0 00-.153-.264 2.686 2.686 0 00-.2-.26 3.713 3.713 0 00-.5-.491 4.3 4.3 0 00-.631-.412 4.737 4.737 0 00-1.469-.5 4.311 4.311 0 00-.752-.061 3.767 3.767 0 00-.7.079 2.75 2.75 0 00-.316.086c-.1.034-.194.074-.283.114a2.06 2.06 0 00-.448.292l-.087.076c-.027.027-.049.055-.072.081a.917.917 0 00-.117.149c-.031.049-.061.091-.082.13l-.047.1-.039.087.036-.088.044-.106c.02-.04.049-.083.078-.133a.911.911 0 01.113-.155c.022-.027.044-.057.07-.084l.086-.08a1.96 1.96 0 01.447-.309c.09-.042.185-.085.287-.122a2.916 2.916 0 01.32-.093 3.49 3.49 0 01.712-.091 4.377 4.377 0 01.765.057 4.435 4.435 0 011.49.509 4.352 4.352 0 01.638.422 3.439 3.439 0 01.5.506 2.784 2.784 0 01.195.268c.057.091.106.183.15.271a1.9 1.9 0 01.161.517l.018.116v.109a.914.914 0 01-.007.191c-.008.057-.012.109-.021.153l-.031.11z" fill="#ffb81b"/><path d="M168.812 31.655c-.077-.044-.208-.115-.3-.063l-.021.007a.067.067 0 00-.022.113l.007.007a.188.188 0 00.1.075 1.459 1.459 0 01.133.071.117.117 0 10.1-.21z" fill="#fff"/><g transform="translate(191.579 2.744)"><path d="M88.343 21.579c-1.622 2.112-5.665 1.729-9.03-.855s-4.778-6.392-3.155-8.5c.272-.354.7-.872.97-1.226 1.622-2.112 5.665-1.729 9.03.856s4.778 6.392 3.155 8.5c-.272.353-.698.871-.97 1.225z" transform="translate(-73.22 -8.395)" fill="url(#o)"/><path d="M3.101 9.147a11.241 11.241 0 002.92 3.277c3.411 2.62 7.537 2.994 9.2.833.136-.176.31-.394.484-.612s.35-.437.486-.615c1.012-1.319.916-3.335-.258-5.394a11.232 11.232 0 00-2.92-3.277C9.602.739 5.476.365 3.813 2.526c-.136.176-.31.394-.484.612s-.35.437-.486.615c-1.013 1.318-.917 3.335.258 5.394zm12.621-2.389c1.126 1.972 1.228 3.891.276 5.132-.136.176-.309.393-.483.61s-.35.438-.487.616c-1.579 2.057-5.556 1.663-8.863-.878a10.987 10.987 0 01-2.858-3.206C2.181 7.06 2.079 5.141 3.031 3.9c.136-.176.309-.393.483-.61s.35-.438.487-.616c1.58-2.056 5.556-1.663 8.864.878a11 11 0 012.857 3.206z" fill="#ea7800"/><ellipse cx="4.822" cy="7.683" rx="4.822" ry="7.683" transform="rotate(-52.48 7.76 3.826)" fill="url(#p)"/><path d="M3.101 9.146a11.241 11.241 0 002.92 3.277c3.411 2.62 7.537 2.994 9.2.834 1.013-1.32.917-3.336-.258-5.395a11.241 11.241 0 00-2.928-3.278c-3.411-2.62-7.537-2.994-9.2-.833-1.005 1.32-.909 3.333.266 5.395zm11.652-1.162c1.125 1.973 1.228 3.891.275 5.132-1.579 2.057-5.556 1.663-8.863-.878a10.987 10.987 0 01-2.858-3.206C2.181 7.06 2.079 5.141 3.031 3.9c1.58-2.056 5.556-1.662 8.864.878a11.007 11.007 0 012.858 3.206z" fill="#ffe576"/><path d="M6.486 11.817c-2.84-2.182-4.018-5.415-2.63-7.221a3.185 3.185 0 012.3-1.156 2.866 2.866 0 00-1.84 1.032c-1.307 1.7-.169 4.771 2.543 6.854s5.971 2.391 7.278.69a2.865 2.865 0 00.525-2.051 3.19 3.19 0 01-.522 2.527c-1.387 1.811-4.814 1.506-7.654-.675z" fill="#ffb900"/></g><path d="M202.672 6.919h.013a.525.525 0 01.4.084.228.228 0 01.051.318.233.233 0 01-.317.051.375.375 0 01-.182-.17.461.461 0 00-.073-.144c-.067-.067.026-.161.108-.139z" fill="#fff"/><path d="M19.186 28.289c1.131 2.421 4.754 3.121 8.092 1.562s5.127-4.786 4-7.207l-.709-1.517c-1.13-2.421-4.754-3.121-8.092-1.562s-5.127 4.786-4 7.207z" transform="translate(-2.168 -5.313)" fill="url(#q)"/><path d="M25.142 24.606c-3.371 1.575-7.046.858-8.193-1.6l-.709-1.517c-1.147-2.456.662-5.734 4.034-7.308s7.046-.857 8.193 1.6l.708 1.517c1.148 2.456-.662 5.735-4.033 7.308zm-4.804-10.285c-3.294 1.539-5.071 4.726-3.959 7.106l.708 1.517c1.112 2.38 4.7 3.064 7.991 1.525s5.071-4.726 3.96-7.106l-.709-1.517c-1.111-2.379-4.696-3.063-7.991-1.525z" fill="#ad4900"/><g transform="translate(14.97 12.946)"><ellipse cx="6.671" cy="4.839" rx="6.671" ry="4.839" transform="rotate(-25.035 12.715 2.823)" fill="url(#r)"/><path d="M10.172 11.661c-3.371 1.575-7.046.858-8.193-1.6s.662-5.735 4.033-7.309 7.046-.857 8.193 1.6-.663 5.735-4.033 7.309zm-4.1-8.769C2.777 4.43 1.001 7.618 2.112 9.998s4.7 3.064 7.991 1.525 5.071-4.726 3.96-7.106-4.692-3.063-7.987-1.525z" fill="#ffe576"/></g><path d="M27.254 21.067a8.358 8.358 0 00-3.7.816c-3.248 1.517-5 4.636-3.969 7.01 7.649.144 10.845-2.12 7.669-7.826z" transform="translate(-2.534 -6.056)" fill="url(#s)"/><path d="M24.836 23.951c2.817-1.316 4.318-4.061 3.35-6.132a3.412 3.412 0 00-1.87-1.7 3.113 3.113 0 011.48 1.463c.912 1.951-.531 4.553-3.221 5.809s-5.611.693-6.522-1.259a3.115 3.115 0 01-.172-2.075 3.416 3.416 0 00.1 2.525c.969 2.073 4.037 2.686 6.855 1.369z" fill="#dd6200"/><path d="M26.017 23.99a.614.614 0 00-.243.04.179.179 0 10.144.326.622.622 0 00.187-.16.123.123 0 00-.088-.206zm-1.059-.999l-.022.022a.144.144 0 00.032.22l.028.015a.167.167 0 10-.04-.261zm-5.389-6.614a.664.664 0 00-.331.337c-.042.158.1.256.243.236s.281-.2.362-.31c.125-.171-.118-.35-.274-.263z" fill="#fff"/><g transform="translate(13 117.155)"><path d="M31.207 82.057c1.343-2.61-1.079-5.971-5.41-7.508s-8.931-.669-10.274 1.94l-.841 1.635c-1.343 2.61 1.079 5.971 5.41 7.508s8.931.669 10.274-1.94z" transform="translate(-13.949 -72.11)" fill="url(#t)"/><path d="M11.886 2.365c4.373 1.552 6.823 4.968 5.461 7.614l-.841 1.635c-1.362 2.646-6.028 3.535-10.4 1.983S-.718 8.629.644 5.982l.841-1.634C2.846 1.701 7.512.812 11.886 2.365zM6.181 13.447c4.275 1.518 8.827.666 10.146-1.9l.841-1.635c1.32-2.564-1.084-5.885-5.359-7.4s-8.827-.666-10.146 1.9L.822 6.046c-1.32 2.563 1.084 5.881 5.359 7.401z" fill="#ad4900"/><ellipse cx="5.234" cy="8.372" rx="5.234" ry="8.372" transform="rotate(-75.52 6.543 5.07)" fill="url(#u)"/><path d="M11.886 2.365c4.373 1.552 6.823 4.968 5.461 7.614s-6.028 3.535-10.4 1.983S.123 6.993 1.485 4.347 7.512.812 11.886 2.365zm-4.864 9.448c4.275 1.517 8.827.666 10.146-1.9s-1.084-5.885-5.359-7.4-8.827-.666-10.146 1.9 1.084 5.882 5.359 7.4z" fill="#ffe576"/><path d="M18.32 83.143a10.856 10.856 0 003.939 2.357c4.218 1.5 8.693.677 10.074-1.825-6.394-6.165-11.281-7.092-14.013-.532z" transform="translate(-15.227 -73.65)" fill="url(#v)"/><path d="M11.522 3.069c-3.656-1.3-7.551-.541-8.7 1.69a3.059 3.059 0 00-.023 2.681 2.783 2.783 0 01.132-2.206c1.083-2.1 4.79-2.8 8.28-1.564s5.443 3.949 4.361 6.052a3.654 3.654 0 01-1.831 1.6 4.1 4.1 0 002.32-1.867c1.149-2.227-.883-5.088-4.539-6.386z" fill="#dd6200"/></g><path d="M23.552 119.263a.769.769 0 00.244.164c.3.118.5-.245.189-.345a.944.944 0 00-.313-.035c-.132-.002-.214.13-.12.216zm-.05 1.547h.04c.117.007.211-.093.184-.186l-.01-.033a.232.232 0 00-.352-.091c-.138.111-.042.299.138.31zm-1.707 8.944a1.015 1.015 0 00.6.024c.187-.079.155-.264.017-.359a1.076 1.076 0 00-.6-.068c-.269.022-.233.342-.017.403z" fill="#fff"/><path d="M93.34 75.005c-.9-1.32-4.762-.254-8.628 2.38s-6.27 5.839-5.371 7.159l.871 1.277c.9 1.32 4.762.254 8.627-2.38s6.271-5.841 5.371-7.158z" transform="translate(117.191 44.837)" fill="url(#w)"/><path d="M200.036 131.189c-1.369.282-2.306.117-2.71-.476l-.87-1.278c-.46-.675-.14-1.811.9-3.2a19.362 19.362 0 014.495-4.094 18.156 18.156 0 016.052-2.83c1.369-.282 2.306-.117 2.71.476l.871 1.278c.46.675.14 1.811-.9 3.2a19.352 19.352 0 01-4.5 4.094 18.148 18.148 0 01-6.048 2.83zm7.9-11.688a17.952 17.952 0 00-5.981 2.8 19.186 19.186 0 00-4.45 4.051c-.973 1.3-1.3 2.381-.9 2.974l.871 1.278c.352.516 1.243.657 2.511.4a17.947 17.947 0 005.981-2.8 19.181 19.181 0 004.449-4.051c.974-1.3 1.3-2.381.9-2.974l-.87-1.277c-.348-.519-1.24-.662-2.511-.401z" fill="#b14800"/><g transform="translate(194.903 117.453)"><ellipse cx="8.47" cy="2.892" rx="8.47" ry="2.892" transform="rotate(-34.271 15.47 4.77)" fill="url(#x)"/><path d="M4.258 12.458c-1.369.282-2.306.117-2.71-.476-.46-.675-.14-1.811.9-3.2a19.362 19.362 0 014.495-4.094 18.156 18.156 0 016.052-2.83c1.369-.282 2.306-.117 2.71.476.46.675.14 1.811-.9 3.2A19.362 19.362 0 0110.31 9.63a18.157 18.157 0 01-6.052 2.828zm8.774-10.41a17.966 17.966 0 00-5.981 2.8 19.186 19.186 0 00-4.45 4.051c-.973 1.3-1.3 2.381-.9 2.974.352.516 1.243.657 2.511.4a17.942 17.942 0 005.981-2.8 19.186 19.186 0 004.45-4.051c.973-1.3 1.3-2.381.9-2.974-.348-.518-1.24-.661-2.511-.4z" fill="#ffe576"/></g><path d="M85.583 84.683a21.076 21.076 0 004.169-2.241c3.768-2.567 6.127-5.684 5.324-7.012-8.361 3.257-12.176 6.363-9.493 9.253z" transform="translate(115.412 44.522)" fill="url(#y)"/><path d="M202.12 122.542c-3.263 2.223-5.284 4.94-4.515 6.069.29.427.938.565 1.808.452a1.509 1.509 0 01-1.414-.448c-.725-1.064 1.213-3.647 4.329-5.77s6.228-2.979 6.948-1.918a1.511 1.511 0 01-.1 1.481c.424-.768.532-1.422.242-1.849-.767-1.128-4.035-.241-7.298 1.983z" fill="#dd6200"/><path d="M206.597 125.773l-.01.007a1.29 1.29 0 00-.535.373.281.281 0 00.36.424.919.919 0 00.3-.264.77.77 0 00.089-.165c.029-.066.032-.134.055-.2.047-.137-.147-.251-.259-.175zm-5.16-3.19a.154.154 0 00-.234.042.167.167 0 00-.062.19.182.182 0 00.306.065.2.2 0 00-.01-.297z" fill="#fff"/><path d="M70.275 83.571c.074-1.141-2.577-2.24-5.918-2.453s-6.11.537-6.183 1.677L58.1 83.9c-.074 1.141 2.576 2.24 5.918 2.453s6.11-.537 6.183-1.678z" transform="translate(72.255 33.164)" fill="url(#z)"/><path d="M136.272 119.586c-3.432-.219-6.06-1.329-5.983-2.526l.071-1.1c.077-1.2 2.825-1.963 6.257-1.743s6.06 1.33 5.983 2.527l-.071 1.1c-.078 1.197-2.826 1.962-6.257 1.742zm.335-5.235c-3.3-.211-6.039.512-6.11 1.613l-.071 1.1c-.071 1.1 2.556 2.169 5.854 2.38s6.039-.512 6.11-1.613l.071-1.1c.07-1.101-2.556-2.169-5.854-2.38z" fill="#b14800"/><g transform="translate(130.296 113.894)"><ellipse cx="2.07" cy="6.063" rx="2.07" ry="6.063" transform="rotate(-86.33 2.202 2.065)" fill="url(#aa)"/><path d="M6.047 4.588c-3.432-.22-6.06-1.33-5.983-2.527S2.889.098 6.321.318s6.06 1.33 5.983 2.527-2.826 1.958-6.257 1.743zM6.311.456C3.011.245.272.968.201 2.069s2.556 2.169 5.854 2.38 6.039-.512 6.11-1.613S9.609.668 6.311.457z" fill="#ffe576"/></g><path d="M70.255 83.351c-.226-1.045-2.709-2.01-5.793-2.208s-5.669.442-6.027 1.451z" transform="translate(72.149 33.156)" fill="url(#ab)"/><path d="M136.595 114.558c-2.821-.181-5.158.463-5.22 1.439-.024.369.281.732.822 1.051-.4-.272-.621-.572-.6-.876.059-.919 2.29-1.525 4.983-1.352s4.829 1.058 4.77 1.978c-.019.3-.277.573-.709.792.577-.248.927-.569.95-.938.06-.976-2.175-1.914-4.996-2.094z" fill="#dd6200"/><path d="M131.407 116.022a.876.876 0 00.01.127.747.747 0 00.142.325 2.574 2.574 0 001.031.732 8.516 8.516 0 001.725.539 15 15 0 004.135.265 8.489 8.489 0 001.78-.315 2.568 2.568 0 001.116-.593.748.748 0 00.182-.305.472.472 0 00.02-.092v-.032.032a.482.482 0 01-.017.093.773.773 0 01-.172.317 2.529 2.529 0 01-1.111.643 8.138 8.138 0 01-1.791.352 13.653 13.653 0 01-4.165-.267 8.107 8.107 0 01-1.732-.578 2.519 2.519 0 01-1.019-.779.759.759 0 01-.13-.336.45.45 0 010-.095z" fill="#ffb129"/><path d="M136.607 118.374a1.313 1.313 0 00-.256-.052.145.145 0 10-.025.288 1.39 1.39 0 00.291-.024c.115-.022.081-.182-.01-.212zm.131-4.214a.177.177 0 00-.117-.057.159.159 0 10-.027.315.216.216 0 00.072-.007s.111-.056.052-.033a.119.119 0 00.02-.218z" fill="#fff"/><path d="M67.606 8.312c-1.5-1.817-7.024.264-12.346 4.647s-8.424 9.409-6.927 11.226l1.449 1.759c1.5 1.817 7.024-.264 12.346-4.647s8.423-9.409 6.927-11.226z" transform="translate(69.874 -5.022)" fill="url(#ac)"/><path d="M132.092 16.385c-5.466 4.5-10.976 6.534-12.547 4.628l-1.449-1.759c-1.569-1.906 1.482-6.926 6.946-11.427S136.019 1.293 137.59 3.2l1.452 1.758c1.566 1.907-1.485 6.926-6.95 11.427zm-6.868-8.337c-5.252 4.326-8.351 9.272-6.907 11.026l1.449 1.759c1.444 1.754 6.892-.34 12.145-4.666s8.352-9.272 6.907-11.026l-1.449-1.76c-1.443-1.754-6.892.339-12.145 4.667z" fill="#b14800"/><g transform="translate(115.497)"><ellipse cx="12.484" cy="4.262" rx="12.484" ry="4.262" transform="rotate(-39.474 22.12 7.937)" fill="url(#ad)"/><path d="M15.145 14.626c-5.466 4.5-10.976 6.534-12.547 4.628s1.483-6.927 6.947-11.428 10.977-6.534 12.548-4.627-1.482 6.926-6.948 11.427zM9.727 8.047c-5.252 4.326-8.351 9.272-6.907 11.026s6.892-.34 12.145-4.666 8.352-9.272 6.907-11.025-6.892.337-12.145 4.665z" fill="#ffe576"/></g><path d="M67.213 8.143c-1.824-1.26-6.947.8-11.891 4.872s-7.947 8.7-7.06 10.736z" transform="translate(69.825 -5.06)" fill="url(#ae)"/><path d="M125.495 8.375c-4.492 3.7-7.1 7.959-5.817 9.512.484.587 1.453.7 2.714.422a2.226 2.226 0 01-2.135-.468c-1.207-1.464 1.293-5.515 5.583-9.048s8.744-5.209 9.95-3.745a2.228 2.228 0 01.049 2.188c.518-1.185.591-2.159.107-2.747-1.279-1.552-5.959.186-10.451 3.886z" fill="#dd6200"/><path d="M119.769 17.879a1.674 1.674 0 00.193.178 1.556 1.556 0 00.67.29 5.287 5.287 0 002.579-.352 17.547 17.547 0 003.347-1.624 28.444 28.444 0 003.48-2.483 28.48 28.48 0 003.106-2.941 17.642 17.642 0 002.23-2.976 5.3 5.3 0 00.84-2.464 1.539 1.539 0 00-.156-.713.927.927 0 00-.1-.168l-.037-.056.04.055a.954.954 0 01.107.164 1.583 1.583 0 01.187.717 5.19 5.19 0 01-.762 2.53 16.706 16.706 0 01-2.195 3.052 28.614 28.614 0 01-3.108 2.983 28.67 28.67 0 01-3.527 2.478 16.724 16.724 0 01-3.416 1.568 5.18 5.18 0 01-2.629.264 1.58 1.58 0 01-.668-.32 1.006 1.006 0 01-.14-.136z" fill="#ffb129"/><path d="M130.888 14.092a2.573 2.573 0 00-.458.283.3.3 0 10.367.467 2.905 2.905 0 00.4-.445c.148-.2-.131-.389-.309-.305zm-5.736-6.515a.358.358 0 00-.256.076.327.327 0 10.4.512.429.429 0 00.1-.112s.089-.24.031-.123a.245.245 0 00-.275-.353z" fill="#fff"/><path d="M211.4 46a20.073 20.073 0 014.2.5 11.768 11.768 0 013.8 1.6 7.6 7.6 0 012.8 3.1 8.039 8.039 0 01.9 2.6 2.476 2.476 0 011.1 2.1V59a2.3 2.3 0 01-.4 1.4 2.3 2.3 0 01.4 1.4v3.1a2.462 2.462 0 01-1 2V72a2.4 2.4 0 01-1.4 2.2 12.939 12.939 0 01-3.8 1.2 22.25 22.25 0 01-8.4 0 11.1 11.1 0 01-3.9-1.6 8.632 8.632 0 01-2.9-3.1 9.292 9.292 0 01-.5-1v8.8a28.2 28.2 0 01-.9 7.1 14.468 14.468 0 01-3 5.6c-2.7 3.1-6.8 4.7-12.2 4.7-5.3 0-9.3-1.5-12.1-4.5a14.673 14.673 0 01-3.1-5.6 25.726 25.726 0 01-1-7.3V66.1c0-5.4 1.4-9.6 4.1-12.5 2.8-2.9 6.8-4.4 12.1-4.4 5.4 0 9.4 1.5 12.2 4.5a15.646 15.646 0 012.3 3.4v-1.2a2.49 2.49 0 012.2-2.5v-4a2.373 2.373 0 011.6-2.3 11.561 11.561 0 013.2-.8 23.079 23.079 0 013.7-.3zm7.1 10.8a2.92 2.92 0 01-.2-.9v-.2a4.477 4.477 0 00-.4-2 3.483 3.483 0 00-1.3-1.4c-.1-.1-.2-.1-.3-.2a5.548 5.548 0 01.6.8 4.514 4.514 0 01.7 2.5 2.768 2.768 0 01-.1.9 2.489 2.489 0 01-2.5 2.1h-1.2v.2a2.452 2.452 0 01-1.6 2.8 15.079 15.079 0 00-2.6 1.2 1.949 1.949 0 01.8-.1h3.1v-.1a2.433 2.433 0 011.4-2.8 6.3 6.3 0 002.6-2 5.769 5.769 0 011-.8zm-32.2 34.3c4 0 6.7-1 8.5-3 1.8-2.1 2.7-5.3 2.7-9.5V66.1c0-4.1-.9-7.1-2.7-9.1-1.7-1.9-4.6-2.9-8.5-2.9-3.8 0-6.6.9-8.4 2.9-1.8 1.9-2.8 5-2.8 9.1v12.6c0 4.3.9 7.5 2.8 9.5 1.8 2 4.5 2.9 8.4 2.9zM209 70a10.625 10.625 0 01-.9-1.1 4.751 4.751 0 01-.6-2.4 5.291 5.291 0 01.9-3 1.38 1.38 0 01.3-.4 2.652 2.652 0 00-.6.5 3.1 3.1 0 01-1.3.6 4.1 4.1 0 01.1 1.1c0 .3-.1.6-.1.9a4.193 4.193 0 00.5 2.2 3.25 3.25 0 001.3 1.3 1.38 1.38 0 00.4.3zM39.7 49.1c5.4 0 9.4 1.5 12.2 4.5 2.7 2.9 4 7.1 4 12.5v12.6a28.2 28.2 0 01-.9 7.1 14.468 14.468 0 01-3 5.6c-2.7 3.1-6.8 4.7-12.2 4.7-5.3 0-9.3-1.5-12.1-4.5a12.835 12.835 0 01-3.3-5.6 25.726 25.726 0 01-1-7.3V66.1c0-5.4 1.4-9.6 4.1-12.5 2.9-3 7-4.5 12.2-4.5zm0 42c4 0 6.7-1 8.5-3 1.8-2.1 2.7-5.3 2.7-9.5V66.1c0-4.1-.9-7.1-2.7-9.1-1.7-1.9-4.6-2.9-8.5-2.9-3.8 0-6.6.9-8.4 2.9s-2.8 5-2.8 9.1v12.6c0 4.3.9 7.5 2.8 9.5 1.8 2 4.5 2.9 8.4 2.9zm33.2-42c5.4 0 9.4 1.5 12.2 4.5 2.7 2.9 4 7.1 4 12.5v12.6a28.2 28.2 0 01-.9 7.1 14.468 14.468 0 01-3 5.6c-2.7 3.1-6.8 4.7-12.2 4.7-5.3 0-9.3-1.5-12.1-4.5a13.662 13.662 0 01-3.2-5.6 25.726 25.726 0 01-1-7.3V66.1c0-5.4 1.4-9.6 4.1-12.5 2.9-3 6.9-4.5 12.1-4.5zm0 42c4 0 6.7-1 8.5-3 1.8-2.1 2.7-5.3 2.7-9.5V66.1c0-4.1-.9-7.1-2.7-9.1-1.7-1.9-4.6-2.9-8.5-2.9-3.8 0-6.6.9-8.4 2.9-1.8 1.9-2.8 5-2.8 9.1v12.6c0 4.3.9 7.5 2.8 9.5 1.8 2 4.6 2.9 8.4 2.9zm46.8-42c5.4 0 9.4 1.5 12.2 4.5 2.7 2.9 4 7.1 4 12.5v12.6a28.2 28.2 0 01-.9 7.1 14.468 14.468 0 01-3 5.6c-2.7 3.1-6.8 4.7-12.2 4.7-5.3 0-9.3-1.5-12.1-4.5a14.673 14.673 0 01-3.1-5.6 25.726 25.726 0 01-1-7.3V66.1c0-5.4 1.4-9.6 4.1-12.5q4.2-4.5 12-4.5zm0 42c4 0 6.7-1 8.5-3 1.8-2.1 2.7-5.3 2.7-9.5V66.1c0-4.1-.9-7.1-2.7-9.1-1.7-1.9-4.6-2.9-8.5-2.9-3.8 0-6.6.9-8.4 2.9-1.8 1.9-2.8 5-2.8 9.1v12.6c0 4.3.9 7.5 2.8 9.5 1.8 2 4.6 2.9 8.4 2.9zm33.3-42c5.4 0 9.4 1.5 12.2 4.5 2.7 2.9 4 7.1 4 12.5v12.6a28.2 28.2 0 01-.9 7.1 14.468 14.468 0 01-3 5.6c-2.7 3.1-6.8 4.7-12.2 4.7-5.3 0-9.3-1.5-12.1-4.5a14.673 14.673 0 01-3.1-5.6 25.726 25.726 0 01-1-7.3V66.1c0-5.4 1.4-9.6 4.1-12.5 2.7-3 6.8-4.5 12-4.5zm0 42c4 0 6.7-1 8.5-3 1.8-2.1 2.7-5.3 2.7-9.5V66.1c0-4.1-.9-7.1-2.7-9.1-1.7-1.9-4.6-2.9-8.5-2.9-3.8 0-6.6.9-8.4 2.9-1.8 1.9-2.8 5-2.8 9.1v12.6c0 4.3.9 7.5 2.8 9.5 1.8 2 4.5 2.9 8.4 2.9zM11.2 49.8h7.7a2.476 2.476 0 012.5 2.5V93a2.476 2.476 0 01-2.5 2.5h-7.7A2.476 2.476 0 018.7 93V64.7l-4.9 2.8a2.754 2.754 0 01-2.5 0A2.485 2.485 0 010 65.3v-8a2.748 2.748 0 011.2-2.2L9.9 50a5.067 5.067 0 011.3-.2zm5.2 5h-4.5L5 58.9v2.2l4.9-2.8a2.754 2.754 0 012.5 0 2.485 2.485 0 011.3 2.2v30.1h2.7zm23.3 1.1c4.1 0 6 1.9 6.9 3.6a15.854 15.854 0 011.5 7.7v10.9a28.279 28.279 0 01-.3 4.1 10.923 10.923 0 01-1.2 3.6 7.524 7.524 0 01-2.8 2.8 9.782 9.782 0 01-4.1.9c-4.1 0-6-2-6.9-3.7a15.634 15.634 0 01-1.5-7.7V67.2a28.279 28.279 0 01.3-4.1 10.923 10.923 0 011.2-3.6 7.266 7.266 0 012.8-2.7 9.145 9.145 0 014.1-.9zm0 28.5a5.663 5.663 0 001.8-.3 2.047 2.047 0 00.8-.8 6.971 6.971 0 00.6-1.9 18.287 18.287 0 00.2-3.3V67.2a12.111 12.111 0 00-.9-5.3c-.1-.3-.5-1-2.5-1a4.671 4.671 0 00-1.7.3 3.044 3.044 0 00-.8.8 6.033 6.033 0 00-.6 1.9 18.287 18.287 0 00-.2 3.3v10.9a11.87 11.87 0 00.9 5.3c.1.3.5 1 2.4 1zm33.2-28.5c4.1 0 6 1.9 6.9 3.6a15.854 15.854 0 011.5 7.7v10.9a28.278 28.278 0 01-.3 4.1 10.923 10.923 0 01-1.2 3.6 7.524 7.524 0 01-2.8 2.8 9.782 9.782 0 01-4.1.9c-4.1 0-6-2-6.9-3.7a15.634 15.634 0 01-1.5-7.7V67.2a28.279 28.279 0 01.3-4.1 10.923 10.923 0 011.2-3.6 7.266 7.266 0 012.8-2.7 9.782 9.782 0 014.1-.9zm0 28.5a5.663 5.663 0 001.8-.3 2.047 2.047 0 00.8-.8 6.971 6.971 0 00.6-1.9 18.288 18.288 0 00.2-3.3V67.2a12.111 12.111 0 00-.9-5.3c-.1-.3-.5-1-2.5-1a4.671 4.671 0 00-1.7.3 3.044 3.044 0 00-.8.8 6.033 6.033 0 00-.6 1.9 18.288 18.288 0 00-.2 3.3v10.9a11.87 11.87 0 00.9 5.3c.2.3.5 1 2.4 1zm46.8-28.5c4.1 0 6 1.9 6.9 3.6a15.854 15.854 0 011.5 7.7v10.9a28.28 28.28 0 01-.3 4.1 10.923 10.923 0 01-1.2 3.6 7.524 7.524 0 01-2.8 2.8 9.782 9.782 0 01-4.1.9c-4.1 0-6-2-6.9-3.7a15.634 15.634 0 01-1.5-7.7V67.2a28.279 28.279 0 01.3-4.1 10.923 10.923 0 011.2-3.6 7.266 7.266 0 012.8-2.7 9.782 9.782 0 014.1-.9zm0 28.5a5.663 5.663 0 001.8-.3 2.047 2.047 0 00.8-.8 6.971 6.971 0 00.6-1.9 18.288 18.288 0 00.2-3.3V67.2a12.111 12.111 0 00-.9-5.3c-.1-.3-.5-1-2.5-1a4.671 4.671 0 00-1.7.3 3.044 3.044 0 00-.8.8 6.033 6.033 0 00-.6 1.9 18.288 18.288 0 00-.2 3.3v10.9a11.87 11.87 0 00.9 5.3c.1.3.5 1 2.4 1zM153 55.9c4.1 0 6 1.9 6.9 3.6a15.854 15.854 0 011.5 7.7v10.9a28.28 28.28 0 01-.3 4.1 10.924 10.924 0 01-1.2 3.6 7.524 7.524 0 01-2.8 2.8 9.782 9.782 0 01-4.1.9c-4.1 0-6-2-6.9-3.7a15.634 15.634 0 01-1.5-7.7V67.2a28.28 28.28 0 01.3-4.1 10.924 10.924 0 011.2-3.6 7.266 7.266 0 012.8-2.7 9.782 9.782 0 014.1-.9zm0 28.5a5.663 5.663 0 001.8-.3 2.047 2.047 0 00.8-.8 6.971 6.971 0 00.6-1.9 18.288 18.288 0 00.2-3.3V67.2a12.111 12.111 0 00-.9-5.3c-.1-.3-.5-1-2.5-1a4.671 4.671 0 00-1.7.3 3.043 3.043 0 00-.8.8 6.033 6.033 0 00-.6 1.9 18.288 18.288 0 00-.2 3.3v10.9a11.87 11.87 0 00.9 5.3c.1.3.5 1 2.4 1zm33.3-28.5c4.1 0 6 1.9 6.9 3.6a15.854 15.854 0 011.5 7.7v10.9a28.28 28.28 0 01-.3 4.1 10.924 10.924 0 01-1.2 3.6 7.524 7.524 0 01-2.8 2.8 9.782 9.782 0 01-4.1.9c-4.1 0-6-2-6.9-3.7a15.634 15.634 0 01-1.5-7.7V67.2a28.28 28.28 0 01.3-4.1 10.924 10.924 0 011.2-3.6 7.266 7.266 0 012.8-2.7 9.455 9.455 0 014.1-.9zm0 28.5a5.663 5.663 0 001.8-.3 2.047 2.047 0 00.8-.8 6.971 6.971 0 00.6-1.9 18.288 18.288 0 00.2-3.3V67.2a12.111 12.111 0 00-.9-5.3c-.1-.3-.5-1-2.5-1a4.671 4.671 0 00-1.7.3 3.043 3.043 0 00-.8.8 6.033 6.033 0 00-.6 1.9 18.288 18.288 0 00-.2 3.3v10.9a11.87 11.87 0 00.9 5.3c.1.3.5 1 2.4 1z" fill="#fdbf00"/><path d="M2.5 65.4v-8l8.7-5.1h7.7V93h-7.7V60.4zm37.2 28.3c-9.1 0-13.7-5-13.7-14.9V66.1c0-4.8 1.2-8.4 3.5-10.8s5.7-3.7 10.2-3.7c4.6 0 8.1 1.2 10.3 3.7s3.4 6 3.4 10.8v12.6q0 7.2-3.3 11.1c-2.3 2.6-5.7 3.9-10.4 3.9zm0-6.8a6.679 6.679 0 003-.6 3.924 3.924 0 001.8-1.8 10.237 10.237 0 00.9-2.8 20.519 20.519 0 00.3-3.7V67.2a14.2 14.2 0 00-1.2-6.5c-.8-1.5-2.4-2.3-4.7-2.3a5.961 5.961 0 00-2.9.6 4.237 4.237 0 00-1.8 1.7 9.508 9.508 0 00-.9 2.7 20.519 20.519 0 00-.3 3.7V78a14.2 14.2 0 001.2 6.5c.7 1.6 2.3 2.4 4.6 2.4zm33.2 6.8c-9.1 0-13.7-5-13.7-14.9V66.1c0-4.8 1.2-8.4 3.5-10.8s5.7-3.7 10.2-3.7c4.6 0 8.1 1.2 10.3 3.7s3.4 6 3.4 10.8v12.6q0 7.2-3.3 11.1c-2.2 2.6-5.7 3.9-10.4 3.9zm0-6.8a6.679 6.679 0 003-.6 3.924 3.924 0 001.8-1.8 10.237 10.237 0 00.9-2.8 20.519 20.519 0 00.3-3.7V67.2a14.2 14.2 0 00-1.2-6.5c-.8-1.5-2.4-2.3-4.7-2.3a5.961 5.961 0 00-2.9.6 4.237 4.237 0 00-1.8 1.7 9.508 9.508 0 00-.9 2.7 20.519 20.519 0 00-.3 3.7V78a14.2 14.2 0 001.2 6.5c.8 1.6 2.4 2.4 4.6 2.4zm46.8 6.8c-9.1 0-13.7-5-13.7-14.9V66.1c0-4.8 1.2-8.4 3.5-10.8s5.7-3.7 10.2-3.7c4.6 0 8.1 1.2 10.3 3.7s3.4 6 3.4 10.8v12.6q0 7.2-3.3 11.1c-2.2 2.6-5.7 3.9-10.4 3.9zm0-6.8a6.679 6.679 0 003-.6 3.924 3.924 0 001.8-1.8 10.237 10.237 0 00.9-2.8 20.519 20.519 0 00.3-3.7V67.2a14.2 14.2 0 00-1.2-6.5c-.8-1.5-2.4-2.3-4.7-2.3a5.961 5.961 0 00-2.9.6 4.237 4.237 0 00-1.8 1.7 9.508 9.508 0 00-.9 2.7 20.519 20.519 0 00-.3 3.7V78a14.2 14.2 0 001.2 6.5c.8 1.6 2.3 2.4 4.6 2.4zm33.3 6.8c-9.1 0-13.7-5-13.7-14.9V66.1c0-4.8 1.2-8.4 3.5-10.8s5.7-3.7 10.2-3.7c4.6 0 8.1 1.2 10.3 3.7s3.4 6 3.4 10.8v12.6q0 7.2-3.3 11.1c-2.3 2.6-5.7 3.9-10.4 3.9zm0-6.8a6.679 6.679 0 003-.6 3.924 3.924 0 001.8-1.8 10.237 10.237 0 00.9-2.8 20.519 20.519 0 00.3-3.7V67.2a14.2 14.2 0 00-1.2-6.5c-.8-1.5-2.4-2.3-4.7-2.3a5.96 5.96 0 00-2.9.6 4.237 4.237 0 00-1.8 1.7 9.508 9.508 0 00-.9 2.7 20.519 20.519 0 00-.3 3.7V78a14.2 14.2 0 001.2 6.5c.8 1.6 2.3 2.4 4.6 2.4zm33.3 6.8c-9.1 0-13.7-5-13.7-14.9V66.1c0-4.8 1.2-8.4 3.5-10.8s5.7-3.7 10.2-3.7c4.6 0 8.1 1.2 10.3 3.7s3.4 6 3.4 10.8v12.6q0 7.2-3.3 11.1c-2.3 2.6-5.7 3.9-10.4 3.9zm0-6.8a6.679 6.679 0 003-.6 3.924 3.924 0 001.8-1.8 10.237 10.237 0 00.9-2.8 20.519 20.519 0 00.3-3.7V67.2a14.2 14.2 0 00-1.2-6.5c-.8-1.5-2.4-2.3-4.7-2.3a5.96 5.96 0 00-2.9.6 4.237 4.237 0 00-1.8 1.7 9.508 9.508 0 00-.9 2.7 20.519 20.519 0 00-.3 3.7V78a14.2 14.2 0 001.2 6.5c.7 1.6 2.3 2.4 4.6 2.4zm35.3-30.7v3.1h-2.2a8.551 8.551 0 01-3.6 2.7h5.7v3.1h-11.1a2.7 2.7 0 00-.5 1.6 1.8 1.8 0 00.3 1.1 2.047 2.047 0 00.8.8 3.922 3.922 0 001.3.5 8.969 8.969 0 001.8.2 10.733 10.733 0 003.5-.6 11.368 11.368 0 003.2-1.8v5.4a12.541 12.541 0 01-3.1 1 23.4 23.4 0 01-3.8.3 15 15 0 01-3.7-.4 9.55 9.55 0 01-3.1-1.2 6.3 6.3 0 01-2.1-2.2 6.835 6.835 0 01-.8-3.4 5.283 5.283 0 01.1-1.3h-1.2V62h3.3a12.157 12.157 0 011.9-1.3 15.05 15.05 0 013.1-1.4h-8.3v-3.1H215v-.5a2.133 2.133 0 00-.3-1.2 3.043 3.043 0 00-.8-.8 3.922 3.922 0 00-1.3-.5 8.807 8.807 0 00-1.7-.2 7.084 7.084 0 00-1.4.1l-1.5.3a8.8 8.8 0 00-1.5.5c-.5.2-.9.5-1.3.7v-5a17.634 17.634 0 012.7-.7 17.216 17.216 0 013.3-.2 13.7 13.7 0 013.6.4 10.108 10.108 0 013 1.3 6.3 6.3 0 012.1 2.2 6.6 6.6 0 01.8 3.2v.2h.9z" fill="#fff"/></svg>