<svg version="1.1" id="Слой_1" xmlns="http://www.w3.org/2000/svg" x="0" y="0" viewBox="0 0 224.2 129.8" xml:space="preserve"><style>.st0{enable-background:new}.st1{fill:#fdbf00}.st2{fill:#fff}.st4{fill:#ea7800}.st6{fill:#ffe576}.st7{fill:#ffb900}.st9{fill:#a63000}.st12{fill:#dd6200}.st13{fill:#ffb129}.st20{fill:#b62b00}.st21{fill:#ffb81b}.st28{fill:#ad4900}.st35{fill:#b14800}</style><g id="Babki" transform="translate(14.199)"><g class="st0"><path class="st1" d="M-1.5 89.1c-4.6 0-8.5-.7-11.7-2.1-.6-.3-1-.9-1-1.6v-8.5c0-.6.3-1.2.9-1.5.5-.3 1.2-.3 1.7 0 2.8 1.7 5.8 2.6 9 2.6 2.2 0 3.9-.5 5.1-1.5 1.1-.9 1.6-2.2 1.6-3.8 0-2.3-.9-5-7.8-5-2.3 0-4.9.2-7.9.5-.5.1-1-.1-1.4-.5-.4-.3-.6-.8-.5-1.3l1.7-25.3c.1-.9.8-1.6 1.7-1.6h24c.9 0 1.7.8 1.7 1.7v8.2c0 .9-.8 1.7-1.7 1.7H-.9l-.4 5.5c.9 0 1.7-.1 2.4-.1 5.1 0 9.2 1.4 12.1 4.1 3 2.8 4.5 6.5 4.5 11.1 0 5.1-1.8 9.2-5.3 12.5-3.4 3.3-8.1 4.9-13.9 4.9zm-9.3-4.8c2.6.9 5.7 1.4 9.3 1.4 4.9 0 8.8-1.3 11.6-3.9 2.8-2.6 4.2-5.8 4.2-10 0-3.7-1.1-6.5-3.4-8.6C8.6 61.1 5.3 60 1.1 60c-1.1 0-2.5.1-4.1.2-.5 0-1-.1-1.3-.5-.4-.3-.5-.8-.5-1.3l.6-9.1c.1-.9.8-1.6 1.7-1.6h14.7v-4.8H-8.5L-10 64.6c2.3-.2 4.4-.3 6.3-.3 9.3 0 11.2 4.6 11.2 8.4 0 2.7-1 4.8-2.8 6.4-1.8 1.5-4.2 2.3-7.3 2.3-2.8 0-5.6-.6-8.2-1.7v4.6zm49.5 4.8c-11.9 0-17.9-8.2-17.9-24.5 0-8.2 1.6-14.6 4.7-19 3.2-4.6 8-6.9 14.1-6.9 11.6 0 17.5 8.4 17.5 24.8 0 8-1.6 14.3-4.6 18.6-3.3 4.7-7.9 7-13.8 7zm.8-46.9c-5 0-8.7 1.8-11.3 5.5-2.7 3.8-4.1 9.5-4.1 17 0 14.2 4.7 21 14.5 21 4.8 0 8.4-1.8 11-5.4 2.7-3.8 4-9.4 4-16.7.1-14.4-4.6-21.4-14.1-21.4zM39 81.4c-8.1 0-8.1-12.8-8.1-17 0-4.5 0-18 8.2-18 7.8 0 7.8 13.2 7.8 17.5s0 17.5-7.9 17.5zm.1-31.6c-4.2 0-4.8 9.1-4.8 14.6 0 6.2.8 13.6 4.7 13.6 3.9 0 4.5-8.8 4.5-14.1 0-9.1-1.6-14.1-4.4-14.1zm54.7 39.3c-11.9 0-17.9-8.2-17.9-24.5 0-8.2 1.6-14.6 4.7-19 3.2-4.6 8-6.9 14.1-6.9 11.6 0 17.5 8.4 17.5 24.8 0 8-1.6 14.3-4.6 18.6-3.2 4.7-7.9 7-13.8 7zm.9-46.9c-5 0-8.7 1.8-11.3 5.5-2.7 3.8-4.1 9.5-4.1 17 0 14.2 4.7 21 14.5 21 4.8 0 8.4-1.8 11-5.4 2.7-3.8 4-9.4 4-16.7 0-14.4-4.6-21.4-14.1-21.4zm-.6 39.2c-8.1 0-8.1-12.8-8.1-17 0-4.5 0-18 8.2-18 7.8 0 7.8 13.2 7.8 17.5s0 17.5-7.9 17.5zm.1-31.6c-4.2 0-4.8 9.1-4.8 14.6 0 6.2.8 13.6 4.7 13.6 3.9 0 4.5-8.8 4.5-14.1 0-9.1-1.5-14.1-4.4-14.1zm36.9 39.3c-11.9 0-17.9-8.2-17.9-24.5 0-8.2 1.6-14.6 4.7-19 3.2-4.6 8-6.9 14.1-6.9 11.6 0 17.5 8.4 17.5 24.8 0 8-1.6 14.3-4.6 18.6-3.3 4.7-7.9 7-13.8 7zm.9-46.9c-5 0-8.7 1.8-11.3 5.5-2.7 3.8-4.1 9.5-4.1 17 0 14.2 4.7 21 14.5 21 4.8 0 8.4-1.8 11-5.4 2.7-3.8 4-9.4 4-16.7 0-14.4-4.6-21.4-14.1-21.4zm-.6 39.2c-8.1 0-8.1-12.8-8.1-17 0-4.5 0-18 8.2-18 7.8 0 7.8 13.2 7.8 17.5s0 17.5-7.9 17.5zm.1-31.6c-4.2 0-4.8 9.1-4.8 14.6 0 6.2.8 13.6 4.7 13.6 3.9 0 4.5-8.8 4.5-14.1 0-9.1-1.6-14.1-4.4-14.1zm36.8 39.3c-11.9 0-17.9-8.2-17.9-24.5 0-8.2 1.6-14.6 4.7-19 3.2-4.6 8-6.9 14.1-6.9 11.6 0 17.5 8.4 17.5 24.8 0 8-1.6 14.3-4.6 18.6-3.2 4.7-7.8 7-13.8 7zm.9-46.9c-5 0-8.7 1.8-11.3 5.5-2.7 3.8-4.1 9.5-4.1 17 0 14.2 4.7 21 14.5 21 4.8 0 8.4-1.8 11-5.4 2.7-3.8 4-9.4 4-16.7 0-14.4-4.6-21.4-14.1-21.4zm-.5 39.2c-8.1 0-8.1-12.8-8.1-17 0-4.5 0-18 8.2-18 7.8 0 7.8 13.2 7.8 17.5s0 17.5-7.9 17.5zm.1-31.6c-4.2 0-4.8 9.1-4.8 14.6 0 6.2.8 13.6 4.7 13.6 3.9 0 4.5-8.8 4.5-14.1-.1-9.1-1.6-14.1-4.4-14.1z"/></g><g class="st0"><path class="st1" d="M199.6 67.2c-1.5 0-3-.1-4.4-.4-1.5-.3-2.8-.8-3.9-1.6-1.2-.8-2.1-1.8-2.8-3-.7-1.2-1-2.7-1.1-4.4-.7-.2-1.2-.9-1.2-1.6v-3.5c0-.7.4-1.2.9-1.5-.5-.3-.9-.9-.9-1.5v-3.5c0-.9.8-1.7 1.7-1.7h.7v-5.4c0-.7.4-1.3 1.1-1.6 1-.4 2.1-.7 3.3-.9 1.1-.2 2.5-.3 3.9-.3 1.5 0 3 .2 4.4.5 1.4.3 2.7.9 3.9 1.7 1.2.8 2.1 1.8 2.8 3 .5.9.8 1.9 1 3 .7.2 1.1.9 1.1 1.6v3.5c0 .7-.4 1.2-.9 1.5.5.3.9.9.9 1.5v3.5c0 .8-.5 1.4-1.2 1.6V64c0 .6-.4 1.2-.9 1.5-1.1.6-2.4 1-3.9 1.3-1.4.2-2.9.4-4.5.4zm-10-12.7c.4.1.7.3.9.6.3.4.5.9.4 1.4-.1.3-.1.7-.1 1.2 0 1.2.2 2.1.6 2.9.4.8 1 1.4 1.7 1.8.8.5 1.7.9 2.8 1.1 2.4.5 5.1.5 7.5 0 .7-.1 1.4-.3 2-.5v-1.7c-.4.2-.8.4-1.2.5-1.4.5-2.9.8-4.4.8-.9 0-1.7-.1-2.4-.3-.7-.2-1.4-.4-1.9-.8-.6-.4-1.1-.9-1.4-1.4-.3-.6-.5-1.3-.5-2.1 0-.9.3-1.8.9-2.7.3-.5.9-.8 1.4-.8h10.6-4.5c-.8 0-1.5-.6-1.7-1.3-.2-.8.2-1.6 1-1.9 1.4-.7 2.5-1.5 3.3-2.5.3-.4.8-.7 1.4-.7h.7v-.2c-.6-.3-1-.9-1-1.6V46c0-1.1-.2-2-.6-2.7-.4-.8-1-1.4-1.7-1.9-.8-.5-1.7-.9-2.8-1.2-1.1-.3-2.3-.4-3.6-.4-1.3 0-2.4.1-3.4.2l-1.5.3v1.5l.9-.3c.6-.2 1.3-.3 1.9-.4 1.5-.2 2.9-.2 4 .1.7.2 1.4.4 1.9.8.6.4 1.1.8 1.4 1.4.4.6.6 1.3.6 2.2 0 .3 0 .5-.1.8-.1.8-.8 1.5-1.7 1.5h-11.4 7.4c.8 0 1.5.6 1.7 1.4.2.8-.3 1.6-1.1 1.9-1.2.5-2.3 1-3.1 1.4-1 .6-1.6 1-1.8 1.2-.3.3-.7.4-1.1.4l-2 .3zm7.5 3.3v.1c0 .3.1.4.1.4 0 .1.1.2.3.3.2.1.5.3.9.3.4.1 1 .2 1.6.2 1.1 0 2.2-.2 3.2-.6.5-.2 1-.4 1.5-.7h-7.6zm-.8-13.3h.5-.5z"/></g><g class="st0"><path class="st2" d="M-12.5 85.4v-8.5c3.1 1.9 6.4 2.8 9.9 2.8 2.6 0 4.7-.6 6.2-1.9 1.5-1.3 2.2-3 2.2-5.1 0-4.5-3.2-6.7-9.5-6.7-2.3 0-5 .2-8.1.5l1.7-25.3h24v8.2H-2.5l-.6 9.1c1.6-.1 3-.2 4.2-.2 4.7 0 8.3 1.2 10.9 3.7 2.6 2.4 4 5.7 4 9.9 0 4.6-1.6 8.3-4.7 11.2-3.1 2.9-7.4 4.4-12.8 4.4-4.4-.1-8-.8-11-2.1zm51.2 2c-10.8 0-16.2-7.6-16.2-22.7 0-7.9 1.5-13.9 4.4-18 2.9-4.1 7.2-6.2 12.7-6.2 10.5 0 15.8 7.7 15.8 23.1 0 7.7-1.4 13.6-4.3 17.7-2.9 4-7.1 6.1-12.4 6.1zm.4-39.3c-4.3 0-6.5 5.4-6.5 16.3 0 10.2 2.1 15.3 6.4 15.3 4.1 0 6.2-5.3 6.2-15.8s-2-15.8-6.1-15.8zm54.7 39.3c-10.8 0-16.2-7.6-16.2-22.7 0-7.9 1.5-13.9 4.4-18 2.9-4.1 7.2-6.2 12.7-6.2 10.5 0 15.8 7.7 15.8 23.1 0 7.7-1.4 13.6-4.3 17.7-2.9 4-7 6.1-12.4 6.1zm.4-39.3c-4.3 0-6.5 5.4-6.5 16.3 0 10.2 2.1 15.3 6.4 15.3 4.1 0 6.2-5.3 6.2-15.8s-2-15.8-6.1-15.8zm36.9 39.3c-10.8 0-16.2-7.6-16.2-22.7 0-7.9 1.5-13.9 4.4-18 2.9-4.1 7.2-6.2 12.7-6.2 10.5 0 15.8 7.7 15.8 23.1 0 7.7-1.4 13.6-4.3 17.7-2.9 4-7.1 6.1-12.4 6.1zm.4-39.3c-4.3 0-6.5 5.4-6.5 16.3 0 10.2 2.1 15.3 6.4 15.3 4.1 0 6.2-5.3 6.2-15.8s-2-15.8-6.1-15.8zm36.8 39.3c-10.8 0-16.2-7.6-16.2-22.7 0-7.9 1.5-13.9 4.4-18 2.9-4.1 7.2-6.2 12.7-6.2 10.5 0 15.8 7.7 15.8 23.1 0 7.7-1.4 13.6-4.3 17.7-2.9 4-7 6.1-12.4 6.1zm.5-39.3c-4.3 0-6.5 5.4-6.5 16.3 0 10.2 2.1 15.3 6.4 15.3 4.1 0 6.2-5.3 6.2-15.8s-2.1-15.8-6.1-15.8z"/></g><g class="st0"><path class="st2" d="M208.3 46.2v3.5h-2.4c-.9 1.2-2.2 2.2-3.9 3h6.3v3.5H196c-.4.6-.6 1.2-.6 1.8 0 .5.1.9.3 1.2.2.3.5.6.8.8.4.2.8.4 1.4.6.6.1 1.2.2 2 .2 1.3 0 2.5-.2 3.8-.7 1.3-.4 2.4-1.1 3.5-2V64c-1 .5-2.1.9-3.4 1.1-1.3.2-2.7.4-4.1.4-1.4 0-2.8-.1-4-.4-1.3-.3-2.4-.7-3.3-1.3-1-.6-1.7-1.4-2.3-2.4-.6-1-.8-2.2-.8-3.7 0-.5 0-1 .1-1.5h-1.3v-3.5h3.6c.5-.4 1.2-.9 2.1-1.4.9-.5 2-1.1 3.3-1.6H188v-3.5h13v-.6c0-.5-.1-1-.3-1.3-.2-.3-.5-.6-.9-.8-.4-.2-.8-.4-1.4-.5s-1.2-.2-1.8-.2c-.5 0-1 0-1.6.1-.5.1-1.1.2-1.7.3-.6.2-1.1.3-1.6.6-.5.2-1 .5-1.4.8v-5.5c.9-.3 1.9-.6 2.9-.8 1.1-.2 2.3-.2 3.7-.2 1.4 0 2.7.2 4 .5s2.4.8 3.3 1.4c1 .6 1.7 1.5 2.3 2.4.6 1 .8 2.2.8 3.6v.2h1z"/></g><g class="st0"><path class="st2" d="M-12.5 85.4v-8.5c3.1 1.9 6.4 2.8 9.9 2.8 2.6 0 4.7-.6 6.2-1.9 1.5-1.3 2.2-3 2.2-5.1 0-4.5-3.2-6.7-9.5-6.7-2.3 0-5 .2-8.1.5l1.7-25.3h24v8.2H-2.5l-.6 9.1c1.6-.1 3-.2 4.2-.2 4.7 0 8.3 1.2 10.9 3.7 2.6 2.4 4 5.7 4 9.9 0 4.6-1.6 8.3-4.7 11.2-3.1 2.9-7.4 4.4-12.8 4.4-4.4-.1-8-.8-11-2.1zm51.2 2c-10.8 0-16.2-7.6-16.2-22.7 0-7.9 1.5-13.9 4.4-18 2.9-4.1 7.2-6.2 12.7-6.2 10.5 0 15.8 7.7 15.8 23.1 0 7.7-1.4 13.6-4.3 17.7-2.9 4-7.1 6.1-12.4 6.1zm.4-39.3c-4.3 0-6.5 5.4-6.5 16.3 0 10.2 2.1 15.3 6.4 15.3 4.1 0 6.2-5.3 6.2-15.8s-2-15.8-6.1-15.8zm54.7 39.3c-10.8 0-16.2-7.6-16.2-22.7 0-7.9 1.5-13.9 4.4-18 2.9-4.1 7.2-6.2 12.7-6.2 10.5 0 15.8 7.7 15.8 23.1 0 7.7-1.4 13.6-4.3 17.7-2.9 4-7 6.1-12.4 6.1zm.4-39.3c-4.3 0-6.5 5.4-6.5 16.3 0 10.2 2.1 15.3 6.4 15.3 4.1 0 6.2-5.3 6.2-15.8s-2-15.8-6.1-15.8zm36.9 39.3c-10.8 0-16.2-7.6-16.2-22.7 0-7.9 1.5-13.9 4.4-18 2.9-4.1 7.2-6.2 12.7-6.2 10.5 0 15.8 7.7 15.8 23.1 0 7.7-1.4 13.6-4.3 17.7-2.9 4-7.1 6.1-12.4 6.1zm.4-39.3c-4.3 0-6.5 5.4-6.5 16.3 0 10.2 2.1 15.3 6.4 15.3 4.1 0 6.2-5.3 6.2-15.8s-2-15.8-6.1-15.8zm36.8 39.3c-10.8 0-16.2-7.6-16.2-22.7 0-7.9 1.5-13.9 4.4-18 2.9-4.1 7.2-6.2 12.7-6.2 10.5 0 15.8 7.7 15.8 23.1 0 7.7-1.4 13.6-4.3 17.7-2.9 4-7 6.1-12.4 6.1zm.5-39.3c-4.3 0-6.5 5.4-6.5 16.3 0 10.2 2.1 15.3 6.4 15.3 4.1 0 6.2-5.3 6.2-15.8s-2.1-15.8-6.1-15.8z"/></g><g class="st0"><path class="st2" d="M208.3 46.2v3.5h-2.4c-.9 1.2-2.2 2.2-3.9 3h6.3v3.5H196c-.4.6-.6 1.2-.6 1.8 0 .5.1.9.3 1.2.2.3.5.6.8.8.4.2.8.4 1.4.6.6.1 1.2.2 2 .2 1.3 0 2.5-.2 3.8-.7 1.3-.4 2.4-1.1 3.5-2V64c-1 .5-2.1.9-3.4 1.1-1.3.2-2.7.4-4.1.4-1.4 0-2.8-.1-4-.4-1.3-.3-2.4-.7-3.3-1.3-1-.6-1.7-1.4-2.3-2.4-.6-1-.8-2.2-.8-3.7 0-.5 0-1 .1-1.5h-1.3v-3.5h3.6c.5-.4 1.2-.9 2.1-1.4.9-.5 2-1.1 3.3-1.6H188v-3.5h13v-.6c0-.5-.1-1-.3-1.3-.2-.3-.5-.6-.9-.8-.4-.2-.8-.4-1.4-.5s-1.2-.2-1.8-.2c-.5 0-1 0-1.6.1-.5.1-1.1.2-1.7.3-.6.2-1.1.3-1.6.6-.5.2-1 .5-1.4.8v-5.5c.9-.3 1.9-.6 2.9-.8 1.1-.2 2.3-.2 3.7-.2 1.4 0 2.7.2 4 .5s2.4.8 3.3 1.4c1 .6 1.7 1.5 2.3 2.4.6 1 .8 2.2.8 3.6v.2h1z"/></g><g id="Сгруппировать_47" transform="translate(47.447)"><g id="Сгруппировать_10" transform="translate(110.88 145.951)"><g id="Сгруппировать_9"><g id="Сгруппировать_7" transform="translate(1.174 .525)"><linearGradient id="Контур_19_1_" gradientUnits="userSpaceOnUse" x1="-993.032" y1="439.115" x2="-992.308" y2="439.115" gradientTransform="matrix(7.3646 0 0 -9.3173 7209.125 4045.38)"><stop offset="0" stop-color="#ffa100"/><stop offset=".165" stop-color="#ffbc00"/><stop offset=".169" stop-color="#ffc833"/><stop offset=".479" stop-color="#ffe793"/><stop offset=".801" stop-color="#ffd751"/><stop offset=".805" stop-color="#ffc000"/><stop offset="1" stop-color="#ffa200"/></linearGradient><path id="Контур_19" d="M-60.9-48.8c-1 .4-1.3 2.1-.6 3.7s2 2.6 3.1 2.2l.6-.3c1-.4 1.3-2.1.6-3.7-.7-1.6-2-2.6-3.1-2.2-.1.1-.4.2-.6.3z" fill="url(#Контур_19_1_)"/><path id="Контур_20" class="st4" d="M-60.6-43.6c-.4-.4-.8-1-1-1.5-.7-1.7-.4-3.3.7-3.8.1 0 .2-.1.3-.1.1 0 .2-.1.3-.1.8-.2 1.6.1 2.1.7.4.4.8 1 1 1.5.7 1.7.4 3.3-.7 3.8-.1 0-.2.1-.3.1-.1 0-.2.1-.3.1-.7.3-1.6 0-2.1-.7zm2.4-4.7c-.5-.6-1.3-.9-2-.7-.1 0-.2.1-.3.1-.1 0-.2.1-.3.1-1 .4-1.3 2-.6 3.6.2.6.6 1.1 1 1.5.5.6 1.3.9 2 .7.1 0 .2-.1.3-.1.1 0 .2-.1.3-.1 1-.4 1.3-2 .6-3.6-.3-.6-.6-1.1-1-1.5z"/></g><g id="Сгруппировать_8"><linearGradient id="Эллипс_1_1_" gradientUnits="userSpaceOnUse" x1="-992.088" y1="488.335" x2="-992.088" y2="488.193" gradientTransform="matrix(5.4374 -2.2223 -3.5404 -8.6624 6862.743 1485.775)"><stop offset="0" stop-color="#da6400"/><stop offset="1" stop-color="#fa8900"/></linearGradient><path id="Эллипс_1" d="M-59.7-48.3c1-.4 2.4.6 3.1 2.2.7 1.6.4 3.3-.6 3.7-1 .4-2.4-.6-3.1-2.2-.7-1.6-.4-3.3.6-3.7z" fill="url(#Эллипс_1_1_)"/><path id="Контур_21" class="st6" d="M-59.4-43c-.4-.4-.8-1-1-1.5-.7-1.7-.4-3.3.7-3.8.8-.2 1.6.1 2.1.7.4.4.8 1 1 1.5.7 1.7.4 3.3-.7 3.8-.7.2-1.6-.1-2.1-.7zm1.8-4.6c-.5-.6-1.3-.9-2-.7-1 .4-1.3 2-.6 3.6.2.6.6 1.1 1 1.5.5.6 1.3.9 2 .7 1-.4 1.3-2 .6-3.6-.3-.5-.6-1-1-1.5z"/></g><path id="Контур_22" class="st7" d="M-60.1-44.7c.6 1.4 1.7 2.2 2.6 1.8.3-.2.6-.4.7-.8-.1.3-.3.5-.6.6-.8.3-1.9-.5-2.5-1.8-.5-1.3-.3-2.7.5-3 .3-.1.6-.1.9 0-.3-.2-.7-.2-1.1-.1-.8.5-1 1.9-.5 3.3z"/></g><path id="Контур_23" class="st2" d="M-56.5-45.7v-.2l-.1-.1-.1.1v.1c.1.1.1.1.2.1-.1.1 0 0 0 0z"/></g><g id="Сгруппировать_14" transform="translate(45.332 139.897)"><g id="Сгруппировать_13"><g id="Сгруппировать_11" transform="translate(1.697 .922)"><linearGradient id="Контур_24_1_" gradientUnits="userSpaceOnUse" x1="-945.296" y1="452.997" x2="-944.509" y2="452.997" gradientTransform="matrix(13.9235 0 0 -16.1992 12998.48 7296.343)"><stop offset="0" stop-color="#e06700"/><stop offset=".261" stop-color="#ca5400"/><stop offset=".261" stop-color="#ba3900"/><stop offset=".498" stop-color="#983100"/><stop offset=".743" stop-color="#ba3600"/><stop offset=".743" stop-color="#c75400"/><stop offset="1" stop-color="#e56b00"/></linearGradient><path id="Контур_24" d="M-38.5-46.9c-2.2.6-3.3 3.5-2.4 6.4s3.3 4.8 5.4 4.1l1.1-.3c2.2-.6 3.3-3.5 2.4-6.4-.8-2.9-3.3-4.8-5.4-4.1l-1.1.3z" fill="url(#Контур_24_1_)"/><path id="Контур_25" class="st9" d="M-36.3-36.2c-2 0-3.9-1.8-4.6-4.3-.8-2.9.3-5.8 2.5-6.4l1.1-.3c.3-.1.6-.1.9-.1 2 0 3.9 1.8 4.6 4.3.4 1.3.4 2.8-.1 4.1-.4 1.1-1.3 2-2.4 2.4l-1.1.3c-.3-.1-.6 0-.9 0zm-.2-11.1c-.3 0-.6 0-.8.1l-1.1.3c-2.1.6-3.2 3.4-2.4 6.3.7 2.4 2.6 4.2 4.5 4.2.3 0 .6 0 .8-.1l1.1-.3c1.1-.4 1.9-1.2 2.3-2.3.5-1.3.5-2.7.1-4-.7-2.4-2.6-4.2-4.5-4.2z"/></g><g id="Сгруппировать_12"><linearGradient id="Эллипс_2_1_" gradientUnits="userSpaceOnUse" x1="-944.232" y1="481.671" x2="-944.154" y2="481.354" gradientTransform="matrix(11.5286 -3.2836 -4.3867 -15.4016 12732.76 3810.591)"><stop offset="0" stop-color="#ffcd22"/><stop offset="1" stop-color="#fa8900"/></linearGradient><path id="Эллипс_2" d="M-36.8-46c2.2-.6 4.6 1.2 5.4 4.1.8 2.9-.3 5.8-2.4 6.4-2.2.6-4.6-1.2-5.4-4.1-.8-2.9.3-5.8 2.4-6.4z" fill="url(#Эллипс_2_1_)"/><path id="Контур_26" class="st6" d="M-34.6-35.3c-2 0-3.9-1.8-4.6-4.3-.8-2.9.3-5.8 2.5-6.4.3-.1.6-.1.9-.1 2 0 3.9 1.8 4.6 4.3.4 1.3.4 2.8-.1 4.1-.4 1.1-1.3 2-2.4 2.4-.3-.1-.6 0-.9 0zm-1.3-10.8c-.3 0-.6 0-.8.1-2.1.6-3.2 3.4-2.4 6.3.7 2.4 2.6 4.2 4.5 4.2.3 0 .6 0 .8-.1 1.1-.3 1.9-1.2 2.3-2.3.5-1.3.5-2.7.1-4-.7-2.4-2.6-4.2-4.5-4.2z"/></g><linearGradient id="Контур_27_1_" gradientUnits="userSpaceOnUse" x1="-936.766" y1="485.25" x2="-936.49" y2="484.74" gradientTransform="matrix(7.7831 0 0 -15.3761 7118.691 6929.766)"><stop offset=".195" stop-color="#ffec7e"/><stop offset=".902" stop-color="#ffad00"/></linearGradient><path id="Контур_27" d="M-37.1-45.9c-1.9.8-2.8 3.5-2.1 6.2s3 4.5 5 4.2l-2.9-10.4z" fill="url(#Контур_27_1_)"/><path id="Контур_28" class="st12" d="M-38.7-39.8c.7 2.4 2.8 4 4.6 3.5.7-.2 1.3-.7 1.7-1.3-.3.5-.8.8-1.4 1-1.8.5-3.7-1-4.4-3.3-.7-2.3.2-4.6 2-5.1.6-.2 1.2-.1 1.7.1-.7-.3-1.4-.4-2.1-.2-1.8.5-2.8 2.9-2.1 5.3z"/><path id="Контур_29" class="st13" d="M-34-36.3h.1l.2-.1c.1 0 .1-.1.2-.1l.1-.1.1-.1c.1-.1.2-.1.3-.2l.3-.3.1-.2.1-.2c.1-.1.2-.3.2-.4.1-.1.1-.3.2-.5s.1-.3.1-.5c0-.1 0-.2.1-.3v-1.5c-.1-.8-.3-1.5-.6-2.2-.1-.2-.2-.3-.3-.5 0-.1-.1-.2-.2-.2-.1-.1-.1-.2-.2-.2l-.2-.2-.2-.2c-.1-.1-.2-.2-.4-.3-.1-.1-.1-.1-.2-.1s-.1-.1-.2-.1c-.1-.1-.3-.2-.4-.2l-.2-.1-.2-.1c-.1 0-.2-.1-.4-.1h-1 1.1c.1 0 .3 0 .4.1l.2.1.2.1c.1.1.3.1.4.2.1 0 .1.1.2.1s.1.1.2.1c.1.1.3.2.4.3l.4.4.2.2c.1.1.1.2.2.2.1.2.2.3.3.5.2.4.3.7.4 1.1.1.4.2.8.2 1.2v1.2c0 .2-.1.4-.1.5 0 .2-.1.3-.2.5 0 .1-.1.2-.1.2 0 .1-.1.2-.1.2-.1.1-.2.3-.2.4l-.1.2-.1.2-.3.3c-.1.1-.2.1-.3.2l-.1.1-.1.1c-.1 0-.1.1-.2.1l-.2.1-.1.1z"/></g><path id="Контур_30" class="st2" d="M-32.8-44.9c0-.1-.1-.1-.1-.2-.1-.1-.2-.1-.3 0-.1.1 0 .3.1.4.1.1.2.1.3 0v-.2z"/><path id="Контур_31" class="st2" d="M-37.4-36.8c-.1-.1-.1-.1-.2-.1-.1-.1-.2.1-.1.2 0 .1.1.2.2.3.1.1.2 0 .2 0 0-.3 0-.4-.1-.4z"/><path id="Контур_32" class="st2" d="M-36.8-37.6s-.1 0 0 0c0 .1 0 .3.2.3 0-.2-.1-.2-.2-.3z"/><path id="Контур_33" class="st2" d="M-33.1-44c-.1-.1-.3 0-.2.1.1.1.3 0 .2-.1z"/></g><g id="Сгруппировать_49" transform="rotate(139 23.125 115.737)"><g id="Сгруппировать_13-2"><g id="Сгруппировать_11-2" transform="translate(1.697 .922)"><linearGradient id="Контур_24-2_1_" gradientUnits="userSpaceOnUse" x1="1068.099" y1="352.483" x2="1068.886" y2="352.483" gradientTransform="matrix(-10.5066 -10.6276 -9.1333 12.2257 14325.616 7135.914)"><stop offset="0" stop-color="#e06700"/><stop offset=".261" stop-color="#ca5400"/><stop offset=".261" stop-color="#ba3900"/><stop offset=".498" stop-color="#983100"/><stop offset=".743" stop-color="#ba3600"/><stop offset=".743" stop-color="#c75400"/><stop offset="1" stop-color="#e56b00"/></linearGradient><path id="Контур_24-2" d="M9.1 88.8c-2.2.6-3.3 3.5-2.4 6.4.8 2.9 3.3 4.8 5.4 4.1l1.1-.3c2.2-.6 3.3-3.5 2.4-6.4-.8-2.9-3.3-4.8-5.4-4.1l-1.1.3z" fill="url(#Контур_24-2_1_)"/><path id="Контур_25-2" class="st9" d="M11.2 99.5c-2 0-3.9-1.8-4.6-4.3-.8-2.9.3-5.8 2.5-6.4l1.1-.3c.3-.1.6-.1.9-.1 2 0 3.9 1.8 4.6 4.3.4 1.3.4 2.8-.1 4.1-.4 1.1-1.3 2-2.4 2.4l-1.1.3h-.9zm-.2-11c-.3 0-.6 0-.8.1l-1.1.3c-2.1.6-3.2 3.4-2.4 6.3.7 2.4 2.6 4.2 4.5 4.2.3 0 .6 0 .8-.1l1.1-.3c1.1-.4 1.9-1.2 2.3-2.3.5-1.3.5-2.7.1-4-.7-2.5-2.5-4.2-4.5-4.2z"/></g><g id="Сгруппировать_12-2"><linearGradient id="Эллипс_2-2_1_" gradientUnits="userSpaceOnUse" x1="1085.779" y1="323.858" x2="1085.857" y2="324.175" gradientTransform="matrix(-11.5787 -7.6262 -4.2527 13.778 13730.876 3446.567)"><stop offset="0" stop-color="#ffcd22"/><stop offset="1" stop-color="#fa8900"/></linearGradient><path id="Эллипс_2-2" d="M10.8 89.7c2.2-.6 4.6 1.2 5.4 4.1.8 2.9-.3 5.8-2.4 6.4S9.2 99 8.4 96.1c-.9-2.9.2-5.7 2.4-6.4z" fill="url(#Эллипс_2-2_1_)"/><path id="Контур_26-2" class="st6" d="M12.9 100.4c-2 0-3.9-1.8-4.6-4.3-.8-2.9.3-5.8 2.5-6.4.3-.1.6-.1.9-.1 2 0 3.9 1.8 4.6 4.3.4 1.3.4 2.8-.1 4.1-.4 1.1-1.3 2-2.4 2.4h-.9zm-1.2-10.7c-.3 0-.6 0-.8.1-2.1.6-3.2 3.4-2.4 6.3.7 2.4 2.6 4.2 4.5 4.2.3 0 .6 0 .8-.1 1.1-.3 1.9-1.2 2.3-2.3.5-1.3.5-2.7.1-4-.7-2.4-2.6-4.2-4.5-4.2z"/></g><linearGradient id="Контур_27-2_1_" gradientUnits="userSpaceOnUse" x1="1100.789" y1="336.761" x2="1101.066" y2="337.27" gradientTransform="matrix(-5.8723 -10.0876 -5.1047 11.6045 8058.547 6800.683)"><stop offset=".195" stop-color="#ffec7e"/><stop offset=".902" stop-color="#ffad00"/></linearGradient><path id="Контур_27-2" d="M10.4 89.9c-1.9.8-2.8 3.5-2.1 6.2.8 2.7 3 4.5 5 4.2l-2.9-10.4z" fill="url(#Контур_27-2_1_)"/><path id="Контур_28-2" class="st12" d="M8.9 96c.7 2.4 2.8 4 4.6 3.5.7-.2 1.3-.7 1.7-1.3-.3.5-.8.8-1.4 1-1.8.5-3.7-1-4.4-3.3-.7-2.3.2-4.6 2-5.1.6-.2 1.2-.1 1.7.1-.7-.3-1.4-.4-2.1-.2-1.9.4-2.8 2.8-2.1 5.3z"/><path id="Контур_29-2" class="st13" d="M13.5 99.4h.1l.2-.1c.1 0 .1-.1.2-.1l.1-.1.1-.1c.1-.1.2-.1.3-.2l.3-.3.1-.2.1-.2c.1-.1.2-.3.2-.4 0-.1.1-.1.1-.2s.1-.2.1-.2c.1-.2.1-.3.1-.5 0-.1 0-.2.1-.3V95c0-.4-.1-.8-.2-1.1-.1-.4-.3-.7-.4-1.1-.1-.2-.2-.3-.3-.5 0-.1-.1-.2-.2-.2-.1-.1-.1-.2-.2-.2l-.2-.2-.2-.2c-.1-.1-.2-.2-.4-.3-.1-.1-.1-.1-.2-.1s-.1-.1-.2-.1c-.1-.1-.3-.2-.4-.2l-.2-.1-.2-.1c-.1 0-.2-.1-.4-.1h-1H12c.1 0 .3 0 .4.1l.2.1.2.1c.1.1.3.1.4.2.1 0 .1.1.2.1s.1.1.2.1c.1.1.3.2.4.3l.4.4.2.2c.1.1.1.2.2.2.1.2.2.3.3.5.2.4.3.7.4 1.1.1.4.2.8.2 1.2v1.2c0 .2-.1.4-.1.5 0 .2-.1.3-.2.5 0 .1-.1.2-.1.2 0 .1-.1.2-.1.2-.1.1-.2.3-.2.4v.3l-.1.2-.3.3c-.1.1-.2.1-.3.2l-.1.1H14c-.1 0-.1.1-.2.1l-.2.1h-.1z"/></g><path id="Контур_30-2" class="st2" d="M14.7 90.9c0-.1-.1-.1-.1-.2-.1-.1-.2-.1-.3 0-.1.1 0 .3.1.4.1.1.2.1.3 0 .1 0 .1-.1 0-.2z"/><path id="Контур_31-2" class="st2" d="M10.2 98.9c-.1-.1-.1-.1-.2-.1-.1-.1-.2.1-.1.2 0 .1.1.2.2.3.1.1.2.1.2 0 0-.2 0-.3-.1-.4z"/><path id="Контур_32-2" class="st2" d="M10.8 98.2c-.1-.1-.1 0 0 0 0 .1 0 .3.2.3 0-.2-.2-.3-.2-.3z"/><path id="Контур_33-2" class="st2" d="M14.5 91.8c-.1-.1-.3 0-.2.1.1.1.3 0 .2-.1z"/></g><g id="Сгруппировать_18" transform="translate(68.116 7.424)"><g id="Сгруппировать_17"><g id="Сгруппировать_15" transform="translate(.842 .816)"><linearGradient id="Контур_34_1_" gradientUnits="userSpaceOnUse" x1="-945.257" y1="570.2" x2="-944.647" y2="570.2" gradientTransform="matrix(8.7268 0 0 -8.4707 8223.456 4827.66)"><stop offset="0" stop-color="#ffa100"/><stop offset=".165" stop-color="#ffbc00"/><stop offset=".169" stop-color="#ffc833"/><stop offset=".479" stop-color="#ffe793"/><stop offset=".801" stop-color="#ffd751"/><stop offset=".805" stop-color="#ffc000"/><stop offset="1" stop-color="#ffa200"/></linearGradient><path id="Контур_34" d="M-42.6-4.2c.8.9.4 2.5-1 3.7-1.3 1.2-3 1.4-3.8.6l-.4-.5c-.8-.9-.4-2.5 1-3.7 1.3-1.2 3-1.4 3.8-.6l.4.5z" fill="url(#Контур_34_1_)"/><path id="Контур_35" class="st4" d="M-46.3.6c1 0 2-.4 2.7-1.1.6-.5 1.1-1.2 1.3-2 .2-.6.1-1.3-.3-1.8l-.4-.4c-.3-.3-.7-.5-1.1-.5-1 0-2 .4-2.7 1.1-1.3 1.2-1.8 2.9-1 3.8l.4.5c.3.2.7.4 1.1.4zm2.2-5.8c.4 0 .8.2 1.1.5l.4.5c.4.5.5 1.1.3 1.7-.2.8-.7 1.4-1.3 2-.7.7-1.7 1.1-2.7 1.1-.4 0-.8-.2-1.1-.5l-.4-.5c-.8-.9-.3-2.5.9-3.7.8-.7 1.8-1.1 2.8-1.1z"/></g><g id="Сгруппировать_16"><linearGradient id="Эллипс_3_1_" gradientUnits="userSpaceOnUse" x1="-971.843" y1="618.804" x2="-971.843" y2="618.387" gradientTransform="matrix(6.9576 -6.2581 -4.1676 -4.6335 8980.715 -3567.038)"><stop offset="0" stop-color="#da6400"/><stop offset="1" stop-color="#fa8900"/></linearGradient><path id="Эллипс_3" d="M-45.6-2.9c1.3-1.2 3-1.4 3.8-.6.8.9.4 2.5-1 3.7-1.3 1.2-3 1.4-3.8.6-.7-.8-.3-2.5 1-3.7z" fill="url(#Эллипс_3_1_)"/><path id="Контур_36" class="st6" d="M-45.4 1.4c1 0 2-.4 2.7-1.1.6-.5 1.1-1.2 1.3-2 .2-.6.1-1.3-.3-1.8-.3-.2-.7-.4-1.2-.5-1 0-2 .4-2.7 1.1-1.3 1.2-1.8 2.9-1 3.8.4.3.8.5 1.2.5zm2.5-5.3c.4 0 .8.2 1.1.5.4.5.5 1.1.3 1.7-.2.8-.7 1.4-1.3 2-.7.7-1.7 1.1-2.7 1.1-.4 0-.8-.2-1.1-.5-.8-.9-.3-2.5.9-3.7.9-.7 1.8-1.1 2.8-1.1z"/></g><linearGradient id="Контур_37_1_" gradientUnits="userSpaceOnUse" x1="-944.172" y1="558.281" x2="-943.541" y2="558.691" gradientTransform="matrix(7.9739 0 0 -5.7519 7482.219 3211.878)"><stop offset="0" stop-color="#ff9e00"/><stop offset=".801" stop-color="#f47200"/></linearGradient><path id="Контур_37" d="M-44-1.2c.9-.3 1.8-.8 2.6-1.4.1 1.1-.4 2.2-1.3 2.9-1.3 1.2-3 1.4-3.7.5-.4-.5-.5-1.1-.3-1.6.8.1 1.8-.1 2.7-.4z" fill="url(#Контур_37_1_)"/><path id="Контур_38" class="st20" d="M-42.9.1c-1.1 1-2.5 1.2-3.2.5-.3-.3-.4-.7-.3-1.1 0 .3.1.6.3.9.6.7 2 .5 3.1-.4s1.4-2.3.8-3c-.2-.2-.5-.4-.8-.4.4 0 .8.2 1 .4.5.7.2 2.1-.9 3.1z"/><path id="Контур_39" class="st21" d="M-46.1.5l-.1-.1s0-.1-.1-.1c0 0 0-.1-.1-.1v-.9c0-.1 0-.2.1-.3.1-.2.1-.4.2-.5.1-.2.2-.4.4-.5.1-.2.3-.3.5-.5.2-.1.3-.3.5-.4l.6-.3c.2-.1.4-.1.6-.2h.6c.2 0 .3 0 .4.1h.2s.1 0 .1.1l.1.1.1.1.1.1-.1-.1-.1-.1s-.1 0-.1-.1l-.1-.1h-.2c-.1-.1-.3-.1-.4-.1h-.6c-.2 0-.4.1-.6.2l-.6.3c-.2.1-.4.3-.5.4l-.5.5c-.3 0-.4.2-.5.4-.1.2-.2.4-.2.6 0 .1 0 .2-.1.3v1c0 .1 0 .1.1.1 0 0 0 .1.1.1h.2z"/></g><path id="Контур_40" class="st2" d="M-45.9-2.7c0-.1.1-.2.2-.1 0 0 .1 0 .1.1v.1l-.1.1h-.1c-.1-.1-.1-.1-.1-.2z"/></g><g id="Сгруппировать_22" transform="translate(156.796 41.838)"><g id="Сгруппировать_21"><g id="Сгруппировать_19" transform="translate(1.043 .267)"><linearGradient id="Контур_41_1_" gradientUnits="userSpaceOnUse" x1="-1046.666" y1="540.165" x2="-1046.099" y2="540.165" gradientTransform="matrix(11.7744 0 0 -9.4154 12249.29 5073.12)"><stop offset="0" stop-color="#ffa100"/><stop offset=".165" stop-color="#ffbc00"/><stop offset=".169" stop-color="#ffc833"/><stop offset=".479" stop-color="#ffe793"/><stop offset=".801" stop-color="#ffd751"/><stop offset=".805" stop-color="#ffc000"/><stop offset="1" stop-color="#ffa200"/></linearGradient><path id="Контур_41" d="M-76.3-13.7c-.5 1.4.8 3.1 2.9 3.8 2.1.7 4.2.2 4.7-1.2l.3-.7c.5-1.4-.8-3.1-2.9-3.8s-4.2-.2-4.7 1.2l-.3.7z" fill="url(#Контур_41_1_)"/><path id="Контур_42" class="st4" d="M-69.8-9.9c-1.2.5-2.5.6-3.7.1-1-.3-1.8-.9-2.4-1.7-.5-.6-.7-1.4-.5-2.2l.3-.7c.2-.5.6-.9 1.1-1.2 1.2-.5 2.5-.6 3.7-.1 2.1.7 3.4 2.5 2.9 3.9l-.3.7c-.2.5-.6.9-1.1 1.2zm-5.2-5.6c-.5.2-.8.6-1 1.1l-.3.7c-.2.7 0 1.5.5 2.1.6.8 1.5 1.3 2.4 1.6 1.2.5 2.5.4 3.6-.1.5-.2.8-.6 1-1.1l.3-.7c.5-1.4-.8-3.1-2.9-3.8-1.2-.4-2.5-.3-3.6.2z"/></g><g id="Сгруппировать_20"><linearGradient id="Эллипс_4_1_" gradientUnits="userSpaceOnUse" x1="-1081.497" y1="581.798" x2="-1081.497" y2="581.519" gradientTransform="matrix(2.5037 -7.4232 -11.1148 -3.7488 8625.106 -6020.333)"><stop offset="0" stop-color="#da6400"/><stop offset="1" stop-color="#fa8900"/></linearGradient><path id="Эллипс_4" d="M-75.3-13.4c.5-1.4 2.6-2 4.6-1.3 2.1.7 3.4 2.4 2.9 3.8s-2.6 2-4.6 1.3c-2-.7-3.4-2.4-2.9-3.8z" fill="url(#Эллипс_4_1_)"/><path id="Контур_43" class="st6" d="M-68.7-9.7c-1.2.5-2.5.6-3.7.1-1-.3-1.8-.9-2.4-1.7-.5-.6-.7-1.4-.5-2.2.2-.5.6-.9 1.1-1.2 1.2-.5 2.5-.6 3.7-.1 2.1.7 3.4 2.5 2.9 3.9-.3.6-.6 1-1.1 1.2zm-5.5-4.8c-.5.2-.8.6-1 1.1-.2.7 0 1.5.5 2.1.6.8 1.5 1.3 2.4 1.6 1.2.5 2.5.4 3.6-.1.5-.2.8-.6 1-1.1.5-1.4-.8-3.1-2.9-3.8-1.2-.4-2.5-.3-3.6.2z"/></g><linearGradient id="Контур_44_1_" gradientUnits="userSpaceOnUse" x1="-1045.23" y1="521.256" x2="-1044.663" y2="521.825" gradientTransform="matrix(11.1145 0 0 -5.2114 11535.166 2710.206)"><stop offset="0" stop-color="#ff9e00"/><stop offset=".801" stop-color="#f47200"/></linearGradient><path id="Контур_44" d="M-71.6-11.9c-1.2.1-2.5 0-3.6-.4.5 1.3 1.6 2.3 2.9 2.7 2.1.7 4.1.2 4.6-1.2.2-.7.1-1.5-.4-2-1.1.5-2.3.8-3.5.9z" fill="url(#Контур_44_1_)"/><path id="Контур_45" class="st20" d="M-72.3-9.9c1.8.6 3.5.1 3.9-1.1.1-.5.1-1-.1-1.4.2.4.2.8.1 1.2-.4 1.1-2.1 1.6-3.8 1-1.7-.6-2.7-2-2.3-3.1.1-.4.4-.7.8-.9-.4.2-.8.6-1 1-.4 1.2.7 2.7 2.4 3.3z"/><path id="Контур_46" class="st21" d="M-68.3-11l.1-.2v-.6c0-.2-.1-.4-.2-.5 0-.1-.1-.2-.2-.3-.1-.1-.1-.2-.2-.3-.2-.2-.3-.4-.5-.5-.2-.2-.4-.3-.7-.4-.5-.3-1-.4-1.6-.5-.3 0-.5-.1-.8-.1-.2 0-.5 0-.7.1-.1 0-.2.1-.3.1-.1 0-.2.1-.3.1-.2.1-.3.2-.5.3l-.1.1-.1.1s-.1.1-.1.2-.1.1-.1.1v.2-.2l.1-.1c0-.1.1-.1.1-.2 0 0 0-.1.1-.1l.1-.1c.1-.1.3-.2.5-.3.1 0 .2-.1.3-.1.1 0 .2-.1.3-.1.2-.1.5-.1.8-.1.3 0 .5 0 .8.1.6.1 1.1.3 1.6.5.2.1.5.3.7.4.2.2.4.3.5.5.1.1.1.2.2.3.1.1.1.2.2.3.1.2.1.4.2.5v.6l-.2.2z"/></g><path id="Контур_47" class="st2" d="M-70.2-14.6c-.1 0-.2-.1-.3-.1 0 0-.1 0 0 .1l.1.1s.1 0 .1.1c.1 0 .1 0 .2-.1s0-.1-.1-.1z"/></g><g id="Сгруппировать_26" transform="translate(180.481 4.26)"><g id="Сгруппировать_25"><g id="Сгруппировать_23" transform="translate(3.332 1.74)"><linearGradient id="Контур_48_1_" gradientUnits="userSpaceOnUse" x1="-1075.413" y1="588.203" x2="-1074.81" y2="588.203" gradientTransform="matrix(22.5073 0 0 -20.6613 24280.547 12155.696)"><stop offset="0" stop-color="#ffa100"/><stop offset=".165" stop-color="#ffbc00"/><stop offset=".169" stop-color="#ffc833"/><stop offset=".479" stop-color="#ffe793"/><stop offset=".801" stop-color="#ffd751"/><stop offset=".805" stop-color="#ffc000"/><stop offset="1" stop-color="#ffa200"/></linearGradient><path id="Контур_48" d="M-71 8.2c-1.7 2.2-6 1.8-9.6-.9-3.6-2.7-5.1-6.8-3.3-9 .3-.4.7-.9 1-1.3 1.7-2.2 6-1.8 9.6.9s5.1 6.8 3.3 9c-.3.4-.7 1-1 1.3z" fill="url(#Контур_48_1_)"/><path id="Контур_49" class="st4" d="M-83.7 4c.8 1.3 1.8 2.5 3.1 3.5 3.6 2.8 8 3.2 9.7.9.1-.2.3-.4.5-.6.2-.2.4-.5.5-.7 1.1-1.4 1-3.5-.3-5.7-.8-1.3-1.8-2.5-3.1-3.5-3.6-2.8-8-3.2-9.7-.9-.1.2-.3.4-.5.6-.2.2-.4.5-.5.7-1.1 1.3-1 3.5.3 5.7zm13.3-2.6c1.2 2.1 1.3 4.1.3 5.4-.1.2-.3.4-.5.6-.2.2-.4.5-.5.7-1.7 2.2-5.9 1.8-9.4-.9-1.2-.9-2.2-2.1-3-3.4-1.2-2.1-1.3-4.1-.3-5.4.1-.2.3-.4.5-.6.2-.2.4-.5.5-.7 1.7-2.2 5.9-1.8 9.4.9 1.2 1 2.3 2.1 3 3.4z"/></g><g id="Сгруппировать_24"><linearGradient id="Эллипс_5_1_" gradientUnits="userSpaceOnUse" x1="-1091.542" y1="607.441" x2="-1091.542" y2="607.299" gradientTransform="matrix(9.1167 -11.8712 -18.913 -14.5247 20993.57 -4415.86)"><stop offset="0" stop-color="#da6400"/><stop offset="1" stop-color="#fa8900"/></linearGradient><path id="Эллипс_5" d="M-80.6.1c1.7-2.2 6-1.8 9.6.9s5.1 6.8 3.3 9c-1.7 2.2-6 1.8-9.6-.9s-5-6.8-3.3-9z" fill="url(#Эллипс_5_1_)"/><path id="Контур_50" class="st6" d="M-80.4 5.7c.8 1.3 1.8 2.5 3.1 3.5 3.6 2.8 8 3.2 9.7.9 1.1-1.4 1-3.5-.3-5.7-.8-1.3-1.8-2.5-3.1-3.5-3.6-2.8-8-3.2-9.7-.9-1 1.4-.9 3.5.3 5.7zm12.3-1.2c1.2 2.1 1.3 4.1.3 5.4-1.7 2.2-5.9 1.8-9.4-.9-1.2-.9-2.2-2.1-3-3.4-1.2-2.1-1.3-4.1-.3-5.4 1.7-2.2 5.9-1.8 9.4.9 1.2.9 2.3 2 3 3.4z"/></g><path id="Контур_51" class="st7" d="M-76.8 8.5c-3-2.3-4.3-5.7-2.8-7.6.6-.7 1.5-1.2 2.4-1.2-.8.1-1.5.5-2 1.1-1.4 1.8-.2 5.1 2.7 7.3s6.3 2.5 7.7.7c.5-.6.7-1.4.6-2.2.2.9 0 1.9-.6 2.7-1.4 1.9-5 1.5-8-.8z"/></g><path id="Контур_52" class="st2" d="M-71.9.4c.2 0 .3 0 .4.1.1.1.1.2.1.3-.1.2-.3.2-.4.1-.1 0-.2-.1-.2-.2s0-.1-.1-.2c0 0 .1-.1.2-.1z"/></g><g id="Сгруппировать_30" transform="translate(3.057 20.095)"><g id="Сгруппировать_29"><g id="Сгруппировать_27" transform="translate(1.437 .624)"><linearGradient id="Контур_53_1_" gradientUnits="userSpaceOnUse" x1="-876.724" y1="572.479" x2="-876.161" y2="572.479" gradientTransform="matrix(20.9157 0 0 -18.5443 18791.092 10613.38)"><stop offset="0" stop-color="#e06700"/><stop offset=".261" stop-color="#d15900"/><stop offset=".264" stop-color="#c24900"/><stop offset=".502" stop-color="#b63e00"/><stop offset=".759" stop-color="#c24a00"/><stop offset=".766" stop-color="#d25b00"/><stop offset="1" stop-color="#e56b00"/></linearGradient><path id="Контур_53" d="M-26.5 1c1.2 2.6 5 3.3 8.6 1.7s5.4-5.1 4.2-7.6l-.8-1.6c-1.2-2.6-5-3.3-8.6-1.7s-5.4 5.1-4.2 7.6l.8 1.6z" fill="url(#Контур_53_1_)"/><path id="Контур_54" class="st28" d="M-17.9 2.7c-3.6 1.7-7.5.9-8.7-1.7l-.8-1.6c-1.2-2.6.7-6.1 4.3-7.7s7.5-.9 8.7 1.7l.8 1.6c1.2 2.6-.8 6-4.3 7.7zM-23-8.2c-3.5 1.6-5.4 5-4.2 7.5l.8 1.6c1.2 2.5 5 3.2 8.5 1.6s5.4-5 4.2-7.5l-.8-1.6c-1.2-2.5-5-3.2-8.5-1.6z"/></g><g id="Сгруппировать_28"><linearGradient id="Эллипс_6_1_" gradientUnits="userSpaceOnUse" x1="-903.579" y1="596.208" x2="-903.579" y2="596.975" gradientTransform="matrix(18.7625 -8.763 -6.3569 -13.6107 20519.502 -244.098)"><stop offset="0" stop-color="#ffcd22"/><stop offset="1" stop-color="#fa8900"/></linearGradient><path id="Эллипс_6" d="M-20.9-6c3.5-1.7 7.4-.9 8.6 1.7s-.7 6-4.2 7.6-7.4.9-8.6-1.7.7-6 4.2-7.6z" fill="url(#Эллипс_6_1_)"/><path id="Контур_55" class="st6" d="M-16.5 3.3c-3.6 1.7-7.5.9-8.7-1.7s.7-6.1 4.3-7.7 7.5-.9 8.7 1.7-.7 6.1-4.3 7.7zM-20.8-6c-3.5 1.6-5.4 5-4.2 7.5 1.2 2.5 5 3.2 8.5 1.6s5.4-5 4.2-7.5-5-3.2-8.5-1.6z"/></g><linearGradient id="Контур_56_1_" gradientUnits="userSpaceOnUse" x1="-891.74" y1="606.341" x2="-891.74" y2="607.32" gradientTransform="matrix(14.2626 0 0 -12.1579 12698.074 6889.093)"><stop offset=".195" stop-color="#ffec7e"/><stop offset=".902" stop-color="#ffad00"/></linearGradient><path id="Контур_56" d="M-16.9-6.8c-1.4 0-2.7.3-3.9.9-3.4 1.6-5.3 4.9-4.2 7.4 8.1.1 11.4-2.3 8.1-8.3z" fill="url(#Контур_56_1_)"/><path id="Контур_57" class="st12" d="M-16.8 2.6c3-1.4 4.6-4.3 3.5-6.5-.4-.8-1.1-1.5-2-1.8.7.3 1.2.9 1.6 1.5 1 2.1-.6 4.8-3.4 6.1S-23 2.8-24 .7c-.3-.7-.4-1.5-.2-2.2-.3.9-.3 1.8.1 2.7 1.1 2.2 4.3 2.8 7.3 1.4z"/></g><path id="Контур_58" class="st2" d="M-15.6 2.7h-.3c-.1 0-.2.1-.1.2 0 .1.1.2.2.1.1 0 .1-.1.2-.2.2 0 .2 0 0-.1.1 0 .1 0 0 0z"/><path id="Контур_59" class="st2" d="M-16.7 1.6c-.1.1-.1.2 0 .2s.2 0 .2-.1 0-.2-.1-.2c.1 0 0 .1-.1.1z"/><path id="Контур_60" class="st2" d="M-22.4-5.4c-.2.1-.3.2-.4.4 0 .2.1.3.3.2.1 0 .3-.2.4-.3.1-.2-.1-.4-.3-.3z"/></g><g id="Сгруппировать_34" transform="translate(0 157.917)"><g id="Сгруппировать_33"><g id="Сгруппировать_31" transform="translate(.413 2.484)"><linearGradient id="Контур_61_1_" gradientUnits="userSpaceOnUse" x1="-886.383" y1="435.693" x2="-885.831" y2="435.693" gradientTransform="matrix(26.8009 0 0 -19.5619 24055.783 8476.081)"><stop offset="0" stop-color="#e06700"/><stop offset=".261" stop-color="#d15900"/><stop offset=".264" stop-color="#c24900"/><stop offset=".502" stop-color="#b63e00"/><stop offset=".759" stop-color="#c24a00"/><stop offset=".766" stop-color="#d25b00"/><stop offset="1" stop-color="#e56b00"/></linearGradient><path id="Контур_61" d="M-8.4-44.8c1.4-2.8-1.1-6.3-5.7-7.9s-9.5-.7-10.9 2.1l-.9 1.7c-1.4 2.8 1.1 6.3 5.7 7.9s9.5.7 10.9-2.1l.9-1.7z" fill="url(#Контур_61_1_)"/><path id="Контур_62" class="st28" d="M-14.1-52.8c4.6 1.6 7.2 5.3 5.8 8.1l-.9 1.7c-1.4 2.8-6.4 3.7-11 2.1s-7.2-5.3-5.8-8.1l.9-1.7c1.4-2.8 6.4-3.8 11-2.1zm-6 11.7c4.5 1.6 9.3.7 10.7-2l.9-1.7c1.4-2.7-1.1-6.2-5.7-7.8s-9.3-.7-10.7 2l-.9 1.7c-1.4 2.7 1.1 6.2 5.7 7.8z"/></g><g id="Сгруппировать_32"><linearGradient id="Эллипс_7_1_" gradientUnits="userSpaceOnUse" x1="-914.351" y1="463.148" x2="-914.351" y2="463.636" gradientTransform="matrix(4.062 -15.7281 -25.1583 -6.4975 14644.698 -11599.042)"><stop offset="0" stop-color="#ffcd22"/><stop offset="1" stop-color="#fa8900"/></linearGradient><path id="Эллипс_7" d="M-24.9-47.5c.8-3 5.2-4.4 10-3.1s8 4.6 7.2 7.6c-.8 3-5.2 4.4-10 3.1s-8-4.6-7.2-7.6z" fill="url(#Эллипс_7_1_)"/><path id="Контур_63" class="st6" d="M-13.7-50.3c4.6 1.6 7.2 5.3 5.8 8.1-1.4 2.8-6.4 3.7-11 2.1s-7.2-5.3-5.8-8.1c1.4-2.8 6.4-3.8 11-2.1zm-5.1 10c4.5 1.6 9.3.7 10.7-2s-1.1-6.2-5.7-7.8-9.3-.7-10.7 2 1.1 6.1 5.7 7.8z"/></g><linearGradient id="Контур_64_1_" gradientUnits="userSpaceOnUse" x1="-895.423" y1="493.71" x2="-895.423" y2="494.821" gradientTransform="matrix(21.751 0 0 -11.8393 19460.77 5075.375)"><stop offset=".195" stop-color="#ffec7e"/><stop offset=".902" stop-color="#ffad00"/></linearGradient><path id="Контур_64" d="M-23-42.8c1.2 1.1 2.6 2 4.2 2.5 4.5 1.6 9.2.7 10.7-1.9-6.8-6.6-12-7.5-14.9-.6z" fill="url(#Контур_64_1_)"/><path id="Контур_65" class="st12" d="M-14.1-49.6c-3.9-1.4-8-.6-9.2 1.8-.4.9-.5 1.9 0 2.8-.3-.8-.2-1.6.1-2.3 1.1-2.2 5.1-3 8.8-1.7s5.8 4.2 4.6 6.4c-.4.8-1.1 1.4-1.9 1.7 1-.3 1.9-1 2.5-2 1.1-2.3-1-5.3-4.9-6.7z"/></g><path id="Контур_66" class="st2" d="M-15.1-50.6c.1.1.2.1.3.2.3.1.5-.3.2-.4h-.3c-.2 0-.3.1-.2.2z"/><path id="Контур_67" class="st2" d="M-15.2-49c.2 0 .3-.1.2-.2-.1-.1-.2-.2-.3-.1-.2.1-.1.3.1.3z"/><path id="Контур_68" class="st2" d="M-17-39.5c.2.1.4.1.6 0 .2-.1.2-.3 0-.4-.2-.1-.4-.1-.6-.1-.2.1-.2.4 0 .5z"/></g><g id="Сгруппировать_38" transform="translate(185.64 158.38)"><g id="Сгруппировать_37"><g id="Сгруппировать_35" transform="translate(2.085 2.678)"><linearGradient id="Контур_69_1_" gradientUnits="userSpaceOnUse" x1="-1091.835" y1="434.548" x2="-1091.203" y2="434.548" gradientTransform="matrix(23.6703 0 0 -18.5464 25643.543 8011.87)"><stop offset="0" stop-color="#e06700"/><stop offset=".261" stop-color="#d15900"/><stop offset=".264" stop-color="#c24900"/><stop offset=".502" stop-color="#b63e00"/><stop offset=".759" stop-color="#c24a00"/><stop offset=".766" stop-color="#d25b00"/><stop offset="1" stop-color="#e56b00"/></linearGradient><path id="Контур_69" d="M-70.9-53.1c-1-1.4-5-.3-9.1 2.5s-6.6 6.2-5.7 7.6l.9 1.4c1 1.4 5 .3 9.1-2.5s6.6-6.2 5.7-7.6l-.9-1.4z" fill="url(#Контур_69_1_)"/><path id="Контур_70" class="st35" d="M-82-41.1c-1.4.3-2.4.1-2.9-.5l-.9-1.4c-.5-.7-.1-1.9 1-3.4 1.3-1.7 3-3.1 4.8-4.3 1.9-1.4 4.1-2.4 6.4-3 1.4-.3 2.4-.1 2.9.5l.9 1.4c.5.7.1 1.9-1 3.4-1.3 1.7-3 3.1-4.8 4.3-1.9 1.4-4.1 2.4-6.4 3zm8.4-12.4c-2.3.6-4.4 1.6-6.3 3-1.8 1.2-3.4 2.6-4.7 4.3-1 1.4-1.4 2.5-.9 3.1l.9 1.4c.4.5 1.3.7 2.7.4 2.3-.6 4.4-1.6 6.3-3 1.8-1.2 3.4-2.6 4.7-4.3 1-1.4 1.4-2.5.9-3.1l-.9-1.4c-.4-.5-1.4-.7-2.7-.4z"/></g><g id="Сгруппировать_36"><linearGradient id="Эллипс_8_1_" gradientUnits="userSpaceOnUse" x1="-1090.68" y1="424.049" x2="-1090.68" y2="424.817" gradientTransform="matrix(21.7289 -14.8064 -5.0545 -7.4176 25729.885 -13102.674)"><stop offset="0" stop-color="#ffcd22"/><stop offset="1" stop-color="#fa8900"/></linearGradient><path id="Эллипс_8" d="M-77.9-47.9c4.1-2.8 8.2-3.9 9.1-2.5 1 1.4-1.6 4.8-5.7 7.6s-8.2 3.9-9.1 2.5c-.9-1.5 1.6-4.9 5.7-7.6z" fill="url(#Эллипс_8_1_)"/><path id="Контур_71" class="st6" d="M-80.8-39.8c-1.4.3-2.4.1-2.9-.5-.5-.7-.1-1.9 1-3.4 1.3-1.7 3-3.1 4.8-4.3 1.9-1.4 4.1-2.4 6.4-3 1.4-.3 2.4-.1 2.9.5.5.7.1 1.9-1 3.4-1.3 1.7-3 3.1-4.8 4.3-1.9 1.4-4.1 2.4-6.4 3zm9.3-11c-2.3.6-4.4 1.6-6.3 3-1.8 1.2-3.4 2.6-4.7 4.3-1 1.4-1.4 2.5-.9 3.1.4.5 1.3.7 2.7.4 2.3-.6 4.4-1.6 6.3-3 1.8-1.2 3.4-2.6 4.7-4.3 1-1.4 1.4-2.5.9-3.1-.4-.6-1.4-.7-2.7-.4z"/></g><linearGradient id="Контур_72_1_" gradientUnits="userSpaceOnUse" x1="-1080.439" y1="438.825" x2="-1080.439" y2="439.321" gradientTransform="matrix(16.2963 0 0 -14.362 17533.014 6194.13)"><stop offset=".195" stop-color="#ffec7e"/><stop offset=".902" stop-color="#ffad00"/></linearGradient><path id="Контур_72" d="M-78.9-40.6c1.6-.6 3-1.4 4.4-2.4 4-2.7 6.5-6 5.6-7.4-8.8 3.5-12.8 6.8-10 9.8z" fill="url(#Контур_72_1_)"/><path id="Контур_73" class="st12" d="M-77.7-47.6c-3.5 2.4-5.6 5.2-4.8 6.4.3.5 1 .6 1.9.5-.5.1-1.1-.1-1.5-.5-.8-1.1 1.3-3.9 4.6-6.1 3.3-2.2 6.6-3.2 7.4-2 .2.5.2 1.1-.1 1.6.4-.8.6-1.5.3-2-.9-1.2-4.3-.3-7.8 2.1z"/></g><path id="Контур_74" class="st2" d="M-72.9-44.2c-.2.1-.4.2-.6.4-.1.1-.1.3 0 .4.1.1.2.1.4 0l.3-.3c0-.1.1-.1.1-.2s0-.1.1-.2c0-.1-.2-.2-.3-.1z"/><path id="Контур_75" class="st2" d="M-78.4-47.6c-.1-.1-.2 0-.2 0-.1 0-.1.1-.1.2s.1.2.2.1c0 0 .1 0 .1-.1.1.1.1-.1 0-.2z"/></g><g id="Сгруппировать_42" transform="translate(121.325 156.96)"><g id="Сгруппировать_41"><g id="Сгруппировать_39" transform="translate(0 .436)"><linearGradient id="Контур_76_1_" gradientUnits="userSpaceOnUse" x1="-1016.574" y1="426.039" x2="-1015.893" y2="426.039" gradientTransform="matrix(18.9006 0 0 -8.235 19159.21 3458.639)"><stop offset="0" stop-color="#e06700"/><stop offset=".261" stop-color="#ca5400"/><stop offset=".261" stop-color="#ba3900"/><stop offset=".498" stop-color="#983100"/><stop offset=".743" stop-color="#ba3600"/><stop offset=".743" stop-color="#c75400"/><stop offset="1" stop-color="#e56b00"/></linearGradient><path id="Контур_76" d="M-51.9-50c.1-1.2-2.7-2.4-6.3-2.6-3.5-.2-6.5.6-6.5 1.8l-.1 1.2c-.1 1.2 2.7 2.4 6.3 2.6s6.5-.6 6.5-1.8l.1-1.2z" fill="url(#Контур_76_1_)"/><path id="Контур_77" class="st35" d="M-58.5-47c-3.6-.2-6.4-1.4-6.3-2.7l.1-1.2c.1-1.3 3-2.1 6.6-1.8 3.6.2 6.4 1.4 6.3 2.7l-.1 1.2c-.1 1.3-3 2.1-6.6 1.8zm.3-5.5c-3.5-.2-6.4.5-6.5 1.7l-.1 1.2c-.1 1.2 2.7 2.3 6.2 2.5 3.5.2 6.4-.5 6.5-1.7l.1-1.2c.1-1.1-2.7-2.3-6.2-2.5z"/></g><g id="Сгруппировать_40" transform="translate(.014)"><linearGradient id="Эллипс_9_1_" gradientUnits="userSpaceOnUse" x1="-1054.023" y1="433.339" x2="-1053.937" y2="433.179" gradientTransform="matrix(.4113 -6.4131 -18.7844 -1.2046 8542.136 -6290.702)"><stop offset="0" stop-color="#ffcd22"/><stop offset="1" stop-color="#fa8900"/></linearGradient><path id="Эллипс_9" d="M-64.7-50.4c.1-1.2 3-2 6.5-1.8 3.5.2 6.3 1.4 6.3 2.6s-3 2-6.5 1.8c-3.6-.2-6.4-1.3-6.3-2.6z" fill="url(#Эллипс_9_1_)"/><path id="Контур_78" class="st6" d="M-58.5-47.7c-3.6-.2-6.4-1.4-6.3-2.7.1-1.3 3-2.1 6.6-1.8 3.6.2 6.4 1.4 6.3 2.7s-2.9 2-6.6 1.8zm.3-4.4c-3.5-.2-6.4.5-6.5 1.7-.1 1.2 2.7 2.3 6.2 2.5s6.4-.5 6.5-1.7-2.7-2.2-6.2-2.5z"/></g><linearGradient id="Контур_79_1_" gradientUnits="userSpaceOnUse" x1="-1016.134" y1="391.694" x2="-1016.042" y2="389.929" gradientTransform="matrix(18.346 0 0 -3.4814 18588.315 1330.242)"><stop offset=".195" stop-color="#ffec7e"/><stop offset=".902" stop-color="#ffad00"/></linearGradient><path id="Контур_79" d="M-52-49.8c-.2-1.1-2.9-2.1-6.1-2.3-3.3-.2-6 .5-6.4 1.5l12.5.8z" fill="url(#Контур_79_1_)"/><path id="Контур_80" class="st12" d="M-58.2-51.8c-3-.2-5.5.5-5.5 1.5 0 .4.3.8.9 1.1-.4-.3-.7-.6-.6-.9.1-1 2.4-1.6 5.3-1.4 2.9.2 5.1 1.1 5 2.1 0 .3-.3.6-.8.8.6-.3 1-.6 1-1 .1-1.1-2.3-2.1-5.3-2.2z"/><path id="Контур_81" class="st13" d="M-63.7-50.3v.1c0 .1.1.2.2.3.3.3.7.6 1.1.8.6.3 1.2.4 1.8.6 1.4.3 2.9.4 4.4.3.6 0 1.3-.2 1.9-.3.4-.1.8-.3 1.2-.6.1-.1.2-.2.2-.3v-.1.1c0 .1-.1.2-.2.3-.3.3-.7.6-1.2.7-.6.2-1.3.3-1.9.4-1.5.1-3 0-4.4-.3-.6-.1-1.2-.3-1.8-.6-.4-.2-.8-.5-1.1-.8-.1-.1-.1-.2-.1-.4-.1-.1-.1-.1-.1-.2z"/></g><path id="Контур_82" class="st2" d="M-58.2-47.8c-.1 0-.2 0-.3-.1-.1 0-.2 0-.2.1s0 .2.1.2h.3c.3 0 .2-.2.1-.2z"/><path id="Контур_83" class="st2" d="M-58-52.3l-.1-.1c-.1 0-.2 0-.2.1s0 .2.1.2h.1s.1-.1.1 0v-.2c0 .1 0 .1 0 0z"/></g><g id="Сгруппировать_46" transform="translate(102.281)"><g id="Сгруппировать_45"><g id="Сгруппировать_43" transform="translate(3.396 3.857)"><linearGradient id="Контур_84_1_" gradientUnits="userSpaceOnUse" x1="-1004.813" y1="593.598" x2="-1004.016" y2="593.598" gradientTransform="matrix(33.3295 0 0 -29.408 33499.129 17462.883)"><stop offset="0" stop-color="#e06700"/><stop offset=".261" stop-color="#ca5400"/><stop offset=".261" stop-color="#ba3900"/><stop offset=".498" stop-color="#983100"/><stop offset=".743" stop-color="#ba3600"/><stop offset=".743" stop-color="#c75400"/><stop offset="1" stop-color="#e56b00"/></linearGradient><path id="Контур_84" d="M-38.9-3c-1.6-1.9-7.4.3-13.1 4.9s-8.9 10-7.3 11.9l1.5 1.9c1.6 1.9 7.4-.3 13.1-4.9s8.9-10 7.3-11.9L-38.9-3z" fill="url(#Контур_84_1_)"/><path id="Контур_85" class="st35" d="M-44.6 10.9c-5.8 4.8-11.6 6.9-13.3 4.9l-1.5-1.9c-1.7-2 1.6-7.3 7.4-12.1s11.6-6.9 13.3-4.9l1.5 1.9c1.6 2-1.6 7.3-7.4 12.1zM-51.9 2c-5.6 4.6-8.8 9.8-7.3 11.7l1.5 1.9c1.5 1.9 7.3-.4 12.9-4.9S-36 .8-37.5-1L-39-2.9c-1.6-1.9-7.3.3-12.9 4.9z"/></g><g id="Сгруппировать_44"><linearGradient id="Эллипс_10_1_" gradientUnits="userSpaceOnUse" x1="-1009.401" y1="582.598" x2="-1009.372" y2="582.131" gradientTransform="matrix(29.9147 -24.637 -8.4107 -10.2124 35026.727 -18929.465)"><stop offset="0" stop-color="#ffcd22"/><stop offset="1" stop-color="#fa8900"/></linearGradient><path id="Эллипс_10" d="M-48.6 5.8C-43 1.2-37.1-1-35.5.9c1.6 1.9-1.7 7.2-7.3 11.9s-11.5 6.8-13.1 4.9c-1.6-2 1.7-7.3 7.3-11.9z" fill="url(#Эллипс_10_1_)"/><path id="Контур_86" class="st6" d="M-42.8 12.9c-5.8 4.8-11.6 6.9-13.3 4.9-1.7-2 1.6-7.3 7.4-12.1S-37.1-1.2-35.4.8s-1.6 7.3-7.4 12.1zm-5.7-7c-5.6 4.6-8.8 9.8-7.3 11.7 1.5 1.9 7.3-.4 12.9-4.9s8.8-9.8 7.3-11.7-7.3.3-12.9 4.9z"/></g><linearGradient id="Контур_87_1_" gradientUnits="userSpaceOnUse" x1="-1002.429" y1="596.911" x2="-1002.311" y2="596.397" gradientTransform="matrix(29.6552 0 0 -24.7971 29675.05 14788.116)"><stop offset=".195" stop-color="#ffec7e"/><stop offset=".902" stop-color="#ffad00"/></linearGradient><path id="Контур_87" d="M-36 .6c-1.9-1.3-7.4.8-12.6 5.2S-57 15-56.1 17.2L-36 .6z" fill="url(#Контур_87_1_)"/><path id="Контур_88" class="st12" d="M-48.2 6.2c-4.8 3.9-7.5 8.4-6.2 10.1.5.6 1.5.7 2.9.4-1 .2-1.8 0-2.3-.5-1.3-1.6 1.4-5.8 5.9-9.6s9.3-5.5 10.5-4c.4.5.4 1.3.1 2.3.5-1.3.6-2.3.1-2.9-1.3-1.5-6.3.3-11 4.2z"/><path id="Контур_89" class="st13" d="M-54.3 16.3l.2.2c.2.2.5.3.7.3.9.1 1.9 0 2.7-.4 1.2-.4 2.4-1 3.5-1.7 1.3-.8 2.5-1.7 3.7-2.6 1.2-1 2.3-2 3.3-3.1.9-1 1.7-2 2.4-3.2.5-.8.8-1.7.9-2.6 0-.3-.1-.5-.2-.8 0-.1-.1-.1-.1-.2v-.1.1c0 .1.1.1.1.2.1.2.2.5.2.8 0 .9-.3 1.9-.8 2.7-.6 1.1-1.4 2.2-2.3 3.2-1 1.1-2.1 2.2-3.3 3.2-1.2 1-2.4 1.8-3.7 2.6-1.1.7-2.4 1.2-3.6 1.7-.9.3-1.8.4-2.8.3-.3-.1-.5-.2-.7-.3 0-.2-.1-.2-.2-.3z"/></g><path id="Контур_90" class="st2" d="M-42.5 12.3c-.2.1-.3.2-.5.3-.1.1-.2.3-.1.4s.3.2.4.1c.2-.1.3-.3.4-.5.3-.2 0-.4-.2-.3z"/><path id="Контур_91" class="st2" d="M-48.6 5.4c-.1 0-.2 0-.3.1-.1.1-.2.3-.1.4.1.2.3.2.5.1l.1-.1s.1-.3 0-.1c.1-.1 0-.3-.1-.4h-.1z"/></g></g></g></svg>