<svg xmlns="http://www.w3.org/2000/svg" width="228" height="48.851" viewBox="0 0 228 48.851"><path d="M195.393,30.13,184.806,47.557,173.9,30.13H164.61l18.952,29.593a1.574,1.574,0,0,0,2.661-.017L204.636,30.13Z" transform="translate(-109.442 -20.032)" fill="#1a428a"/><path d="M277.726,31.057l-18.436,28.7h9.521l1.646-2.674a2.466,2.466,0,0,1,2.1-1.17h13.312a2.93,2.93,0,0,1,2.483,1.371l1.558,2.473h9.525L280.555,31.041A1.685,1.685,0,0,0,277.726,31.057Zm-3.281,18.537,4.769-7.6,4.9,7.6Z" transform="translate(-172.391 -20.132)" fill="#1a428a"/><path d="M415.981,39.678c0-6.23-4.4-9.548-11.784-9.548H387.97V59.663H396.6V49.629H401.1a2.789,2.789,0,0,1,2.286,1.19l6.207,8.848h9.7L411.1,48.157C414.3,46.528,415.981,43.606,415.981,39.678ZM402.324,42.9h-5.6V37.651h5.6c4.159,0,5.235.54,5.235,2.624S406.483,42.9,402.324,42.9Z" transform="translate(-257.945 -20.032)" fill="#1a428a"/><path d="M514.142,37.248V30.13H481.1v7.521h10.5a1.617,1.617,0,0,1,1.619,1.615v20.4h8.633V39.246a1.6,1.6,0,0,1,1.6-1.6h10.694Z" transform="translate(-319.863 -20.032)" fill="#1a428a"/><path d="M578.966,31.057l-18.436,28.7h9.521l1.646-2.674a2.466,2.466,0,0,1,2.1-1.17h13.312a2.93,2.93,0,0,1,2.483,1.371l1.558,2.473h9.525L581.795,31.041A1.685,1.685,0,0,0,578.966,31.057Zm-3.278,18.537,4.769-7.6,4.9,7.6Z" transform="translate(-372.673 -20.132)" fill="#1a428a"/><path d="M0,0,21.834,42.261,43.669,0V48.85H0Z" fill="#1a428a"/><path d="M0,0,21.834,42.261,43.669,0Z" fill="#fdca00"/></svg>