<?xml version="1.0" encoding="utf-8"?>
<!-- Generator: Adobe Illustrator 25.0.0, SVG Export Plug-In . SVG Version: 6.00 Build 0)  -->
<svg version="1.1" id="Слой_1" xmlns="http://www.w3.org/2000/svg" xmlns:xlink="http://www.w3.org/1999/xlink" x="0px" y="0px"
	 viewBox="0 0 224.2 129.8" style="enable-background:new 0 0 224.2 129.8;" xml:space="preserve">
<style type="text/css">
	.st0{enable-background:new    ;}
	.st1{fill:#FDBF00;}
	.st2{fill:#FFFFFF;}
	.st3{fill:url(#Контур_19_1_);}
	.st4{fill:#EA7800;}
	.st5{fill:url(#Эллипс_1_1_);}
	.st6{fill:#FFE576;}
	.st7{fill:#FFB900;}
	.st8{fill:url(#Контур_24_1_);}
	.st9{fill:#A63000;}
	.st10{fill:url(#Эллипс_2_1_);}
	.st11{fill:url(#Контур_27_1_);}
	.st12{fill:#DD6200;}
	.st13{fill:#FFB129;}
	.st14{fill:url(#Контур_24-2_1_);}
	.st15{fill:url(#Эллипс_2-2_1_);}
	.st16{fill:url(#Контур_27-2_1_);}
	.st17{fill:url(#Контур_34_1_);}
	.st18{fill:url(#Эллипс_3_1_);}
	.st19{fill:url(#Контур_37_1_);}
	.st20{fill:#B62B00;}
	.st21{fill:#FFB81B;}
	.st22{fill:url(#Контур_41_1_);}
	.st23{fill:url(#Эллипс_4_1_);}
	.st24{fill:url(#Контур_44_1_);}
	.st25{fill:url(#Контур_48_1_);}
	.st26{fill:url(#Эллипс_5_1_);}
	.st27{fill:url(#Контур_53_1_);}
	.st28{fill:#AD4900;}
	.st29{fill:url(#Эллипс_6_1_);}
	.st30{fill:url(#Контур_56_1_);}
	.st31{fill:url(#Контур_61_1_);}
	.st32{fill:url(#Эллипс_7_1_);}
	.st33{fill:url(#Контур_64_1_);}
	.st34{fill:url(#Контур_69_1_);}
	.st35{fill:#B14800;}
	.st36{fill:url(#Эллипс_8_1_);}
	.st37{fill:url(#Контур_72_1_);}
	.st38{fill:url(#Контур_76_1_);}
	.st39{fill:url(#Эллипс_9_1_);}
	.st40{fill:url(#Контур_79_1_);}
	.st41{fill:url(#Контур_84_1_);}
	.st42{fill:url(#Эллипс_10_1_);}
	.st43{fill:url(#Контур_87_1_);}
</style>
<g id="Babki" transform="translate(14.199)">
	<g class="st0">
		<g>
			<path class="st1" d="M-1.5,89.1c-4.6,0-8.5-0.7-11.7-2.1c-0.6-0.3-1-0.9-1-1.6v-8.5c0-0.6,0.3-1.2,0.9-1.5c0.5-0.3,1.2-0.3,1.7,0
				c2.8,1.7,5.8,2.6,9,2.6c2.2,0,3.9-0.5,5.1-1.5c1.1-0.9,1.6-2.2,1.6-3.8c0-2.3-0.9-5-7.8-5c-2.3,0-4.9,0.2-7.9,0.5
				c-0.5,0.1-1-0.1-1.4-0.5c-0.4-0.3-0.6-0.8-0.5-1.3l1.7-25.3c0.1-0.9,0.8-1.6,1.7-1.6h24c0.9,0,1.7,0.8,1.7,1.7v8.2
				c0,0.9-0.8,1.7-1.7,1.7H-0.9l-0.4,5.5c0.9,0,1.7-0.1,2.4-0.1c5.1,0,9.2,1.4,12.1,4.1c3,2.8,4.5,6.5,4.5,11.1
				c0,5.1-1.8,9.2-5.3,12.5C9,87.5,4.3,89.1-1.5,89.1z M-10.8,84.3c2.6,0.9,5.7,1.4,9.3,1.4c4.9,0,8.8-1.3,11.6-3.9
				c2.8-2.6,4.2-5.8,4.2-10c0-3.7-1.1-6.5-3.4-8.6C8.6,61.1,5.3,60,1.1,60C0,60-1.4,60.1-3,60.2c-0.5,0-1-0.1-1.3-0.5
				c-0.4-0.3-0.5-0.8-0.5-1.3l0.6-9.1c0.1-0.9,0.8-1.6,1.7-1.6h14.7v-4.8H-8.5L-10,64.6c2.3-0.2,4.4-0.3,6.3-0.3
				c9.3,0,11.2,4.6,11.2,8.4c0,2.7-1,4.8-2.8,6.4c-1.8,1.5-4.2,2.3-7.3,2.3c-2.8,0-5.6-0.6-8.2-1.7V84.3z"/>
		</g>
		<g>
			<path class="st1" d="M38.7,89.1c-11.9,0-17.9-8.2-17.9-24.5c0-8.2,1.6-14.6,4.7-19c3.2-4.6,8-6.9,14.1-6.9
				c11.6,0,17.5,8.4,17.5,24.8c0,8-1.6,14.3-4.6,18.6C49.2,86.8,44.6,89.1,38.7,89.1z M39.5,42.2c-5,0-8.7,1.8-11.3,5.5
				c-2.7,3.8-4.1,9.5-4.1,17c0,14.2,4.7,21,14.5,21c4.8,0,8.4-1.8,11-5.4c2.7-3.8,4-9.4,4-16.7C53.7,49.2,49,42.2,39.5,42.2z
				 M39,81.4c-8.1,0-8.1-12.8-8.1-17c0-4.5,0-18,8.2-18c7.8,0,7.8,13.2,7.8,17.5S46.9,81.4,39,81.4z M39.1,49.8
				c-4.2,0-4.8,9.1-4.8,14.6c0,6.2,0.8,13.6,4.7,13.6c3.9,0,4.5-8.8,4.5-14.1C43.5,54.8,41.9,49.8,39.1,49.8z"/>
		</g>
		<g>
			<path class="st1" d="M93.8,89.1c-11.9,0-17.9-8.2-17.9-24.5c0-8.2,1.6-14.6,4.7-19c3.2-4.6,8-6.9,14.1-6.9
				c11.6,0,17.5,8.4,17.5,24.8c0,8-1.6,14.3-4.6,18.6C104.4,86.8,99.7,89.1,93.8,89.1z M94.7,42.2c-5,0-8.7,1.8-11.3,5.5
				c-2.7,3.8-4.1,9.5-4.1,17c0,14.2,4.7,21,14.5,21c4.8,0,8.4-1.8,11-5.4c2.7-3.8,4-9.4,4-16.7C108.8,49.2,104.2,42.2,94.7,42.2z
				 M94.1,81.4c-8.1,0-8.1-12.8-8.1-17c0-4.5,0-18,8.2-18c7.8,0,7.8,13.2,7.8,17.5S102,81.4,94.1,81.4z M94.2,49.8
				c-4.2,0-4.8,9.1-4.8,14.6c0,6.2,0.8,13.6,4.7,13.6c3.9,0,4.5-8.8,4.5-14.1C98.6,54.8,97.1,49.8,94.2,49.8z"/>
		</g>
		<g>
			<path class="st1" d="M131.1,89.1c-11.9,0-17.9-8.2-17.9-24.5c0-8.2,1.6-14.6,4.7-19c3.2-4.6,8-6.9,14.1-6.9
				c11.6,0,17.5,8.4,17.5,24.8c0,8-1.6,14.3-4.6,18.6C141.6,86.8,137,89.1,131.1,89.1z M132,42.2c-5,0-8.7,1.8-11.3,5.5
				c-2.7,3.8-4.1,9.5-4.1,17c0,14.2,4.7,21,14.5,21c4.8,0,8.4-1.8,11-5.4c2.7-3.8,4-9.4,4-16.7C146.1,49.2,141.5,42.2,132,42.2z
				 M131.4,81.4c-8.1,0-8.1-12.8-8.1-17c0-4.5,0-18,8.2-18c7.8,0,7.8,13.2,7.8,17.5S139.3,81.4,131.4,81.4z M131.5,49.8
				c-4.2,0-4.8,9.1-4.8,14.6c0,6.2,0.8,13.6,4.7,13.6c3.9,0,4.5-8.8,4.5-14.1C135.9,54.8,134.3,49.8,131.5,49.8z"/>
		</g>
		<g>
			<path class="st1" d="M168.3,89.1c-11.9,0-17.9-8.2-17.9-24.5c0-8.2,1.6-14.6,4.7-19c3.2-4.6,8-6.9,14.1-6.9
				c11.6,0,17.5,8.4,17.5,24.8c0,8-1.6,14.3-4.6,18.6C178.9,86.8,174.3,89.1,168.3,89.1z M169.2,42.2c-5,0-8.7,1.8-11.3,5.5
				c-2.7,3.8-4.1,9.5-4.1,17c0,14.2,4.7,21,14.5,21c4.8,0,8.4-1.8,11-5.4c2.7-3.8,4-9.4,4-16.7C183.3,49.2,178.7,42.2,169.2,42.2z
				 M168.7,81.4c-8.1,0-8.1-12.8-8.1-17c0-4.5,0-18,8.2-18c7.8,0,7.8,13.2,7.8,17.5S176.6,81.4,168.7,81.4z M168.8,49.8
				c-4.2,0-4.8,9.1-4.8,14.6c0,6.2,0.8,13.6,4.7,13.6c3.9,0,4.5-8.8,4.5-14.1C173.1,54.8,171.6,49.8,168.8,49.8z"/>
		</g>
	</g>
	<g class="st0">
		<g>
			<path class="st1" d="M199.6,67.2c-1.5,0-3-0.1-4.4-0.4c-1.5-0.3-2.8-0.8-3.9-1.6c-1.2-0.8-2.1-1.8-2.8-3c-0.7-1.2-1-2.7-1.1-4.4
				c-0.7-0.2-1.2-0.9-1.2-1.6v-3.5c0-0.7,0.4-1.2,0.9-1.5c-0.5-0.3-0.9-0.9-0.9-1.5v-3.5c0-0.9,0.8-1.7,1.7-1.7h0.7v-5.4
				c0-0.7,0.4-1.3,1.1-1.6c1-0.4,2.1-0.7,3.3-0.9c1.1-0.2,2.5-0.3,3.9-0.3c1.5,0,3,0.2,4.4,0.5c1.4,0.3,2.7,0.9,3.9,1.7
				c1.2,0.8,2.1,1.8,2.8,3c0.5,0.9,0.8,1.9,1,3c0.7,0.2,1.1,0.9,1.1,1.6v3.5c0,0.7-0.4,1.2-0.9,1.5c0.5,0.3,0.9,0.9,0.9,1.5v3.5
				c0,0.8-0.5,1.4-1.2,1.6c0,0.1,0,0.2,0,0.4V64c0,0.6-0.4,1.2-0.9,1.5c-1.1,0.6-2.4,1-3.9,1.3C202.7,67,201.2,67.2,199.6,67.2z
				 M189.6,54.5c0.4,0.1,0.7,0.3,0.9,0.6c0.3,0.4,0.5,0.9,0.4,1.4c-0.1,0.3-0.1,0.7-0.1,1.2c0,1.2,0.2,2.1,0.6,2.9
				c0.4,0.8,1,1.4,1.7,1.8c0.8,0.5,1.7,0.9,2.8,1.1c2.4,0.5,5.1,0.5,7.5,0c0.7-0.1,1.4-0.3,2-0.5v-1.7c-0.4,0.2-0.8,0.4-1.2,0.5
				c-1.4,0.5-2.9,0.8-4.4,0.8c-0.9,0-1.7-0.1-2.4-0.3c-0.7-0.2-1.4-0.4-1.9-0.8c-0.6-0.4-1.1-0.9-1.4-1.4c-0.3-0.6-0.5-1.3-0.5-2.1
				c0-0.9,0.3-1.8,0.9-2.7c0.3-0.5,0.9-0.8,1.4-0.8h10.6v0H202c-0.8,0-1.5-0.6-1.7-1.3c-0.2-0.8,0.2-1.6,1-1.9
				c1.4-0.7,2.5-1.5,3.3-2.5c0.3-0.4,0.8-0.7,1.4-0.7h0.7v-0.2c-0.6-0.3-1-0.9-1-1.6V46c0-1.1-0.2-2-0.6-2.7c-0.4-0.8-1-1.4-1.7-1.9
				c-0.8-0.5-1.7-0.9-2.8-1.2c-1.1-0.3-2.3-0.4-3.6-0.4c-1.3,0-2.4,0.1-3.4,0.2c-0.5,0.1-1,0.2-1.5,0.3v1.5c0.3-0.1,0.6-0.2,0.9-0.3
				c0.6-0.2,1.3-0.3,1.9-0.4c1.5-0.2,2.9-0.2,4,0.1c0.7,0.2,1.4,0.4,1.9,0.8c0.6,0.4,1.1,0.8,1.4,1.4c0.4,0.6,0.6,1.3,0.6,2.2
				c0,0.3,0,0.5-0.1,0.8c-0.1,0.8-0.8,1.5-1.7,1.5h-11.4v0h7.4c0.8,0,1.5,0.6,1.7,1.4c0.2,0.8-0.3,1.6-1.1,1.9
				c-1.2,0.5-2.3,1-3.1,1.4c-1,0.6-1.6,1-1.8,1.2c-0.3,0.3-0.7,0.4-1.1,0.4L189.6,54.5L189.6,54.5z M197.1,57.8c0,0,0,0.1,0,0.1
				c0,0.3,0.1,0.4,0.1,0.4c0,0.1,0.1,0.2,0.3,0.3c0.2,0.1,0.5,0.3,0.9,0.3c0.4,0.1,1,0.2,1.6,0.2c1.1,0,2.2-0.2,3.2-0.6
				c0.5-0.2,1-0.4,1.5-0.7H197.1z M196.3,44.5h0.5C196.6,44.5,196.5,44.5,196.3,44.5z"/>
		</g>
	</g>
	<g class="st0">
		<path class="st2" d="M-12.5,85.4v-8.5c3.1,1.9,6.4,2.8,9.9,2.8c2.6,0,4.7-0.6,6.2-1.9c1.5-1.3,2.2-3,2.2-5.1
			c0-4.5-3.2-6.7-9.5-6.7c-2.3,0-5,0.2-8.1,0.5l1.7-25.3h24v8.2H-2.5l-0.6,9.1c1.6-0.1,3-0.2,4.2-0.2c4.7,0,8.3,1.2,10.9,3.7
			c2.6,2.4,4,5.7,4,9.9c0,4.6-1.6,8.3-4.7,11.2c-3.1,2.9-7.4,4.4-12.8,4.4C-5.9,87.4-9.5,86.7-12.5,85.4z"/>
		<path class="st2" d="M38.7,87.4c-10.8,0-16.2-7.6-16.2-22.7c0-7.9,1.5-13.9,4.4-18c2.9-4.1,7.2-6.2,12.7-6.2
			c10.5,0,15.8,7.7,15.8,23.1c0,7.7-1.4,13.6-4.3,17.7C48.2,85.3,44,87.4,38.7,87.4z M39.1,48.1c-4.3,0-6.5,5.4-6.5,16.3
			c0,10.2,2.1,15.3,6.4,15.3c4.1,0,6.2-5.3,6.2-15.8C45.2,53.4,43.2,48.1,39.1,48.1z"/>
		<path class="st2" d="M93.8,87.4c-10.8,0-16.2-7.6-16.2-22.7c0-7.9,1.5-13.9,4.4-18c2.9-4.1,7.2-6.2,12.7-6.2
			c10.5,0,15.8,7.7,15.8,23.1c0,7.7-1.4,13.6-4.3,17.7C103.3,85.3,99.2,87.4,93.8,87.4z M94.2,48.1c-4.3,0-6.5,5.4-6.5,16.3
			c0,10.2,2.1,15.3,6.4,15.3c4.1,0,6.2-5.3,6.2-15.8C100.3,53.4,98.3,48.1,94.2,48.1z"/>
		<path class="st2" d="M131.1,87.4c-10.8,0-16.2-7.6-16.2-22.7c0-7.9,1.5-13.9,4.4-18c2.9-4.1,7.2-6.2,12.7-6.2
			c10.5,0,15.8,7.7,15.8,23.1c0,7.7-1.4,13.6-4.3,17.7C140.6,85.3,136.4,87.4,131.1,87.4z M131.5,48.1c-4.3,0-6.5,5.4-6.5,16.3
			c0,10.2,2.1,15.3,6.4,15.3c4.1,0,6.2-5.3,6.2-15.8C137.6,53.4,135.6,48.1,131.5,48.1z"/>
		<path class="st2" d="M168.3,87.4c-10.8,0-16.2-7.6-16.2-22.7c0-7.9,1.5-13.9,4.4-18c2.9-4.1,7.2-6.2,12.7-6.2
			c10.5,0,15.8,7.7,15.8,23.1c0,7.7-1.4,13.6-4.3,17.7C177.8,85.3,173.7,87.4,168.3,87.4z M168.8,48.1c-4.3,0-6.5,5.4-6.5,16.3
			c0,10.2,2.1,15.3,6.4,15.3c4.1,0,6.2-5.3,6.2-15.8C174.9,53.4,172.8,48.1,168.8,48.1z"/>
	</g>
	<g class="st0">
		<path class="st2" d="M208.3,46.2v3.5h-2.4c-0.9,1.2-2.2,2.2-3.9,3h6.3v3.5H196c-0.4,0.6-0.6,1.2-0.6,1.8c0,0.5,0.1,0.9,0.3,1.2
			c0.2,0.3,0.5,0.6,0.8,0.8c0.4,0.2,0.8,0.4,1.4,0.6c0.6,0.1,1.2,0.2,2,0.2c1.3,0,2.5-0.2,3.8-0.7c1.3-0.4,2.4-1.1,3.5-2V64
			c-1,0.5-2.1,0.9-3.4,1.1c-1.3,0.2-2.7,0.4-4.1,0.4c-1.4,0-2.8-0.1-4-0.4c-1.3-0.3-2.4-0.7-3.3-1.3c-1-0.6-1.7-1.4-2.3-2.4
			c-0.6-1-0.8-2.2-0.8-3.7c0-0.5,0-1,0.1-1.5h-1.3v-3.5h3.6c0.5-0.4,1.2-0.9,2.1-1.4c0.9-0.5,2-1.1,3.3-1.6h-9.1v-3.5H201
			c0-0.2,0-0.4,0-0.6c0-0.5-0.1-1-0.3-1.3c-0.2-0.3-0.5-0.6-0.9-0.8c-0.4-0.2-0.8-0.4-1.4-0.5s-1.2-0.2-1.8-0.2c-0.5,0-1,0-1.6,0.1
			c-0.5,0.1-1.1,0.2-1.7,0.3c-0.6,0.2-1.1,0.3-1.6,0.6c-0.5,0.2-1,0.5-1.4,0.8v-5.5c0.9-0.3,1.9-0.6,2.9-0.8
			c1.1-0.2,2.3-0.2,3.7-0.2c1.4,0,2.7,0.2,4,0.5s2.4,0.8,3.3,1.4c1,0.6,1.7,1.5,2.3,2.4c0.6,1,0.8,2.2,0.8,3.6v0.2H208.3z"/>
	</g>
	<g class="st0">
		<path class="st2" d="M-12.5,85.4v-8.5c3.1,1.9,6.4,2.8,9.9,2.8c2.6,0,4.7-0.6,6.2-1.9c1.5-1.3,2.2-3,2.2-5.1
			c0-4.5-3.2-6.7-9.5-6.7c-2.3,0-5,0.2-8.1,0.5l1.7-25.3h24v8.2H-2.5l-0.6,9.1c1.6-0.1,3-0.2,4.2-0.2c4.7,0,8.3,1.2,10.9,3.7
			c2.6,2.4,4,5.7,4,9.9c0,4.6-1.6,8.3-4.7,11.2c-3.1,2.9-7.4,4.4-12.8,4.4C-5.9,87.4-9.5,86.7-12.5,85.4z"/>
		<path class="st2" d="M38.7,87.4c-10.8,0-16.2-7.6-16.2-22.7c0-7.9,1.5-13.9,4.4-18c2.9-4.1,7.2-6.2,12.7-6.2
			c10.5,0,15.8,7.7,15.8,23.1c0,7.7-1.4,13.6-4.3,17.7C48.2,85.3,44,87.4,38.7,87.4z M39.1,48.1c-4.3,0-6.5,5.4-6.5,16.3
			c0,10.2,2.1,15.3,6.4,15.3c4.1,0,6.2-5.3,6.2-15.8C45.2,53.4,43.2,48.1,39.1,48.1z"/>
		<path class="st2" d="M93.8,87.4c-10.8,0-16.2-7.6-16.2-22.7c0-7.9,1.5-13.9,4.4-18c2.9-4.1,7.2-6.2,12.7-6.2
			c10.5,0,15.8,7.7,15.8,23.1c0,7.7-1.4,13.6-4.3,17.7C103.3,85.3,99.2,87.4,93.8,87.4z M94.2,48.1c-4.3,0-6.5,5.4-6.5,16.3
			c0,10.2,2.1,15.3,6.4,15.3c4.1,0,6.2-5.3,6.2-15.8C100.3,53.4,98.3,48.1,94.2,48.1z"/>
		<path class="st2" d="M131.1,87.4c-10.8,0-16.2-7.6-16.2-22.7c0-7.9,1.5-13.9,4.4-18c2.9-4.1,7.2-6.2,12.7-6.2
			c10.5,0,15.8,7.7,15.8,23.1c0,7.7-1.4,13.6-4.3,17.7C140.6,85.3,136.4,87.4,131.1,87.4z M131.5,48.1c-4.3,0-6.5,5.4-6.5,16.3
			c0,10.2,2.1,15.3,6.4,15.3c4.1,0,6.2-5.3,6.2-15.8C137.6,53.4,135.6,48.1,131.5,48.1z"/>
		<path class="st2" d="M168.3,87.4c-10.8,0-16.2-7.6-16.2-22.7c0-7.9,1.5-13.9,4.4-18c2.9-4.1,7.2-6.2,12.7-6.2
			c10.5,0,15.8,7.7,15.8,23.1c0,7.7-1.4,13.6-4.3,17.7C177.8,85.3,173.7,87.4,168.3,87.4z M168.8,48.1c-4.3,0-6.5,5.4-6.5,16.3
			c0,10.2,2.1,15.3,6.4,15.3c4.1,0,6.2-5.3,6.2-15.8C174.9,53.4,172.8,48.1,168.8,48.1z"/>
	</g>
	<g class="st0">
		<path class="st2" d="M208.3,46.2v3.5h-2.4c-0.9,1.2-2.2,2.2-3.9,3h6.3v3.5H196c-0.4,0.6-0.6,1.2-0.6,1.8c0,0.5,0.1,0.9,0.3,1.2
			c0.2,0.3,0.5,0.6,0.8,0.8c0.4,0.2,0.8,0.4,1.4,0.6c0.6,0.1,1.2,0.2,2,0.2c1.3,0,2.5-0.2,3.8-0.7c1.3-0.4,2.4-1.1,3.5-2V64
			c-1,0.5-2.1,0.9-3.4,1.1c-1.3,0.2-2.7,0.4-4.1,0.4c-1.4,0-2.8-0.1-4-0.4c-1.3-0.3-2.4-0.7-3.3-1.3c-1-0.6-1.7-1.4-2.3-2.4
			c-0.6-1-0.8-2.2-0.8-3.7c0-0.5,0-1,0.1-1.5h-1.3v-3.5h3.6c0.5-0.4,1.2-0.9,2.1-1.4c0.9-0.5,2-1.1,3.3-1.6h-9.1v-3.5H201
			c0-0.2,0-0.4,0-0.6c0-0.5-0.1-1-0.3-1.3c-0.2-0.3-0.5-0.6-0.9-0.8c-0.4-0.2-0.8-0.4-1.4-0.5s-1.2-0.2-1.8-0.2c-0.5,0-1,0-1.6,0.1
			c-0.5,0.1-1.1,0.2-1.7,0.3c-0.6,0.2-1.1,0.3-1.6,0.6c-0.5,0.2-1,0.5-1.4,0.8v-5.5c0.9-0.3,1.9-0.6,2.9-0.8
			c1.1-0.2,2.3-0.2,3.7-0.2c1.4,0,2.7,0.2,4,0.5s2.4,0.8,3.3,1.4c1,0.6,1.7,1.5,2.3,2.4c0.6,1,0.8,2.2,0.8,3.6v0.2H208.3z"/>
	</g>
	<g id="Сгруппировать_47" transform="translate(47.447 0)">
		<g id="Сгруппировать_10" transform="translate(110.88 145.951)">
			<g id="Сгруппировать_9" transform="translate(0 0)">
				<g id="Сгруппировать_7" transform="translate(1.174 0.525)">
					
						<linearGradient id="Контур_19_1_" gradientUnits="userSpaceOnUse" x1="-993.0317" y1="439.1151" x2="-992.3082" y2="439.1151" gradientTransform="matrix(7.3646 0 0 -9.3173 7209.125 4045.3794)">
						<stop  offset="0" style="stop-color:#FFA100"/>
						<stop  offset="0.165" style="stop-color:#FFBC00"/>
						<stop  offset="0.169" style="stop-color:#FFC833"/>
						<stop  offset="0.479" style="stop-color:#FFE793"/>
						<stop  offset="0.801" style="stop-color:#FFD751"/>
						<stop  offset="0.805" style="stop-color:#FFC000"/>
						<stop  offset="1" style="stop-color:#FFA200"/>
					</linearGradient>
					<path id="Контур_19" class="st3" d="M-60.9-48.8c-1,0.4-1.3,2.1-0.6,3.7s2,2.6,3.1,2.2c0.2-0.1,0.4-0.2,0.6-0.3
						c1-0.4,1.3-2.1,0.6-3.7c-0.7-1.6-2-2.6-3.1-2.2C-60.4-49-60.7-48.9-60.9-48.8z"/>
					<path id="Контур_20" class="st4" d="M-60.6-43.6L-60.6-43.6c-0.4-0.4-0.8-1-1-1.5c-0.7-1.7-0.4-3.3,0.7-3.8
						c0.1,0,0.2-0.1,0.3-0.1c0.1,0,0.2-0.1,0.3-0.1c0.8-0.2,1.6,0.1,2.1,0.7c0.4,0.4,0.8,1,1,1.5c0.7,1.7,0.4,3.3-0.7,3.8
						c-0.1,0-0.2,0.1-0.3,0.1c-0.1,0-0.2,0.1-0.3,0.1C-59.2-42.6-60.1-42.9-60.6-43.6z M-58.2-48.3c-0.5-0.6-1.3-0.9-2-0.7
						c-0.1,0-0.2,0.1-0.3,0.1c-0.1,0-0.2,0.1-0.3,0.1c-1,0.4-1.3,2-0.6,3.6c0.2,0.6,0.6,1.1,1,1.5c0.5,0.6,1.3,0.9,2,0.7
						c0.1,0,0.2-0.1,0.3-0.1c0.1,0,0.2-0.1,0.3-0.1c1-0.4,1.3-2,0.6-3.6C-57.5-47.4-57.8-47.9-58.2-48.3L-58.2-48.3z"/>
				</g>
				<g id="Сгруппировать_8">
					
						<linearGradient id="Эллипс_1_1_" gradientUnits="userSpaceOnUse" x1="-992.0883" y1="488.3354" x2="-992.0883" y2="488.1928" gradientTransform="matrix(5.4374 -2.2223 -3.5404 -8.6624 6862.7432 1485.775)">
						<stop  offset="0" style="stop-color:#DA6400"/>
						<stop  offset="1" style="stop-color:#FA8900"/>
					</linearGradient>
					<path id="Эллипс_1" class="st5" d="M-59.7-48.3c1-0.4,2.4,0.6,3.1,2.2c0.7,1.6,0.4,3.3-0.6,3.7c-1,0.4-2.4-0.6-3.1-2.2
						C-61-46.2-60.7-47.9-59.7-48.3z"/>
					<path id="Контур_21" class="st6" d="M-59.4-43L-59.4-43c-0.4-0.4-0.8-1-1-1.5c-0.7-1.7-0.4-3.3,0.7-3.8
						c0.8-0.2,1.6,0.1,2.1,0.7c0.4,0.4,0.8,1,1,1.5c0.7,1.7,0.4,3.3-0.7,3.8C-58-42.1-58.9-42.4-59.4-43z M-57.6-47.6
						c-0.5-0.6-1.3-0.9-2-0.7c-1,0.4-1.3,2-0.6,3.6c0.2,0.6,0.6,1.1,1,1.5c0.5,0.6,1.3,0.9,2,0.7c1-0.4,1.3-2,0.6-3.6
						C-56.9-46.6-57.2-47.1-57.6-47.6z"/>
				</g>
				<path id="Контур_22" class="st7" d="M-60.1-44.7c0.6,1.4,1.7,2.2,2.6,1.8c0.3-0.2,0.6-0.4,0.7-0.8
					c-0.1,0.3-0.3,0.5-0.6,0.6c-0.8,0.3-1.9-0.5-2.5-1.8c-0.5-1.3-0.3-2.7,0.5-3c0.3-0.1,0.6-0.1,0.9,0c-0.3-0.2-0.7-0.2-1.1-0.1
					C-60.4-47.5-60.6-46.1-60.1-44.7z"/>
			</g>
			<path id="Контур_23" class="st2" d="M-56.5-45.7L-56.5-45.7c0-0.1,0-0.1,0-0.2c0,0-0.1-0.1-0.1-0.1c0,0-0.1,0.1-0.1,0.1
				c0,0,0,0,0,0c0,0,0,0.1,0,0.1C-56.6-45.7-56.6-45.7-56.5-45.7C-56.6-45.6-56.5-45.7-56.5-45.7z"/>
		</g>
		<g id="Сгруппировать_14" transform="translate(45.332 139.897)">
			<g id="Сгруппировать_13" transform="translate(0 0)">
				<g id="Сгруппировать_11" transform="translate(1.697 0.922)">
					
						<linearGradient id="Контур_24_1_" gradientUnits="userSpaceOnUse" x1="-945.2957" y1="452.9969" x2="-944.5087" y2="452.9969" gradientTransform="matrix(13.9235 0 0 -16.1992 12998.4805 7296.3428)">
						<stop  offset="0" style="stop-color:#E06700"/>
						<stop  offset="0.261" style="stop-color:#CA5400"/>
						<stop  offset="0.261" style="stop-color:#BA3900"/>
						<stop  offset="0.498" style="stop-color:#983100"/>
						<stop  offset="0.743" style="stop-color:#BA3600"/>
						<stop  offset="0.743" style="stop-color:#C75400"/>
						<stop  offset="1" style="stop-color:#E56B00"/>
					</linearGradient>
					<path id="Контур_24" class="st8" d="M-38.5-46.9c-2.2,0.6-3.3,3.5-2.4,6.4s3.3,4.8,5.4,4.1l1.1-0.3
						c2.2-0.6,3.3-3.5,2.4-6.4c-0.8-2.9-3.3-4.8-5.4-4.1L-38.5-46.9z"/>
					<path id="Контур_25" class="st9" d="M-36.3-36.2L-36.3-36.2c-2,0-3.9-1.8-4.6-4.3c-0.8-2.9,0.3-5.8,2.5-6.4l1.1-0.3
						c0.3-0.1,0.6-0.1,0.9-0.1c2,0,3.9,1.8,4.6,4.3c0.4,1.3,0.4,2.8-0.1,4.1c-0.4,1.1-1.3,2-2.4,2.4l-1.1,0.3
						C-35.7-36.3-36-36.2-36.3-36.2z M-36.5-47.3c-0.3,0-0.6,0-0.8,0.1l-1.1,0.3c-2.1,0.6-3.2,3.4-2.4,6.3c0.7,2.4,2.6,4.2,4.5,4.2
						l0,0c0.3,0,0.6,0,0.8-0.1l1.1-0.3c1.1-0.4,1.9-1.2,2.3-2.3c0.5-1.3,0.5-2.7,0.1-4C-32.7-45.5-34.6-47.3-36.5-47.3z"/>
				</g>
				<g id="Сгруппировать_12">
					
						<linearGradient id="Эллипс_2_1_" gradientUnits="userSpaceOnUse" x1="-944.2318" y1="481.6711" x2="-944.1541" y2="481.354" gradientTransform="matrix(11.5286 -3.2836 -4.3867 -15.4016 12732.7607 3810.5911)">
						<stop  offset="0" style="stop-color:#FFCD22"/>
						<stop  offset="1" style="stop-color:#FA8900"/>
					</linearGradient>
					<path id="Эллипс_2" class="st10" d="M-36.8-46c2.2-0.6,4.6,1.2,5.4,4.1c0.8,2.9-0.3,5.8-2.4,6.4
						c-2.2,0.6-4.6-1.2-5.4-4.1C-40-42.5-38.9-45.4-36.8-46z"/>
					<path id="Контур_26" class="st6" d="M-34.6-35.3L-34.6-35.3c-2,0-3.9-1.8-4.6-4.3c-0.8-2.9,0.3-5.8,2.5-6.4
						c0.3-0.1,0.6-0.1,0.9-0.1c2,0,3.9,1.8,4.6,4.3c0.4,1.3,0.4,2.8-0.1,4.1c-0.4,1.1-1.3,2-2.4,2.4C-34-35.4-34.3-35.3-34.6-35.3z
						 M-35.9-46.1c-0.3,0-0.6,0-0.8,0.1c-2.1,0.6-3.2,3.4-2.4,6.3c0.7,2.4,2.6,4.2,4.5,4.2l0,0c0.3,0,0.6,0,0.8-0.1
						c1.1-0.3,1.9-1.2,2.3-2.3c0.5-1.3,0.5-2.7,0.1-4C-32.1-44.3-34-46.1-35.9-46.1z"/>
				</g>
				
					<linearGradient id="Контур_27_1_" gradientUnits="userSpaceOnUse" x1="-936.7664" y1="485.2497" x2="-936.4902" y2="484.7403" gradientTransform="matrix(7.7831 0 0 -15.3761 7118.6914 6929.7656)">
					<stop  offset="0.195" style="stop-color:#FFEC7E"/>
					<stop  offset="0.902" style="stop-color:#FFAD00"/>
				</linearGradient>
				<path id="Контур_27" class="st11" d="M-37.1-45.9c-1.9,0.8-2.8,3.5-2.1,6.2s3,4.5,5,4.2L-37.1-45.9z"/>
				<path id="Контур_28" class="st12" d="M-38.7-39.8c0.7,2.4,2.8,4,4.6,3.5c0.7-0.2,1.3-0.7,1.7-1.3c-0.3,0.5-0.8,0.8-1.4,1
					c-1.8,0.5-3.7-1-4.4-3.3c-0.7-2.3,0.2-4.6,2-5.1c0.6-0.2,1.2-0.1,1.7,0.1c-0.7-0.3-1.4-0.4-2.1-0.2
					C-38.4-44.6-39.4-42.2-38.7-39.8z"/>
				<path id="Контур_29" class="st13" d="M-34-36.3l0.1,0l0.2-0.1c0.1,0,0.1-0.1,0.2-0.1l0.1-0.1c0,0,0.1-0.1,0.1-0.1
					c0.1-0.1,0.2-0.1,0.3-0.2c0.1-0.1,0.2-0.2,0.3-0.3l0.1-0.2l0.1-0.2c0.1-0.1,0.2-0.3,0.2-0.4c0.1-0.1,0.1-0.3,0.2-0.5
					c0.1-0.2,0.1-0.3,0.1-0.5c0-0.1,0-0.2,0.1-0.3l0-0.3c0-0.1,0-0.2,0-0.3c0-0.1,0-0.2,0-0.3c0-0.2,0-0.4,0-0.6
					c-0.1-0.8-0.3-1.5-0.6-2.2c-0.1-0.2-0.2-0.3-0.3-0.5c0-0.1-0.1-0.2-0.2-0.2c-0.1-0.1-0.1-0.2-0.2-0.2l-0.2-0.2
					c-0.1-0.1-0.1-0.1-0.2-0.2c-0.1-0.1-0.2-0.2-0.4-0.3c-0.1-0.1-0.1-0.1-0.2-0.1c-0.1,0-0.1-0.1-0.2-0.1c-0.1-0.1-0.3-0.2-0.4-0.2
					l-0.2-0.1l-0.2-0.1c-0.1,0-0.2-0.1-0.4-0.1c-0.1,0-0.2,0-0.3,0c-0.1,0-0.1,0-0.1,0l-0.1,0c-0.1,0-0.2,0-0.2,0l-0.2,0l-0.1,0
					l0.1,0l0.2,0c0.1,0,0.2,0,0.2,0l0.1,0c0,0,0.1,0,0.2,0c0.1,0,0.2,0,0.3,0c0.1,0,0.3,0,0.4,0.1l0.2,0.1l0.2,0.1
					c0.1,0.1,0.3,0.1,0.4,0.2c0.1,0,0.1,0.1,0.2,0.1c0.1,0,0.1,0.1,0.2,0.1c0.1,0.1,0.3,0.2,0.4,0.3c0.1,0.1,0.3,0.3,0.4,0.4
					c0.1,0.1,0.1,0.1,0.2,0.2c0.1,0.1,0.1,0.2,0.2,0.2c0.1,0.2,0.2,0.3,0.3,0.5c0.2,0.4,0.3,0.7,0.4,1.1c0.1,0.4,0.2,0.8,0.2,1.2
					c0,0.2,0,0.4,0,0.6c0,0.1,0,0.2,0,0.3c0,0.1,0,0.2,0,0.3c0,0.2-0.1,0.4-0.1,0.5c0,0.2-0.1,0.3-0.2,0.5c0,0.1-0.1,0.2-0.1,0.2
					c0,0.1-0.1,0.2-0.1,0.2c-0.1,0.1-0.2,0.3-0.2,0.4l-0.1,0.2l-0.1,0.2c-0.1,0.1-0.2,0.2-0.3,0.3c-0.1,0.1-0.2,0.1-0.3,0.2
					c0,0-0.1,0.1-0.1,0.1l-0.1,0.1c-0.1,0-0.1,0.1-0.2,0.1l-0.2,0.1L-34-36.3z"/>
			</g>
			<path id="Контур_30" class="st2" d="M-32.8-44.9c0-0.1-0.1-0.1-0.1-0.2c-0.1-0.1-0.2-0.1-0.3,0c0,0,0,0,0,0
				c-0.1,0.1,0,0.3,0.1,0.4c0.1,0.1,0.2,0.1,0.3,0C-32.8-44.7-32.8-44.8-32.8-44.9z"/>
			<path id="Контур_31" class="st2" d="M-37.4-36.8c-0.1-0.1-0.1-0.1-0.2-0.1l0,0c-0.1-0.1-0.2,0.1-0.1,0.2l0,0
				c0,0.1,0.1,0.2,0.2,0.3c0.1,0.1,0.2,0,0.2,0C-37.3-36.7-37.3-36.8-37.4-36.8z"/>
			<path id="Контур_32" class="st2" d="M-36.8-37.6C-36.8-37.6-36.9-37.6-36.8-37.6c0,0.1,0,0.3,0.2,0.3c0,0,0,0,0,0
				C-36.6-37.5-36.7-37.5-36.8-37.6z"/>
			<path id="Контур_33" class="st2" d="M-33.1-44L-33.1-44c-0.1-0.1-0.3,0-0.2,0.1l0,0C-33.2-43.8-33-43.9-33.1-44z"/>
		</g>
		<g id="Сгруппировать_49" transform="translate(116.508 187.914) rotate(139)">
			<g id="Сгруппировать_13-2" transform="translate(0 0)">
				<g id="Сгруппировать_11-2" transform="translate(1.697 0.922)">
					
						<linearGradient id="Контур_24-2_1_" gradientUnits="userSpaceOnUse" x1="1068.099" y1="352.4832" x2="1068.8861" y2="352.4832" gradientTransform="matrix(-10.5066 -10.6276 -9.1333 12.2257 14325.6162 7135.9136)">
						<stop  offset="0" style="stop-color:#E06700"/>
						<stop  offset="0.261" style="stop-color:#CA5400"/>
						<stop  offset="0.261" style="stop-color:#BA3900"/>
						<stop  offset="0.498" style="stop-color:#983100"/>
						<stop  offset="0.743" style="stop-color:#BA3600"/>
						<stop  offset="0.743" style="stop-color:#C75400"/>
						<stop  offset="1" style="stop-color:#E56B00"/>
					</linearGradient>
					<path id="Контур_24-2" class="st14" d="M9.1,88.8c-2.2,0.6-3.3,3.5-2.4,6.4c0.8,2.9,3.3,4.8,5.4,4.1l1.1-0.3
						c2.2-0.6,3.3-3.5,2.4-6.4c-0.8-2.9-3.3-4.8-5.4-4.1L9.1,88.8z"/>
					<path id="Контур_25-2" class="st9" d="M11.2,99.5L11.2,99.5c-2,0-3.9-1.8-4.6-4.3c-0.8-2.9,0.3-5.8,2.5-6.4l1.1-0.3
						c0.3-0.1,0.6-0.1,0.9-0.1c2,0,3.9,1.8,4.6,4.3c0.4,1.3,0.4,2.8-0.1,4.1c-0.4,1.1-1.3,2-2.4,2.4l-1.1,0.3
						C11.8,99.5,11.5,99.5,11.2,99.5z M11,88.5c-0.3,0-0.6,0-0.8,0.1l-1.1,0.3c-2.1,0.6-3.2,3.4-2.4,6.3c0.7,2.4,2.6,4.2,4.5,4.2
						l0,0c0.3,0,0.6,0,0.8-0.1l1.1-0.3c1.1-0.4,1.9-1.2,2.3-2.3c0.5-1.3,0.5-2.7,0.1-4C14.8,90.2,13,88.5,11,88.5z"/>
				</g>
				<g id="Сгруппировать_12-2" transform="translate(0)">
					
						<linearGradient id="Эллипс_2-2_1_" gradientUnits="userSpaceOnUse" x1="1085.7791" y1="323.8575" x2="1085.8567" y2="324.1746" gradientTransform="matrix(-11.5787 -7.6262 -4.2527 13.778 13730.876 3446.5667)">
						<stop  offset="0" style="stop-color:#FFCD22"/>
						<stop  offset="1" style="stop-color:#FA8900"/>
					</linearGradient>
					<path id="Эллипс_2-2" class="st15" d="M10.8,89.7c2.2-0.6,4.6,1.2,5.4,4.1c0.8,2.9-0.3,5.8-2.4,6.4S9.2,99,8.4,96.1
						C7.5,93.2,8.6,90.4,10.8,89.7z"/>
					<path id="Контур_26-2" class="st6" d="M12.9,100.4L12.9,100.4c-2,0-3.9-1.8-4.6-4.3c-0.8-2.9,0.3-5.8,2.5-6.4
						c0.3-0.1,0.6-0.1,0.9-0.1c2,0,3.9,1.8,4.6,4.3c0.4,1.3,0.4,2.8-0.1,4.1c-0.4,1.1-1.3,2-2.4,2.4
						C13.5,100.4,13.2,100.4,12.9,100.4z M11.7,89.7c-0.3,0-0.6,0-0.8,0.1c-2.1,0.6-3.2,3.4-2.4,6.3c0.7,2.4,2.6,4.2,4.5,4.2l0,0
						c0.3,0,0.6,0,0.8-0.1c1.1-0.3,1.9-1.2,2.3-2.3c0.5-1.3,0.5-2.7,0.1-4C15.5,91.5,13.6,89.7,11.7,89.7z"/>
				</g>
				
					<linearGradient id="Контур_27-2_1_" gradientUnits="userSpaceOnUse" x1="1100.7894" y1="336.7606" x2="1101.0657" y2="337.2701" gradientTransform="matrix(-5.8723 -10.0876 -5.1047 11.6045 8058.5474 6800.6831)">
					<stop  offset="0.195" style="stop-color:#FFEC7E"/>
					<stop  offset="0.902" style="stop-color:#FFAD00"/>
				</linearGradient>
				<path id="Контур_27-2" class="st16" d="M10.4,89.9c-1.9,0.8-2.8,3.5-2.1,6.2c0.8,2.7,3,4.5,5,4.2L10.4,89.9z"/>
				<path id="Контур_28-2" class="st12" d="M8.9,96c0.7,2.4,2.8,4,4.6,3.5c0.7-0.2,1.3-0.7,1.7-1.3c-0.3,0.5-0.8,0.8-1.4,1
					c-1.8,0.5-3.7-1-4.4-3.3c-0.7-2.3,0.2-4.6,2-5.1c0.6-0.2,1.2-0.1,1.7,0.1c-0.7-0.3-1.4-0.4-2.1-0.2C9.1,91.1,8.2,93.5,8.9,96z"
					/>
				<path id="Контур_29-2" class="st13" d="M13.5,99.4l0.1,0l0.2-0.1c0.1,0,0.1-0.1,0.2-0.1l0.1-0.1c0,0,0.1-0.1,0.1-0.1
					c0.1-0.1,0.2-0.1,0.3-0.2c0.1-0.1,0.2-0.2,0.3-0.3l0.1-0.2l0.1-0.2c0.1-0.1,0.2-0.3,0.2-0.4c0-0.1,0.1-0.1,0.1-0.2
					c0-0.1,0.1-0.2,0.1-0.2c0.1-0.2,0.1-0.3,0.1-0.5c0-0.1,0-0.2,0.1-0.3l0-0.3c0-0.1,0-0.2,0-0.3c0-0.1,0-0.2,0-0.3
					c0-0.2,0-0.4,0-0.6c0-0.4-0.1-0.8-0.2-1.1c-0.1-0.4-0.3-0.7-0.4-1.1c-0.1-0.2-0.2-0.3-0.3-0.5c0-0.1-0.1-0.2-0.2-0.2
					c-0.1-0.1-0.1-0.2-0.2-0.2l-0.2-0.2c-0.1-0.1-0.1-0.1-0.2-0.2c-0.1-0.1-0.2-0.2-0.4-0.3c-0.1-0.1-0.1-0.1-0.2-0.1
					c-0.1,0-0.1-0.1-0.2-0.1c-0.1-0.1-0.3-0.2-0.4-0.2l-0.2-0.1l-0.2-0.1c-0.1,0-0.2-0.1-0.4-0.1c-0.1,0-0.2,0-0.3,0
					c-0.1,0-0.1,0-0.1,0l-0.1,0c-0.1,0-0.2,0-0.2,0l-0.2,0l-0.1,0l0.1,0l0.2,0c0.1,0,0.2,0,0.2,0l0.1,0c0,0,0.1,0,0.2,0
					c0.1,0,0.2,0,0.3,0c0.1,0,0.3,0,0.4,0.1l0.2,0.1l0.2,0.1c0.1,0.1,0.3,0.1,0.4,0.2c0.1,0,0.1,0.1,0.2,0.1c0.1,0,0.1,0.1,0.2,0.1
					c0.1,0.1,0.3,0.2,0.4,0.3c0.1,0.1,0.3,0.3,0.4,0.4c0.1,0.1,0.1,0.1,0.2,0.2c0.1,0.1,0.1,0.2,0.2,0.2c0.1,0.2,0.2,0.3,0.3,0.5
					c0.2,0.4,0.3,0.7,0.4,1.1c0.1,0.4,0.2,0.8,0.2,1.2c0,0.2,0,0.4,0,0.6c0,0.1,0,0.2,0,0.3c0,0.1,0,0.2,0,0.3
					c0,0.2-0.1,0.4-0.1,0.5c0,0.2-0.1,0.3-0.2,0.5c0,0.1-0.1,0.2-0.1,0.2c0,0.1-0.1,0.2-0.1,0.2c-0.1,0.1-0.2,0.3-0.2,0.4L15,98.4
					l-0.1,0.2c-0.1,0.1-0.2,0.2-0.3,0.3c-0.1,0.1-0.2,0.1-0.3,0.2c0,0-0.1,0.1-0.1,0.1L14,99.2c-0.1,0-0.1,0.1-0.2,0.1l-0.2,0.1
					L13.5,99.4z"/>
			</g>
			<path id="Контур_30-2" class="st2" d="M14.7,90.9c0-0.1-0.1-0.1-0.1-0.2c-0.1-0.1-0.2-0.1-0.3,0c0,0,0,0,0,0
				c-0.1,0.1,0,0.3,0.1,0.4c0.1,0.1,0.2,0.1,0.3,0C14.8,91.1,14.8,91,14.7,90.9z"/>
			<path id="Контур_31-2" class="st2" d="M10.2,98.9c-0.1-0.1-0.1-0.1-0.2-0.1l0,0c-0.1-0.1-0.2,0.1-0.1,0.2l0,0
				c0,0.1,0.1,0.2,0.2,0.3c0.1,0.1,0.2,0.1,0.2,0c0,0,0,0,0,0C10.3,99.1,10.3,99,10.2,98.9z"/>
			<path id="Контур_32-2" class="st2" d="M10.8,98.2C10.7,98.1,10.7,98.2,10.8,98.2c0,0.1,0,0.3,0.2,0.3c0,0,0,0,0,0
				C11,98.3,10.8,98.2,10.8,98.2z"/>
			<path id="Контур_33-2" class="st2" d="M14.5,91.8L14.5,91.8c-0.1-0.1-0.3,0-0.2,0.1l0,0C14.4,92,14.6,91.9,14.5,91.8z"/>
		</g>
		<g id="Сгруппировать_18" transform="translate(68.116 7.424)">
			<g id="Сгруппировать_17" transform="translate(0 0)">
				<g id="Сгруппировать_15" transform="translate(0.842 0.816)">
					
						<linearGradient id="Контур_34_1_" gradientUnits="userSpaceOnUse" x1="-945.2569" y1="570.1998" x2="-944.6472" y2="570.1998" gradientTransform="matrix(8.7268 0 0 -8.4707 8223.4561 4827.6592)">
						<stop  offset="0" style="stop-color:#FFA100"/>
						<stop  offset="0.165" style="stop-color:#FFBC00"/>
						<stop  offset="0.169" style="stop-color:#FFC833"/>
						<stop  offset="0.479" style="stop-color:#FFE793"/>
						<stop  offset="0.801" style="stop-color:#FFD751"/>
						<stop  offset="0.805" style="stop-color:#FFC000"/>
						<stop  offset="1" style="stop-color:#FFA200"/>
					</linearGradient>
					<path id="Контур_34" class="st17" d="M-42.6-4.2c0.8,0.9,0.4,2.5-1,3.7c-1.3,1.2-3,1.4-3.8,0.6l-0.4-0.5
						c-0.8-0.9-0.4-2.5,1-3.7c1.3-1.2,3-1.4,3.8-0.6L-42.6-4.2z"/>
					<path id="Контур_35" class="st4" d="M-46.3,0.6L-46.3,0.6c1,0,2-0.4,2.7-1.1c0.6-0.5,1.1-1.2,1.3-2
						c0.2-0.6,0.1-1.3-0.3-1.8L-43-4.7c-0.3-0.3-0.7-0.5-1.1-0.5c-1,0-2,0.4-2.7,1.1c-1.3,1.2-1.8,2.9-1,3.8l0.4,0.5
						C-47.1,0.4-46.7,0.6-46.3,0.6z M-44.1-5.2c0.4,0,0.8,0.2,1.1,0.5l0.4,0.5c0.4,0.5,0.5,1.1,0.3,1.7c-0.2,0.8-0.7,1.4-1.3,2
						c-0.7,0.7-1.7,1.1-2.7,1.1l0,0c-0.4,0-0.8-0.2-1.1-0.5l-0.4-0.5c-0.8-0.9-0.3-2.5,0.9-3.7C-46.1-4.8-45.1-5.2-44.1-5.2
						L-44.1-5.2z"/>
				</g>
				<g id="Сгруппировать_16">
					
						<linearGradient id="Эллипс_3_1_" gradientUnits="userSpaceOnUse" x1="-971.8435" y1="618.8044" x2="-971.8435" y2="618.3871" gradientTransform="matrix(6.9576 -6.2581 -4.1676 -4.6335 8980.7148 -3567.0383)">
						<stop  offset="0" style="stop-color:#DA6400"/>
						<stop  offset="1" style="stop-color:#FA8900"/>
					</linearGradient>
					<path id="Эллипс_3" class="st18" d="M-45.6-2.9c1.3-1.2,3-1.4,3.8-0.6c0.8,0.9,0.4,2.5-1,3.7c-1.3,1.2-3,1.4-3.8,0.6
						C-47.3,0-46.9-1.7-45.6-2.9z"/>
					<path id="Контур_36" class="st6" d="M-45.4,1.4L-45.4,1.4c1,0,2-0.4,2.7-1.1c0.6-0.5,1.1-1.2,1.3-2
						c0.2-0.6,0.1-1.3-0.3-1.8C-42-3.7-42.4-3.9-42.9-4c-1,0-2,0.4-2.7,1.1c-1.3,1.2-1.8,2.9-1,3.8C-46.2,1.2-45.8,1.4-45.4,1.4z
						 M-42.9-3.9c0.4,0,0.8,0.2,1.1,0.5c0.4,0.5,0.5,1.1,0.3,1.7c-0.2,0.8-0.7,1.4-1.3,2c-0.7,0.7-1.7,1.1-2.7,1.1l0,0
						c-0.4,0-0.8-0.2-1.1-0.5c-0.8-0.9-0.3-2.5,0.9-3.7C-44.8-3.5-43.9-3.9-42.9-3.9L-42.9-3.9z"/>
				</g>
				
					<linearGradient id="Контур_37_1_" gradientUnits="userSpaceOnUse" x1="-944.1716" y1="558.2808" x2="-943.5414" y2="558.6907" gradientTransform="matrix(7.9739 0 0 -5.7519 7482.2188 3211.8777)">
					<stop  offset="0" style="stop-color:#FF9E00"/>
					<stop  offset="0.801" style="stop-color:#F47200"/>
				</linearGradient>
				<path id="Контур_37" class="st19" d="M-44-1.2c0.9-0.3,1.8-0.8,2.6-1.4c0.1,1.1-0.4,2.2-1.3,2.9c-1.3,1.2-3,1.4-3.7,0.5
					c-0.4-0.5-0.5-1.1-0.3-1.6C-45.9-0.7-44.9-0.9-44-1.2z"/>
				<path id="Контур_38" class="st20" d="M-42.9,0.1c-1.1,1-2.5,1.2-3.2,0.5c-0.3-0.3-0.4-0.7-0.3-1.1c0,0.3,0.1,0.6,0.3,0.9
					c0.6,0.7,2,0.5,3.1-0.4s1.4-2.3,0.8-3c-0.2-0.2-0.5-0.4-0.8-0.4c0.4,0,0.8,0.2,1,0.4C-41.5-2.3-41.8-0.9-42.9,0.1z"/>
				<path id="Контур_39" class="st21" d="M-46.1,0.5L-46.1,0.5l-0.1-0.1c0,0,0-0.1-0.1-0.1c0,0,0-0.1-0.1-0.1c0,0,0-0.1,0-0.1
					l0-0.1c0-0.1,0-0.3,0-0.4c0-0.1,0-0.2,0-0.3c0-0.1,0-0.2,0.1-0.3c0.1-0.2,0.1-0.4,0.2-0.5c0.1-0.2,0.2-0.4,0.4-0.5
					c0.1-0.2,0.3-0.3,0.5-0.5c0.2-0.1,0.3-0.3,0.5-0.4c0.2-0.1,0.4-0.2,0.6-0.3c0.2-0.1,0.4-0.1,0.6-0.2c0.1,0,0.2,0,0.3,0
					c0.1,0,0.2,0,0.3,0c0.2,0,0.3,0,0.4,0.1l0.1,0c0,0,0.1,0,0.1,0c0,0,0.1,0,0.1,0.1c0,0,0.1,0.1,0.1,0.1l0.1,0.1l0.1,0.1l-0.1-0.1
					l-0.1-0.1c0,0-0.1,0-0.1-0.1c0,0-0.1-0.1-0.1-0.1c0,0-0.1,0-0.1,0l-0.1,0c-0.1-0.1-0.3-0.1-0.4-0.1c-0.1,0-0.2,0-0.3,0
					c-0.1,0-0.2,0-0.3,0c-0.2,0-0.4,0.1-0.6,0.2c-0.2,0.1-0.4,0.2-0.6,0.3c-0.2,0.1-0.4,0.3-0.5,0.4c-0.2,0.2-0.3,0.3-0.5,0.5
					C-46-2-46.1-1.8-46.2-1.6c-0.1,0.2-0.2,0.4-0.2,0.6c0,0.1,0,0.2-0.1,0.3c0,0.1,0,0.2,0,0.3c0,0.2,0,0.3,0,0.5l0,0.1
					c0,0,0,0.1,0,0.1c0,0.1,0,0.1,0.1,0.1c0,0,0,0.1,0.1,0.1L-46.1,0.5L-46.1,0.5z"/>
			</g>
			<path id="Контур_40" class="st2" d="M-45.9-2.7c0-0.1,0.1-0.2,0.2-0.1h0c0,0,0.1,0,0.1,0.1c0,0,0,0,0,0v0c0,0,0,0.1,0,0.1
				c0,0-0.1,0.1-0.1,0.1c0,0-0.1,0-0.1,0C-45.9-2.6-45.9-2.6-45.9-2.7z"/>
		</g>
		<g id="Сгруппировать_22" transform="translate(156.796 41.838)">
			<g id="Сгруппировать_21" transform="translate(0 0)">
				<g id="Сгруппировать_19" transform="translate(1.043 0.267)">
					
						<linearGradient id="Контур_41_1_" gradientUnits="userSpaceOnUse" x1="-1046.6656" y1="540.1653" x2="-1046.0989" y2="540.1653" gradientTransform="matrix(11.7744 0 0 -9.4154 12249.2891 5073.1206)">
						<stop  offset="0" style="stop-color:#FFA100"/>
						<stop  offset="0.165" style="stop-color:#FFBC00"/>
						<stop  offset="0.169" style="stop-color:#FFC833"/>
						<stop  offset="0.479" style="stop-color:#FFE793"/>
						<stop  offset="0.801" style="stop-color:#FFD751"/>
						<stop  offset="0.805" style="stop-color:#FFC000"/>
						<stop  offset="1" style="stop-color:#FFA200"/>
					</linearGradient>
					<path id="Контур_41" class="st22" d="M-76.3-13.7c-0.5,1.4,0.8,3.1,2.9,3.8c2.1,0.7,4.2,0.2,4.7-1.2l0.3-0.7
						c0.5-1.4-0.8-3.1-2.9-3.8s-4.2-0.2-4.7,1.2L-76.3-13.7z"/>
					<path id="Контур_42" class="st4" d="M-69.8-9.9L-69.8-9.9c-1.2,0.5-2.5,0.6-3.7,0.1c-1-0.3-1.8-0.9-2.4-1.7
						c-0.5-0.6-0.7-1.4-0.5-2.2l0.3-0.7c0.2-0.5,0.6-0.9,1.1-1.2c1.2-0.5,2.5-0.6,3.7-0.1c2.1,0.7,3.4,2.5,2.9,3.9l-0.3,0.7
						C-68.9-10.6-69.3-10.2-69.8-9.9z M-75-15.5c-0.5,0.2-0.8,0.6-1,1.1l-0.3,0.7c-0.2,0.7,0,1.5,0.5,2.1c0.6,0.8,1.5,1.3,2.4,1.6
						c1.2,0.5,2.5,0.4,3.6-0.1l0,0c0.5-0.2,0.8-0.6,1-1.1l0.3-0.7c0.5-1.4-0.8-3.1-2.9-3.8C-72.6-16.1-73.9-16-75-15.5L-75-15.5z"/>
				</g>
				<g id="Сгруппировать_20">
					
						<linearGradient id="Эллипс_4_1_" gradientUnits="userSpaceOnUse" x1="-1081.4967" y1="581.7981" x2="-1081.4967" y2="581.5192" gradientTransform="matrix(2.5037 -7.4232 -11.1148 -3.7488 8625.1064 -6020.3335)">
						<stop  offset="0" style="stop-color:#DA6400"/>
						<stop  offset="1" style="stop-color:#FA8900"/>
					</linearGradient>
					<path id="Эллипс_4" class="st23" d="M-75.3-13.4c0.5-1.4,2.6-2,4.6-1.3c2.1,0.7,3.4,2.4,2.9,3.8s-2.6,2-4.6,1.3
						C-74.4-10.3-75.8-12-75.3-13.4z"/>
					<path id="Контур_43" class="st6" d="M-68.7-9.7L-68.7-9.7c-1.2,0.5-2.5,0.6-3.7,0.1c-1-0.3-1.8-0.9-2.4-1.7
						c-0.5-0.6-0.7-1.4-0.5-2.2c0.2-0.5,0.6-0.9,1.1-1.2c1.2-0.5,2.5-0.6,3.7-0.1c2.1,0.7,3.4,2.5,2.9,3.9
						C-67.9-10.3-68.2-9.9-68.7-9.7z M-74.2-14.5c-0.5,0.2-0.8,0.6-1,1.1c-0.2,0.7,0,1.5,0.5,2.1c0.6,0.8,1.5,1.3,2.4,1.6
						c1.2,0.5,2.5,0.4,3.6-0.1l0,0c0.5-0.2,0.8-0.6,1-1.1c0.5-1.4-0.8-3.1-2.9-3.8C-71.8-15.1-73.1-15-74.2-14.5L-74.2-14.5z"/>
				</g>
				
					<linearGradient id="Контур_44_1_" gradientUnits="userSpaceOnUse" x1="-1045.2305" y1="521.2559" x2="-1044.6631" y2="521.8247" gradientTransform="matrix(11.1145 0 0 -5.2114 11535.166 2710.2056)">
					<stop  offset="0" style="stop-color:#FF9E00"/>
					<stop  offset="0.801" style="stop-color:#F47200"/>
				</linearGradient>
				<path id="Контур_44" class="st24" d="M-71.6-11.9c-1.2,0.1-2.5,0-3.6-0.4c0.5,1.3,1.6,2.3,2.9,2.7
					c2.1,0.7,4.1,0.2,4.6-1.2c0.2-0.7,0.1-1.5-0.4-2C-69.2-12.3-70.4-12-71.6-11.9z"/>
				<path id="Контур_45" class="st20" d="M-72.3-9.9c1.8,0.6,3.5,0.1,3.9-1.1c0.1-0.5,0.1-1-0.1-1.4c0.2,0.4,0.2,0.8,0.1,1.2
					c-0.4,1.1-2.1,1.6-3.8,1c-1.7-0.6-2.7-2-2.3-3.1c0.1-0.4,0.4-0.7,0.8-0.9c-0.4,0.2-0.8,0.6-1,1C-75.1-12-74-10.5-72.3-9.9z"/>
				<path id="Контур_46" class="st21" d="M-68.3-11L-68.3-11l0.1-0.2c0,0,0-0.1,0-0.2c0-0.1,0-0.1,0-0.2c0,0,0-0.1,0-0.1
					l0-0.1c0-0.2-0.1-0.4-0.2-0.5c0-0.1-0.1-0.2-0.2-0.3c-0.1-0.1-0.1-0.2-0.2-0.3c-0.2-0.2-0.3-0.4-0.5-0.5
					c-0.2-0.2-0.4-0.3-0.7-0.4c-0.5-0.3-1-0.4-1.6-0.5c-0.3,0-0.5-0.1-0.8-0.1c-0.2,0-0.5,0-0.7,0.1c-0.1,0-0.2,0.1-0.3,0.1
					c-0.1,0-0.2,0.1-0.3,0.1c-0.2,0.1-0.3,0.2-0.5,0.3l-0.1,0.1c0,0-0.1,0.1-0.1,0.1c0,0-0.1,0.1-0.1,0.2c0,0.1-0.1,0.1-0.1,0.1
					l0,0.1l0,0.1l0-0.1l0-0.1c0,0,0.1-0.1,0.1-0.1c0-0.1,0.1-0.1,0.1-0.2c0,0,0-0.1,0.1-0.1l0.1-0.1c0.1-0.1,0.3-0.2,0.5-0.3
					c0.1,0,0.2-0.1,0.3-0.1c0.1,0,0.2-0.1,0.3-0.1c0.2-0.1,0.5-0.1,0.8-0.1c0.3,0,0.5,0,0.8,0.1c0.6,0.1,1.1,0.3,1.6,0.5
					c0.2,0.1,0.5,0.3,0.7,0.4c0.2,0.2,0.4,0.3,0.5,0.5c0.1,0.1,0.1,0.2,0.2,0.3c0.1,0.1,0.1,0.2,0.2,0.3c0.1,0.2,0.1,0.4,0.2,0.5
					l0,0.1c0,0,0,0.1,0,0.1c0,0.1,0,0.1,0,0.2c0,0.1,0,0.1,0,0.2L-68.3-11L-68.3-11z"/>
			</g>
			<path id="Контур_47" class="st2" d="M-70.2-14.6c-0.1,0-0.2-0.1-0.3-0.1l0,0c0,0-0.1,0,0,0.1c0,0,0,0,0,0l0,0
				c0,0,0.1,0.1,0.1,0.1c0,0,0.1,0,0.1,0.1c0.1,0,0.1,0,0.2-0.1S-70.1-14.6-70.2-14.6L-70.2-14.6z"/>
		</g>
		<g id="Сгруппировать_26" transform="translate(180.481 4.26)">
			<g id="Сгруппировать_25" transform="translate(0 0)">
				<g id="Сгруппировать_23" transform="translate(3.332 1.74)">
					
						<linearGradient id="Контур_48_1_" gradientUnits="userSpaceOnUse" x1="-1075.4132" y1="588.2034" x2="-1074.8097" y2="588.2034" gradientTransform="matrix(22.5073 0 0 -20.6613 24280.5469 12155.6963)">
						<stop  offset="0" style="stop-color:#FFA100"/>
						<stop  offset="0.165" style="stop-color:#FFBC00"/>
						<stop  offset="0.169" style="stop-color:#FFC833"/>
						<stop  offset="0.479" style="stop-color:#FFE793"/>
						<stop  offset="0.801" style="stop-color:#FFD751"/>
						<stop  offset="0.805" style="stop-color:#FFC000"/>
						<stop  offset="1" style="stop-color:#FFA200"/>
					</linearGradient>
					<path id="Контур_48" class="st25" d="M-71,8.2c-1.7,2.2-6,1.8-9.6-0.9c-3.6-2.7-5.1-6.8-3.3-9c0.3-0.4,0.7-0.9,1-1.3
						c1.7-2.2,6-1.8,9.6,0.9s5.1,6.8,3.3,9C-70.3,7.3-70.7,7.9-71,8.2z"/>
					<path id="Контур_49" class="st4" d="M-83.7,4L-83.7,4c0.8,1.3,1.8,2.5,3.1,3.5c3.6,2.8,8,3.2,9.7,0.9
						c0.1-0.2,0.3-0.4,0.5-0.6c0.2-0.2,0.4-0.5,0.5-0.7c1.1-1.4,1-3.5-0.3-5.7c-0.8-1.3-1.8-2.5-3.1-3.5c-3.6-2.8-8-3.2-9.7-0.9
						c-0.1,0.2-0.3,0.4-0.5,0.6c-0.2,0.2-0.4,0.5-0.5,0.7C-85.1-0.4-85,1.8-83.7,4z M-70.4,1.4c1.2,2.1,1.3,4.1,0.3,5.4
						c-0.1,0.2-0.3,0.4-0.5,0.6c-0.2,0.2-0.4,0.5-0.5,0.7c-1.7,2.2-5.9,1.8-9.4-0.9c-1.2-0.9-2.2-2.1-3-3.4
						c-1.2-2.1-1.3-4.1-0.3-5.4c0.1-0.2,0.3-0.4,0.5-0.6c0.2-0.2,0.4-0.5,0.5-0.7c1.7-2.2,5.9-1.8,9.4,0.9
						C-72.2-1-71.1,0.1-70.4,1.4z"/>
				</g>
				<g id="Сгруппировать_24">
					
						<linearGradient id="Эллипс_5_1_" gradientUnits="userSpaceOnUse" x1="-1091.5421" y1="607.4413" x2="-1091.5421" y2="607.2988" gradientTransform="matrix(9.1167 -11.8712 -18.913 -14.5247 20993.5703 -4415.8599)">
						<stop  offset="0" style="stop-color:#DA6400"/>
						<stop  offset="1" style="stop-color:#FA8900"/>
					</linearGradient>
					<path id="Эллипс_5" class="st26" d="M-80.6,0.1c1.7-2.2,6-1.8,9.6,0.9s5.1,6.8,3.3,9c-1.7,2.2-6,1.8-9.6-0.9
						S-82.3,2.3-80.6,0.1z"/>
					<path id="Контур_50" class="st6" d="M-80.4,5.7L-80.4,5.7c0.8,1.3,1.8,2.5,3.1,3.5c3.6,2.8,8,3.2,9.7,0.9
						c1.1-1.4,1-3.5-0.3-5.7c-0.8-1.3-1.8-2.5-3.1-3.5c-3.6-2.8-8-3.2-9.7-0.9C-81.7,1.4-81.6,3.5-80.4,5.7z M-68.1,4.5
						c1.2,2.1,1.3,4.1,0.3,5.4c-1.7,2.2-5.9,1.8-9.4-0.9c-1.2-0.9-2.2-2.1-3-3.4c-1.2-2.1-1.3-4.1-0.3-5.4c1.7-2.2,5.9-1.8,9.4,0.9
						C-69.9,2-68.8,3.1-68.1,4.5L-68.1,4.5z"/>
				</g>
				<path id="Контур_51" class="st7" d="M-76.8,8.5c-3-2.3-4.3-5.7-2.8-7.6c0.6-0.7,1.5-1.2,2.4-1.2c-0.8,0.1-1.5,0.5-2,1.1
					c-1.4,1.8-0.2,5.1,2.7,7.3s6.3,2.5,7.7,0.7c0.5-0.6,0.7-1.4,0.6-2.2c0.2,0.9,0,1.9-0.6,2.7C-70.2,11.2-73.8,10.8-76.8,8.5z"/>
			</g>
			<path id="Контур_52" class="st2" d="M-71.9,0.4L-71.9,0.4c0.2,0,0.3,0,0.4,0.1c0.1,0.1,0.1,0.2,0.1,0.3
				C-71.5,1-71.7,1-71.8,0.9c-0.1,0-0.2-0.1-0.2-0.2c0-0.1,0-0.1-0.1-0.2C-72.1,0.5-72,0.4-71.9,0.4z"/>
		</g>
		<g id="Сгруппировать_30" transform="translate(3.057 20.095)">
			<g id="Сгруппировать_29" transform="translate(0 0)">
				<g id="Сгруппировать_27" transform="translate(1.437 0.624)">
					
						<linearGradient id="Контур_53_1_" gradientUnits="userSpaceOnUse" x1="-876.7244" y1="572.4789" x2="-876.161" y2="572.4789" gradientTransform="matrix(20.9157 0 0 -18.5443 18791.0918 10613.3799)">
						<stop  offset="0" style="stop-color:#E06700"/>
						<stop  offset="0.261" style="stop-color:#D15900"/>
						<stop  offset="0.264" style="stop-color:#C24900"/>
						<stop  offset="0.502" style="stop-color:#B63E00"/>
						<stop  offset="0.759" style="stop-color:#C24A00"/>
						<stop  offset="0.766" style="stop-color:#D25B00"/>
						<stop  offset="1" style="stop-color:#E56B00"/>
					</linearGradient>
					<path id="Контур_53" class="st27" d="M-26.5,1c1.2,2.6,5,3.3,8.6,1.7s5.4-5.1,4.2-7.6l-0.8-1.6c-1.2-2.6-5-3.3-8.6-1.7
						s-5.4,5.1-4.2,7.6L-26.5,1z"/>
					<path id="Контур_54" class="st28" d="M-17.9,2.7c-3.6,1.7-7.5,0.9-8.7-1.7l-0.8-1.6c-1.2-2.6,0.7-6.1,4.3-7.7
						s7.5-0.9,8.7,1.7l0.8,1.6C-12.4-2.4-14.4,1-17.9,2.7z M-23-8.2c-3.5,1.6-5.4,5-4.2,7.5l0.8,1.6c1.2,2.5,5,3.2,8.5,1.6
						s5.4-5,4.2-7.5l-0.8-1.6C-15.7-9.1-19.5-9.8-23-8.2z"/>
				</g>
				<g id="Сгруппировать_28">
					
						<linearGradient id="Эллипс_6_1_" gradientUnits="userSpaceOnUse" x1="-903.5792" y1="596.2079" x2="-903.5792" y2="596.9752" gradientTransform="matrix(18.7625 -8.763 -6.3569 -13.6107 20519.502 -244.0978)">
						<stop  offset="0" style="stop-color:#FFCD22"/>
						<stop  offset="1" style="stop-color:#FA8900"/>
					</linearGradient>
					<path id="Эллипс_6" class="st29" d="M-20.9-6c3.5-1.7,7.4-0.9,8.6,1.7s-0.7,6-4.2,7.6s-7.4,0.9-8.6-1.7S-24.4-4.4-20.9-6
						z"/>
					<path id="Контур_55" class="st6" d="M-16.5,3.3c-3.6,1.7-7.5,0.9-8.7-1.7s0.7-6.1,4.3-7.7s7.5-0.9,8.7,1.7
						S-12.9,1.7-16.5,3.3z M-20.8-6c-3.5,1.6-5.4,5-4.2,7.5c1.2,2.5,5,3.2,8.5,1.6s5.4-5,4.2-7.5S-17.3-7.6-20.8-6z"/>
				</g>
				
					<linearGradient id="Контур_56_1_" gradientUnits="userSpaceOnUse" x1="-891.7401" y1="606.341" x2="-891.7401" y2="607.3204" gradientTransform="matrix(14.2626 0 0 -12.1579 12698.0742 6889.0928)">
					<stop  offset="0.195" style="stop-color:#FFEC7E"/>
					<stop  offset="0.902" style="stop-color:#FFAD00"/>
				</linearGradient>
				<path id="Контур_56" class="st30" d="M-16.9-6.8c-1.4,0-2.7,0.3-3.9,0.9c-3.4,1.6-5.3,4.9-4.2,7.4
					C-16.9,1.6-13.6-0.8-16.9-6.8z"/>
				<path id="Контур_57" class="st12" d="M-16.8,2.6c3-1.4,4.6-4.3,3.5-6.5c-0.4-0.8-1.1-1.5-2-1.8c0.7,0.3,1.2,0.9,1.6,1.5
					c1,2.1-0.6,4.8-3.4,6.1S-23,2.8-24,0.7c-0.3-0.7-0.4-1.5-0.2-2.2c-0.3,0.9-0.3,1.8,0.1,2.7C-23,3.4-19.8,4-16.8,2.6z"/>
			</g>
			<path id="Контур_58" class="st2" d="M-15.6,2.7c-0.1,0-0.2,0-0.3,0c-0.1,0-0.2,0.1-0.1,0.2c0,0.1,0.1,0.2,0.2,0.1
				c0,0,0,0,0,0c0.1,0,0.1-0.1,0.2-0.2C-15.4,2.8-15.4,2.8-15.6,2.7C-15.5,2.7-15.5,2.7-15.6,2.7z"/>
			<path id="Контур_59" class="st2" d="M-16.7,1.6L-16.7,1.6c-0.1,0.1-0.1,0.2,0,0.2c0,0,0,0,0,0l0,0c0.1,0,0.2,0,0.2-0.1
				c0-0.1,0-0.2-0.1-0.2C-16.5,1.5-16.6,1.6-16.7,1.6z"/>
			<path id="Контур_60" class="st2" d="M-22.4-5.4c-0.2,0.1-0.3,0.2-0.4,0.4c0,0.2,0.1,0.3,0.3,0.2c0.1,0,0.3-0.2,0.4-0.3
				C-22-5.3-22.2-5.5-22.4-5.4z"/>
		</g>
		<g id="Сгруппировать_34" transform="translate(0 157.917)">
			<g id="Сгруппировать_33" transform="translate(0 0)">
				<g id="Сгруппировать_31" transform="translate(0.413 2.484)">
					
						<linearGradient id="Контур_61_1_" gradientUnits="userSpaceOnUse" x1="-886.3828" y1="435.6927" x2="-885.831" y2="435.6927" gradientTransform="matrix(26.8009 0 0 -19.5619 24055.7832 8476.0811)">
						<stop  offset="0" style="stop-color:#E06700"/>
						<stop  offset="0.261" style="stop-color:#D15900"/>
						<stop  offset="0.264" style="stop-color:#C24900"/>
						<stop  offset="0.502" style="stop-color:#B63E00"/>
						<stop  offset="0.759" style="stop-color:#C24A00"/>
						<stop  offset="0.766" style="stop-color:#D25B00"/>
						<stop  offset="1" style="stop-color:#E56B00"/>
					</linearGradient>
					<path id="Контур_61" class="st31" d="M-8.4-44.8c1.4-2.8-1.1-6.3-5.7-7.9s-9.5-0.7-10.9,2.1l-0.9,1.7
						c-1.4,2.8,1.1,6.3,5.7,7.9s9.5,0.7,10.9-2.1L-8.4-44.8z"/>
					<path id="Контур_62" class="st28" d="M-14.1-52.8c4.6,1.6,7.2,5.3,5.8,8.1L-9.2-43c-1.4,2.8-6.4,3.7-11,2.1
						c-4.6-1.6-7.2-5.3-5.8-8.1l0.9-1.7C-23.7-53.5-18.7-54.5-14.1-52.8z M-20.1-41.1c4.5,1.6,9.3,0.7,10.7-2l0.9-1.7
						c1.4-2.7-1.1-6.2-5.7-7.8s-9.3-0.7-10.7,2l-0.9,1.7C-27.2-46.2-24.7-42.7-20.1-41.1L-20.1-41.1z"/>
				</g>
				<g id="Сгруппировать_32">
					
						<linearGradient id="Эллипс_7_1_" gradientUnits="userSpaceOnUse" x1="-914.3513" y1="463.1479" x2="-914.3513" y2="463.6356" gradientTransform="matrix(4.062 -15.7281 -25.1583 -6.4975 14644.6982 -11599.042)">
						<stop  offset="0" style="stop-color:#FFCD22"/>
						<stop  offset="1" style="stop-color:#FA8900"/>
					</linearGradient>
					<path id="Эллипс_7" class="st32" d="M-24.9-47.5c0.8-3,5.2-4.4,10-3.1s8,4.6,7.2,7.6c-0.8,3-5.2,4.4-10,3.1
						S-25.7-44.5-24.9-47.5z"/>
					<path id="Контур_63" class="st6" d="M-13.7-50.3c4.6,1.6,7.2,5.3,5.8,8.1c-1.4,2.8-6.4,3.7-11,2.1s-7.2-5.3-5.8-8.1
						C-23.3-51-18.3-52-13.7-50.3z M-18.8-40.3c4.5,1.6,9.3,0.7,10.7-2s-1.1-6.2-5.7-7.8s-9.3-0.7-10.7,2S-23.4-42-18.8-40.3z"/>
				</g>
				
					<linearGradient id="Контур_64_1_" gradientUnits="userSpaceOnUse" x1="-895.4235" y1="493.7102" x2="-895.4235" y2="494.8212" gradientTransform="matrix(21.751 0 0 -11.8393 19460.7695 5075.375)">
					<stop  offset="0.195" style="stop-color:#FFEC7E"/>
					<stop  offset="0.902" style="stop-color:#FFAD00"/>
				</linearGradient>
				<path id="Контур_64" class="st33" d="M-23-42.8c1.2,1.1,2.6,2,4.2,2.5c4.5,1.6,9.2,0.7,10.7-1.9
					C-14.9-48.8-20.1-49.7-23-42.8z"/>
				<path id="Контур_65" class="st12" d="M-14.1-49.6c-3.9-1.4-8-0.6-9.2,1.8c-0.4,0.9-0.5,1.9,0,2.8
					c-0.3-0.8-0.2-1.6,0.1-2.3c1.1-2.2,5.1-3,8.8-1.7s5.8,4.2,4.6,6.4c-0.4,0.8-1.1,1.4-1.9,1.7c1-0.3,1.9-1,2.5-2
					C-8.1-45.2-10.2-48.2-14.1-49.6z"/>
			</g>
			<path id="Контур_66" class="st2" d="M-15.1-50.6c0.1,0.1,0.2,0.1,0.3,0.2c0.3,0.1,0.5-0.3,0.2-0.4c-0.1,0-0.2,0-0.3,0
				C-15.1-50.8-15.2-50.7-15.1-50.6z"/>
			<path id="Контур_67" class="st2" d="M-15.2-49L-15.2-49c0.2,0,0.3-0.1,0.2-0.2l0,0c-0.1-0.1-0.2-0.2-0.3-0.1c0,0,0,0,0,0
				C-15.5-49.2-15.4-49-15.2-49z"/>
			<path id="Контур_68" class="st2" d="M-17-39.5c0.2,0.1,0.4,0.1,0.6,0c0.2-0.1,0.2-0.3,0-0.4c-0.2-0.1-0.4-0.1-0.6-0.1
				C-17.2-39.9-17.2-39.6-17-39.5z"/>
		</g>
		<g id="Сгруппировать_38" transform="translate(185.64 158.38)">
			<g id="Сгруппировать_37" transform="translate(0 0)">
				<g id="Сгруппировать_35" transform="translate(2.085 2.678)">
					
						<linearGradient id="Контур_69_1_" gradientUnits="userSpaceOnUse" x1="-1091.835" y1="434.5482" x2="-1091.2028" y2="434.5482" gradientTransform="matrix(23.6703 0 0 -18.5464 25643.543 8011.8706)">
						<stop  offset="0" style="stop-color:#E06700"/>
						<stop  offset="0.261" style="stop-color:#D15900"/>
						<stop  offset="0.264" style="stop-color:#C24900"/>
						<stop  offset="0.502" style="stop-color:#B63E00"/>
						<stop  offset="0.759" style="stop-color:#C24A00"/>
						<stop  offset="0.766" style="stop-color:#D25B00"/>
						<stop  offset="1" style="stop-color:#E56B00"/>
					</linearGradient>
					<path id="Контур_69" class="st34" d="M-70.9-53.1c-1-1.4-5-0.3-9.1,2.5c-4.1,2.8-6.6,6.2-5.7,7.6l0.9,1.4
						c1,1.4,5,0.3,9.1-2.5c4.1-2.8,6.6-6.2,5.7-7.6L-70.9-53.1z"/>
					<path id="Контур_70" class="st35" d="M-82-41.1L-82-41.1c-1.4,0.3-2.4,0.1-2.9-0.5l-0.9-1.4c-0.5-0.7-0.1-1.9,1-3.4
						c1.3-1.7,3-3.1,4.8-4.3c1.9-1.4,4.1-2.4,6.4-3c1.4-0.3,2.4-0.1,2.9,0.5l0.9,1.4c0.5,0.7,0.1,1.9-1,3.4c-1.3,1.7-3,3.1-4.8,4.3
						C-77.5-42.7-79.7-41.7-82-41.1z M-73.6-53.5c-2.3,0.6-4.4,1.6-6.3,3c-1.8,1.2-3.4,2.6-4.7,4.3c-1,1.4-1.4,2.5-0.9,3.1l0.9,1.4
						c0.4,0.5,1.3,0.7,2.7,0.4l0,0c2.3-0.6,4.4-1.6,6.3-3c1.8-1.2,3.4-2.6,4.7-4.3c1-1.4,1.4-2.5,0.9-3.1l-0.9-1.4
						C-71.3-53.6-72.3-53.8-73.6-53.5z"/>
				</g>
				<g id="Сгруппировать_36" transform="translate(0)">
					
						<linearGradient id="Эллипс_8_1_" gradientUnits="userSpaceOnUse" x1="-1090.6802" y1="424.0493" x2="-1090.6802" y2="424.8173" gradientTransform="matrix(21.7289 -14.8064 -5.0545 -7.4176 25729.8848 -13102.6738)">
						<stop  offset="0" style="stop-color:#FFCD22"/>
						<stop  offset="1" style="stop-color:#FA8900"/>
					</linearGradient>
					<path id="Эллипс_8" class="st36" d="M-77.9-47.9c4.1-2.8,8.2-3.9,9.1-2.5c1,1.4-1.6,4.8-5.7,7.6s-8.2,3.9-9.1,2.5
						C-84.5-41.8-82-45.2-77.9-47.9z"/>
					<path id="Контур_71" class="st6" d="M-80.8-39.8L-80.8-39.8c-1.4,0.3-2.4,0.1-2.9-0.5c-0.5-0.7-0.1-1.9,1-3.4
						c1.3-1.7,3-3.1,4.8-4.3c1.9-1.4,4.1-2.4,6.4-3c1.4-0.3,2.4-0.1,2.9,0.5c0.5,0.7,0.1,1.9-1,3.4c-1.3,1.7-3,3.1-4.8,4.3
						C-76.3-41.4-78.5-40.4-80.8-39.8z M-71.5-50.8c-2.3,0.6-4.4,1.6-6.3,3c-1.8,1.2-3.4,2.6-4.7,4.3c-1,1.4-1.4,2.5-0.9,3.1
						c0.4,0.5,1.3,0.7,2.7,0.4l0,0c2.3-0.6,4.4-1.6,6.3-3c1.8-1.2,3.4-2.6,4.7-4.3c1-1.4,1.4-2.5,0.9-3.1
						C-69.2-51-70.2-51.1-71.5-50.8z"/>
				</g>
				
					<linearGradient id="Контур_72_1_" gradientUnits="userSpaceOnUse" x1="-1080.4395" y1="438.8245" x2="-1080.4395" y2="439.321" gradientTransform="matrix(16.2963 0 0 -14.362 17533.0137 6194.1299)">
					<stop  offset="0.195" style="stop-color:#FFEC7E"/>
					<stop  offset="0.902" style="stop-color:#FFAD00"/>
				</linearGradient>
				<path id="Контур_72" class="st37" d="M-78.9-40.6c1.6-0.6,3-1.4,4.4-2.4c4-2.7,6.5-6,5.6-7.4
					C-77.7-46.9-81.7-43.6-78.9-40.6z"/>
				<path id="Контур_73" class="st12" d="M-77.7-47.6c-3.5,2.4-5.6,5.2-4.8,6.4c0.3,0.5,1,0.6,1.9,0.5
					c-0.5,0.1-1.1-0.1-1.5-0.5c-0.8-1.1,1.3-3.9,4.6-6.1c3.3-2.2,6.6-3.2,7.4-2c0.2,0.5,0.2,1.1-0.1,1.6c0.4-0.8,0.6-1.5,0.3-2
					C-70.8-50.9-74.2-50-77.7-47.6z"/>
			</g>
			<path id="Контур_74" class="st2" d="M-72.9-44.2L-72.9-44.2c-0.2,0.1-0.4,0.2-0.6,0.4c-0.1,0.1-0.1,0.3,0,0.4
				c0.1,0.1,0.2,0.1,0.4,0c0.1-0.1,0.2-0.2,0.3-0.3c0-0.1,0.1-0.1,0.1-0.2c0-0.1,0-0.1,0.1-0.2C-72.6-44.2-72.8-44.3-72.9-44.2z"/>
			<path id="Контур_75" class="st2" d="M-78.4-47.6c-0.1-0.1-0.2,0-0.2,0c0,0,0,0,0,0c-0.1,0-0.1,0.1-0.1,0.2
				c0,0.1,0.1,0.2,0.2,0.1c0,0,0.1,0,0.1-0.1C-78.3-47.3-78.3-47.5-78.4-47.6C-78.4-47.6-78.4-47.6-78.4-47.6z"/>
		</g>
		<g id="Сгруппировать_42" transform="translate(121.325 156.96)">
			<g id="Сгруппировать_41">
				<g id="Сгруппировать_39" transform="translate(0 0.436)">
					
						<linearGradient id="Контур_76_1_" gradientUnits="userSpaceOnUse" x1="-1016.5745" y1="426.0395" x2="-1015.8925" y2="426.0395" gradientTransform="matrix(18.9006 0 0 -8.235 19159.2109 3458.6387)">
						<stop  offset="0" style="stop-color:#E06700"/>
						<stop  offset="0.261" style="stop-color:#CA5400"/>
						<stop  offset="0.261" style="stop-color:#BA3900"/>
						<stop  offset="0.498" style="stop-color:#983100"/>
						<stop  offset="0.743" style="stop-color:#BA3600"/>
						<stop  offset="0.743" style="stop-color:#C75400"/>
						<stop  offset="1" style="stop-color:#E56B00"/>
					</linearGradient>
					<path id="Контур_76" class="st38" d="M-51.9-50c0.1-1.2-2.7-2.4-6.3-2.6c-3.5-0.2-6.5,0.6-6.5,1.8l-0.1,1.2
						c-0.1,1.2,2.7,2.4,6.3,2.6s6.5-0.6,6.5-1.8L-51.9-50z"/>
					<path id="Контур_77" class="st35" d="M-58.5-47c-3.6-0.2-6.4-1.4-6.3-2.7l0.1-1.2c0.1-1.3,3-2.1,6.6-1.8
						c3.6,0.2,6.4,1.4,6.3,2.7l-0.1,1.2C-52-47.5-54.9-46.7-58.5-47z M-58.2-52.5c-3.5-0.2-6.4,0.5-6.5,1.7l-0.1,1.2
						c-0.1,1.2,2.7,2.3,6.2,2.5c3.5,0.2,6.4-0.5,6.5-1.7L-52-50C-51.9-51.1-54.7-52.3-58.2-52.5z"/>
				</g>
				<g id="Сгруппировать_40" transform="translate(0.014)">
					
						<linearGradient id="Эллипс_9_1_" gradientUnits="userSpaceOnUse" x1="-1054.0227" y1="433.3385" x2="-1053.9374" y2="433.1789" gradientTransform="matrix(0.4113 -6.4131 -18.7844 -1.2046 8542.1357 -6290.7017)">
						<stop  offset="0" style="stop-color:#FFCD22"/>
						<stop  offset="1" style="stop-color:#FA8900"/>
					</linearGradient>
					<path id="Эллипс_9" class="st39" d="M-64.7-50.4c0.1-1.2,3-2,6.5-1.8c3.5,0.2,6.3,1.4,6.3,2.6s-3,2-6.5,1.8
						C-62-48-64.8-49.1-64.7-50.4z"/>
					<path id="Контур_78" class="st6" d="M-58.5-47.7c-3.6-0.2-6.4-1.4-6.3-2.7c0.1-1.3,3-2.1,6.6-1.8
						c3.6,0.2,6.4,1.4,6.3,2.7S-54.8-47.5-58.5-47.7z M-58.2-52.1c-3.5-0.2-6.4,0.5-6.5,1.7c-0.1,1.2,2.7,2.3,6.2,2.5
						s6.4-0.5,6.5-1.7S-54.7-51.8-58.2-52.1L-58.2-52.1z"/>
				</g>
				
					<linearGradient id="Контур_79_1_" gradientUnits="userSpaceOnUse" x1="-1016.1338" y1="391.694" x2="-1016.0417" y2="389.929" gradientTransform="matrix(18.346 0 0 -3.4814 18588.3145 1330.2418)">
					<stop  offset="0.195" style="stop-color:#FFEC7E"/>
					<stop  offset="0.902" style="stop-color:#FFAD00"/>
				</linearGradient>
				<path id="Контур_79" class="st40" d="M-52-49.8c-0.2-1.1-2.9-2.1-6.1-2.3c-3.3-0.2-6,0.5-6.4,1.5L-52-49.8z"/>
				<path id="Контур_80" class="st12" d="M-58.2-51.8c-3-0.2-5.5,0.5-5.5,1.5c0,0.4,0.3,0.8,0.9,1.1c-0.4-0.3-0.7-0.6-0.6-0.9
					c0.1-1,2.4-1.6,5.3-1.4c2.9,0.2,5.1,1.1,5,2.1c0,0.3-0.3,0.6-0.8,0.8c0.6-0.3,1-0.6,1-1C-52.8-50.7-55.2-51.7-58.2-51.8z"/>
				<path id="Контур_81" class="st13" d="M-63.7-50.3c0,0,0,0.1,0,0.1c0,0.1,0.1,0.2,0.2,0.3c0.3,0.3,0.7,0.6,1.1,0.8
					c0.6,0.3,1.2,0.4,1.8,0.6c1.4,0.3,2.9,0.4,4.4,0.3c0.6,0,1.3-0.2,1.9-0.3c0.4-0.1,0.8-0.3,1.2-0.6c0.1-0.1,0.2-0.2,0.2-0.3
					c0,0,0-0.1,0-0.1l0,0l0,0c0,0,0,0.1,0,0.1c0,0.1-0.1,0.2-0.2,0.3c-0.3,0.3-0.7,0.6-1.2,0.7c-0.6,0.2-1.3,0.3-1.9,0.4
					c-1.5,0.1-3,0-4.4-0.3c-0.6-0.1-1.2-0.3-1.8-0.6c-0.4-0.2-0.8-0.5-1.1-0.8c-0.1-0.1-0.1-0.2-0.1-0.4
					C-63.7-50.2-63.7-50.2-63.7-50.3L-63.7-50.3z"/>
			</g>
			<path id="Контур_82" class="st2" d="M-58.2-47.8c-0.1,0-0.2,0-0.3-0.1c-0.1,0-0.2,0-0.2,0.1c0,0.1,0,0.2,0.1,0.2
				c0,0,0,0,0,0c0.1,0,0.2,0,0.3,0C-58-47.6-58.1-47.8-58.2-47.8z"/>
			<path id="Контур_83" class="st2" d="M-58-52.3L-58-52.3c0,0-0.1-0.1-0.1-0.1c-0.1,0-0.2,0-0.2,0.1c0,0.1,0,0.2,0.1,0.2
				c0,0,0,0,0,0c0,0,0.1,0,0.1,0c0,0,0.1-0.1,0.1,0C-58-52.1-58-52.1-58-52.3C-58-52.2-58-52.2-58-52.3z"/>
		</g>
		<g id="Сгруппировать_46" transform="translate(102.281 0)">
			<g id="Сгруппировать_45" transform="translate(0)">
				<g id="Сгруппировать_43" transform="translate(3.396 3.857)">
					
						<linearGradient id="Контур_84_1_" gradientUnits="userSpaceOnUse" x1="-1004.8126" y1="593.598" x2="-1004.016" y2="593.598" gradientTransform="matrix(33.3295 0 0 -29.408 33499.1289 17462.8828)">
						<stop  offset="0" style="stop-color:#E06700"/>
						<stop  offset="0.261" style="stop-color:#CA5400"/>
						<stop  offset="0.261" style="stop-color:#BA3900"/>
						<stop  offset="0.498" style="stop-color:#983100"/>
						<stop  offset="0.743" style="stop-color:#BA3600"/>
						<stop  offset="0.743" style="stop-color:#C75400"/>
						<stop  offset="1" style="stop-color:#E56B00"/>
					</linearGradient>
					<path id="Контур_84" class="st41" d="M-38.9-3c-1.6-1.9-7.4,0.3-13.1,4.9s-8.9,10-7.3,11.9l1.5,1.9
						c1.6,1.9,7.4-0.3,13.1-4.9s8.9-10,7.3-11.9L-38.9-3z"/>
					<path id="Контур_85" class="st35" d="M-44.6,10.9c-5.8,4.8-11.6,6.9-13.3,4.9l-1.5-1.9c-1.7-2,1.6-7.3,7.4-12.1
						s11.6-6.9,13.3-4.9l1.5,1.9C-35.6,0.8-38.8,6.1-44.6,10.9z M-51.9,2c-5.6,4.6-8.8,9.8-7.3,11.7l1.5,1.9
						c1.5,1.9,7.3-0.4,12.9-4.9S-36,0.8-37.5-1L-39-2.9C-40.6-4.8-46.3-2.6-51.9,2z"/>
				</g>
				<g id="Сгруппировать_44">
					
						<linearGradient id="Эллипс_10_1_" gradientUnits="userSpaceOnUse" x1="-1009.4011" y1="582.5981" x2="-1009.3718" y2="582.1309" gradientTransform="matrix(29.9147 -24.637 -8.4107 -10.2124 35026.7266 -18929.4648)">
						<stop  offset="0" style="stop-color:#FFCD22"/>
						<stop  offset="1" style="stop-color:#FA8900"/>
					</linearGradient>
					<path id="Эллипс_10" class="st42" d="M-48.6,5.8c5.6-4.6,11.5-6.8,13.1-4.9c1.6,1.9-1.7,7.2-7.3,11.9s-11.5,6.8-13.1,4.9
						C-57.5,15.7-54.2,10.4-48.6,5.8z"/>
					<path id="Контур_86" class="st6" d="M-42.8,12.9c-5.8,4.8-11.6,6.9-13.3,4.9c-1.7-2,1.6-7.3,7.4-12.1s11.6-6.9,13.3-4.9
						S-37,8.1-42.8,12.9z M-48.5,5.9c-5.6,4.6-8.8,9.8-7.3,11.7c1.5,1.9,7.3-0.4,12.9-4.9s8.8-9.8,7.3-11.7S-42.9,1.3-48.5,5.9z"/>
				</g>
				
					<linearGradient id="Контур_87_1_" gradientUnits="userSpaceOnUse" x1="-1002.4291" y1="596.9108" x2="-1002.3111" y2="596.3972" gradientTransform="matrix(29.6552 0 0 -24.7971 29675.0508 14788.1162)">
					<stop  offset="0.195" style="stop-color:#FFEC7E"/>
					<stop  offset="0.902" style="stop-color:#FFAD00"/>
				</linearGradient>
				<path id="Контур_87" class="st43" d="M-36,0.6c-1.9-1.3-7.4,0.8-12.6,5.2S-57,15-56.1,17.2L-36,0.6z"/>
				<path id="Контур_88" class="st12" d="M-48.2,6.2c-4.8,3.9-7.5,8.4-6.2,10.1c0.5,0.6,1.5,0.7,2.9,0.4c-1,0.2-1.8,0-2.3-0.5
					c-1.3-1.6,1.4-5.8,5.9-9.6s9.3-5.5,10.5-4c0.4,0.5,0.4,1.3,0.1,2.3c0.5-1.3,0.6-2.3,0.1-2.9C-38.5,0.5-43.5,2.3-48.2,6.2z"/>
				<path id="Контур_89" class="st13" d="M-54.3,16.3c0.1,0.1,0.1,0.1,0.2,0.2c0.2,0.2,0.5,0.3,0.7,0.3c0.9,0.1,1.9,0,2.7-0.4
					c1.2-0.4,2.4-1,3.5-1.7c1.3-0.8,2.5-1.7,3.7-2.6c1.2-1,2.3-2,3.3-3.1c0.9-1,1.7-2,2.4-3.2c0.5-0.8,0.8-1.7,0.9-2.6
					c0-0.3-0.1-0.5-0.2-0.8c0-0.1-0.1-0.1-0.1-0.2l0-0.1l0,0.1c0,0.1,0.1,0.1,0.1,0.2c0.1,0.2,0.2,0.5,0.2,0.8
					c0,0.9-0.3,1.9-0.8,2.7C-38.3,7-39.1,8.1-40,9.1c-1,1.1-2.1,2.2-3.3,3.2c-1.2,1-2.4,1.8-3.7,2.6c-1.1,0.7-2.4,1.2-3.6,1.7
					c-0.9,0.3-1.8,0.4-2.8,0.3c-0.3-0.1-0.5-0.2-0.7-0.3C-54.1,16.4-54.2,16.4-54.3,16.3L-54.3,16.3z"/>
			</g>
			<path id="Контур_90" class="st2" d="M-42.5,12.3c-0.2,0.1-0.3,0.2-0.5,0.3c-0.1,0.1-0.2,0.3-0.1,0.4s0.3,0.2,0.4,0.1
				c0,0,0,0,0,0c0.2-0.1,0.3-0.3,0.4-0.5C-42,12.4-42.3,12.2-42.5,12.3z"/>
			<path id="Контур_91" class="st2" d="M-48.6,5.4L-48.6,5.4c-0.1,0-0.2,0-0.3,0.1C-49,5.6-49.1,5.8-49,5.9
				c0.1,0.2,0.3,0.2,0.5,0.1c0,0,0,0,0,0c0,0,0.1-0.1,0.1-0.1c0,0,0.1-0.3,0-0.1c0.1-0.1,0-0.3-0.1-0.4C-48.5,5.4-48.5,5.4-48.6,5.4
				z"/>
		</g>
	</g>
</g>
</svg>
