<svg xmlns="http://www.w3.org/2000/svg" xmlns:xlink="http://www.w3.org/1999/xlink" width="224.2" height="142.711" viewBox="0 0 224.2 142.711"><defs><linearGradient id="a" x1="-8.42" y1="-83.383" x2="-7.359" y2="-83.383" gradientUnits="objectBoundingBox"><stop offset="0" stop-color="#ffa100"/><stop offset="0.165" stop-color="#ffbc00"/><stop offset="0.169" stop-color="#ffc833"/><stop offset="0.479" stop-color="#ffe793"/><stop offset="0.801" stop-color="#ffd751"/><stop offset="0.805" stop-color="#ffc000"/><stop offset="1" stop-color="#ffa200"/></linearGradient><linearGradient id="b" x1="-9.91" y1="-83.181" x2="-9.91" y2="-82.972" gradientUnits="objectBoundingBox"><stop offset="0" stop-color="#da6400"/><stop offset="1" stop-color="#fa8900"/></linearGradient><linearGradient id="c" x1="-12.87" y1="-44.646" x2="-11.716" y2="-44.646" gradientUnits="objectBoundingBox"><stop offset="0" stop-color="#e06700"/><stop offset="0.261" stop-color="#ca5400"/><stop offset="0.261" stop-color="#ba3900"/><stop offset="0.498" stop-color="#983100"/><stop offset="0.743" stop-color="#ba3600"/><stop offset="0.743" stop-color="#c75400"/><stop offset="1" stop-color="#e56b00"/></linearGradient><linearGradient id="d" x1="-14.369" y1="-45.552" x2="-14.255" y2="-45.087" gradientUnits="objectBoundingBox"><stop offset="0" stop-color="#ffcd22"/><stop offset="1" stop-color="#fa8900"/></linearGradient><linearGradient id="e" x1="-22.307" y1="-47.776" x2="-21.902" y2="-47.029" gradientUnits="objectBoundingBox"><stop offset="0.195" stop-color="#ffec7e"/><stop offset="0.902" stop-color="#ffad00"/></linearGradient><linearGradient id="i" x1="3.784" y1="-80.908" x2="4.678" y2="-80.908" xlink:href="#a"/><linearGradient id="j" x1="3.969" y1="-110.604" x2="3.969" y2="-109.992" xlink:href="#b"/><linearGradient id="k" x1="0.058" y1="0.833" x2="0.982" y2="0.232" gradientUnits="objectBoundingBox"><stop offset="0" stop-color="#ff9e00"/><stop offset="0.801" stop-color="#f47200"/></linearGradient><linearGradient id="l" x1="0.232" y1="-77.656" x2="1.063" y2="-77.656" xlink:href="#a"/><linearGradient id="m" x1="0.78" y1="-62.516" x2="0.78" y2="-62.107" xlink:href="#b"/><linearGradient id="n" x1="-0.854" y1="1.896" x2="-0.022" y2="1.062" xlink:href="#k"/><linearGradient id="o" x1="10.453" y1="-32.589" x2="11.338" y2="-32.589" xlink:href="#a"/><linearGradient id="p" x1="16.215" y1="-28.354" x2="16.215" y2="-28.145" xlink:href="#b"/><linearGradient id="q" x1="33.749" y1="-38.094" x2="34.575" y2="-38.094" gradientUnits="objectBoundingBox"><stop offset="0" stop-color="#e06700"/><stop offset="0.261" stop-color="#d15900"/><stop offset="0.264" stop-color="#c24900"/><stop offset="0.502" stop-color="#b63e00"/><stop offset="0.759" stop-color="#c24a00"/><stop offset="0.766" stop-color="#d25b00"/><stop offset="1" stop-color="#e56b00"/></linearGradient><linearGradient id="r" x1="34.493" y1="-46.836" x2="34.493" y2="-47.961" xlink:href="#d"/><linearGradient id="s" x1="50.201" y1="-57.395" x2="50.201" y2="-58.831" xlink:href="#e"/><linearGradient id="t" x1="17.847" y1="-54.484" x2="18.656" y2="-54.484" xlink:href="#q"/><linearGradient id="u" x1="29.781" y1="-40.595" x2="29.781" y2="-41.31" xlink:href="#d"/><linearGradient id="v" x1="22.443" y1="-89.447" x2="22.443" y2="-91.076" xlink:href="#e"/><linearGradient id="w" x1="-7.099" y1="-4.853" x2="-6.172" y2="-4.853" xlink:href="#q"/><linearGradient id="x" x1="-5.874" y1="-10.113" x2="-5.874" y2="-11.239" xlink:href="#d"/><linearGradient id="y" x1="-9.789" y1="-5.913" x2="-9.789" y2="-6.641" xlink:href="#e"/><linearGradient id="z" x1="0.784" y1="4.257" x2="1.784" y2="4.257" xlink:href="#c"/><linearGradient id="aa" x1="2.721" y1="1.99" x2="2.846" y2="2.224" xlink:href="#d"/><linearGradient id="ab" x1="1.21" y1="7.886" x2="1.345" y2="10.474" xlink:href="#e"/><linearGradient id="ac" x1="3.033" y1="-0.873" x2="4.201" y2="-0.873" xlink:href="#c"/><linearGradient id="ad" x1="3.183" y1="-3.037" x2="3.226" y2="-2.352" xlink:href="#d"/><linearGradient id="ae" x1="3.94" y1="-1.674" x2="4.113" y2="-0.921" xlink:href="#e"/></defs><g transform="translate(-1084 7496)"><g transform="translate(1097 -7496)"><g transform="translate(105.39 106.032)"><g transform="translate(0 0)"><g transform="translate(0.757 0.338)"><path d="M59.56,74c-.968.4-1.241,1.966-.611,3.507s1.925,2.47,2.892,2.074c.162-.066.4-.174.565-.24.967-.4,1.241-1.965.611-3.506s-1.925-2.47-2.892-2.075C59.962,73.831,59.722,73.938,59.56,74Z" transform="translate(-58.564 -73.627)" fill="url(#a)"/><path d="M59.822,78.951h0a4.41,4.41,0,0,1-.938-1.444c-.638-1.562-.353-3.162.637-3.567l.281-.12c.1-.044.2-.087.283-.121a1.914,1.914,0,0,1,2.015.656,4.42,4.42,0,0,1,.938,1.444c.638,1.562.353,3.163-.636,3.567-.081.033-.181.077-.282.12s-.2.087-.283.121A1.913,1.913,0,0,1,59.822,78.951Zm2.212-4.53a1.825,1.825,0,0,0-1.914-.636l-.281.12c-.1.044-.2.087-.283.121-.942.385-1.2,1.93-.585,3.446a4.314,4.314,0,0,0,.918,1.413,1.824,1.824,0,0,0,1.913.636c.081-.033.181-.076.281-.119s.2-.087.283-.121c.942-.386,1.2-1.931.585-3.446A4.309,4.309,0,0,0,62.034,74.421Z" transform="translate(-58.543 -73.605)" fill="#ea7800"/></g><ellipse cx="1.892" cy="3.014" rx="1.892" ry="3.014" transform="translate(0 1.432) rotate(-22.23)" fill="url(#b)"/><path d="M59.822,79.063h0a4.41,4.41,0,0,1-.938-1.444c-.638-1.562-.353-3.162.637-3.567a1.912,1.912,0,0,1,2.015.656,4.41,4.41,0,0,1,.938,1.444c.639,1.562.354,3.163-.636,3.567A1.913,1.913,0,0,1,59.822,79.063Zm1.647-4.289a1.825,1.825,0,0,0-1.914-.636c-.942.385-1.2,1.93-.585,3.446A4.315,4.315,0,0,0,59.888,79a1.824,1.824,0,0,0,1.913.636c.942-.385,1.2-1.931.586-3.446A4.307,4.307,0,0,0,61.469,74.774Z" transform="translate(-57.787 -73.379)" fill="#ffe576"/><path d="M59.318,77.74c.532,1.3,1.633,2.081,2.461,1.743a1.25,1.25,0,0,0,.676-.753,1.125,1.125,0,0,1-.583.591c-.779.318-1.823-.43-2.331-1.673s-.287-2.507.493-2.826a1.123,1.123,0,0,1,.831.014,1.248,1.248,0,0,0-1.01-.064C59.026,75.111,58.786,76.44,59.318,77.74Z" transform="translate(-57.943 -73.614)" fill="#ffb900"/></g><path d="M64.32,77.662v-.005a.209.209,0,0,0,.01-.162.089.089,0,1,0-.167.063.147.147,0,0,0,.045.086.179.179,0,0,1,.047.043C64.275,77.72,64.32,77.693,64.32,77.662Z" transform="translate(-59.576 -74.488)" fill="#fff"/></g><g transform="translate(43.577 102.133)"><g transform="translate(0 0)"><g transform="translate(1.093 0.594)"><path d="M35,68.741c-2.051.583-3.082,3.277-2.3,6.017s3.073,4.487,5.124,3.9l1.024-.291c2.051-.583,3.081-3.277,2.3-6.017s-3.074-4.487-5.124-3.9Z" transform="translate(-32.376 -68.279)" fill="url(#c)"/><path d="M36.984,78.806h0c-1.865,0-3.7-1.707-4.372-4.059-.787-2.766.264-5.5,2.342-6.089l1.023-.291a3,3,0,0,1,.824-.114c1.865,0,3.7,1.707,4.373,4.059a6.16,6.16,0,0,1-.092,3.854A3.486,3.486,0,0,1,38.831,78.4l-1.023.291A3,3,0,0,1,36.984,78.806ZM36.8,68.369a2.867,2.867,0,0,0-.792.11l-1.024.291c-2.016.574-3.031,3.24-2.261,5.944.655,2.3,2.446,3.974,4.259,3.974h0a2.9,2.9,0,0,0,.792-.11l1.023-.291a3.37,3.37,0,0,0,2.173-2.164,6.042,6.042,0,0,0,.089-3.78C40.405,70.041,38.614,68.369,36.8,68.369Z" transform="translate(-32.349 -68.252)" fill="#a63000"/></g><g transform="translate(0)"><ellipse cx="3.861" cy="5.157" rx="3.861" ry="5.157" transform="matrix(0.962, -0.274, 0.274, 0.962, 0, 2.112)" fill="url(#d)"/><path d="M36.984,78.942h0c-1.865,0-3.7-1.707-4.372-4.059-.787-2.766.264-5.5,2.342-6.089a3,3,0,0,1,.824-.114c1.865,0,3.7,1.707,4.373,4.059a6.162,6.162,0,0,1-.092,3.854,3.483,3.483,0,0,1-2.251,2.235A3,3,0,0,1,36.984,78.942ZM35.778,68.8a2.9,2.9,0,0,0-.792.11c-2.016.574-3.031,3.24-2.261,5.944.655,2.3,2.446,3.974,4.259,3.974h0a2.9,2.9,0,0,0,.792-.11,3.37,3.37,0,0,0,2.173-2.164,6.042,6.042,0,0,0,.088-3.78C39.382,70.468,37.591,68.8,35.778,68.8Z" transform="translate(-31.256 -67.794)" fill="#ffe576"/></g><path d="M34.639,69.117c-1.81.779-2.678,3.313-1.945,5.889s2.8,4.275,4.754,3.984Z" transform="translate(-31.283 -67.933)" fill="url(#e)"/><path d="M33.443,75.127c.657,2.312,2.613,3.783,4.367,3.284a2.768,2.768,0,0,0,1.58-1.234,2.529,2.529,0,0,1-1.344.963c-1.653.47-3.5-.939-4.13-3.147s.2-4.379,1.856-4.849a2.529,2.529,0,0,1,1.651.112,2.771,2.771,0,0,0-1.994-.219C33.674,70.536,32.785,72.815,33.443,75.127Z" transform="translate(-31.535 -68.196)" fill="#dd6200"/><path d="M38.9,78.377l.125-.047.151-.057a2.1,2.1,0,0,0,.193-.1l.113-.061c.039-.022.076-.052.116-.08a1.873,1.873,0,0,0,.248-.2,2.138,2.138,0,0,0,.251-.256l.127-.148.115-.168a3.214,3.214,0,0,0,.219-.373,5.94,5.94,0,0,0,.181-.426A4.167,4.167,0,0,0,40.871,76c.016-.082.042-.163.052-.247l.038-.256a2.527,2.527,0,0,0,.023-.261c0-.088.016-.176.014-.265a5.154,5.154,0,0,0-.02-.541,5.709,5.709,0,0,0-.6-2.111,5.2,5.2,0,0,0-.266-.471c-.046-.077-.1-.146-.151-.218a2.446,2.446,0,0,0-.158-.21l-.166-.2c-.054-.066-.118-.121-.174-.183a4.162,4.162,0,0,0-.362-.328c-.059-.054-.127-.093-.189-.139a2.192,2.192,0,0,0-.189-.127,3.183,3.183,0,0,0-.382-.2l-.187-.082-.185-.059a2.1,2.1,0,0,0-.349-.086,1.837,1.837,0,0,0-.314-.036c-.049,0-.1-.009-.14-.007l-.128.007c-.081.007-.155,0-.217.018l-.158.031-.131.026.131-.03.157-.036a1.887,1.887,0,0,1,.217-.025l.129-.012c.046,0,.093,0,.142,0a1.9,1.9,0,0,1,.318.026,2.219,2.219,0,0,1,.357.076l.189.056.191.08a3.262,3.262,0,0,1,.392.2,2.254,2.254,0,0,1,.195.126,2.208,2.208,0,0,1,.195.138,4.071,4.071,0,0,1,.375.328,3.94,3.94,0,0,1,.351.383,2.594,2.594,0,0,1,.161.212c.051.074.109.144.155.222a5.358,5.358,0,0,1,.275.477,6.016,6.016,0,0,1,.415,1.04,5.929,5.929,0,0,1,.195,1.106,5.328,5.328,0,0,1,.018.55c0,.091-.011.181-.016.271a2.423,2.423,0,0,1-.026.265,3.929,3.929,0,0,1-.1.51,4.2,4.2,0,0,1-.146.476c-.024.078-.063.148-.093.221s-.059.144-.1.209a3.335,3.335,0,0,1-.23.375l-.121.168-.131.148a2.205,2.205,0,0,1-.264.251,1.821,1.821,0,0,1-.258.19c-.042.027-.079.056-.119.077l-.117.058a1.9,1.9,0,0,1-.2.093l-.153.052Z" transform="translate(-32.588 -68.199)" fill="#ffb129"/></g><path d="M41.457,70.38a.841.841,0,0,0-.14-.147.191.191,0,0,0-.283.048c-.065.131.016.238.1.337a.205.205,0,0,0,.283.044A.2.2,0,0,0,41.457,70.38Z" transform="translate(-34.016 -68.276)" fill="#fff"/><path d="M35.163,81.578a.363.363,0,0,0-.227-.124l-.022-.01c-.1-.048-.169.07-.121.149v0c0,.1.093.179.159.238a.167.167,0,0,0,.233-.023A.169.169,0,0,0,35.163,81.578Z" transform="translate(-32.03 -71.858)" fill="#fff"/><path d="M36.134,80.575c-.044-.037-.108.024-.073.069.051.065.117.217.221.192a.042.042,0,0,0,.034-.033C36.345,80.7,36.2,80.629,36.134,80.575Z" transform="translate(-32.436 -71.581)" fill="#fff"/><path d="M41.191,71.684l-.016-.019c-.1-.117-.268.044-.153.144l.018.016C41.129,71.9,41.27,71.774,41.191,71.684Z" transform="translate(-34.007 -68.732)" fill="#fff"/></g><g transform="translate(105.605 136.481) rotate(139)"><g transform="translate(0 0)"><g transform="translate(1.093 0.594)"><path d="M2.562.4C.512.986-.519,3.68.26,6.42s3.073,4.487,5.124,3.9l1.024-.291c2.051-.583,3.081-3.277,2.3-6.017S5.637-.471,3.586.112Z" transform="translate(0.058 0.059)" fill="url(#c)"/><path d="M4.634,10.554h0c-1.865,0-3.7-1.707-4.372-4.059C-.526,3.728.525,1,2.6.405L3.627.114A3,3,0,0,1,4.452,0c1.865,0,3.7,1.707,4.373,4.059a6.16,6.16,0,0,1-.092,3.854,3.486,3.486,0,0,1-2.251,2.235l-1.023.291A3,3,0,0,1,4.634,10.554ZM4.452.117a2.867,2.867,0,0,0-.792.11L2.636.518C.62,1.092-.395,3.758.374,6.462c.655,2.3,2.446,3.974,4.259,3.974h0a2.9,2.9,0,0,0,.792-.11l1.023-.291A3.37,3.37,0,0,0,8.623,7.871a6.042,6.042,0,0,0,.089-3.78C8.056,1.789,6.265.117,4.452.117Z" transform="translate(0 0)" fill="#a63000"/></g><g transform="translate(0 0)"><ellipse cx="3.861" cy="5.157" rx="3.861" ry="5.157" transform="matrix(0.962, -0.274, 0.274, 0.962, 0, 2.112)" fill="url(#d)"/><path d="M4.634,10.263h0C2.769,10.263.93,8.556.261,6.2-.526,3.437.525.706,2.6.114A3,3,0,0,1,3.428,0C5.293,0,7.132,1.707,7.8,4.059a6.162,6.162,0,0,1-.092,3.854,3.483,3.483,0,0,1-2.251,2.235A3,3,0,0,1,4.634,10.263ZM3.428.117a2.9,2.9,0,0,0-.792.11C.62.8-.395,3.467.374,6.172c.655,2.3,2.446,3.974,4.259,3.974h0a2.9,2.9,0,0,0,.792-.11A3.37,3.37,0,0,0,7.6,7.871a6.042,6.042,0,0,0,.088-3.78C7.032,1.789,5.241.117,3.428.117Z" transform="translate(1.093 0.885)" fill="#ffe576"/></g><path d="M2.205,0C.4.779-.473,3.313.26,5.889s2.8,4.275,4.754,3.984Z" transform="translate(1.151 1.184)" fill="url(#e)"/><path d="M.217,5.187C.874,7.5,2.83,8.97,4.583,8.471a2.768,2.768,0,0,0,1.58-1.234A2.529,2.529,0,0,1,4.819,8.2c-1.653.47-3.5-.939-4.13-3.147S.892.674,2.545.2A2.529,2.529,0,0,1,4.2.315,2.771,2.771,0,0,0,2.2.1C.448.6-.441,2.874.217,5.187Z" transform="translate(1.69 1.744)" fill="#dd6200"/><path d="M2.368,8.428l.125-.047.151-.057a2.1,2.1,0,0,0,.193-.1l.113-.061c.039-.022.076-.052.116-.08a1.873,1.873,0,0,0,.248-.2,2.138,2.138,0,0,0,.251-.256l.127-.148.115-.168a3.212,3.212,0,0,0,.219-.373,2.212,2.212,0,0,0,.093-.208,2.206,2.206,0,0,0,.088-.218,4.167,4.167,0,0,0,.135-.469c.016-.082.042-.163.052-.247l.038-.256a2.526,2.526,0,0,0,.023-.261c0-.088.016-.176.014-.265a5.155,5.155,0,0,0-.02-.541,5.914,5.914,0,0,0-.2-1.083,5.872,5.872,0,0,0-.4-1.028A5.2,5.2,0,0,0,3.582,1.9c-.046-.077-.1-.146-.151-.218a2.447,2.447,0,0,0-.158-.21l-.166-.2c-.054-.066-.118-.121-.174-.183A4.163,4.163,0,0,0,2.57.76C2.511.706,2.443.667,2.381.621A2.193,2.193,0,0,0,2.192.494a3.184,3.184,0,0,0-.382-.2L1.623.21,1.438.151A2.1,2.1,0,0,0,1.089.065,1.837,1.837,0,0,0,.775.029C.726.027.679.02.634.022L.506.029C.425.037.352.034.29.047L.131.078,0,.1.131.074.288.038A1.888,1.888,0,0,1,.5.013L.634,0C.679,0,.726,0,.776,0A1.9,1.9,0,0,1,1.094.03a2.219,2.219,0,0,1,.357.076l.189.056.191.08a3.262,3.262,0,0,1,.392.2,2.252,2.252,0,0,1,.195.126A2.206,2.206,0,0,1,2.614.7a4.07,4.07,0,0,1,.375.328,3.939,3.939,0,0,1,.351.383,2.592,2.592,0,0,1,.161.212c.051.074.109.144.155.222a5.356,5.356,0,0,1,.275.477,6.017,6.017,0,0,1,.415,1.04,5.929,5.929,0,0,1,.195,1.106,5.327,5.327,0,0,1,.018.55c0,.091-.011.181-.016.27a2.424,2.424,0,0,1-.026.265,3.93,3.93,0,0,1-.1.51,4.205,4.205,0,0,1-.146.476c-.024.078-.063.148-.093.221s-.059.144-.1.209a3.335,3.335,0,0,1-.23.375l-.121.168L3.6,7.663a2.205,2.205,0,0,1-.264.251,1.821,1.821,0,0,1-.258.19c-.042.027-.079.056-.119.077l-.117.058a1.9,1.9,0,0,1-.2.093l-.153.052Z" transform="translate(3.94 1.751)" fill="#ffb129"/></g><path d="M.446.189A.841.841,0,0,0,.307.042.191.191,0,0,0,.024.089C-.041.22.04.328.119.427A.205.205,0,0,0,.4.471.2.2,0,0,0,.446.189Z" transform="translate(6.995 1.915)" fill="#fff"/><path d="M.385.145A.363.363,0,0,0,.158.021L.136.011C.04-.037-.033.081.015.16v0c0,.1.093.179.159.238A.167.167,0,0,0,.408.378.169.169,0,0,0,.385.145Z" transform="translate(2.748 9.575)" fill="#fff"/><path d="M.083.011C.04-.025-.025.035.01.08.061.145.127.3.232.272A.042.042,0,0,0,.266.24C.294.137.146.065.083.011Z" transform="translate(3.615 8.982)" fill="#fff"/><path d="M.208.06.192.041C.09-.076-.076.085.039.185L.058.2C.146.279.287.15.208.06Z" transform="translate(6.975 2.892)" fill="#fff"/></g><g transform="translate(64.967 4.783)"><g transform="translate(0 0)"><g transform="translate(0.542 0.526)"><path d="M46.29,12.565c.741.824.339,2.4-.9,3.509s-2.843,1.348-3.584.523l-.4-.44c-.742-.824-.339-2.4.9-3.509s2.842-1.348,3.584-.523Z" transform="translate(-41.007 -11.598)" fill="url(#i)"/><path d="M42.836,17.1h0A3.572,3.572,0,0,0,45.4,16.083a3.914,3.914,0,0,0,1.2-1.88,1.777,1.777,0,0,0-.3-1.677l-.4-.44a1.585,1.585,0,0,0-1.069-.5,3.569,3.569,0,0,0-2.563,1.016c-1.25,1.124-1.654,2.721-.9,3.557l.4.44A1.584,1.584,0,0,0,42.836,17.1Zm1.994-5.441a1.516,1.516,0,0,1,1.023.474l.4.44a1.709,1.709,0,0,1,.285,1.614,3.844,3.844,0,0,1-1.181,1.846,3.5,3.5,0,0,1-2.511,1h0a1.519,1.519,0,0,1-1.024-.474l-.4-.44c-.728-.809-.326-2.362.9-3.461A3.505,3.505,0,0,1,44.83,11.658Z" transform="translate(-40.992 -11.582)" fill="#ea7800"/></g><g transform="translate(0)"><ellipse cx="3.014" cy="2.008" rx="3.014" ry="2.008" transform="translate(0 4.032) rotate(-41.97)" fill="url(#j)"/><path d="M43.021,17.305h0a3.572,3.572,0,0,0,2.564-1.017,3.914,3.914,0,0,0,1.2-1.88,1.777,1.777,0,0,0-.3-1.677,1.582,1.582,0,0,0-1.069-.5,3.569,3.569,0,0,0-2.563,1.016c-1.25,1.124-1.654,2.721-.9,3.557A1.584,1.584,0,0,0,43.021,17.305Zm2.39-5a1.516,1.516,0,0,1,1.023.474,1.709,1.709,0,0,1,.285,1.614,3.844,3.844,0,0,1-1.181,1.846,3.5,3.5,0,0,1-2.511,1h0A1.519,1.519,0,0,1,42,16.764c-.728-.809-.326-2.362.9-3.461A3.505,3.505,0,0,1,45.411,12.3Z" transform="translate(-40.635 -11.262)" fill="#ffe576"/></g><path d="M44.395,15.485a6.36,6.36,0,0,0,2.412-1.335,3.257,3.257,0,0,1-1.228,2.708c-1.219,1.1-2.8,1.327-3.529.515a1.691,1.691,0,0,1-.309-1.532A6.759,6.759,0,0,0,44.395,15.485Z" transform="translate(-40.67 -11.874)" fill="url(#k)"/><path d="M45.592,16.267c-1.045.94-2.406,1.13-3.04.425a1.359,1.359,0,0,1-.318-1.014,1.228,1.228,0,0,0,.3.82c.6.664,1.891.476,2.889-.422s1.322-2.163.724-2.828a1.234,1.234,0,0,0-.785-.384,1.365,1.365,0,0,1,.975.424C46.969,13.994,46.636,15.327,45.592,16.267Z" transform="translate(-40.844 -11.465)" fill="#b62b00"/><path d="M42.528,16.663l-.045-.061-.055-.073c-.018-.03-.036-.067-.058-.107a.711.711,0,0,1-.059-.139c-.009-.026-.02-.052-.029-.081l-.019-.09a1.635,1.635,0,0,1-.03-.424c.007-.078.015-.159.03-.241a2.248,2.248,0,0,1,.063-.253,2.99,2.99,0,0,1,.217-.518,3.422,3.422,0,0,1,.335-.5,3.913,3.913,0,0,1,.425-.452,3.975,3.975,0,0,1,.5-.377,3.465,3.465,0,0,1,.532-.28,3.031,3.031,0,0,1,.538-.161,2.2,2.2,0,0,1,.258-.036c.084-.006.166-.006.243,0a1.656,1.656,0,0,1,.418.074l.087.029c.028.011.053.025.078.037a.706.706,0,0,1,.132.073c.037.027.072.048.1.069l.066.062.055.051-.053-.053-.065-.064c-.027-.022-.062-.046-.1-.074a.781.781,0,0,0-.131-.078c-.025-.012-.05-.027-.078-.04l-.087-.033a1.574,1.574,0,0,0-.423-.087c-.079,0-.162,0-.248,0a2.267,2.267,0,0,0-.263.032,2.768,2.768,0,0,0-.549.156,3.54,3.54,0,0,0-.542.281,3.94,3.94,0,0,0-.5.378,4.041,4.041,0,0,0-.431.462,3.559,3.559,0,0,0-.337.51,2.774,2.774,0,0,0-.213.53,2.2,2.2,0,0,0-.06.258c-.013.084-.02.168-.026.247a1.535,1.535,0,0,0,.042.43l.023.091c.009.029.021.055.031.081a.7.7,0,0,0,.064.138c.024.04.043.076.063.106l.057.071Z" transform="translate(-40.835 -11.454)" fill="#ffb81b"/></g><path d="M43.016,13.951c.043-.057.117-.15.2-.139h.018a.053.053,0,0,1,.051.076l0,.007a.151.151,0,0,1-.047.084c-.026.031-.052.06-.076.094a.092.092,0,0,1-.131.009A.094.094,0,0,1,43.016,13.951Z" transform="translate(-41.088 -11.766)" fill="#fff"/></g><g transform="translate(150.154 30.4)"><g transform="translate(0 0)"><g transform="translate(0.672 0.172)"><path d="M74.636,26.71c-.456,1.317.775,2.931,2.75,3.6s3.946.153,4.4-1.164l.243-.7c.456-1.317-.775-2.931-2.749-3.606s-3.946-.153-4.4,1.164Z" transform="translate(-74.497 -24.503)" fill="url(#l)"/><path d="M80.813,30.243h0a4.485,4.485,0,0,1-3.462.091,4.875,4.875,0,0,1-2.306-1.576,2.221,2.221,0,0,1-.47-2.084l.244-.7a2,2,0,0,1,1-1.1,4.486,4.486,0,0,1,3.461-.092c1.994.681,3.24,2.323,2.776,3.66l-.243.7A2.007,2.007,0,0,1,80.813,30.243Zm-4.959-5.295A1.916,1.916,0,0,0,74.9,26l-.244.7a2.137,2.137,0,0,0,.457,2,4.781,4.781,0,0,0,2.266,1.547,4.4,4.4,0,0,0,3.393-.086h0a1.919,1.919,0,0,0,.954-1.051l.243-.7c.448-1.292-.773-2.885-2.723-3.551A4.4,4.4,0,0,0,75.854,24.949Z" transform="translate(-74.476 -24.482)" fill="#ea7800"/></g><g transform="translate(0)"><ellipse cx="2.524" cy="3.778" rx="2.524" ry="3.778" transform="translate(0 4.783) rotate(-71.362)" fill="url(#m)"/><path d="M80.813,30.572h0a4.485,4.485,0,0,1-3.462.091,4.88,4.88,0,0,1-2.307-1.576A2.222,2.222,0,0,1,74.574,27a2.008,2.008,0,0,1,1-1.1,4.488,4.488,0,0,1,3.462-.092c1.994.681,3.24,2.323,2.776,3.66A2.007,2.007,0,0,1,80.813,30.572Zm-5.2-4.592a1.918,1.918,0,0,0-.954,1.051,2.138,2.138,0,0,0,.456,2,4.787,4.787,0,0,0,2.267,1.547,4.4,4.4,0,0,0,3.393-.086h0a1.919,1.919,0,0,0,.954-1.051c.448-1.292-.774-2.885-2.723-3.55A4.4,4.4,0,0,0,75.61,25.981Z" transform="translate(-73.804 -24.639)" fill="#ffe576"/></g><path d="M78.152,29.367a7.978,7.978,0,0,1-3.441-.352,4.057,4.057,0,0,0,2.742,2.519c1.945.664,3.885.151,4.335-1.147a2.115,2.115,0,0,0-.389-1.921A8.524,8.524,0,0,1,78.152,29.367Z" transform="translate(-73.879 -25.58)" fill="url(#n)"/><path d="M77.758,30.656c1.667.569,3.334.117,3.725-1.01a1.705,1.705,0,0,0-.126-1.326,1.537,1.537,0,0,1,.054,1.094c-.367,1.062-1.956,1.482-3.548.938s-2.584-1.844-2.216-2.905a1.557,1.557,0,0,1,.721-.831,1.724,1.724,0,0,0-.922.97C75.056,28.712,76.091,30.086,77.758,30.656Z" transform="translate(-74.087 -24.99)" fill="#b62b00"/><path d="M81.534,29.471l.022-.092.027-.111c.007-.044.01-.1.016-.153a.92.92,0,0,0,0-.189c0-.034,0-.07-.007-.107l-.022-.114a2,2,0,0,0-.172-.5c-.046-.087-.095-.176-.153-.264a2.686,2.686,0,0,0-.2-.26,3.713,3.713,0,0,0-.5-.491,4.3,4.3,0,0,0-.631-.412,4.737,4.737,0,0,0-1.469-.5,4.311,4.311,0,0,0-.752-.061,3.767,3.767,0,0,0-.7.079,2.75,2.75,0,0,0-.316.086c-.1.034-.194.074-.283.114a2.06,2.06,0,0,0-.448.292l-.087.076c-.027.027-.049.055-.072.081a.917.917,0,0,0-.117.149c-.031.049-.061.091-.082.13l-.047.1-.039.087.036-.088.044-.106c.02-.04.049-.083.078-.133a.911.911,0,0,1,.113-.155c.022-.027.044-.057.07-.084l.086-.08a1.96,1.96,0,0,1,.447-.309c.09-.042.185-.085.287-.122a2.916,2.916,0,0,1,.32-.093,3.49,3.49,0,0,1,.712-.091,4.377,4.377,0,0,1,.765.057,4.435,4.435,0,0,1,1.49.509,4.352,4.352,0,0,1,.638.422,3.439,3.439,0,0,1,.5.506,2.784,2.784,0,0,1,.195.268c.057.091.106.183.15.271a1.9,1.9,0,0,1,.161.517l.018.116c0,.037,0,.074,0,.109a.914.914,0,0,1-.007.191c-.008.057-.012.109-.021.153l-.031.11Z" transform="translate(-74.131 -24.842)" fill="#ffb81b"/></g><path d="M81.625,26.034c-.077-.044-.208-.115-.3-.063l-.021.007a.067.067,0,0,0-.022.113l.007.007a.188.188,0,0,0,.1.075,1.459,1.459,0,0,1,.133.071.117.117,0,1,0,.1-.21Z" transform="translate(-75.967 -24.779)" fill="#fff"/></g><g transform="translate(178.579 2.744)"><g transform="translate(0 0)"><g transform="translate(2.146 1.121)"><path d="M88.343,21.579c-1.622,2.112-5.665,1.729-9.03-.855s-4.778-6.392-3.155-8.5c.272-.354.7-.872.97-1.226,1.622-2.112,5.665-1.729,9.03.856s4.778,6.392,3.155,8.5C89.041,20.707,88.615,21.225,88.343,21.579Z" transform="translate(-75.366 -9.516)" fill="url(#o)"/><path d="M76.266,17.489h0a11.241,11.241,0,0,0,2.92,3.277c3.411,2.62,7.537,2.994,9.2.833.136-.176.31-.394.484-.612s.35-.437.486-.615c1.012-1.319.916-3.335-.258-5.394a11.232,11.232,0,0,0-2.92-3.277c-3.411-2.62-7.537-2.994-9.2-.833-.136.176-.31.394-.484.612s-.35.437-.486.615C74.995,13.413,75.091,15.43,76.266,17.489ZM88.887,15.1c1.126,1.972,1.228,3.891.276,5.132-.136.176-.309.393-.483.61s-.35.438-.487.616c-1.579,2.057-5.556,1.663-8.863-.878a10.987,10.987,0,0,1-2.858-3.206c-1.126-1.972-1.228-3.891-.276-5.132.136-.176.309-.393.483-.61s.35-.438.487-.616c1.58-2.056,5.556-1.663,8.864.878A11,11,0,0,1,88.887,15.1Z" transform="translate(-75.311 -9.463)" fill="#ea7800"/></g><ellipse cx="4.822" cy="7.683" rx="4.822" ry="7.683" transform="matrix(0.609, -0.793, 0.793, 0.609, 0, 7.649)" fill="url(#p)"/><path d="M76.266,18.062h0a11.241,11.241,0,0,0,2.92,3.277c3.411,2.62,7.537,2.994,9.2.834,1.013-1.32.917-3.336-.258-5.395A11.241,11.241,0,0,0,85.2,13.5c-3.411-2.62-7.537-2.994-9.2-.833C74.995,13.987,75.091,16,76.266,18.062ZM87.918,16.9c1.125,1.973,1.228,3.891.275,5.132-1.579,2.057-5.556,1.663-8.863-.878a10.987,10.987,0,0,1-2.858-3.206c-1.126-1.972-1.228-3.891-.276-5.132,1.58-2.056,5.556-1.662,8.864.878A11.007,11.007,0,0,1,87.918,16.9Z" transform="translate(-73.165 -8.916)" fill="#ffe576"/><path d="M80.177,21.245c-2.84-2.182-4.018-5.415-2.63-7.221a3.185,3.185,0,0,1,2.3-1.156A2.866,2.866,0,0,0,78.007,13.9c-1.307,1.7-.169,4.771,2.543,6.854s5.971,2.391,7.278.69a2.865,2.865,0,0,0,.525-2.051,3.19,3.19,0,0,1-.522,2.527C86.444,23.731,83.017,23.426,80.177,21.245Z" transform="translate(-73.691 -9.428)" fill="#ffb900"/></g><path d="M88.382,13.942l.013,0a.525.525,0,0,1,.4.084.228.228,0,0,1,.051.318.233.233,0,0,1-.317.051.375.375,0,0,1-.182-.17.461.461,0,0,0-.073-.144C88.207,14.014,88.3,13.92,88.382,13.942Z" transform="translate(-77.289 -9.767)" fill="#fff"/></g><g transform="translate(1.97 12.946)"><g transform="translate(0 0)"><g transform="translate(0.926 0.402)"><path d="M19.186,28.289c1.131,2.421,4.754,3.121,8.092,1.562s5.127-4.786,4-7.207l-.709-1.517c-1.13-2.421-4.754-3.121-8.092-1.562s-5.127,4.786-4,7.207Z" transform="translate(-18.064 -18.661)" fill="url(#q)"/><path d="M27.275,29.885c-3.371,1.575-7.046.858-8.193-1.6l-.709-1.517c-1.147-2.456.662-5.734,4.034-7.308s7.046-.857,8.193,1.6l.708,1.517C32.456,25.033,30.646,28.312,27.275,29.885ZM22.471,19.6c-3.294,1.539-5.071,4.726-3.959,7.106l.708,1.517c1.112,2.38,4.7,3.064,7.991,1.525s5.071-4.726,3.96-7.106l-.709-1.517C29.351,18.746,25.766,18.062,22.471,19.6Z" transform="translate(-18.029 -18.627)" fill="#ad4900"/></g><g transform="translate(0)"><ellipse cx="6.671" cy="4.839" rx="6.671" ry="4.839" transform="translate(0 5.646) rotate(-25.035)" fill="url(#r)"/><path d="M27.607,30.595c-3.371,1.575-7.046.858-8.193-1.6s.662-5.735,4.033-7.309,7.046-.857,8.193,1.6S30.977,29.021,27.607,30.595Zm-4.1-8.769c-3.295,1.538-5.071,4.726-3.96,7.106s4.7,3.064,7.991,1.525,5.071-4.726,3.96-7.106S26.806,20.288,23.511,21.826Z" transform="translate(-17.435 -18.934)" fill="#ffe576"/></g><path d="M27.254,21.067a8.358,8.358,0,0,0-3.7.816c-3.248,1.517-5,4.636-3.969,7.01C27.234,29.037,30.43,26.773,27.254,21.067Z" transform="translate(-17.504 -19.002)" fill="url(#s)"/><path d="M27.809,30.528c2.817-1.316,4.318-4.061,3.35-6.132a3.412,3.412,0,0,0-1.87-1.7,3.113,3.113,0,0,1,1.48,1.463c.912,1.951-.531,4.553-3.221,5.809s-5.611.693-6.522-1.259a3.115,3.115,0,0,1-.172-2.075,3.416,3.416,0,0,0,.1,2.525C21.923,31.232,24.991,31.845,27.809,30.528Z" transform="translate(-17.943 -19.523)" fill="#dd6200"/></g><path d="M32.714,34.246a.614.614,0,0,0-.243.04.179.179,0,1,0,.144.326.622.622,0,0,0,.187-.16A.123.123,0,0,0,32.714,34.246Z" transform="translate(-21.667 -23.202)" fill="#fff"/><path d="M31.3,32.758l-.022.022A.144.144,0,0,0,31.31,33l.028.015a.167.167,0,1,0-.04-.261Z" transform="translate(-21.312 -22.713)" fill="#fff"/><path d="M23.263,23.062a.664.664,0,0,0-.331.337c-.042.158.1.256.243.236s.281-.2.362-.31C23.662,23.154,23.419,22.975,23.263,23.062Z" transform="translate(-18.664 -19.631)" fill="#fff"/></g><g transform="translate(0 117.155)"><g transform="translate(0 0)"><g transform="translate(0.266 1.6)"><path d="M31.207,82.057c1.343-2.61-1.079-5.971-5.41-7.508s-8.931-.669-10.274,1.94l-.841,1.635c-1.343,2.61,1.079,5.971,5.41,7.508s8.931.669,10.274-1.94Z" transform="translate(-14.215 -73.71)" fill="url(#t)"/><path d="M25.79,74.438c4.373,1.552,6.823,4.968,5.461,7.614l-.841,1.635c-1.362,2.646-6.028,3.535-10.4,1.983s-6.824-4.968-5.462-7.615l.841-1.634C16.75,73.774,21.416,72.885,25.79,74.438ZM20.085,85.52c4.275,1.518,8.827.666,10.146-1.9l.841-1.635c1.32-2.564-1.084-5.885-5.359-7.4s-8.827-.666-10.146,1.9l-.841,1.634C13.406,80.682,15.81,84,20.085,85.52Z" transform="translate(-14.17 -73.673)" fill="#ad4900"/></g><ellipse cx="5.234" cy="8.372" rx="5.234" ry="8.372" transform="matrix(0.25, -0.968, 0.968, 0.25, 0, 10.135)" fill="url(#u)"/><path d="M26.184,74.438c4.373,1.552,6.823,4.968,5.461,7.614s-6.028,3.535-10.4,1.983-6.824-4.969-5.462-7.615S21.81,72.885,26.184,74.438ZM21.32,83.886c4.275,1.517,8.827.666,10.146-1.9s-1.084-5.885-5.359-7.4-8.827-.666-10.146,1.9S17.045,82.368,21.32,83.886Z" transform="translate(-14.298 -72.073)" fill="#ffe576"/><path d="M18.32,83.143A10.856,10.856,0,0,0,22.259,85.5c4.218,1.5,8.693.677,10.074-1.825C25.939,77.51,21.052,76.583,18.32,83.143Z" transform="translate(-15.227 -73.65)" fill="url(#v)"/><path d="M26.473,75.533c-3.656-1.3-7.551-.541-8.7,1.69a3.059,3.059,0,0,0-.023,2.681,2.783,2.783,0,0,1,.132-2.206c1.083-2.1,4.79-2.8,8.28-1.564s5.443,3.949,4.361,6.052a3.654,3.654,0,0,1-1.831,1.6,4.1,4.1,0,0,0,2.32-1.867C32.161,79.692,30.129,76.831,26.473,75.533Z" transform="translate(-14.951 -72.464)" fill="#dd6200"/></g><path d="M29.248,74.318a.769.769,0,0,0,.244.164c.3.118.5-.245.189-.345a.944.944,0,0,0-.313-.035C29.236,74.1,29.154,74.232,29.248,74.318Z" transform="translate(-18.696 -72.21)" fill="#fff"/><path d="M29.1,76.524l.04,0c.117.007.211-.093.184-.186l-.01-.033a.232.232,0,0,0-.352-.091C28.824,76.325,28.92,76.513,29.1,76.524Z" transform="translate(-18.598 -72.869)" fill="#fff"/><path d="M26.607,89.623a1.015,1.015,0,0,0,.6.024c.187-.079.155-.264.017-.359a1.076,1.076,0,0,0-.6-.068C26.355,89.242,26.391,89.562,26.607,89.623Z" transform="translate(-17.812 -77.024)" fill="#fff"/></g><g transform="translate(181.903 117.453)"><g transform="translate(0 0)"><g transform="translate(1.344 1.725)"><path d="M93.34,75.005c-.9-1.32-4.762-.254-8.628,2.38s-6.27,5.839-5.371,7.159l.871,1.277c.9,1.32,4.762.254,8.627-2.38S95.11,77.6,94.21,76.283Z" transform="translate(-79.056 -74.341)" fill="url(#w)"/><path d="M82.8,86.306h0c-1.369.282-2.306.117-2.71-.476l-.87-1.278c-.46-.675-.14-1.811.9-3.2a19.362,19.362,0,0,1,4.495-4.094,18.156,18.156,0,0,1,6.052-2.83c1.369-.282,2.306-.117,2.71.476l.871,1.278c.46.675.14,1.811-.9,3.2a19.352,19.352,0,0,1-4.5,4.094A18.148,18.148,0,0,1,82.8,86.306ZM90.7,74.618a17.952,17.952,0,0,0-5.981,2.8,19.186,19.186,0,0,0-4.45,4.051c-.973,1.3-1.3,2.381-.9,2.974l.871,1.278c.352.516,1.243.657,2.511.4h0a17.947,17.947,0,0,0,5.981-2.8,19.181,19.181,0,0,0,4.449-4.051c.974-1.3,1.3-2.381.9-2.974l-.87-1.277C92.863,74.5,91.971,74.357,90.7,74.618Z" transform="translate(-79.011 -74.295)" fill="#b14800"/></g><g transform="translate(0)"><ellipse cx="8.47" cy="2.892" rx="8.47" ry="2.892" transform="translate(0 9.539) rotate(-34.271)" fill="url(#x)"/><path d="M81.926,85.028h0c-1.369.282-2.306.117-2.71-.476-.46-.675-.14-1.811.9-3.2a19.362,19.362,0,0,1,4.495-4.094,18.156,18.156,0,0,1,6.052-2.83c1.369-.282,2.306-.117,2.71.476.46.675.14,1.811-.9,3.2A19.362,19.362,0,0,1,87.978,82.2,18.157,18.157,0,0,1,81.926,85.028ZM90.7,74.618a17.966,17.966,0,0,0-5.981,2.8,19.186,19.186,0,0,0-4.45,4.051c-.973,1.3-1.3,2.381-.9,2.974.352.516,1.243.657,2.511.4h0a17.942,17.942,0,0,0,5.981-2.8,19.186,19.186,0,0,0,4.45-4.051c.973-1.3,1.3-2.381.9-2.974C92.863,74.5,91.971,74.357,90.7,74.618Z" transform="translate(-77.668 -72.57)" fill="#ffe576"/></g><path d="M85.583,84.683a21.076,21.076,0,0,0,4.169-2.241c3.768-2.567,6.127-5.684,5.324-7.012C86.715,78.687,82.9,81.793,85.583,84.683Z" transform="translate(-79.491 -72.931)" fill="url(#y)"/><path d="M85.444,78.076c-3.263,2.223-5.284,4.94-4.515,6.069.29.427.938.565,1.808.452a1.509,1.509,0,0,1-1.414-.448c-.725-1.064,1.213-3.647,4.329-5.77S91.88,75.4,92.6,76.461a1.511,1.511,0,0,1-.1,1.481c.424-.768.532-1.422.242-1.849C91.975,74.965,88.707,75.852,85.444,78.076Z" transform="translate(-78.227 -72.987)" fill="#dd6200"/></g><path d="M93.914,83.962l-.01.007a1.29,1.29,0,0,0-.535.373.281.281,0,0,0,.36.424.919.919,0,0,0,.3-.264.77.77,0,0,0,.089-.165c.029-.066.032-.134.055-.2C94.22,84,94.026,83.886,93.914,83.962Z" transform="translate(-82.22 -75.642)" fill="#fff"/><path d="M86.487,79.275a.154.154,0,0,0-.234.042.167.167,0,0,0-.062.19.182.182,0,0,0,.306.065A.2.2,0,0,0,86.487,79.275Z" transform="translate(-79.953 -74.145)" fill="#fff"/></g><g transform="translate(117.287 113.894)"><g transform="translate(0 0)"><g transform="translate(0 0.281)"><path d="M70.275,83.571c.074-1.141-2.577-2.24-5.918-2.453s-6.11.537-6.183,1.677L58.1,83.9c-.074,1.141,2.576,2.24,5.918,2.453s6.11-.537,6.183-1.678Z" transform="translate(-58.032 -81.011)" fill="url(#z)"/><path d="M63.985,86.389c-3.432-.219-6.06-1.329-5.983-2.526l.071-1.1c.077-1.2,2.825-1.963,6.257-1.743s6.06,1.33,5.983,2.527l-.071,1.1C70.164,85.844,67.416,86.609,63.985,86.389Zm.335-5.235c-3.3-.211-6.039.512-6.11,1.613l-.071,1.1c-.071,1.1,2.556,2.169,5.854,2.38s6.039-.512,6.11-1.613l.071-1.1C70.244,82.433,67.618,81.365,64.32,81.154Z" transform="translate(-58 -80.978)" fill="#b14800"/></g><g transform="translate(0.009)"><ellipse cx="2.07" cy="6.063" rx="2.07" ry="6.063" transform="matrix(0.064, -0.998, 0.998, 0.064, 0, 4.131)" fill="url(#aa)"/><path d="M64.089,85.285c-3.432-.22-6.06-1.33-5.983-2.527s2.825-1.963,6.257-1.743,6.06,1.33,5.983,2.527S67.52,85.5,64.089,85.285Zm.264-4.132c-3.3-.211-6.039.512-6.11,1.613s2.556,2.169,5.854,2.38,6.039-.512,6.11-1.613S67.651,81.365,64.353,81.154Z" transform="translate(-58.042 -80.697)" fill="#ffe576"/></g><path d="M70.255,83.351c-.226-1.045-2.709-2.01-5.793-2.208s-5.669.442-6.027,1.451Z" transform="translate(-58.138 -80.738)" fill="url(#ab)"/><path d="M64.815,81.526c-2.821-.181-5.158.463-5.22,1.439-.024.369.281.732.822,1.051-.4-.272-.621-.572-.6-.876.059-.919,2.29-1.525,4.983-1.352s4.829,1.058,4.77,1.978c-.019.3-.277.573-.709.792.577-.248.927-.569.95-.938C69.871,82.644,67.636,81.706,64.815,81.526Z" transform="translate(-58.507 -80.862)" fill="#dd6200"/><path d="M59.643,83.689a.876.876,0,0,0,.01.127.747.747,0,0,0,.142.325,2.574,2.574,0,0,0,1.031.732,8.516,8.516,0,0,0,1.725.539,15,15,0,0,0,4.135.265,8.489,8.489,0,0,0,1.78-.315,2.568,2.568,0,0,0,1.116-.593.748.748,0,0,0,.182-.305.472.472,0,0,0,.02-.092l0-.032,0,.032a.482.482,0,0,1-.017.093.773.773,0,0,1-.172.317,2.529,2.529,0,0,1-1.111.643,8.138,8.138,0,0,1-1.791.352,13.653,13.653,0,0,1-4.165-.267,8.107,8.107,0,0,1-1.732-.578,2.519,2.519,0,0,1-1.019-.779.759.759,0,0,1-.13-.336.45.45,0,0,1,0-.095Z" transform="translate(-58.523 -81.561)" fill="#ffb129"/></g><path d="M67.075,87.116a1.313,1.313,0,0,0-.256-.052.145.145,0,1,0-.025.288,1.39,1.39,0,0,0,.291-.024C67.2,87.306,67.166,87.146,67.075,87.116Z" transform="translate(-60.755 -82.636)" fill="#fff"/><path d="M67.326,80.928h0a.177.177,0,0,0-.117-.057.159.159,0,1,0-.027.315.216.216,0,0,0,.072-.007s.111-.056.052-.033A.119.119,0,0,0,67.326,80.928Z" transform="translate(-60.875 -80.662)" fill="#fff"/></g><g transform="translate(102.497)"><g transform="translate(0)"><g transform="translate(2.188 2.485)"><path d="M67.606,8.312c-1.5-1.817-7.024.264-12.346,4.647s-8.424,9.409-6.927,11.226l1.449,1.759c1.5,1.817,7.024-.264,12.346-4.647s8.423-9.409,6.927-11.226Z" transform="translate(-47.811 -7.507)" fill="url(#ac)"/><path d="M62.15,21.337c-5.466,4.5-10.976,6.534-12.547,4.628l-1.449-1.759C46.585,22.3,49.636,17.28,55.1,12.779S66.077,6.245,67.648,8.152L69.1,9.91C70.666,11.817,67.615,16.836,62.15,21.337ZM55.282,13c-5.252,4.326-8.351,9.272-6.907,11.026l1.449,1.759c1.444,1.754,6.892-.34,12.145-4.666s8.352-9.272,6.907-11.026L67.427,8.333C65.984,6.579,60.535,8.672,55.282,13Z" transform="translate(-47.743 -7.437)" fill="#b14800"/></g><g transform="translate(0)"><ellipse cx="12.484" cy="4.262" rx="12.484" ry="4.262" transform="translate(0 15.873) rotate(-39.474)" fill="url(#ad)"/><path d="M60.7,19.579c-5.466,4.5-10.976,6.534-12.547,4.628S49.636,17.28,55.1,12.779,66.077,6.245,67.648,8.152,66.166,15.078,60.7,19.579ZM55.282,13c-5.252,4.326-8.351,9.272-6.907,11.026s6.892-.34,12.145-4.666,8.352-9.272,6.907-11.025S60.535,8.672,55.282,13Z" transform="translate(-45.555 -4.953)" fill="#ffe576"/></g><path d="M67.213,8.143c-1.824-1.26-6.947.8-11.891,4.872s-7.947,8.7-7.06,10.736Z" transform="translate(-45.672 -5.06)" fill="url(#ae)"/><path d="M56.334,14c-4.492,3.7-7.1,7.959-5.817,9.512.484.587,1.453.7,2.714.422a2.226,2.226,0,0,1-2.135-.468c-1.207-1.464,1.293-5.515,5.583-9.048s8.744-5.209,9.95-3.745a2.228,2.228,0,0,1,.049,2.188c.518-1.185.591-2.159.107-2.747C65.506,8.562,60.826,10.3,56.334,14Z" transform="translate(-46.336 -5.625)" fill="#dd6200"/><path d="M50.8,23.808a1.674,1.674,0,0,0,.193.178,1.556,1.556,0,0,0,.67.29,5.287,5.287,0,0,0,2.579-.352A17.547,17.547,0,0,0,57.589,22.3a28.444,28.444,0,0,0,3.48-2.483,28.48,28.48,0,0,0,3.106-2.941A17.642,17.642,0,0,0,66.405,13.9a5.3,5.3,0,0,0,.84-2.464,1.539,1.539,0,0,0-.156-.713.927.927,0,0,0-.1-.168l-.037-.056.04.055a.954.954,0,0,1,.107.164,1.583,1.583,0,0,1,.187.717,5.19,5.19,0,0,1-.762,2.53,16.706,16.706,0,0,1-2.195,3.052A28.614,28.614,0,0,1,61.221,20a28.67,28.67,0,0,1-3.527,2.478,16.724,16.724,0,0,1-3.416,1.568,5.18,5.18,0,0,1-2.629.264,1.58,1.58,0,0,1-.668-.32,1.006,1.006,0,0,1-.14-.136Z" transform="translate(-46.528 -5.929)" fill="#ffb129"/></g><path d="M66.843,24.464a2.573,2.573,0,0,0-.458.283.3.3,0,1,0,.367.467,2.905,2.905,0,0,0,.4-.445C67.3,24.569,67.021,24.38,66.843,24.464Z" transform="translate(-51.452 -10.372)" fill="#fff"/><path d="M58.512,14.907h0a.358.358,0,0,0-.256.076.327.327,0,1,0,.4.512.429.429,0,0,0,.1-.112s.089-.24.031-.123A.245.245,0,0,0,58.512,14.907Z" transform="translate(-48.857 -7.33)" fill="#fff"/></g></g><g transform="translate(1083.4 -7450)"><path d="M212,0a20.073,20.073,0,0,1,4.2.5A11.768,11.768,0,0,1,220,2.1a7.6,7.6,0,0,1,2.8,3.1,8.039,8.039,0,0,1,.9,2.6,2.476,2.476,0,0,1,1.1,2.1V13a2.3,2.3,0,0,1-.4,1.4,2.3,2.3,0,0,1,.4,1.4v3.1a2.462,2.462,0,0,1-1,2V26a2.4,2.4,0,0,1-1.4,2.2,12.939,12.939,0,0,1-3.8,1.2,22.25,22.25,0,0,1-8.4,0,11.1,11.1,0,0,1-3.9-1.6,8.632,8.632,0,0,1-2.9-3.1,9.292,9.292,0,0,1-.5-1v8.8a28.2,28.2,0,0,1-.9,7.1,14.468,14.468,0,0,1-3,5.6c-2.7,3.1-6.8,4.7-12.2,4.7-5.3,0-9.3-1.5-12.1-4.5a14.673,14.673,0,0,1-3.1-5.6,25.726,25.726,0,0,1-1-7.3V20.1c0-5.4,1.4-9.6,4.1-12.5,2.8-2.9,6.8-4.4,12.1-4.4,5.4,0,9.4,1.5,12.2,4.5a15.646,15.646,0,0,1,2.3,3.4V9.9a2.49,2.49,0,0,1,2.2-2.5v-4a2.373,2.373,0,0,1,1.6-2.3,11.561,11.561,0,0,1,3.2-.8A23.079,23.079,0,0,1,212,0Zm7.1,10.8a2.92,2.92,0,0,1-.2-.9V9.7a4.477,4.477,0,0,0-.4-2,3.483,3.483,0,0,0-1.3-1.4c-.1-.1-.2-.1-.3-.2a5.548,5.548,0,0,1,.6.8,4.514,4.514,0,0,1,.7,2.5,2.768,2.768,0,0,1-.1.9,2.489,2.489,0,0,1-2.5,2.1h-1.2v.2a2.452,2.452,0,0,1-1.6,2.8,15.079,15.079,0,0,0-2.6,1.2,1.949,1.949,0,0,1,.8-.1h3.1v-.1a2.433,2.433,0,0,1,1.4-2.8,6.3,6.3,0,0,0,2.6-2A5.769,5.769,0,0,1,219.1,10.8ZM186.9,45.1c4,0,6.7-1,8.5-3,1.8-2.1,2.7-5.3,2.7-9.5V20.1c0-4.1-.9-7.1-2.7-9.1-1.7-1.9-4.6-2.9-8.5-2.9-3.8,0-6.6.9-8.4,2.9-1.8,1.9-2.8,5-2.8,9.1V32.7c0,4.3.9,7.5,2.8,9.5C180.3,44.2,183,45.1,186.9,45.1ZM209.6,24a10.625,10.625,0,0,1-.9-1.1,4.751,4.751,0,0,1-.6-2.4,5.291,5.291,0,0,1,.9-3,1.38,1.38,0,0,1,.3-.4,2.652,2.652,0,0,0-.6.5,3.1,3.1,0,0,1-1.3.6,4.1,4.1,0,0,1,.1,1.1c0,.3-.1.6-.1.9a4.193,4.193,0,0,0,.5,2.2,3.25,3.25,0,0,0,1.3,1.3,1.38,1.38,0,0,0,.4.3ZM40.3,3.1c5.4,0,9.4,1.5,12.2,4.5,2.7,2.9,4,7.1,4,12.5V32.7a28.2,28.2,0,0,1-.9,7.1,14.468,14.468,0,0,1-3,5.6c-2.7,3.1-6.8,4.7-12.2,4.7-5.3,0-9.3-1.5-12.1-4.5A12.835,12.835,0,0,1,25,40a25.726,25.726,0,0,1-1-7.3V20.1c0-5.4,1.4-9.6,4.1-12.5C31,4.6,35.1,3.1,40.3,3.1Zm0,42c4,0,6.7-1,8.5-3,1.8-2.1,2.7-5.3,2.7-9.5V20.1c0-4.1-.9-7.1-2.7-9.1-1.7-1.9-4.6-2.9-8.5-2.9-3.8,0-6.6.9-8.4,2.9s-2.8,5-2.8,9.1V32.7c0,4.3.9,7.5,2.8,9.5C33.7,44.2,36.4,45.1,40.3,45.1Zm33.2-42c5.4,0,9.4,1.5,12.2,4.5,2.7,2.9,4,7.1,4,12.5V32.7a28.2,28.2,0,0,1-.9,7.1,14.468,14.468,0,0,1-3,5.6c-2.7,3.1-6.8,4.7-12.2,4.7-5.3,0-9.3-1.5-12.1-4.5A13.662,13.662,0,0,1,58.3,40a25.726,25.726,0,0,1-1-7.3V20.1c0-5.4,1.4-9.6,4.1-12.5C64.3,4.6,68.3,3.1,73.5,3.1Zm0,42c4,0,6.7-1,8.5-3,1.8-2.1,2.7-5.3,2.7-9.5V20.1c0-4.1-.9-7.1-2.7-9.1-1.7-1.9-4.6-2.9-8.5-2.9-3.8,0-6.6.9-8.4,2.9-1.8,1.9-2.8,5-2.8,9.1V32.7c0,4.3.9,7.5,2.8,9.5C66.9,44.2,69.7,45.1,73.5,45.1Zm46.8-42c5.4,0,9.4,1.5,12.2,4.5,2.7,2.9,4,7.1,4,12.5V32.7a28.2,28.2,0,0,1-.9,7.1,14.468,14.468,0,0,1-3,5.6c-2.7,3.1-6.8,4.7-12.2,4.7-5.3,0-9.3-1.5-12.1-4.5a14.673,14.673,0,0,1-3.1-5.6,25.726,25.726,0,0,1-1-7.3V20.1c0-5.4,1.4-9.6,4.1-12.5Q112.5,3.1,120.3,3.1Zm0,42c4,0,6.7-1,8.5-3,1.8-2.1,2.7-5.3,2.7-9.5V20.1c0-4.1-.9-7.1-2.7-9.1-1.7-1.9-4.6-2.9-8.5-2.9-3.8,0-6.6.9-8.4,2.9-1.8,1.9-2.8,5-2.8,9.1V32.7c0,4.3.9,7.5,2.8,9.5C113.7,44.2,116.5,45.1,120.3,45.1Zm33.3-42c5.4,0,9.4,1.5,12.2,4.5,2.7,2.9,4,7.1,4,12.5V32.7a28.2,28.2,0,0,1-.9,7.1,14.468,14.468,0,0,1-3,5.6c-2.7,3.1-6.8,4.7-12.2,4.7-5.3,0-9.3-1.5-12.1-4.5a14.673,14.673,0,0,1-3.1-5.6,25.726,25.726,0,0,1-1-7.3V20.1c0-5.4,1.4-9.6,4.1-12.5C144.3,4.6,148.4,3.1,153.6,3.1Zm0,42c4,0,6.7-1,8.5-3,1.8-2.1,2.7-5.3,2.7-9.5V20.1c0-4.1-.9-7.1-2.7-9.1-1.7-1.9-4.6-2.9-8.5-2.9-3.8,0-6.6.9-8.4,2.9-1.8,1.9-2.8,5-2.8,9.1V32.7c0,4.3.9,7.5,2.8,9.5C147,44.2,149.7,45.1,153.6,45.1ZM11.8,3.8h7.7A2.476,2.476,0,0,1,22,6.3V47a2.476,2.476,0,0,1-2.5,2.5H11.8A2.476,2.476,0,0,1,9.3,47V18.7L4.4,21.5a2.754,2.754,0,0,1-2.5,0A2.485,2.485,0,0,1,.6,19.3v-8A2.748,2.748,0,0,1,1.8,9.1L10.5,4A5.067,5.067,0,0,1,11.8,3.8Zm5.2,5H12.5L5.6,12.9v2.2l4.9-2.8a2.754,2.754,0,0,1,2.5,0,2.485,2.485,0,0,1,1.3,2.2V44.6H17ZM40.3,9.9c4.1,0,6,1.9,6.9,3.6a15.854,15.854,0,0,1,1.5,7.7V32.1a28.279,28.279,0,0,1-.3,4.1,10.923,10.923,0,0,1-1.2,3.6,7.524,7.524,0,0,1-2.8,2.8,9.782,9.782,0,0,1-4.1.9c-4.1,0-6-2-6.9-3.7a15.634,15.634,0,0,1-1.5-7.7V21.2a28.279,28.279,0,0,1,.3-4.1,10.923,10.923,0,0,1,1.2-3.6,7.266,7.266,0,0,1,2.8-2.7A9.145,9.145,0,0,1,40.3,9.9Zm0,28.5a5.663,5.663,0,0,0,1.8-.3,2.047,2.047,0,0,0,.8-.8,6.971,6.971,0,0,0,.6-1.9,18.287,18.287,0,0,0,.2-3.3V21.2a12.111,12.111,0,0,0-.9-5.3c-.1-.3-.5-1-2.5-1a4.671,4.671,0,0,0-1.7.3,3.044,3.044,0,0,0-.8.8,6.033,6.033,0,0,0-.6,1.9,18.287,18.287,0,0,0-.2,3.3V32.1a11.87,11.87,0,0,0,.9,5.3c.1.3.5,1,2.4,1ZM73.5,9.9c4.1,0,6,1.9,6.9,3.6a15.854,15.854,0,0,1,1.5,7.7V32.1a28.278,28.278,0,0,1-.3,4.1,10.923,10.923,0,0,1-1.2,3.6,7.524,7.524,0,0,1-2.8,2.8,9.782,9.782,0,0,1-4.1.9c-4.1,0-6-2-6.9-3.7a15.634,15.634,0,0,1-1.5-7.7V21.2a28.279,28.279,0,0,1,.3-4.1,10.923,10.923,0,0,1,1.2-3.6,7.266,7.266,0,0,1,2.8-2.7A9.782,9.782,0,0,1,73.5,9.9Zm0,28.5a5.663,5.663,0,0,0,1.8-.3,2.047,2.047,0,0,0,.8-.8,6.971,6.971,0,0,0,.6-1.9,18.288,18.288,0,0,0,.2-3.3V21.2a12.111,12.111,0,0,0-.9-5.3c-.1-.3-.5-1-2.5-1a4.671,4.671,0,0,0-1.7.3,3.044,3.044,0,0,0-.8.8,6.033,6.033,0,0,0-.6,1.9,18.288,18.288,0,0,0-.2,3.3V32.1a11.87,11.87,0,0,0,.9,5.3c.2.3.5,1,2.4,1ZM120.3,9.9c4.1,0,6,1.9,6.9,3.6a15.854,15.854,0,0,1,1.5,7.7V32.1a28.28,28.28,0,0,1-.3,4.1,10.923,10.923,0,0,1-1.2,3.6,7.524,7.524,0,0,1-2.8,2.8,9.782,9.782,0,0,1-4.1.9c-4.1,0-6-2-6.9-3.7a15.634,15.634,0,0,1-1.5-7.7V21.2a28.279,28.279,0,0,1,.3-4.1,10.923,10.923,0,0,1,1.2-3.6,7.266,7.266,0,0,1,2.8-2.7A9.782,9.782,0,0,1,120.3,9.9Zm0,28.5a5.663,5.663,0,0,0,1.8-.3,2.047,2.047,0,0,0,.8-.8,6.971,6.971,0,0,0,.6-1.9,18.288,18.288,0,0,0,.2-3.3V21.2a12.111,12.111,0,0,0-.9-5.3c-.1-.3-.5-1-2.5-1a4.671,4.671,0,0,0-1.7.3,3.044,3.044,0,0,0-.8.8,6.033,6.033,0,0,0-.6,1.9,18.288,18.288,0,0,0-.2,3.3V32.1a11.87,11.87,0,0,0,.9,5.3c.1.3.5,1,2.4,1ZM153.6,9.9c4.1,0,6,1.9,6.9,3.6a15.854,15.854,0,0,1,1.5,7.7V32.1a28.28,28.28,0,0,1-.3,4.1,10.924,10.924,0,0,1-1.2,3.6,7.524,7.524,0,0,1-2.8,2.8,9.782,9.782,0,0,1-4.1.9c-4.1,0-6-2-6.9-3.7a15.634,15.634,0,0,1-1.5-7.7V21.2a28.28,28.28,0,0,1,.3-4.1,10.924,10.924,0,0,1,1.2-3.6,7.266,7.266,0,0,1,2.8-2.7A9.782,9.782,0,0,1,153.6,9.9Zm0,28.5a5.663,5.663,0,0,0,1.8-.3,2.047,2.047,0,0,0,.8-.8,6.971,6.971,0,0,0,.6-1.9,18.288,18.288,0,0,0,.2-3.3V21.2a12.111,12.111,0,0,0-.9-5.3c-.1-.3-.5-1-2.5-1a4.671,4.671,0,0,0-1.7.3,3.043,3.043,0,0,0-.8.8,6.033,6.033,0,0,0-.6,1.9,18.288,18.288,0,0,0-.2,3.3V32.1a11.87,11.87,0,0,0,.9,5.3c.1.3.5,1,2.4,1ZM186.9,9.9c4.1,0,6,1.9,6.9,3.6a15.854,15.854,0,0,1,1.5,7.7V32.1a28.28,28.28,0,0,1-.3,4.1,10.924,10.924,0,0,1-1.2,3.6,7.524,7.524,0,0,1-2.8,2.8,9.782,9.782,0,0,1-4.1.9c-4.1,0-6-2-6.9-3.7a15.634,15.634,0,0,1-1.5-7.7V21.2a28.28,28.28,0,0,1,.3-4.1,10.924,10.924,0,0,1,1.2-3.6,7.266,7.266,0,0,1,2.8-2.7A9.455,9.455,0,0,1,186.9,9.9Zm0,28.5a5.663,5.663,0,0,0,1.8-.3,2.047,2.047,0,0,0,.8-.8,6.971,6.971,0,0,0,.6-1.9,18.288,18.288,0,0,0,.2-3.3V21.2a12.111,12.111,0,0,0-.9-5.3c-.1-.3-.5-1-2.5-1a4.671,4.671,0,0,0-1.7.3,3.043,3.043,0,0,0-.8.8,6.033,6.033,0,0,0-.6,1.9,18.288,18.288,0,0,0-.2,3.3V32.1a11.87,11.87,0,0,0,.9,5.3c.1.3.5,1,2.4,1Z" fill="#fdbf00"/><path d="M3.1,19.4v-8l8.7-5.1h7.7V47H11.8V14.4Z" fill="#fff"/><path d="M40.3,47.7c-9.1,0-13.7-5-13.7-14.9V20.1c0-4.8,1.2-8.4,3.5-10.8s5.7-3.7,10.2-3.7c4.6,0,8.1,1.2,10.3,3.7s3.4,6,3.4,10.8V32.7q0,7.2-3.3,11.1C48.4,46.4,45,47.7,40.3,47.7Zm0-6.8a6.679,6.679,0,0,0,3-.6,3.924,3.924,0,0,0,1.8-1.8,10.237,10.237,0,0,0,.9-2.8,20.519,20.519,0,0,0,.3-3.7V21.2a14.2,14.2,0,0,0-1.2-6.5c-.8-1.5-2.4-2.3-4.7-2.3a5.961,5.961,0,0,0-2.9.6,4.237,4.237,0,0,0-1.8,1.7,9.508,9.508,0,0,0-.9,2.7,20.519,20.519,0,0,0-.3,3.7V32a14.2,14.2,0,0,0,1.2,6.5C36.4,40.1,38,40.9,40.3,40.9Z" fill="#fff"/><path d="M73.5,47.7c-9.1,0-13.7-5-13.7-14.9V20.1c0-4.8,1.2-8.4,3.5-10.8S69,5.6,73.5,5.6c4.6,0,8.1,1.2,10.3,3.7s3.4,6,3.4,10.8V32.7q0,7.2-3.3,11.1C81.7,46.4,78.2,47.7,73.5,47.7Zm0-6.8a6.679,6.679,0,0,0,3-.6,3.924,3.924,0,0,0,1.8-1.8,10.237,10.237,0,0,0,.9-2.8,20.519,20.519,0,0,0,.3-3.7V21.2a14.2,14.2,0,0,0-1.2-6.5c-.8-1.5-2.4-2.3-4.7-2.3a5.961,5.961,0,0,0-2.9.6,4.237,4.237,0,0,0-1.8,1.7,9.508,9.508,0,0,0-.9,2.7,20.519,20.519,0,0,0-.3,3.7V32a14.2,14.2,0,0,0,1.2,6.5C69.7,40.1,71.3,40.9,73.5,40.9Z" fill="#fff"/><path d="M120.3,47.7c-9.1,0-13.7-5-13.7-14.9V20.1c0-4.8,1.2-8.4,3.5-10.8s5.7-3.7,10.2-3.7c4.6,0,8.1,1.2,10.3,3.7s3.4,6,3.4,10.8V32.7q0,7.2-3.3,11.1C128.5,46.4,125,47.7,120.3,47.7Zm0-6.8a6.679,6.679,0,0,0,3-.6,3.924,3.924,0,0,0,1.8-1.8,10.237,10.237,0,0,0,.9-2.8,20.519,20.519,0,0,0,.3-3.7V21.2a14.2,14.2,0,0,0-1.2-6.5c-.8-1.5-2.4-2.3-4.7-2.3a5.961,5.961,0,0,0-2.9.6,4.237,4.237,0,0,0-1.8,1.7,9.508,9.508,0,0,0-.9,2.7,20.519,20.519,0,0,0-.3,3.7V32a14.2,14.2,0,0,0,1.2,6.5C116.5,40.1,118,40.9,120.3,40.9Z" fill="#fff"/><path d="M153.6,47.7c-9.1,0-13.7-5-13.7-14.9V20.1c0-4.8,1.2-8.4,3.5-10.8s5.7-3.7,10.2-3.7c4.6,0,8.1,1.2,10.3,3.7s3.4,6,3.4,10.8V32.7q0,7.2-3.3,11.1C161.7,46.4,158.3,47.7,153.6,47.7Zm0-6.8a6.679,6.679,0,0,0,3-.6,3.924,3.924,0,0,0,1.8-1.8,10.237,10.237,0,0,0,.9-2.8,20.519,20.519,0,0,0,.3-3.7V21.2a14.2,14.2,0,0,0-1.2-6.5c-.8-1.5-2.4-2.3-4.7-2.3a5.96,5.96,0,0,0-2.9.6,4.237,4.237,0,0,0-1.8,1.7,9.508,9.508,0,0,0-.9,2.7,20.519,20.519,0,0,0-.3,3.7V32a14.2,14.2,0,0,0,1.2,6.5C149.8,40.1,151.3,40.9,153.6,40.9Z" fill="#fff"/><path d="M186.9,47.7c-9.1,0-13.7-5-13.7-14.9V20.1c0-4.8,1.2-8.4,3.5-10.8s5.7-3.7,10.2-3.7c4.6,0,8.1,1.2,10.3,3.7s3.4,6,3.4,10.8V32.7q0,7.2-3.3,11.1C195,46.4,191.6,47.7,186.9,47.7Zm0-6.8a6.679,6.679,0,0,0,3-.6,3.924,3.924,0,0,0,1.8-1.8,10.237,10.237,0,0,0,.9-2.8,20.519,20.519,0,0,0,.3-3.7V21.2a14.2,14.2,0,0,0-1.2-6.5c-.8-1.5-2.4-2.3-4.7-2.3a5.96,5.96,0,0,0-2.9.6,4.237,4.237,0,0,0-1.8,1.7,9.508,9.508,0,0,0-.9,2.7,20.519,20.519,0,0,0-.3,3.7V32a14.2,14.2,0,0,0,1.2,6.5C183,40.1,184.6,40.9,186.9,40.9Z" fill="#fff"/><path d="M222.2,10.2v3.1H220a8.551,8.551,0,0,1-3.6,2.7h5.7v3.1H211a2.7,2.7,0,0,0-.5,1.6,1.8,1.8,0,0,0,.3,1.1,2.047,2.047,0,0,0,.8.8,3.922,3.922,0,0,0,1.3.5,8.969,8.969,0,0,0,1.8.2,10.733,10.733,0,0,0,3.5-.6,11.368,11.368,0,0,0,3.2-1.8v5.4a12.541,12.541,0,0,1-3.1,1,23.4,23.4,0,0,1-3.8.3,15,15,0,0,1-3.7-.4,9.55,9.55,0,0,1-3.1-1.2,6.3,6.3,0,0,1-2.1-2.2,6.835,6.835,0,0,1-.8-3.4,5.283,5.283,0,0,1,.1-1.3h-1.2V16H207a12.157,12.157,0,0,1,1.9-1.3,15.05,15.05,0,0,1,3.1-1.4h-8.3V10.2h11.9V9.7a2.133,2.133,0,0,0-.3-1.2,3.043,3.043,0,0,0-.8-.8,3.922,3.922,0,0,0-1.3-.5,8.807,8.807,0,0,0-1.7-.2,7.084,7.084,0,0,0-1.4.1l-1.5.3a8.8,8.8,0,0,0-1.5.5c-.5.2-.9.5-1.3.7v-5a17.634,17.634,0,0,1,2.7-.7,17.216,17.216,0,0,1,3.3-.2,13.7,13.7,0,0,1,3.6.4,10.108,10.108,0,0,1,3,1.3,6.3,6.3,0,0,1,2.1,2.2,6.6,6.6,0,0,1,.8,3.2V10h.9Z" fill="#fff"/></g></g></svg>