<svg xmlns="http://www.w3.org/2000/svg" width="226" height="136.007" viewBox="0 0 226 136.007"><g transform="translate(-240.631 -990.475)"><path d="M327.5,990.5c-.283,0-.56-.023-.844-.023a77.884,77.884,0,0,0-59,27.01l7.489,6.464a67.992,67.992,0,0,1,51.511-23.585c.283,0,.56.04.844.043Z" transform="translate(62.048 0)"/><path d="M317.12,1012.027a66.959,66.959,0,0,1-16.089,55.707l7.417,6.543a77.89,77.89,0,0,0,18.5-63.908Z" transform="translate(138.696 45.682)" fill="#ffc400"/><path d="M359.029,1052.726a78.09,78.09,0,0,0-72.222-62.217v9.988a68.118,68.118,0,0,1,62.451,53.881Z" transform="translate(106.033 0.078)" fill="#d70200"/><path d="M25.57,14.26V-6.21h5.31A6.489,6.489,0,0,1,33-5.869,4.7,4.7,0,0,1,34.752-4.8a5.073,5.073,0,0,1,1.2,1.913A8.223,8.223,0,0,1,36.4-.01V8.06a8,8,0,0,1-.445,2.833,5.384,5.384,0,0,1-1.2,1.928,4.525,4.525,0,0,1-1.75,1.1,6.489,6.489,0,0,1-2.121.341Zm2.166-1.928H30.88A2.92,2.92,0,0,0,33.417,11.2a5.227,5.227,0,0,0,.816-3.115V.2A5.919,5.919,0,0,0,33.446-3.1,2.85,2.85,0,0,0,30.88-4.282H27.735ZM44.5,14.5q-4.628,0-4.628-5.459V4.084A6.209,6.209,0,0,1,41.011.124a4.075,4.075,0,0,1,3.4-1.439A4.173,4.173,0,0,1,47.849.109a6.141,6.141,0,0,1,1.157,3.975V7.2h-7.12v1.81a5.136,5.136,0,0,0,.623,2.759,2.241,2.241,0,0,0,2.047.979q2.433,0,2.433-3.056V9.573h1.988v.089a5.11,5.11,0,0,1-1.142,3.619A4.359,4.359,0,0,1,44.5,14.5ZM41.886,5.657h5.132V4.084A4.934,4.934,0,0,0,46.425,1.4a2.2,2.2,0,0,0-1.988-.9,2.129,2.129,0,0,0-1.988.934,5.315,5.315,0,0,0-.564,2.714ZM56.6,14.5a4.339,4.339,0,0,1-3.323-1.231,4.388,4.388,0,0,1-1.157-3.13V9.958H53.99v.178a2.369,2.369,0,0,0,.771,1.958,2.925,2.925,0,0,0,1.9.623,2.874,2.874,0,0,0,1.839-.564,2.284,2.284,0,0,0,.712-1.9,2.209,2.209,0,0,0-.5-1.572,4.9,4.9,0,0,0-1.572-1.009l-1.928-.8a4.145,4.145,0,0,1-2.937-4A3.953,3.953,0,0,1,53.486-.2a4.562,4.562,0,0,1,3.2-1.112,4.4,4.4,0,0,1,3.2,1.127,4.188,4.188,0,0,1,1.157,3.145v.386H59.182V3.165a2.922,2.922,0,0,0-.638-2.017,2.816,2.816,0,0,0-3.619-.1,2.206,2.206,0,0,0-.638,1.676,2.24,2.24,0,0,0,.46,1.439,3.6,3.6,0,0,0,1.409.994l1.928.8a6.235,6.235,0,0,1,2.358,1.557,3.842,3.842,0,0,1,.786,2.6A4.2,4.2,0,0,1,60,13.37,4.841,4.841,0,0,1,56.6,14.5ZM64.759-3.243v-2.67h2.047v2.67Zm.03,17.5V-1.078h2.017V14.26ZM77.635-1.078h2.017V13.637a6.3,6.3,0,0,1-1.068,3.842,4,4,0,0,1-3.441,1.439,4.423,4.423,0,0,1-3.115-1.038,3.863,3.863,0,0,1-1.187-2.848h1.928a2.546,2.546,0,0,0,.593,1.5,2.2,2.2,0,0,0,1.78.638,2.092,2.092,0,0,0,1.958-.89,4.79,4.79,0,0,0,.534-2.462V11.709a3.218,3.218,0,0,1-2.937,1.6,3.508,3.508,0,0,1-3-1.394,6.226,6.226,0,0,1-1.038-3.8V3.877a6.292,6.292,0,0,1,1.023-3.8A3.5,3.5,0,0,1,74.7-1.315,3.174,3.174,0,0,1,77.635.406ZM75.083,11.5a2.1,2.1,0,0,0,1.958-.994,5.085,5.085,0,0,0,.593-2.625V4.144q0-3.649-2.551-3.649a1.966,1.966,0,0,0-1.839.964,5.272,5.272,0,0,0-.564,2.655V7.882a5.5,5.5,0,0,0,.534,2.67A1.961,1.961,0,0,0,75.083,11.5ZM88.73-1.315A3.467,3.467,0,0,1,91.622-.1a5.108,5.108,0,0,1,.964,3.263v11.1H90.569V3.254a2.98,2.98,0,0,0-.638-2.032A2.226,2.226,0,0,0,88.166.495a2.184,2.184,0,0,0-1.765.756,3,3,0,0,0-.638,2V14.26H83.746V-1.078H85.7V.317a3.079,3.079,0,0,1,1.261-1.2A3.727,3.727,0,0,1,88.73-1.315ZM100.774,14.5q-4.628,0-4.628-5.459V4.084A6.209,6.209,0,0,1,97.289.124a4.075,4.075,0,0,1,3.4-1.439A4.173,4.173,0,0,1,104.127.109a6.141,6.141,0,0,1,1.157,3.975V7.2h-7.12v1.81a5.136,5.136,0,0,0,.623,2.759,2.241,2.241,0,0,0,2.047.979q2.433,0,2.433-3.056V9.573h1.988v.089a5.11,5.11,0,0,1-1.142,3.619A4.359,4.359,0,0,1,100.774,14.5ZM98.164,5.657H103.3V4.084A4.934,4.934,0,0,0,102.7,1.4a2.2,2.2,0,0,0-1.988-.9,2.129,2.129,0,0,0-1.988.934,5.315,5.315,0,0,0-.564,2.714ZM112.582,14.5a3.581,3.581,0,0,1-2.952-1.35,6.057,6.057,0,0,1-1.083-3.871V3.906A6.417,6.417,0,0,1,109.556.079a3.4,3.4,0,0,1,2.937-1.394A3.287,3.287,0,0,1,115.519.406V-6.21h2.017V14.26h-2.017V12.866A3.248,3.248,0,0,1,112.582,14.5Zm.386-1.81a2.1,2.1,0,0,0,1.958-.994,5.086,5.086,0,0,0,.593-2.625V4.173q0-3.679-2.551-3.679-2.4,0-2.4,3.649V9.039a5.608,5.608,0,0,0,.534,2.67A1.946,1.946,0,0,0,112.967,12.688Zm8.129,5.755V11.5h2.017v5.192ZM-20.235,46.95a3.581,3.581,0,0,1-2.952-1.35,6.057,6.057,0,0,1-1.083-3.871v-5.37a6.417,6.417,0,0,1,1.009-3.827,3.4,3.4,0,0,1,2.937-1.394A3.287,3.287,0,0,1-17.3,32.859V26.243h2.017v20.47H-17.3V45.319A3.248,3.248,0,0,1-20.235,46.95Zm.386-1.81a2.1,2.1,0,0,0,1.958-.994,5.086,5.086,0,0,0,.593-2.625V36.626q0-3.679-2.551-3.679-2.4,0-2.4,3.649v4.895a5.607,5.607,0,0,0,.534,2.67A1.946,1.946,0,0,0-19.85,45.141Zm12.875,1.81q-4.628,0-4.628-5.459V36.537a6.209,6.209,0,0,1,1.142-3.96,4.075,4.075,0,0,1,3.4-1.439,4.173,4.173,0,0,1,3.441,1.424,6.141,6.141,0,0,1,1.157,3.975v3.115h-7.12v1.81a5.135,5.135,0,0,0,.623,2.759,2.241,2.241,0,0,0,2.047.979q2.433,0,2.433-3.056v-.119h1.988v.089a5.11,5.11,0,0,1-1.142,3.619A4.359,4.359,0,0,1-6.974,46.95ZM-9.585,38.11h5.132V36.537a4.934,4.934,0,0,0-.593-2.685,2.2,2.2,0,0,0-1.988-.9,2.129,2.129,0,0,0-1.988.934A5.315,5.315,0,0,0-9.585,36.6ZM7.829,31.375h2.2L5.96,46.713H3.943L-.092,31.375H2.1L4.981,43.539Zm9.2,15.575q-4.628,0-4.628-5.459V36.537a6.209,6.209,0,0,1,1.142-3.96,4.075,4.075,0,0,1,3.4-1.439,4.173,4.173,0,0,1,3.441,1.424,6.141,6.141,0,0,1,1.157,3.975v3.115h-7.12v1.81a5.136,5.136,0,0,0,.623,2.759,2.241,2.241,0,0,0,2.047.979q2.433,0,2.433-3.056v-.119h1.988v.089a5.11,5.11,0,0,1-1.142,3.619A4.359,4.359,0,0,1,17.026,46.95ZM14.415,38.11h5.132V36.537a4.934,4.934,0,0,0-.593-2.685,2.2,2.2,0,0,0-1.988-.9,2.129,2.129,0,0,0-1.988.934,5.315,5.315,0,0,0-.564,2.714Zm14.893,8.6a4.152,4.152,0,0,1-3.041-1.038,4.065,4.065,0,0,1-1.053-3.026V26.243h2.047V42.56q0,2.344,2.106,2.344h.445v1.81Zm7.654.237a4.48,4.48,0,0,1-3.426-1.276,5.59,5.59,0,0,1-1.2-3.946v-5.37a5.637,5.637,0,0,1,1.187-3.946,4.47,4.47,0,0,1,3.441-1.276,4.316,4.316,0,0,1,3.367,1.29A5.694,5.694,0,0,1,41.5,36.359v5.37a5.694,5.694,0,0,1-1.172,3.931A4.316,4.316,0,0,1,36.962,46.95Zm-.03-1.81a2.141,2.141,0,0,0,1.958-.934,5.1,5.1,0,0,0,.593-2.714V36.6a5.2,5.2,0,0,0-.578-2.714,2.135,2.135,0,0,0-1.973-.934,2.171,2.171,0,0,0-1.988.934,5.1,5.1,0,0,0-.593,2.714v4.895a5.1,5.1,0,0,0,.593,2.714A2.171,2.171,0,0,0,36.932,45.141Zm13.172-14a3.585,3.585,0,0,1,3.026,1.35,6.245,6.245,0,0,1,1.038,3.871v5.37a6.268,6.268,0,0,1-1.038,3.842,3.522,3.522,0,0,1-3,1.379,3.3,3.3,0,0,1-2.937-1.6v5.874H45.179V31.375H47.2v1.483A3.192,3.192,0,0,1,50.1,31.138ZM52.151,36.6q0-3.649-2.4-3.649a2.1,2.1,0,0,0-1.973.994,5.33,5.33,0,0,0-.578,2.685v4.895a5.086,5.086,0,0,0,.593,2.625,2.1,2.1,0,0,0,1.958.994,1.97,1.97,0,0,0,1.869-.934,5.562,5.562,0,0,0,.534-2.714ZM62.06,46.95q-4.628,0-4.628-5.459V36.537a6.209,6.209,0,0,1,1.142-3.96,4.075,4.075,0,0,1,3.4-1.439,4.173,4.173,0,0,1,3.441,1.424,6.141,6.141,0,0,1,1.157,3.975v3.115h-7.12v1.81a5.136,5.136,0,0,0,.623,2.759,2.241,2.241,0,0,0,2.047.979q2.433,0,2.433-3.056v-.119h1.988v.089A5.11,5.11,0,0,1,65.4,45.734,4.36,4.36,0,0,1,62.06,46.95ZM59.449,38.11h5.132V36.537a4.934,4.934,0,0,0-.593-2.685,2.2,2.2,0,0,0-1.988-.9,2.129,2.129,0,0,0-1.988.934,5.315,5.315,0,0,0-.564,2.714ZM73.867,46.95a3.581,3.581,0,0,1-2.952-1.35,6.057,6.057,0,0,1-1.083-3.871v-5.37a6.417,6.417,0,0,1,1.009-3.827,3.4,3.4,0,0,1,2.937-1.394A3.287,3.287,0,0,1,76.8,32.859V26.243h2.017v20.47H76.8V45.319A3.248,3.248,0,0,1,73.867,46.95Zm.386-1.81a2.1,2.1,0,0,0,1.958-.994,5.086,5.086,0,0,0,.593-2.625V36.626q0-3.679-2.551-3.679-2.4,0-2.4,3.649v4.895a5.607,5.607,0,0,0,.534,2.67A1.946,1.946,0,0,0,74.253,45.141Zm17.77,1.81A3.464,3.464,0,0,1,89.1,45.7a5.084,5.084,0,0,1-.964-3.2,4.812,4.812,0,0,1,1.1-3.278,4.369,4.369,0,0,1,3.471-1.261h2.373V35.5q0-2.581-2.373-2.581a2.288,2.288,0,0,0-1.691.593,2.246,2.246,0,0,0-.593,1.661v.237h-1.9v-.267a3.825,3.825,0,0,1,1.142-2.937,4.445,4.445,0,0,1,3.159-1.068,5.018,5.018,0,0,1,1.9.326,3.583,3.583,0,0,1,1.335.92,3.715,3.715,0,0,1,.786,1.409,6.056,6.056,0,0,1,.252,1.795V46.713H95.167V45.289A3.458,3.458,0,0,1,92.023,46.95Zm.5-1.75a2.45,2.45,0,0,0,1.854-.727,2.994,2.994,0,0,0,.7-2.151V39.474H92.913q-2.759,0-2.759,2.878Q90.154,45.2,92.527,45.2Zm13.647-14.062a3.467,3.467,0,0,1,2.892,1.216,5.108,5.108,0,0,1,.964,3.263v11.1h-2.017V35.707a2.98,2.98,0,0,0-.638-2.032,2.226,2.226,0,0,0-1.765-.727,2.184,2.184,0,0,0-1.765.756,3,3,0,0,0-.638,2V46.713H101.19V31.375h1.958V32.77a3.079,3.079,0,0,1,1.261-1.2A3.727,3.727,0,0,1,106.174,31.138ZM117.625,46.95a3.581,3.581,0,0,1-2.952-1.35,6.057,6.057,0,0,1-1.083-3.871v-5.37a6.417,6.417,0,0,1,1.009-3.827,3.4,3.4,0,0,1,2.937-1.394,3.287,3.287,0,0,1,3.026,1.721V26.243h2.017v20.47h-2.017V45.319A3.248,3.248,0,0,1,117.625,46.95Zm.386-1.81a2.1,2.1,0,0,0,1.958-.994,5.086,5.086,0,0,0,.593-2.625V36.626q0-3.679-2.551-3.679-2.4,0-2.4,3.649v4.895a5.608,5.608,0,0,0,.534,2.67A1.946,1.946,0,0,0,118.011,45.141ZM-42.455,63.591a3.66,3.66,0,0,1,3,1.187,5.03,5.03,0,0,1,.979,3.293v11.1h-2.047V68.16a3.016,3.016,0,0,0-.623-2.047,2.167,2.167,0,0,0-1.721-.712,2.249,2.249,0,0,0-1.78.742A2.9,2.9,0,0,0-45.3,68.13V79.166h-2.017V68.16a3.05,3.05,0,0,0-.623-2,2.175,2.175,0,0,0-1.78-.757,2.212,2.212,0,0,0-1.736.712A2.969,2.969,0,0,0-52.1,68.16V79.166h-2.047V63.828h1.988v1.394A3.455,3.455,0,0,1-51,64.08a3.36,3.36,0,0,1,1.839-.489,3.633,3.633,0,0,1,2.047.549,3.779,3.779,0,0,1,1.276,1.379,4.083,4.083,0,0,1,1.469-1.439A3.854,3.854,0,0,1-42.455,63.591ZM-31.182,79.4A3.464,3.464,0,0,1-34.1,78.157a5.084,5.084,0,0,1-.964-3.2,4.812,4.812,0,0,1,1.1-3.278A4.369,4.369,0,0,1-30.5,70.414h2.373V67.952q0-2.581-2.373-2.581a2.288,2.288,0,0,0-1.691.593,2.246,2.246,0,0,0-.593,1.661v.237h-1.9V67.6a3.825,3.825,0,0,1,1.142-2.937,4.445,4.445,0,0,1,3.159-1.068,5.018,5.018,0,0,1,1.9.326,3.583,3.583,0,0,1,1.335.92,3.715,3.715,0,0,1,.786,1.409,6.057,6.057,0,0,1,.252,1.795V79.166h-1.928V77.742A3.458,3.458,0,0,1-31.182,79.4Zm.5-1.75a2.45,2.45,0,0,0,1.854-.727,2.994,2.994,0,0,0,.7-2.151V71.927h-2.166q-2.759,0-2.759,2.878Q-33.051,77.653-30.678,77.653ZM-18.4,79.4a3.581,3.581,0,0,1-2.952-1.35,6.057,6.057,0,0,1-1.083-3.871v-5.37a6.417,6.417,0,0,1,1.009-3.827,3.4,3.4,0,0,1,2.937-1.394,3.287,3.287,0,0,1,3.026,1.721V58.7h2.017v20.47h-2.017V77.771A3.248,3.248,0,0,1-18.4,79.4Zm.386-1.81a2.1,2.1,0,0,0,1.958-.994,5.085,5.085,0,0,0,.593-2.625V69.079q0-3.679-2.551-3.679-2.4,0-2.4,3.649v4.895a5.607,5.607,0,0,0,.534,2.67A1.946,1.946,0,0,0-18.01,77.593ZM-5.135,79.4q-4.628,0-4.628-5.459V68.99a6.209,6.209,0,0,1,1.142-3.96,4.075,4.075,0,0,1,3.4-1.439,4.173,4.173,0,0,1,3.441,1.424A6.141,6.141,0,0,1-.626,68.99v3.115h-7.12v1.81a5.136,5.136,0,0,0,.623,2.759,2.241,2.241,0,0,0,2.047.979q2.433,0,2.433-3.056v-.119H-.655v.089A5.11,5.11,0,0,1-1.8,78.187,4.36,4.36,0,0,1-5.135,79.4Zm-2.611-8.841h5.132V68.99a4.934,4.934,0,0,0-.593-2.685,2.2,2.2,0,0,0-1.988-.9,2.129,2.129,0,0,0-1.988.934,5.315,5.315,0,0,0-.564,2.714Zm16.732-8.9v-2.67h2.047v2.67Zm.03,17.5V63.828h2.017V79.166ZM20.289,63.591a3.467,3.467,0,0,1,2.892,1.216,5.108,5.108,0,0,1,.964,3.263v11.1H22.129V68.16a2.98,2.98,0,0,0-.638-2.032,2.226,2.226,0,0,0-1.765-.727,2.184,2.184,0,0,0-1.765.757,3,3,0,0,0-.638,2V79.166H15.305V63.828h1.958v1.394a3.079,3.079,0,0,1,1.261-1.2A3.727,3.727,0,0,1,20.289,63.591ZM39.276,79.4a6.663,6.663,0,0,1-2.121-.341,4.573,4.573,0,0,1-1.78-1.083,5.392,5.392,0,0,1-1.216-1.913A7.86,7.86,0,0,1,33.7,73.2V64.659a6.67,6.67,0,0,1,1.454-4.613,5.259,5.259,0,0,1,4.124-1.617,6.9,6.9,0,0,1,2.136.326,4.813,4.813,0,0,1,1.765,1.009,4.633,4.633,0,0,1,1.187,1.765,6.937,6.937,0,0,1,.43,2.566v.356H42.628V64.1a3.942,3.942,0,0,0-.875-2.744,3.175,3.175,0,0,0-2.477-.964q-3.412,0-3.412,4.48v8.366q0,4.213,3.412,4.213a2.97,2.97,0,0,0,2.536-1.083,4.964,4.964,0,0,0,.816-3.041V70.474H39.246v-1.81h5.548v4.569a8.1,8.1,0,0,1-.445,2.863,5.089,5.089,0,0,1-1.2,1.9,4.7,4.7,0,0,1-1.75,1.068A6.488,6.488,0,0,1,39.276,79.4Zm13.617,0q-4.628,0-4.628-5.459V68.99a6.209,6.209,0,0,1,1.142-3.96,4.075,4.075,0,0,1,3.4-1.439,4.173,4.173,0,0,1,3.441,1.424A6.141,6.141,0,0,1,57.4,68.99v3.115h-7.12v1.81a5.136,5.136,0,0,0,.623,2.759,2.241,2.241,0,0,0,2.047.979q2.433,0,2.433-3.056v-.119h1.988v.089a5.11,5.11,0,0,1-1.142,3.619A4.359,4.359,0,0,1,52.893,79.4Zm-2.611-8.841h5.132V68.99a4.934,4.934,0,0,0-.593-2.685,2.2,2.2,0,0,0-1.988-.9,2.129,2.129,0,0,0-1.988.934,5.315,5.315,0,0,0-.564,2.714Zm15.961-6.972a4.328,4.328,0,0,1,1.1.119v1.958a4.714,4.714,0,0,0-1.483-.267,2.762,2.762,0,0,0-1.973.742,2.8,2.8,0,0,0-.786,2.136V79.166H61.081V63.828h1.958v1.513a3.1,3.1,0,0,1,1.335-1.335A4.121,4.121,0,0,1,66.243,63.591Zm15.575,0a3.66,3.66,0,0,1,3,1.187,5.03,5.03,0,0,1,.979,3.293v11.1H83.746V68.16a3.016,3.016,0,0,0-.623-2.047A2.167,2.167,0,0,0,81.4,65.4a2.249,2.249,0,0,0-1.78.742,2.9,2.9,0,0,0-.653,1.988V79.166H76.952V68.16a3.05,3.05,0,0,0-.623-2,2.175,2.175,0,0,0-1.78-.757,2.212,2.212,0,0,0-1.735.712,2.969,2.969,0,0,0-.638,2.047V79.166H70.129V63.828h1.988v1.394a3.455,3.455,0,0,1,1.157-1.142,3.36,3.36,0,0,1,1.839-.489,3.633,3.633,0,0,1,2.047.549,3.778,3.778,0,0,1,1.276,1.379A4.083,4.083,0,0,1,79.9,64.08,3.854,3.854,0,0,1,81.818,63.591ZM93.091,79.4a3.464,3.464,0,0,1-2.922-1.246,5.084,5.084,0,0,1-.964-3.2,4.812,4.812,0,0,1,1.1-3.278,4.369,4.369,0,0,1,3.471-1.261h2.373V67.952q0-2.581-2.373-2.581a2.288,2.288,0,0,0-1.691.593,2.246,2.246,0,0,0-.593,1.661v.237h-1.9V67.6a3.825,3.825,0,0,1,1.142-2.937,4.445,4.445,0,0,1,3.159-1.068,5.018,5.018,0,0,1,1.9.326,3.583,3.583,0,0,1,1.335.92,3.715,3.715,0,0,1,.786,1.409,6.056,6.056,0,0,1,.252,1.795V79.166H96.235V77.742A3.458,3.458,0,0,1,93.091,79.4Zm.5-1.75a2.45,2.45,0,0,0,1.854-.727,2.994,2.994,0,0,0,.7-2.151V71.927H93.981q-2.759,0-2.759,2.878Q91.222,77.653,93.6,77.653Zm13.647-14.062a3.467,3.467,0,0,1,2.892,1.216,5.108,5.108,0,0,1,.964,3.263v11.1h-2.017V68.16a2.98,2.98,0,0,0-.638-2.032,2.226,2.226,0,0,0-1.765-.727,2.184,2.184,0,0,0-1.765.757,3,3,0,0,0-.638,2V79.166h-2.017V63.828h1.958v1.394a3.079,3.079,0,0,1,1.261-1.2A3.727,3.727,0,0,1,107.242,63.591Zm14.448.237h2.2L119.4,80.619a3.727,3.727,0,0,1-1.513,2.4,5.622,5.622,0,0,1-2.937.653h-.3v-1.81h.5a3.215,3.215,0,0,0,1.765-.415A2.231,2.231,0,0,0,117.8,80l.119-.475-4.153-15.694h2.2l2.907,11.689Z" transform="translate(294.775 1042.807)" opacity="0.88"/></g></svg>