<?xml version="1.0" encoding="utf-8"?>
<!-- Generator: Adobe Illustrator 25.0.0, SVG Export Plug-In . SVG Version: 6.00 Build 0)  -->
<svg version="1.1" id="Слой_1" xmlns="http://www.w3.org/2000/svg" xmlns:xlink="http://www.w3.org/1999/xlink" x="0px" y="0px"
	 viewBox="0 0 304.9 295.9" style="enable-background:new 0 0 304.9 295.9;" xml:space="preserve">
<style type="text/css">
	.st0{fill:#166147;}
	.st1{enable-background:new    ;}
</style>
<g transform="translate(-1442.585 -2009.584)">
	<g transform="translate(45.062 -2108.684)">
		<g transform="translate(1400.938 4121.684)">
			<path class="st0" d="M91.3,47.9c9.8-5.7,20.5-9.8,31.6-12.2c10.7-2.3,21.8-3,32.7-2c10.8,1,21.5,3.6,31.6,7.6
				c10.2,4.1,19.7,9.8,28.2,16.7c1.1,0.9,1.2,2.4,0.4,3.5c0,0,0,0,0,0c-0.9,1.1-2.4,1.2-3.5,0.4c-33.7-27.4-80.7-31.2-118.4-9.7
				c-49.9,28.9-67,92.7-38.2,142.6c0.7,1.2,0.3,2.7-0.9,3.4s-2.7,0.3-3.4-0.9c-3.7-6.4-6.8-13.2-9.1-20.2c-2.3-6.8-3.9-13.8-4.7-21
				c-0.9-7-1.1-14.1-0.6-21.1c0.5-7,1.7-13.9,3.5-20.7c1.8-6.8,4.3-13.4,7.3-19.7c3.1-6.4,6.8-12.4,11-18c4.3-5.7,9.2-11,14.6-15.8
				C78.9,55.9,84.9,51.6,91.3,47.9z"/>
			<path class="st0" d="M214.9,62.9l-28.1,5.5c-1.4,0.3-2.7-0.6-2.9-2c-0.3-1.4,0.6-2.7,2-2.9l25.6-5l-4.7-24.1
				c-0.3-1.4,0.6-2.7,2-2.9s2.7,0.6,2.9,2l5.2,26.5C217.2,61.3,216.3,62.6,214.9,62.9z"/>
		</g>
		<g transform="translate(1698.98 4410.773) rotate(180)">
			<path class="st0" d="M91.3,47.9c9.8-5.7,20.5-9.8,31.6-12.2c10.7-2.3,21.8-3,32.7-2c10.8,1,21.5,3.6,31.6,7.6
				c10.2,4.1,19.7,9.8,28.2,16.7c1.1,0.9,1.2,2.4,0.4,3.5c0,0,0,0,0,0c-0.9,1.1-2.4,1.2-3.5,0.4c-33.7-27.4-80.7-31.2-118.4-9.7
				c-49.9,28.9-67,92.7-38.2,142.6c0.7,1.2,0.3,2.7-0.9,3.4c-1.2,0.7-2.7,0.3-3.4-0.9c-3.7-6.4-6.8-13.2-9.1-20.2
				c-2.3-6.8-3.9-13.8-4.7-21c-0.9-7-1.1-14.1-0.6-21.1c0.5-7,1.7-13.9,3.5-20.7c1.8-6.8,4.3-13.4,7.3-19.7c3.1-6.4,6.8-12.4,11-18
				c4.3-5.7,9.2-11,14.6-15.8C78.9,55.9,84.9,51.6,91.3,47.9z"/>
			<path class="st0" d="M214.9,62.9l-28.1,5.5c-1.4,0.3-2.7-0.6-2.9-2c-0.3-1.4,0.6-2.7,2-2.9l25.6-5l-4.7-24.1
				c-0.3-1.4,0.6-2.7,2-2.9s2.7,0.6,2.9,2l5.2,26.5C217.2,61.3,216.3,62.6,214.9,62.9z"/>
		</g>
	</g>
	<g class="st1">
		<path d="M1578.1,2149.4c3,1.8,5.3,4.2,7,7.2c1.7,3,2.5,6.3,2.5,9.8v2.6c0,3.5-0.6,6.7-1.8,9.6c-1.2,2.9-2.9,5.3-5.1,7.3
			c-2.2,2-4.8,3.5-7.8,4.7c-3,1.1-6.3,1.7-9.9,1.7c-3.5,0-6.8-0.6-9.8-1.7c-3-1.1-5.6-2.7-7.7-4.7c-2.1-2-3.8-4.4-5.1-7.2
			c-1.2-2.8-1.8-6-1.8-9.5v-2.6c0-3.6,0.8-6.9,2.5-9.9c1.7-3,4.1-5.4,7.1-7.2c-2.7-1.5-4.7-3.7-6.1-6.4c-1.4-2.7-2.1-5.7-2.1-8.9
			v-2.1c0-3.1,0.6-6,1.7-8.7c1.1-2.6,2.7-4.9,4.8-6.8c2-1.9,4.5-3.4,7.3-4.5c2.8-1.1,5.9-1.6,9.2-1.6c3.4,0,6.5,0.5,9.3,1.6
			c2.8,1.1,5.3,2.6,7.3,4.5c2,1.9,3.6,4.2,4.7,6.8c1.1,2.6,1.7,5.5,1.7,8.7v2.1c0,3.3-0.7,6.3-2.2,9
			C1582.5,2145.7,1580.5,2147.8,1578.1,2149.4z M1573.1,2166.2c0-3.1-0.9-5.6-2.6-7.5c-1.8-1.9-4.2-2.9-7.2-2.9c-3,0-5.4,1-7.2,2.9
			c-1.8,2-2.7,4.4-2.7,7.4v2.8c0,3.1,0.9,5.7,2.6,7.6c1.7,2,4.2,2.9,7.3,2.9c3.1,0,5.6-1,7.3-2.9c1.7-2,2.6-4.5,2.6-7.6V2166.2z
			 M1554.7,2134.2c0,2.7,0.7,4.9,2.2,6.6c1.5,1.7,3.6,2.6,6.3,2.6c2.8,0,5-0.9,6.4-2.8c1.4-1.8,2.1-4,2.1-6.4v-2.2
			c0-2.5-0.8-4.6-2.4-6.3c-1.6-1.7-3.6-2.5-6.2-2.5s-4.6,0.8-6.2,2.5c-1.6,1.7-2.4,3.8-2.4,6.3V2134.2z"/>
		<path d="M1645.1,2191h-14.8l-11-19l-9.9,19h-15l17.9-30.8l-16.9-29h14.9l9.9,17l8.9-17h15l-17.1,28.5L1645.1,2191z"/>
	</g>
</g>
</svg>
