<?xml version="1.0" encoding="utf-8"?>
<!-- Generator: Adobe Illustrator 25.0.0, SVG Export Plug-In . SVG Version: 6.00 Build 0)  -->
<svg version="1.1" id="Слой_1" xmlns="http://www.w3.org/2000/svg" xmlns:xlink="http://www.w3.org/1999/xlink" x="0px" y="0px"
	 viewBox="0 0 54.2 94.4" style="enable-background:new 0 0 54.2 94.4;" xml:space="preserve">
<style type="text/css">
	.st0{fill:#166147;}
</style>
<path class="st0" d="M39.7,94.4H14.3c-4,0-7.3-3.3-7.3-7.3V73.7h3.6v13.5c0,2,1.6,3.6,3.6,3.6h25.4c2,0,3.6-1.6,3.6-3.6V73.7h3.6
	v13.5C46.9,91.2,43.7,94.4,39.7,94.4z M7,35L7,35V14.5c0-4,3.3-7.3,7.3-7.3h3.6V3.6c0-2,1.6-3.6,3.6-3.6h10.9c2,0,3.6,1.6,3.6,3.6
	v3.6h3.6c4,0,7.3,3.3,7.3,7.3v14.3h-3.6V14.5c0-2-1.6-3.6-3.6-3.6H14.3c-2,0-3.6,1.6-3.6,3.6v19.8L7,35z"/>
<path class="st0" d="M19.5,50.8c0.2,0.9-0.4,1.8-1.3,2c-0.4,0.1-0.9,0-1.3-0.2L12.7,50l-5.4,8.6c-1,1.6-0.5,3.7,1.1,4.7
	c0.5,0.3,1.1,0.5,1.8,0.5h5.5c0.7,0,1.3,0.6,1.3,1.3v4.2c0,0.7-0.6,1.3-1.3,1.3h-5.5C4.5,70.5,0,66,0,60.4c0-1.9,0.5-3.8,1.5-5.4
	l5.4-8.6l-4.3-2.7c-0.8-0.5-1-1.6-0.5-2.3c0.2-0.4,0.6-0.6,1-0.7l11.7-2.7c0.9-0.2,1.8,0.4,2,1.3L19.5,50.8L19.5,50.8z M30,31.5
	l4.4,7L30,41.2c-0.8,0.5-1,1.6-0.5,2.3c0.2,0.4,0.6,0.6,1,0.7L42.2,47c0.9,0.2,1.8-0.4,2-1.3L47,34c0.2-0.9-0.4-1.8-1.3-2
	c-0.4-0.1-0.9,0-1.3,0.2l-4.3,2.7l-4.4-7c-3-4.8-9.3-6.2-14-3.2c-1.3,0.8-2.4,1.9-3.2,3.2l-1.9,3c-0.4,0.6-0.2,1.4,0.4,1.7l3.6,2.2
	c0.6,0.4,1.4,0.2,1.8-0.4l1.9-3c1-1.6,3.1-2.1,4.7-1.1C29.3,30.7,29.7,31,30,31.5z M52.7,55l-2.9-4.7c-0.4-0.6-1.2-0.8-1.8-0.4
	l-3.6,2.2c-0.6,0.4-0.8,1.2-0.4,1.8l2.9,4.7c1,1.6,0.5,3.7-1.1,4.7c-0.5,0.3-1.1,0.5-1.8,0.5H33.9v-5.1c0-0.9-0.8-1.7-1.7-1.7
	c-0.4,0-0.9,0.2-1.2,0.5L22.5,66c-0.7,0.7-0.7,1.7,0,2.4l8.5,8.5c0.7,0.7,1.7,0.7,2.4,0c0.3-0.3,0.5-0.7,0.5-1.2v-5.1H44
	c5.6,0,10.2-4.6,10.2-10.2C54.2,58.5,53.7,56.6,52.7,55z"/>
</svg>
