<svg xmlns="http://www.w3.org/2000/svg" width="129.177" height="135.552"><path d="M72.274 0a38.991 38.991 0 0138.557 32.724 25.648 25.648 0 0118.346 24.51c0 13.954-11.387 25.737-24.865 25.737H24.865C11.387 82.971 0 71.188 0 57.24a26.576 26.576 0 0116.088-24.443C17.3 22.568 26.04 14.288 36.121 14.288a19.965 19.965 0 015.359.728A39.129 39.129 0 0172.274 0zm32.039 76.971c10.226 0 18.865-9.035 18.865-19.73-.021-9.308-6.713-17.524-15.567-19.1l-2.215-.4-.241-2.237a33.079 33.079 0 00-60.1-15.233l-1.37 1.979-2.23-.914a14 14 0 00-5.333-1.051c-7.561 0-14.052 6.732-14.174 14.7l-.034 2.165-2.057.655A20.417 20.417 0 006 57.24c0 10.695 8.639 19.73 18.865 19.73z"/><path d="M49.326 62.238c7.204 0 12.366-4.342 12.826-10.825h-6.4a6.155 6.155 0 01-6.4 5.343c-4.342 0-7.043-3.642-7.043-9.584 0-5.923 2.721-9.564 7.023-9.564a6.277 6.277 0 016.4 5.583h6.4c-.36-6.485-5.742-11.067-12.806-11.067-8.484 0-13.766 5.663-13.766 15.047 0 9.405 5.262 15.067 13.766 15.067zm30.335-30.114c-8.624 0-14.067 5.763-14.067 15.047 0 9.3 5.4 15.067 14.067 15.067 8.6 0 14.027-5.763 14.027-15.067-.001-9.265-5.423-15.047-14.027-15.047zm0 5.483c4.422 0 7.283 3.722 7.283 9.564s-2.862 9.584-7.283 9.584c-4.462 0-7.323-3.742-7.323-9.584s2.881-9.565 7.323-9.565zm17.021 19.587v.058h3.548v-.07a2.5 2.5 0 012.649-2.544 2.263 2.263 0 012.503 2.171c0 1.1-.56 1.937-2.556 3.863L96.9 66.356v2.579h12.465v-3.034h-7.353v-.152l3.549-3.373c2.288-2.159 3.571-3.77 3.571-5.766 0-2.894-2.474-4.934-6.116-4.934-3.77 0-6.334 2.25-6.334 5.518z"/><path d="M6.121 116.378a.679.679 0 00.305-.061.814.814 0 01.153-.213q.092-.091-.031-.274a.478.478 0 00-.091.122.868.868 0 01-.153.183.535.535 0 01-.061-.153.535.535 0 00-.061-.153.868.868 0 01.183-.153.868.868 0 00.183-.152h-.366v-.427h-.366a.679.679 0 01-.061.3.249.249 0 01-.061-.183q-.061-.305-.091-.549a1.723 1.723 0 01.031-.549 1.285 1.285 0 00.03-.732 1.78 1.78 0 01-.03-.732 5.138 5.138 0 00-.122-.915q-.061 0-.061.031t-.061.03v-.061a.5.5 0 00.091-.366 2.223 2.223 0 01-.03-.366q-.061-.427-.153-.854a2.73 2.73 0 01-.03-.915.433.433 0 00-.061-.366l.122-.061q.122 0 .244-.183.061-.244.427-.244a.54.54 0 00-.153.244.54.54 0 01-.153.244l-.061.061h-.122v.366q0 .366.366.244a.432.432 0 00.305-.427v-.183a.33.33 0 00.091-.305 1.084 1.084 0 00-.091-.305.478.478 0 00-.122-.091.478.478 0 01-.122-.092q0-.244.427-.122a.669.669 0 00-.427-.244.426.426 0 01-.366-.488.679.679 0 00.061-.3q-.244.061-.61.183a.054.054 0 01-.061-.061.588.588 0 00.03-.488.588.588 0 01.031-.488v-.183a.237.237 0 01-.061-.274.476.476 0 000-.335.054.054 0 01.061-.061.176.176 0 00.122-.061.391.391 0 01-.183-.427 1.85 1.85 0 00-.061-.549.276.276 0 01-.061-.3l.122-.366v-.305a.353.353 0 01-.061-.244.528.528 0 00-.244-.427q.122-.122.153-.031t.153.031h.061a.33.33 0 01-.092-.305.493.493 0 00-.03-.305l.122-.488a.3.3 0 00-.153.061q-.092.061-.092-.122a.478.478 0 00.092-.122.478.478 0 01.091-.122.564.564 0 000-.366q-.122-.122-.091-.153a.241.241 0 00.03-.152.416.416 0 00.03-.275.29.29 0 01.092-.275v-.3a2.9 2.9 0 01.061-.671l-.244-.122a1.011 1.011 0 00.244-.64 3.26 3.26 0 01.061-.641q.122-.244-.061-.244a.492.492 0 01-.244-.488h.061a1.748 1.748 0 00.788-.197.491.491 0 01.214-.061.492.492 0 00.214-.061 1.218 1.218 0 01.762 0q.336.122.7.244a2.384 2.384 0 00.488.183 2.384 2.384 0 01.488.183 2.617 2.617 0 01.61.488 2.838 2.838 0 01.488.732.679.679 0 01.061.3 3.676 3.676 0 00.122 1.281.076.076 0 010 .122q-.122.3.244.549a.176.176 0 01.122.061.276.276 0 00-.061.305 1.151 1.151 0 01.061.366 1.2 1.2 0 00.122.275 1.994 1.994 0 01.122.213.492.492 0 01.061.214.491.491 0 00.061.213.249.249 0 01-.061.183q-.061.061.061.183a.759.759 0 000 .427q.061.183.122.427a.217.217 0 01.03.183.425.425 0 00-.03.183q0 .061-.031.061t-.03.061a.237.237 0 01.061.274.749.749 0 00-.061.274.416.416 0 01.03.275.416.416 0 00.031.274.271.271 0 00.03.122.271.271 0 01.031.122q.061.122.122.274a.237.237 0 01-.061.274.176.176 0 01.122-.061.483.483 0 01.061-.305q0-.122.183-.183v.244a2.266 2.266 0 00-.092.4 2.266 2.266 0 01-.091.4q-.061.061.183.305a.379.379 0 00-.122.274q0 .153-.244.274l.305.305q-.305.122-.122.366.061.122.031.152a.241.241 0 00-.031.153.391.391 0 00.183.427.541.541 0 01.061-.244l.183.366a.936.936 0 01-.122.366.936.936 0 01.366.122.217.217 0 01.03.183.217.217 0 00.031.183l.183.366q0 .122-.061.153t-.061.153a.943.943 0 00.092.427.463.463 0 01.03.366q-.122.122.061.244a.42.42 0 01.153.366 2.223 2.223 0 00-.03.366v.3a1.414 1.414 0 00.03.275.416.416 0 01-.03.274.124.124 0 01-.031.091.124.124 0 00-.03.091q-.061.061-.091.061t-.091.061a.176.176 0 00.122.061q.244 0 .305.153a.237.237 0 01-.061.274.5.5 0 00-.091.366 2.223 2.223 0 01.03.366l.183.183q.305-.122.274-.336a.552.552 0 01.091-.4.729.729 0 00.061.518.578.578 0 010 .518v.122a.424.424 0 01-.122.427 3.692 3.692 0 00-.244.305 1.151 1.151 0 01.366-.061v.427a.679.679 0 00-.305-.061.679.679 0 00.061.3.3.3 0 00-.183.366q.061.122-.305.305a.108.108 0 01.122.122q.244.122.122.427a.353.353 0 00-.061.244v.244a.629.629 0 01-.122.244.468.468 0 01.183-.061.176.176 0 00.122-.061h.19a.351.351 0 01.122.244v.336a2.525 2.525 0 00.061.274.676.676 0 01-.03.213.676.676 0 00-.031.214q0 .244-.122.3a.176.176 0 01.061.122.176.176 0 00.061.122 1.993 1.993 0 01-.122.238q-.061.092.061.214v.061a.622.622 0 00-.091.549 1.555 1.555 0 01.091.549v.183q0 .061.122.183h.122q.122-.488.244-.854.061-.122.122-.274a.323.323 0 000-.274l.061-.122a.447.447 0 00.268-.337 2.816 2.816 0 00.03-.4 2.367 2.367 0 00.122-.305 1.151 1.151 0 00.061-.366q.061-.183.183-.671a3.77 3.77 0 00.183-.58q.061-.275.122-.58a4.656 4.656 0 01.427-1.159.679.679 0 00.061-.305.414.414 0 01.122-.305l-.061-.122q.183-.183.183-.244a1.44 1.44 0 00.305-.671.278.278 0 00.031-.214.278.278 0 01.03-.213.706.706 0 01.091-.153.706.706 0 00.091-.153l.244-1.1q.122-.549.244-1.037.122-.366.213-.763a3.418 3.418 0 01.275-.763 2.361 2.361 0 00.244-.671q0-.122.03-.122t.031-.122a.351.351 0 00.122-.244.541.541 0 01.061-.244 1.412 1.412 0 00.183-.305 1.09 1.09 0 00.305-.793v-.122a1.073 1.073 0 00.305-.793q0-.122.061-.153a.33.33 0 00.122-.153 2.644 2.644 0 01.153-.519.87.87 0 00.03-.518v-.061a3.079 3.079 0 00.366-.732l.244-.732.122-.244.122-.244a1.418 1.418 0 00.214-.275 1.418 1.418 0 01.214-.274l.061-.061a1 1 0 01.336-.457 1.062 1.062 0 00.335-.4.921.921 0 01.3-.366 2 2 0 00.305-.244.842.842 0 00.183-.61.271.271 0 00.122-.03.271.271 0 01.122-.03.124.124 0 00.031.091.241.241 0 01.03.153.868.868 0 00.153-.183.478.478 0 01.091-.122.425.425 0 00-.03-.183.425.425 0 01-.031-.183.868.868 0 00.153-.183.33.33 0 01.153-.122.535.535 0 01-.061-.153.535.535 0 00-.061-.153l.061-.061a4.267 4.267 0 00.61-.305q.244-.122.366 0a.452.452 0 00.305.214 1.559 1.559 0 01.427.153 2.266 2.266 0 01.091.4q.031.214.4.214a1.047 1.047 0 01-.061-.427.725.725 0 01.549-.122.353.353 0 00.244.061h.244a1.418 1.418 0 00-.214.274 1.418 1.418 0 01-.214.275l.366.183a.676.676 0 01-.03.213.676.676 0 00-.03.214q-.122.366.244.366a.676.676 0 01-.03.214.676.676 0 00-.031.213.054.054 0 00-.061.061.4.4 0 01-.122.488.532.532 0 00-.153.274.532.532 0 01-.153.275 1.231 1.231 0 00-.244.793 1.714 1.714 0 01-.03.335 2.82 2.82 0 01-.092.336.176.176 0 00-.061.122 6.069 6.069 0 00-.091.641 2.268 2.268 0 01-.153.641.936.936 0 01-.122.366 1.419 1.419 0 01-.244.366.353.353 0 00-.244-.061 1.628 1.628 0 00-.305.427l-.122.244a.362.362 0 01-.183.488.889.889 0 00-.061.549.889.889 0 01-.061.549.278.278 0 00-.031.213.925.925 0 01.031.274 1.084 1.084 0 00-.091.305.546.546 0 01-.153.3v.183a.527.527 0 00-.183.366v.824a.554.554 0 01-.183.4v.183q0 .122.061.152t0 .092a2.43 2.43 0 00-.3.793.379.379 0 00-.122.274.605.605 0 01-.061.274 4.614 4.614 0 01-.61 1.525.546.546 0 00-.153.3 1.084 1.084 0 01-.091.305l.061.122a.054.054 0 00.061.061 2.339 2.339 0 00-.153.519 1.511 1.511 0 01-.152.457q.122.122 0 .488a1.028 1.028 0 00-.122.457 1.029 1.029 0 01-.122.458v.061q0 .122.061.122a.6.6 0 01-.122.427l-.183.549a.64.64 0 01-.092.335q-.092.153-.152.275a.352.352 0 00-.122.244 1.11 1.11 0 01-.366.488q-.305.305-.061.488a.327.327 0 00-.244.366.3.3 0 01-.061.153q-.061.091.061.214a.054.054 0 01-.061.061.276.276 0 00-.061.3.276.276 0 01-.061.305q.244.183.061.3a.418.418 0 00-.061.488.676.676 0 00.031.214q.03.091-.092.214v.244a.531.531 0 01-.061.549 1.85 1.85 0 00-.061.549h.061l-.122.732a4.817 4.817 0 01-.183.732.352.352 0 01-.122.244q-.061.244-.122.427a3.347 3.347 0 01-.183.427.217.217 0 00-.03.183.217.217 0 01-.03.183 4.486 4.486 0 01-.182.511 3.772 3.772 0 00-.305.976q-.122.305-.183.519t-.183.519q-.061.183-.183.671l-.183.915a.541.541 0 00-.061.244.541.541 0 01-.061.244 7.441 7.441 0 00-.214.793 1.44 1.44 0 01-.4.732l-.274.275a2.194 2.194 0 01-.335.275.707.707 0 01-.488.122.605.605 0 01-.274.061.605.605 0 00-.275.061q.122.183.061.244 0 .122-.183.122a1.419 1.419 0 01-.366.244.568.568 0 01-.518.091 3.018 3.018 0 00-.458-.152q-.117-.002-.117-.185a.572.572 0 00-.366-.305v.183a.359.359 0 01-.434-.153.45.45 0 00-.427-.214v.366q-.122.305-.244.061a.411.411 0 00-.366-.183 2.324 2.324 0 01-1.342-.3 1.736 1.736 0 01-.305-.366 1.231 1.231 0 00-.549-.488.868.868 0 01.183-.152.868.868 0 00.183-.152.376.376 0 01-.305-.427 1.475 1.475 0 00-.305-.671.176.176 0 01-.061-.122 1.352 1.352 0 00-.061-.427 3.347 3.347 0 01.427-.183.763.763 0 00-.061-.488.271.271 0 00-.03-.122.271.271 0 01-.031-.122q-.061-.244.122-.244.122.488.274.945t.336.946l.183-.183.183-.183q.183-.122.153-.275a1.413 1.413 0 01-.031-.274.535.535 0 01-.153.061.535.535 0 00-.153.061q-.183-.061-.061-.305a.454.454 0 00.153-.4.949.949 0 00-.153-.4.676.676 0 00-.03-.214.676.676 0 01-.03-.214 1.07 1.07 0 00-.122-.3q0-.061.03-.061t.031-.061a.468.468 0 01-.061-.183.468.468 0 00-.061-.183.176.176 0 01-.061-.122.387.387 0 00-.183-.092.144.144 0 01-.122-.152 2.549 2.549 0 00-.122-.427.792.792 0 00.244-.671.124.124 0 01-.091-.03.124.124 0 00-.091-.031.483.483 0 01-.061-.3l.244-.122q-.122-.366-.183-.366a.4.4 0 01-.183-.183.4.4 0 00-.183-.183q-.183 0 0-.183l.183-.122a.216.216 0 00-.244-.244q-.244 0-.244-.183a.468.468 0 01-.061-.183.468.468 0 00-.061-.183 4.392 4.392 0 00-.244.915q-.244-.366-.183-.549a.476.476 0 000-.336 1.87 1.87 0 00-.183-.335q-.183.122-.122.244.122.122.061.153l-.183.091a1.748 1.748 0 00-.183-.793.574.574 0 01-.153-.335 2.266 2.266 0 00-.091-.4.676.676 0 01.03-.214.676.676 0 00.031-.214v-.488a.956.956 0 00-.244-.183l.183-.183a.66.66 0 01-.244-.3.491.491 0 01-.061-.214.491.491 0 00-.061-.214 3.347 3.347 0 01.427-.183 1.673 1.673 0 00-.214-.091.676.676 0 00-.214-.03.688.688 0 00.061-.488q-.061-.061 0-.183a.541.541 0 00.061-.244l-.244-.122a.541.541 0 00.061.244q.061.122-.122.244-.244-.183-.122-.671h.366a2.223 2.223 0 00-.03-.366 1.917 1.917 0 01-.031-.305q-.061-.122.183-.366.183.183.122.335a.9.9 0 00-.061.336 1.479 1.479 0 01.183.213l.183.274a.414.414 0 01.153-.457.525.525 0 00.214-.457.71.71 0 01.183.122q.183-.183 0-.488-.183-.122-.153-.274a2.821 2.821 0 01.091-.335.124.124 0 01.031-.092q.03-.031-.031-.153a.531.531 0 01-.061-.549.679.679 0 00.061-.305 1.362 1.362 0 01-.061-.671 1.936 1.936 0 00-.122-.549v.671h-.427a.468.468 0 00.061-.183.468.468 0 01.061-.183l-.183-.183a.323.323 0 00-.275.274.467.467 0 01-.213.335.425.425 0 00-.031-.183.271.271 0 01-.03-.122.512.512 0 00.005-.495zm1.708 7.808a1.936 1.936 0 01.122.549 1.143 1.143 0 00.122.61 3.988 3.988 0 00.244.427 4.182 4.182 0 01-.061-.793.124.124 0 00-.03-.091.124.124 0 01-.031-.092q-.183-.122-.153-.274a1.089 1.089 0 01.092-.274l-.122.061q-.061-.061-.091-.061t-.092-.062zm-1.22-14.03a3.347 3.347 0 00-.427.183q-.183.183-.061.244 0-.061.183.122l.122-.244h.244a.241.241 0 00-.031-.153.241.241 0 01-.03-.152zm-.854 1.4a.946.946 0 00.183.671.71.71 0 01.122-.183.71.71 0 00.122-.183.6.6 0 00-.214-.152.6.6 0 01-.213-.15zm.305 2.135a.293.293 0 00-.153.305.33.33 0 01-.091.305h.305a2.14 2.14 0 00-.061-.607zm1.1 7.2q-.305-.122-.366-.092a.33.33 0 00-.122.152 2.522 2.522 0 00.335.122q.029-.002.151-.181zm1.342 8.418a.353.353 0 01.244-.061v.061a1.518 1.518 0 00-.183.671.124.124 0 01-.03.092.124.124 0 00-.031.092q-.122-.122-.122-.183v-.244a.425.425 0 00-.183.03.425.425 0 01-.183.03q-.122.061-.244-.122l-.122-.61-.122-.61a.351.351 0 00-.122-.244q-.122-.122-.091-.183a.425.425 0 00.03-.183q0-.244.305-.122a.46.46 0 01.793.061.278.278 0 00.148.154.383.383 0 01.153.091q-.122.183-.244.153a.253.253 0 00-.244.091q.122.122.091.214a.278.278 0 00.031.214.676.676 0 00.03.214.676.676 0 01.031.213.124.124 0 00.03.092.124.124 0 01.032.09zm0 1.647q-.488.305-.488-.122a1.587 1.587 0 01-.061-.488.679.679 0 01.061-.3h.183a.205.205 0 00.092.183q.092.061.03.183v.183q-.002.301.18.362zm-2.379-14.579a.124.124 0 01-.091-.03.124.124 0 00-.092-.031 1.07 1.07 0 01-.122.305.6.6 0 01-.122-.427v-.366q0-.122.244-.244.059.306.181.794zm.244 1.037a5.428 5.428 0 01.122 1.037.543.543 0 01-.3-.671.936.936 0 01.122-.366zm.305 7.381a.679.679 0 00.061.305q.061.122-.122.244-.305-.061-.183-.549zm-.427-.671a2.137 2.137 0 01-.122-.671l.244-.122a3.634 3.634 0 01-.061.793zm.305-5.551a1.714 1.714 0 01-.03.336 1.413 1.413 0 00-.031.274 3.988 3.988 0 00-.427-.244.956.956 0 01.244-.183.956.956 0 00.241-.185zm31.354 7.564a4.546 4.546 0 00-.092.457 3.742 3.742 0 00-.03.519v.183a.991.991 0 010 .488v.854a1.317 1.317 0 000 .793v.061a7.234 7.234 0 00-.183.793 7.234 7.234 0 01-.183.793q0 .122-.061.152a.33.33 0 00-.122.153q-.183.183-.183.244a1.314 1.314 0 01-.092.519 2.644 2.644 0 00-.152.518.842.842 0 01-.305.549q-.183.061-.3.427-.061.061.061.3-.3.427-.61.427a.541.541 0 01-.244.061l-.244.122q-.244.244-.366.061a.4.4 0 00-.183.183.121.121 0 01-.183.061.293.293 0 00-.214.091.293.293 0 01-.213.092 5.053 5.053 0 00-.915.061 3.668 3.668 0 01-.61.122.425.425 0 00-.183.031.425.425 0 01-.183.031l-.925-.361a.933.933 0 01-.3-.671 1.624 1.624 0 00-.183-.732 3.337 3.337 0 01-.122-.732 8.231 8.231 0 01-.183-.976l-.122-.976a.679.679 0 01-.061-.305v-.366a3.339 3.339 0 01-.244-1.251q0-.641-.061-1.311 0-.305-.03-.61t-.031-.61v-2.5q0-.671.061-1.342v-1.861a7.624 7.624 0 01.061-.945v-.915a7.4 7.4 0 01.061-.915q.061-.61.092-1.19a8.285 8.285 0 01.153-1.189 5.248 5.248 0 01.122-.976l.183-1.1q.061-.366.092-.732a5.956 5.956 0 01.091-.671 2.223 2.223 0 01.03-.366 1.917 1.917 0 00.031-.305l.183-1.464a.541.541 0 00-.061-.244l-.122-.244a.527.527 0 01-.183-.366.478.478 0 01.122-.092.478.478 0 00.121-.094q.122-.122.183-.122h.061q.244-.3.458-.214a1.149 1.149 0 00.457.092 5.843 5.843 0 01.915.305 3.772 3.772 0 01.976.305l.122.061a1.993 1.993 0 01.793.732q.122.244.213.458t.214.457q-.244.3-.183.427t.427.244a1.414 1.414 0 00.031.274 1.414 1.414 0 01.031.274.541.541 0 01.061.244.351.351 0 00.122.244q.122.122 0 .305 0 .3.183.3a.352.352 0 01.122.244 2.23 2.23 0 01.153.58q.03.275.091.58a1.151 1.151 0 01.061.366.656.656 0 00.122.366 2.037 2.037 0 01.183.915 3.842 3.842 0 01.183 1.22.217.217 0 01.031.183.271.271 0 00-.031.122 1.674 1.674 0 00.122.854.425.425 0 00.03.183.425.425 0 01.031.183 1.151 1.151 0 01.061.366 1.151 1.151 0 00.061.366 7.234 7.234 0 01.183.793 4.831 4.831 0 01.061.793.983.983 0 00.122.427 1.038 1.038 0 01.122.671.271.271 0 00.031.122.425.425 0 01.03.183l.122.366a.556.556 0 01-.061.427v.122a.983.983 0 01.122.427 1.792 1.792 0 01-.061.427.85.85 0 00.061.366 2.627 2.627 0 00.031.427.5.5 0 01-.091.366v.183a.241.241 0 00.03.153.124.124 0 01.026.1zm-7.747-24.278a5.14 5.14 0 01-.122-.854.867.867 0 00-.122-.488l-.244-.366a.3.3 0 01-.061-.305.393.393 0 01.305 0 .418.418 0 00.488.061q.183 0 .183-.122a.37.37 0 01.214-.244.812.812 0 00.275-.183q.122 0 .122-.061a.71.71 0 00.183-.122.249.249 0 01.183-.061 1.936 1.936 0 01.549.122.425.425 0 00.03.183.425.425 0 01.031.183.6.6 0 00.153-.213.6.6 0 01.153-.214l.488.244a1.211 1.211 0 01.427.366l.244.122.366.183a.353.353 0 01.061.244.82.82 0 00.244.732 2.78 2.78 0 01.4.671q.153.366.336.732a1.084 1.084 0 01.092.305 1.084 1.084 0 00.091.3 1.412 1.412 0 00.183.305 1.026 1.026 0 01.122.854 2.229 2.229 0 01-.305.854.494.494 0 01-.091.305q-.092.122-.214.305a1.269 1.269 0 00-.061.488 1.07 1.07 0 01-.305-.122 1.11 1.11 0 00-.366.488.327.327 0 01-.366.244.249.249 0 01-.183-.061.84.84 0 00-.488-.092q-.244.031-.549.092a.414.414 0 01-.3-.122.956.956 0 00-.244-.183 1.8 1.8 0 01-.61-.488l-.183-.183a1.412 1.412 0 00-.183-.305 1.419 1.419 0 00-.244-.366.124.124 0 00-.031-.091.124.124 0 01-.03-.091q.122-.122.061-.213a1.994 1.994 0 01-.122-.214q-.122-.3 0-.427.122-.3-.244-.305-.305 0-.122-.183a.868.868 0 01.183-.153.33.33 0 00.122-.153.108.108 0 00.122-.122q0-.183-.122-.183a1.209 1.209 0 01-.335-.244q-.03-.061.091-.366a.706.706 0 01-.153-.092.706.706 0 00-.153-.091.241.241 0 00.153-.031.241.241 0 01.153-.03.216.216 0 00-.258-.238zm20.252-6.344a.541.541 0 01-.244.061 3.842 3.842 0 00-1.22.183.249.249 0 01-.183.061.351.351 0 00-.122.244q0 .122.183.122h.549a1.714 1.714 0 00.335-.031.448.448 0 01.336.092q.244.122.366 0a.84.84 0 01.488-.092.45.45 0 00.427-.213.293.293 0 00-.3-.153.33.33 0 01-.3-.091.618.618 0 01.671-.183l2.013.732a.725.725 0 01.427.366 1.573 1.573 0 00.3.336 4.291 4.291 0 00.366.275q.366.122.427.366a.924.924 0 00.427.488.5.5 0 01.183.305.358.358 0 01-.3.183 2.459 2.459 0 01-.4.214q-.213.091-.458.213a2.384 2.384 0 01-.488.183 2.384 2.384 0 00-.488.183l-.244.122a1.663 1.663 0 01-.732.427 1.663 1.663 0 00-.732.427 2.836 2.836 0 01-.549.427 5.55 5.55 0 00-.61.427.892.892 0 00-.305.427 1.4 1.4 0 01-.488.488.924.924 0 00-.427.488q-.305.427-.549.823t-.488.885a4.486 4.486 0 00-.183.488 1.151 1.151 0 00-.061.366 1.792 1.792 0 01-.061.427v.122a.849.849 0 00-.183.518 1.561 1.561 0 01-.122.58 3.525 3.525 0 00.183 1.647.726.726 0 00.366.488.288.288 0 01.244.305 2.273 2.273 0 00.488 1.342q.183.244.335.488t.336.549l.122.244.366.549a7.988 7.988 0 01.549.884 2.2 2.2 0 00.671.762.176.176 0 01.061.122 2.1 2.1 0 00.4.763q.275.335.519.64a1.573 1.573 0 00.3.336 1.573 1.573 0 01.305.335q.244.244.458.488t.4.488q.244.3.427.58t.366.58q.122.183.274.4t.274.4q.305.366.58.732a5.584 5.584 0 01.518.854l.214.427.213.427a.468.468 0 01.061.183.468.468 0 00.061.183q.122.427.214.854a2.981 2.981 0 00.335.854q.061.061.061.092t.061.091a6.224 6.224 0 00.549 1.342.271.271 0 00.03.122.271.271 0 01.021.119 3.947 3.947 0 00.183.7 4.414 4.414 0 01.183.64 9.09 9.09 0 01.183.915 6.4 6.4 0 00.183.854.2.2 0 010 .213.376.376 0 00-.061.214.4.4 0 000 .427.7.7 0 01.122.4 1.247 1.247 0 01-.061.4 5.138 5.138 0 01-.122.915 1.419 1.419 0 01-.244.366 1.089 1.089 0 00-.3.305 3.051 3.051 0 01-.976.915.956.956 0 01-.244.183.956.956 0 00-.244.183 1.9 1.9 0 01-.64.244q-.336.061-.7.122a3.947 3.947 0 00-.7.183 1.768 1.768 0 00-.641.427 1.11 1.11 0 01-.488.366.936.936 0 00-.366.122 1.766 1.766 0 01-1.281.488 1.623 1.623 0 00-.7.03q-.335.092-.64.153h-.122a4.633 4.633 0 01-.762.061 4.633 4.633 0 00-.763.061 2.007 2.007 0 01-.61-.122.632.632 0 00-.61-.061.676.676 0 00-.214.031.676.676 0 01-.213.03.85.85 0 01-.366-.061 1.113 1.113 0 00-.61-.061.862.862 0 01-.976-.366.66.66 0 00-.488-.183.3.3 0 01-.366 0 4.809 4.809 0 00-.7-.214q-.4-.091-.763-.214-.488-.183-.183-.671a5.516 5.516 0 01.488-.732 5.943 5.943 0 01.671-.885 4.14 4.14 0 01.854-.7 8.867 8.867 0 01.945-.518q.458-.214.946-.4a3.147 3.147 0 001.342-1.037q.244-.305.488-.579a3.863 3.863 0 00.427-.58 3.982 3.982 0 01.366-.427 1.628 1.628 0 00.305-.427 2.351 2.351 0 00.488-1.4 10.5 10.5 0 00-.122-2.2 8.127 8.127 0 00-.427-1.678q-.3-.823-.671-1.677-.061-.122-.122-.274t-.122-.274a4.183 4.183 0 00-.427-.854q-.244-.366-.488-.793-.183-.244-.335-.457t-.336-.518q-.3-.427-.61-.793t-.61-.793q-.427-.549-.793-1.067a5.033 5.033 0 01-.61-1.19q-.061-.061-.061-.091t-.061-.092a1.185 1.185 0 01-.274-.427 5.079 5.079 0 00-.213-.488.176.176 0 01-.061-.122 10.131 10.131 0 00-.549-1.159 3.98 3.98 0 01-.427-1.159q-.183-.61-.366-1.159a11.054 11.054 0 01-.305-1.1q-.122-.61-.214-1.189a4.639 4.639 0 01-.03-1.19 3.931 3.931 0 01.03-.488q.031-.244.092-.549a1.247 1.247 0 00.061-.4 1.891 1.891 0 01.061-.457 5.578 5.578 0 01.244-.915 11.055 11.055 0 01.305-1.1 4.833 4.833 0 01.478-1.037l.366-.915a5.389 5.389 0 011.891-2.318 5.406 5.406 0 011.159-.732 3.478 3.478 0 01.61-.183 3.478 3.478 0 00.61-.183.605.605 0 01.274-.061.605.605 0 00.274-.061 4.031 4.031 0 012.074-.183zm-7.747 13.176a.468.468 0 01.061.183.468.468 0 00.061.183q.122.183.213.335a1.418 1.418 0 00.214.274l.122.366a2.367 2.367 0 00.122.305q.061.3.091.549a2.257 2.257 0 00.153.549.108.108 0 00.122.122.338.338 0 00.427.061.507.507 0 00.122-.488 1.994 1.994 0 00-.122-.214 1.994 1.994 0 01-.122-.213q-.122-.305-.275-.641t-.274-.64a3.347 3.347 0 01-.183-.427 3.347 3.347 0 00-.183-.427q-.183-.366-.366-.366a.218.218 0 00-.122.213.605.605 0 01-.063.277zm3.416 5.917a1.07 1.07 0 01-.122-.305.276.276 0 00-.305-.061q-.122.061-.061.244 0 .244.305.244.059.001.181-.121zm25.8 11.53a4.545 4.545 0 00-.092.457 3.742 3.742 0 00-.03.519v.183a.991.991 0 010 .488v.854a1.317 1.317 0 000 .793v.061a7.234 7.234 0 00-.183.793 7.234 7.234 0 01-.183.793q0 .122-.061.152a.33.33 0 00-.122.153q-.183.183-.183.244a1.314 1.314 0 01-.092.519 2.644 2.644 0 00-.152.518.842.842 0 01-.305.549q-.183.061-.3.427-.061.061.061.3-.3.427-.61.427a.541.541 0 01-.244.061l-.244.122q-.244.244-.366.061a.4.4 0 00-.183.188.121.121 0 01-.183.061.293.293 0 00-.217.091.293.293 0 01-.214.092 5.053 5.053 0 00-.915.061 3.668 3.668 0 01-.61.122.425.425 0 00-.183.031.425.425 0 01-.183.031l-.916-.367a.933.933 0 01-.305-.671 1.624 1.624 0 00-.183-.732 3.337 3.337 0 01-.122-.732 8.231 8.231 0 01-.183-.976l-.122-.976a.679.679 0 01-.064-.305v-.366a3.339 3.339 0 01-.241-1.25q0-.641-.061-1.311 0-.305-.03-.61t-.031-.61v-2.5q0-.671.061-1.342v-1.861a7.624 7.624 0 01.061-.945v-.915a7.4 7.4 0 01.061-.915q.061-.61.092-1.19a8.285 8.285 0 01.152-1.189 5.248 5.248 0 01.122-.976l.183-1.1q.061-.366.092-.732a5.956 5.956 0 01.091-.671 2.223 2.223 0 01.031-.366 1.917 1.917 0 00.03-.305l.187-1.464a.541.541 0 00-.065-.241l-.122-.244a.527.527 0 01-.183-.366.478.478 0 01.122-.09.478.478 0 00.122-.1q.122-.122.183-.122h.061q.244-.3.458-.214a1.149 1.149 0 00.457.092 5.843 5.843 0 01.915.305 3.772 3.772 0 01.976.305l.122.061a1.993 1.993 0 01.793.732q.122.244.214.458t.214.457q-.244.3-.183.427t.427.244a1.414 1.414 0 00.031.274 1.414 1.414 0 01.03.274.541.541 0 01.061.244.351.351 0 00.122.244q.122.122 0 .305 0 .3.183.3a.352.352 0 01.122.244 2.23 2.23 0 01.153.58q.03.275.091.58a1.151 1.151 0 01.061.366.656.656 0 00.122.366 2.037 2.037 0 01.183.915 3.842 3.842 0 01.183 1.22.217.217 0 01.031.183.271.271 0 00-.031.122 1.674 1.674 0 00.122.854.425.425 0 00.03.183.425.425 0 01.031.183 1.151 1.151 0 01.061.366 1.151 1.151 0 00.061.366 7.234 7.234 0 01.183.793 4.831 4.831 0 01.061.793.983.983 0 00.122.427 1.038 1.038 0 01.122.671.271.271 0 00.031.122.425.425 0 01.031.183l.122.366a.556.556 0 01-.061.427v.122a.983.983 0 01.122.427 1.792 1.792 0 01-.061.427.85.85 0 00.061.366 2.627 2.627 0 00.031.427.5.5 0 01-.092.366v.183a.241.241 0 00.03.153.124.124 0 01.029.1zm-7.747-24.278a5.14 5.14 0 01-.122-.854.867.867 0 00-.12-.488l-.244-.366a.3.3 0 01-.061-.305.393.393 0 01.3 0 .418.418 0 00.488.061q.183 0 .183-.122a.37.37 0 01.214-.244.812.812 0 00.274-.183q.122 0 .122-.061a.71.71 0 00.186-.127.249.249 0 01.183-.061 1.936 1.936 0 01.549.122.425.425 0 00.03.183.425.425 0 01.031.183.6.6 0 00.152-.213.6.6 0 01.153-.214l.488.244a1.211 1.211 0 01.427.366l.244.122.366.183a.353.353 0 01.061.244.82.82 0 00.244.732 2.78 2.78 0 01.4.671q.153.366.336.732a1.084 1.084 0 01.091.305 1.084 1.084 0 00.092.3 1.412 1.412 0 00.183.305 1.026 1.026 0 01.122.854 2.229 2.229 0 01-.305.854.494.494 0 01-.092.305q-.091.122-.214.305a1.269 1.269 0 00-.061.488 1.07 1.07 0 01-.305-.122 1.11 1.11 0 00-.366.488.327.327 0 01-.366.244.249.249 0 01-.183-.061.84.84 0 00-.488-.092q-.244.031-.549.092a.414.414 0 01-.3-.122.956.956 0 00-.244-.183 1.8 1.8 0 01-.61-.488l-.191-.173a1.412 1.412 0 00-.183-.305 1.419 1.419 0 00-.244-.366.124.124 0 00-.03-.091.124.124 0 01-.031-.091q.122-.122.061-.213a1.994 1.994 0 01-.122-.214q-.122-.3 0-.427.122-.3-.244-.305-.305 0-.122-.183a.868.868 0 01.183-.153.33.33 0 00.122-.153.108.108 0 00.122-.122q0-.183-.122-.183a1.209 1.209 0 01-.336-.244q-.03-.061.092-.366a.706.706 0 01-.153-.092.706.706 0 00-.152-.091.241.241 0 00.152-.031.241.241 0 01.153-.03.216.216 0 00-.244-.244zM81.7 133.824q.183-.122.244-.03a.46.46 0 00.183.153.338.338 0 00.427.061.249.249 0 00-.061-.183 7.238 7.238 0 01-.7-.671 4.867 4.867 0 00-.762-.671 1.573 1.573 0 01-.336-.305q-.153-.183-.335-.366l-.427-.427-.244.244a.561.561 0 01-.427-.4.714.714 0 01.061-.641.644.644 0 01.3.214q.122.153.366.031a.507.507 0 00-.183-.488q-.183-.183-.335-.366t-.336-.366q-.183-.183-.244-.183a1.7 1.7 0 00-.366.122 3.2 3.2 0 01-.366-.549q-.122-.244-.305-.549a3.153 3.153 0 00-.305-.579q-.183-.274-.366-.579.3-.427-.183-.915-.183-.061-.061-.3a.546.546 0 00.153-.3.546.546 0 01.155-.31.367.367 0 00-.244-.244.176.176 0 01.061-.122.531.531 0 00.061-.549 1 1 0 01-.122-.152q-.061-.091-.122-.092a.669.669 0 01-.4-.335q-.091-.213-.214-.457a.425.425 0 01.03-.183.217.217 0 00-.03-.183 1.036 1.036 0 01-.153-.641q.03-.335.092-.7v-.183a3.427 3.427 0 01-.061-.671v-.671a1.151 1.151 0 01.061-.366l.122-.366a1.587 1.587 0 00.061-.488 2.714 2.714 0 01-.061-.518v-.519a10.122 10.122 0 00.153-1.372 10.122 10.122 0 01.152-1.373 1.936 1.936 0 01.122-.549.541.541 0 01.061-.244 5.14 5.14 0 01.122-.854.541.541 0 00.061-.244.541.541 0 01.061-.244.124.124 0 00-.031-.091q-.03-.031.031-.153.061-.366.122-.763a6.725 6.725 0 01.183-.823q.061-.244.122-.457a1.109 1.109 0 000-.519 1.449 1.449 0 01.061-.4q.061-.213.122-.4a6.068 6.068 0 00.091-.64 2.268 2.268 0 01.153-.641l.183-.549a2.23 2.23 0 00.152-.58 1.449 1.449 0 01.214-.579.416.416 0 00.03-.275.416.416 0 01.03-.274 4.326 4.326 0 00.183-.549 2.384 2.384 0 01.183-.487q0-.122.244-.366a.8.8 0 00.183-.61.353.353 0 01.061-.244 7.081 7.081 0 00.427-.885 2.437 2.437 0 01.549-.823.249.249 0 00.061-.183.491.491 0 00.061-.213.207.207 0 01.061-.153 2.194 2.194 0 01.274-.336.39.39 0 00.092-.4 6.092 6.092 0 00.549-.61.393.393 0 01-.061-.458q.122-.213.244-.4.3-.427.641-.824t.641-.823q.244-.305.427-.549t.427-.549a2.847 2.847 0 01.854-.854.054.054 0 00.061-.061q.183-.427.854-.427a1 1 0 00.244-.03 1 1 0 01.244-.03 2.338 2.338 0 011.891.427 1.539 1.539 0 001.281.183h.122q.732 0 1.494.031a4.722 4.722 0 011.434.274.425.425 0 01.183.031.425.425 0 00.183.031 2.628 2.628 0 01.854.244q.366.183.793.427a2.391 2.391 0 01.549.244 3.41 3.41 0 00.366.214l.427.213a.9.9 0 01.427.549 2.594 2.594 0 00.244.366 1.073 1.073 0 01.427.427q.122.244.244.549l.366.732a.271.271 0 00.03.122.425.425 0 01.03.183 6.066 6.066 0 01.091.641 2.268 2.268 0 00.153.64v.183a4.562 4.562 0 00.427 2.135 1.89 1.89 0 01.122.793.9.9 0 00.061.732q.122.122.122.183a1.677 1.677 0 00.153.7 1.349 1.349 0 01.091.763.217.217 0 00-.03.183.425.425 0 01.03.183.249.249 0 01.061.183 1.357 1.357 0 00.244 1.159v.183a3.725 3.725 0 00-.031 1.25q.092.58.153 1.251.061.3.122.64a1.141 1.141 0 01-.061.641.217.217 0 00-.03.183.425.425 0 01.03.183q.061.61.091 1.19t.031 1.19a1.587 1.587 0 01-.061.488 3.1 3.1 0 01-.061.61 3.1 3.1 0 00-.061.61.483.483 0 00.061.305.619.619 0 01.122.488.418.418 0 00.061.488.4.4 0 010 .427 3.781 3.781 0 01-.244.732 1.936 1.936 0 01-.122.549v.58a2.958 2.958 0 01-.061.579 1.413 1.413 0 01-.031.275 1.714 1.714 0 00-.031.335 1.32 1.32 0 00-.03.488.607.607 0 00.335.427.387.387 0 01.091.183 1.192 1.192 0 00.092.244 1.357 1.357 0 01-.244 1.159.687.687 0 00-.061.732.632.632 0 01.061.61q-.061.305-.091.549a4.116 4.116 0 01-.091.488 1.587 1.587 0 00-.061.488.481.481 0 01-.183.61 1.573 1.573 0 00-.336.3 1.573 1.573 0 01-.335.3.71.71 0 01-.122.183.71.71 0 00-.122.183.054.054 0 00-.061.061 1.568 1.568 0 00-.488.915q0 .122-.244.366-.549.549-1.067 1.1a8.117 8.117 0 00-.946 1.22q0 .061-.03.061t-.031.061a2.836 2.836 0 00-.549.427 6.655 6.655 0 00-.488.549 1.334 1.334 0 01-.519.336q-.275.091-.58.214a.54.54 0 01-.244.152.54.54 0 00-.244.152 2.4 2.4 0 01-.976.366 2.037 2.037 0 00-.7.122 3.947 3.947 0 01-.7.183 2.137 2.137 0 01-.671.122h-.85a3.782 3.782 0 01-.915-.122 3.77 3.77 0 00-.824-.031q-.4.031-.823.031a6.754 6.754 0 01-2.868-.779q-.244-.122-.458-.244t-.458-.244q-.061 0-.243-.183zm9.943-28.487a1.047 1.047 0 01-.061-.427 3.575 3.575 0 00-.427-1.586q-.122-.183-.274-.4t-.274-.4q-.244-.366-.488-.671a7.428 7.428 0 00-.549-.61 1.678 1.678 0 01-.488-.427q-.183-.244-.427-.549a3.143 3.143 0 01-.335-.4 3.143 3.143 0 00-.336-.4q-.366-.244-.549 0a3.766 3.766 0 00-.427.671 2.628 2.628 0 00-.244.854 1.814 1.814 0 01-.244.915q-.122.244-.244.457a1.03 1.03 0 00-.122.519q-.061.244-.183.854-.061.3-.091.61t-.092.61a.124.124 0 01-.031.092.124.124 0 00-.031.091 6.112 6.112 0 00-.274.946q-.091.458-.214.946a5.577 5.577 0 01-.244.915q-.061.3-.122.641a5.122 5.122 0 01-.183.7 4.162 4.162 0 00-.153.823 4.162 4.162 0 01-.153.823l-.122.732-.122.732-.183 1.464a3.008 3.008 0 01-.091.732 1.285 1.285 0 00.03.732 2.237 2.237 0 01.153.61q.031.3.091.61a1.85 1.85 0 00.061.549 4.533 4.533 0 01.183.793 4.532 4.532 0 00.183.793.679.679 0 01.061.3q.061.488.092.976a5.408 5.408 0 00.153.976 2.031 2.031 0 010 .7 2.031 2.031 0 000 .7.651.651 0 01.03.335.448.448 0 00.091.335q.122.061.122.366a1.659 1.659 0 00.03.945q.153.458.275.946a10.485 10.485 0 00.854 2.257q.3.671.671 1.372a4.432 4.432 0 00.976 1.251.913.913 0 001.1.3 2.308 2.308 0 00.732-.488 4.041 4.041 0 00.519-.488q.213-.244.458-.488a2.3 2.3 0 00.793-1.4.676.676 0 01.03-.214.676.676 0 00.031-.214q.122-.549.244-1.068t.244-1.067a5.14 5.14 0 00.122-.854l.122-.61a3.1 3.1 0 00.061-.61 4.633 4.633 0 00.061-.762v-.763a9.943 9.943 0 00.151-1.223 8.285 8.285 0 01.153-1.19 2.916 2.916 0 00.092-.915q-.031-.427-.031-.854-.061-1.525 0-3.05v-1.586q-.061-.549-.091-1.068t-.092-1.007v-.579a2.958 2.958 0 00-.061-.58 4.459 4.459 0 00-.031-.549q-.03-.244-.091-.549l-.061-.122a7.219 7.219 0 00-.274-.793 7.22 7.22 0 01-.274-.793 1.7 1.7 0 01-.122-.732 1.269 1.269 0 01-.063-.487zm12.627 28a2.132 2.132 0 00.244-1.189 10.78 10.78 0 01-.061-1.129 1.82 1.82 0 00-.091-.58 1.82 1.82 0 01-.091-.579 2.14 2.14 0 01-.061-.61 4.6 4.6 0 01-.061-.854.493.493 0 01-.031-.305 1.917 1.917 0 00.031-.305 1.414 1.414 0 01.03-.274 1.413 1.413 0 00.031-.275 3.239 3.239 0 01.03-.457.621.621 0 01.275-.4.679.679 0 01-.305-.061v-.548a4.458 4.458 0 00-.031-.549 4.459 4.459 0 01-.03-.549 5.253 5.253 0 01.03-.58 5.252 5.252 0 00.031-.579v-.549a2.827 2.827 0 00-.061-.549 3.153 3.153 0 01-.031-.763 3.769 3.769 0 00-.03-.823 3 3 0 010-.854 6.031 6.031 0 00.061-.854.936.936 0 01.122-.366v-.244a5.6 5.6 0 01-.092-1.281q.031-.61.092-1.281a.493.493 0 00.03-.3 1.917 1.917 0 01-.03-.305 3.337 3.337 0 01.122-.732 2.14 2.14 0 01.061-.61v-1.342a1.917 1.917 0 00-.031-.305 2.223 2.223 0 01-.03-.366 1.151 1.151 0 00.061-.366 1.151 1.151 0 01.061-.366 1.362 1.362 0 00.061-.671.651.651 0 01-.03-.336 2.819 2.819 0 01.091-.335 1.5 1.5 0 00.122-.549v-.549a5.14 5.14 0 00.122-.854 7.064 7.064 0 010-1.312q.061-.641.183-1.311a4.459 4.459 0 01.03-.549 3.931 3.931 0 00.03-.488v-.549a1.083 1.083 0 01.122-.488.9.9 0 000-.793.369.369 0 010-.549 1.85 1.85 0 00.061-.549 1.587 1.587 0 00.061-.488.249.249 0 00.061-.183 1.6 1.6 0 01.305-1.342.874.874 0 00-.122-.976l.458-.458a4.264 4.264 0 01.457-.4 1.186 1.186 0 01.61-.244.241.241 0 00.153-.03.241.241 0 01.153-.03 1.459 1.459 0 01.915-.061 3.428 3.428 0 00.793.122 1.791 1.791 0 01.671.122 3.477 3.477 0 00.61.183.351.351 0 01.244.122l.427.427a.879.879 0 00.4.458.931.931 0 01.4.4.936.936 0 01.122.366q.061.061.061.091t.061.091a1.047 1.047 0 01.061.427.983.983 0 00.122.427l.244.732.244.732a.656.656 0 01.122.366 1.151 1.151 0 00.061.366l.183.915a.054.054 0 01.061.061 1.062 1.062 0 00.061.793 5.59 5.59 0 01.305.732.605.605 0 01.061.274.605.605 0 00.061.274.679.679 0 00.061.305 1.887 1.887 0 01.183.854.424.424 0 00.122.427.956.956 0 01.183.244 4.522 4.522 0 00.4 1.22 6.615 6.615 0 01.458 1.22.679.679 0 00.061.305.983.983 0 00.122.427.124.124 0 00.031.091.124.124 0 01.03.091.3.3 0 00-.03.336 1.686 1.686 0 01.153.336q.061.3.122.671l.122.732a1.047 1.047 0 01.061.427q.122.366.213.7t.214.7a1.511 1.511 0 01.153.457 1.511 1.511 0 00.153.458.535.535 0 01.061.153.535.535 0 00.061.152l.183.549q.061.061.061.091t.061.092q.183-.061.183-.366.122-.61.214-1.189t.213-1.189a2.549 2.549 0 01.122-.427v-.122a1.891 1.891 0 00.061-.458v-.4a2.137 2.137 0 01.122-.671q.061-.3.122-.549t.122-.549a5.138 5.138 0 00.122-.915.468.468 0 00.061-.183.176.176 0 01.061-.122.468.468 0 00.061-.183.468.468 0 01.061-.183l.122-.244.061-.061a.435.435 0 01.061-.4 1.08 1.08 0 00.183-.336v-.4a1.247 1.247 0 01.061-.4v-.165a3.641 3.641 0 00.183-1.159q-.122-.061.061-.244a.527.527 0 00.183-.366 1.792 1.792 0 01.061-.427 3.26 3.26 0 00.061-.641 3.261 3.261 0 01.061-.641q.061-.427.091-.823t.092-.763a.376.376 0 01.3-.427q.122-.122.122-.183.061-.244.122-.458a.809.809 0 00-.061-.519v-.249a3.77 3.77 0 00.183-.579q.061-.275.122-.58a.562.562 0 00-.122-.488q.122-.427-.122-.61a6.332 6.332 0 01.244-.793.1.1 0 01.061-.092.33.33 0 00.122-.152 2.592 2.592 0 01.335-.671 1.667 1.667 0 00.275-.732 1.035 1.035 0 01.275-.58 2.675 2.675 0 01.519-.4.541.541 0 01.244.061.425.425 0 01.183.031.425.425 0 00.183.031.726.726 0 00.366.488q.427.244.671.061a.124.124 0 01.091.03.241.241 0 00.153.031 1.26 1.26 0 00-.244.915q.122.305.183.305.366.183.122.61a1.155 1.155 0 00-.274.549 4.458 4.458 0 00-.031.549 3.427 3.427 0 01.061.671 1.791 1.791 0 01-.122.671 2.388 2.388 0 00.061 1.586 1.1 1.1 0 010 .732.676.676 0 00.031.213.676.676 0 01.031.214 1.414 1.414 0 00.03.274 1.413 1.413 0 01.031.275.85.85 0 00.061.366.633.633 0 010 .549.811.811 0 00-.061.427 2.627 2.627 0 01-.031.427 2.628 2.628 0 00-.03.427.85.85 0 00.061.366.9.9 0 01-.061.732 1.084 1.084 0 00-.092.3 1.084 1.084 0 01-.092.305.937.937 0 000 .671 2.535 2.535 0 01.061.915.4.4 0 000 .427 1.871 1.871 0 01.061.793v.061a.809.809 0 01.061.519 1.909 1.909 0 00-.061.519.241.241 0 01-.03.153.241.241 0 00-.03.152 1.037 1.037 0 000 .854v.244q-.061.366-.091.7a3.114 3.114 0 01-.153.7 2.455 2.455 0 01-.061.671 1.151 1.151 0 00-.061.366 1.151 1.151 0 01-.061.366 1.85 1.85 0 00-.061.549 1.069 1.069 0 00-.061.336.605.605 0 01-.061.274v.488a1.587 1.587 0 00-.061.488q-.061.427-.122.793a7.235 7.235 0 01-.183.793.85.85 0 00.061.366 5.958 5.958 0 01.091.671q.031.366.091.732a1.917 1.917 0 01-.031.3 1.918 1.918 0 00-.03.305.676.676 0 01-.031.214.676.676 0 00-.031.213 1.06 1.06 0 01-.183.732.4.4 0 000 .427 3 3 0 010 .854v.305a2.9 2.9 0 01-.061.671.85.85 0 00-.061.366 4.459 4.459 0 00.03.549 4.458 4.458 0 01.031.549v.183q-.183.3 0 .488l.061.122a.645.645 0 00.031.579q.152.275.274.518a2.6 2.6 0 01.122.915v.427a1.038 1.038 0 00.122.671.138.138 0 01.031.153.676.676 0 00-.031.214.646.646 0 000 .549 1.924 1.924 0 01.305 1.037 2.137 2.137 0 00.122.671.74.74 0 01-.061.671 1.624 1.624 0 00-.183.732.759.759 0 01-.031.488l-.214.427q0 .122-.244.122-.122 0-.122-.061-.427 0-.305.427l-.061.061a.176.176 0 01-.122.061.176.176 0 00-.122.061q-.305.061-.671.122a1.231 1.231 0 01-.679-.043q-.305-.061-.64-.122a3.318 3.318 0 01-.641-.183.176.176 0 00-.122-.061.845.845 0 01-.67-.427.669.669 0 00-.427-.244h-.3q-.549 0-.671-.244l-.061-.061a.636.636 0 01-.488-.61l-.305-.3a.478.478 0 00-.122-.092.33.33 0 01-.126-.156 1.267 1.267 0 01-.488-.854 1.121 1.121 0 010-.732 1.059 1.059 0 00-.122-.976q-.061-.122-.122-.275t-.122-.336l-.275-.671q-.153-.371-.274-.671-.183-.488-.366-.884a5.007 5.007 0 01-.305-.884l-.549-1.281q-.183-.427-.335-.823t-.275-.823q-.183-.488-.335-1.007t-.335-1.067q-.244-.61-.427-1.22t-.37-1.283a2.675 2.675 0 00-.305-.549q-.183-.366-.4-.732t-.458-.793l-.061-.061a.176.176 0 01-.122-.061v.3a.605.605 0 00-.061.275.379.379 0 01-.122.274 1.144 1.144 0 00-.122.915 2.211 2.211 0 010 .732 5.138 5.138 0 00-.122.915.266.266 0 00.061.366.35.35 0 01.061.427 1.936 1.936 0 00-.122.549l-.183 1.281-.183 1.1a.351.351 0 01-.122.244.4.4 0 000 .427.393.393 0 010 .305 2.367 2.367 0 01-.122.3 1 1 0 00-.122.549 2.392 2.392 0 01.03 1.006q-.092.519-.214 1.007a.541.541 0 00-.061.244.541.541 0 01-.061.244q-.061.305-.092.549a2.257 2.257 0 01-.153.549 5.1 5.1 0 01-.427.885 3.119 3.119 0 00-.366.885 1.769 1.769 0 00-.335.641 2.538 2.538 0 01-.275.641 1.5 1.5 0 01-1.342.854.646.646 0 01-.549 0 3.239 3.239 0 01-.458-.03q-.206-.025-.511-.086z" fill="#fdca00"/></svg>