<svg xmlns="http://www.w3.org/2000/svg" width="226" height="136.007"><path d="M148.917.025c-.283 0-.56-.023-.844-.023a77.884 77.884 0 00-59 27.01l7.489 6.464a67.992 67.992 0 0151.511-23.585c.283 0 .56.04.844.043z"/><path d="M215.185 67.234a66.959 66.959 0 01-16.089 55.707l7.417 6.543a77.89 77.89 0 0018.5-63.908z" fill="#ffc400"/><path d="M224.431 62.329A78.09 78.09 0 00152.209.112V10.1a68.118 68.118 0 0162.451 53.881z" fill="#d70200"/><path d="M79.714 66.592v-20.47h5.31a6.489 6.489 0 012.12.341 4.7 4.7 0 011.752 1.069 5.073 5.073 0 011.2 1.913 8.223 8.223 0 01.448 2.877v8.07a8 8 0 01-.445 2.833 5.384 5.384 0 01-1.2 1.928 4.525 4.525 0 01-1.75 1.1 6.489 6.489 0 01-2.121.341zm2.166-1.928h3.144a2.92 2.92 0 002.537-1.132 5.227 5.227 0 00.816-3.115v-7.885a5.919 5.919 0 00-.787-3.3 2.85 2.85 0 00-2.566-1.182h-3.145zm16.764 2.168q-4.628 0-4.628-5.459v-4.957a6.209 6.209 0 011.139-3.96 4.075 4.075 0 013.4-1.439 4.173 4.173 0 013.438 1.424 6.141 6.141 0 011.157 3.975v3.116h-7.12v1.81a5.136 5.136 0 00.623 2.759 2.241 2.241 0 002.047.979q2.433 0 2.433-3.056v-.119h1.988v.089a5.11 5.11 0 01-1.142 3.619 4.359 4.359 0 01-3.335 1.219zm-2.614-8.843h5.132v-1.573a4.934 4.934 0 00-.593-2.684 2.2 2.2 0 00-1.988-.9 2.129 2.129 0 00-1.988.934 5.315 5.315 0 00-.564 2.714zm14.714 8.843a4.339 4.339 0 01-3.323-1.231 4.388 4.388 0 01-1.157-3.13v-.181h1.87v.178a2.369 2.369 0 00.771 1.958 2.925 2.925 0 001.9.623 2.874 2.874 0 001.839-.564 2.284 2.284 0 00.712-1.9 2.209 2.209 0 00-.5-1.572 4.9 4.9 0 00-1.572-1.009l-1.928-.8a4.145 4.145 0 01-2.937-4 3.953 3.953 0 011.211-3.072 4.562 4.562 0 013.2-1.112 4.4 4.4 0 013.2 1.127 4.188 4.188 0 011.157 3.145v.386h-1.861v-.181a2.922 2.922 0 00-.638-2.017 2.816 2.816 0 00-3.619-.1 2.206 2.206 0 00-.638 1.676 2.24 2.24 0 00.46 1.439 3.6 3.6 0 001.409.994l1.928.8a6.235 6.235 0 012.358 1.557 3.842 3.842 0 01.786 2.6 4.2 4.2 0 01-1.228 3.256 4.841 4.841 0 01-3.4 1.13zm8.159-17.743v-2.67h2.047v2.67zm.03 17.5V51.254h2.017v15.338zm12.846-15.335h2.017v14.715a6.3 6.3 0 01-1.068 3.842 4 4 0 01-3.441 1.439 4.423 4.423 0 01-3.115-1.038 3.863 3.863 0 01-1.187-2.848h1.928a2.546 2.546 0 00.593 1.5 2.2 2.2 0 001.78.638 2.092 2.092 0 001.958-.89 4.79 4.79 0 00.534-2.462v-2.109a3.218 3.218 0 01-2.937 1.6 3.508 3.508 0 01-3-1.394 6.226 6.226 0 01-1.038-3.8v-4.238a6.292 6.292 0 011.023-3.8 3.5 3.5 0 013.018-1.392 3.174 3.174 0 012.935 1.721zm-2.552 12.578a2.1 2.1 0 001.958-.994 5.085 5.085 0 00.593-2.625v-3.737q0-3.649-2.551-3.649a1.966 1.966 0 00-1.839.964 5.272 5.272 0 00-.564 2.655v3.768a5.5 5.5 0 00.534 2.67 1.961 1.961 0 001.869.948zm13.647-12.815a3.467 3.467 0 012.892 1.215 5.108 5.108 0 01.964 3.263v11.1h-2.017V55.586a2.98 2.98 0 00-.638-2.032 2.226 2.226 0 00-1.765-.727 2.184 2.184 0 00-1.765.756 3 3 0 00-.638 2v11.009h-2.017V51.254h1.954v1.395a3.079 3.079 0 011.261-1.2 3.727 3.727 0 011.769-.432zm12.044 15.815q-4.628 0-4.628-5.459v-4.957a6.209 6.209 0 011.143-3.96 4.075 4.075 0 013.4-1.439 4.173 4.173 0 013.438 1.424 6.141 6.141 0 011.157 3.975v3.116h-7.12v1.81a5.136 5.136 0 00.623 2.759 2.241 2.241 0 002.047.979q2.433 0 2.433-3.056v-.119h1.988v.089a5.11 5.11 0 01-1.142 3.619 4.359 4.359 0 01-3.339 1.219zm-2.61-8.843h5.136v-1.573a4.934 4.934 0 00-.6-2.684 2.2 2.2 0 00-1.988-.9 2.129 2.129 0 00-1.988.934 5.315 5.315 0 00-.564 2.714zm14.418 8.843a3.581 3.581 0 01-2.952-1.35 6.057 6.057 0 01-1.083-3.871v-5.373a6.417 6.417 0 011.009-3.827 3.4 3.4 0 012.937-1.394 3.287 3.287 0 013.026 1.721v-6.616h2.017v20.47h-2.017v-1.394a3.248 3.248 0 01-2.937 1.634zm.386-1.81a2.1 2.1 0 001.958-.994 5.086 5.086 0 00.593-2.625v-4.898q0-3.679-2.551-3.679-2.4 0-2.4 3.649v4.896a5.608 5.608 0 00.534 2.67 1.946 1.946 0 001.865.979zm8.129 5.755v-6.945h2.017v5.192zM33.909 99.282a3.581 3.581 0 01-2.952-1.35 6.057 6.057 0 01-1.083-3.871v-5.37a6.417 6.417 0 011.009-3.827 3.4 3.4 0 012.937-1.394 3.287 3.287 0 013.024 1.721v-6.616h2.017v20.47h-2.017v-1.394a3.248 3.248 0 01-2.935 1.631zm.386-1.81a2.1 2.1 0 001.958-.994 5.086 5.086 0 00.593-2.625v-4.895q0-3.679-2.551-3.679-2.4 0-2.4 3.649v4.895a5.607 5.607 0 00.534 2.67 1.946 1.946 0 001.865.98zm12.875 1.81q-4.628 0-4.628-5.459v-4.954a6.209 6.209 0 011.142-3.96 4.075 4.075 0 013.4-1.439 4.173 4.173 0 013.441 1.424 6.141 6.141 0 011.157 3.975v3.115h-7.12v1.81a5.135 5.135 0 00.623 2.759 2.241 2.241 0 002.047.979q2.433 0 2.433-3.056v-.119h1.988v.089a5.11 5.11 0 01-1.142 3.619 4.359 4.359 0 01-3.341 1.217zm-2.611-8.84h5.132v-1.573a4.934 4.934 0 00-.593-2.685 2.2 2.2 0 00-1.988-.9 2.129 2.129 0 00-1.988.934 5.315 5.315 0 00-.563 2.714zm17.414-6.735h2.2l-4.069 15.338h-2.017l-4.035-15.338h2.192l2.881 12.164zm9.2 15.575q-4.628 0-4.628-5.459v-4.954a6.209 6.209 0 011.142-3.96 4.075 4.075 0 013.4-1.439 4.173 4.173 0 013.441 1.424 6.141 6.141 0 011.157 3.975v3.115h-7.12v1.81a5.136 5.136 0 00.623 2.759 2.241 2.241 0 002.047.979q2.433 0 2.433-3.056v-.119h1.988v.089a5.11 5.11 0 01-1.142 3.619 4.359 4.359 0 01-3.344 1.217zm-2.614-8.84h5.132v-1.573a4.934 4.934 0 00-.593-2.685 2.2 2.2 0 00-1.988-.9 2.129 2.129 0 00-1.988.934 5.315 5.315 0 00-.564 2.714zm14.893 8.6a4.152 4.152 0 01-3.041-1.038 4.065 4.065 0 01-1.053-3.026V78.575h2.047v16.317q0 2.344 2.106 2.344h.445v1.81zm7.654.237a4.48 4.48 0 01-3.426-1.276 5.59 5.59 0 01-1.2-3.946v-5.37a5.637 5.637 0 011.187-3.946 4.47 4.47 0 013.441-1.276 4.316 4.316 0 013.367 1.29 5.694 5.694 0 011.169 3.936v5.37a5.694 5.694 0 01-1.172 3.931 4.316 4.316 0 01-3.366 1.29zm-.03-1.81a2.141 2.141 0 001.958-.934 5.1 5.1 0 00.593-2.714v-4.889a5.2 5.2 0 00-.578-2.714 2.135 2.135 0 00-1.973-.934 2.171 2.171 0 00-1.988.934 5.1 5.1 0 00-.593 2.714v4.895a5.1 5.1 0 00.593 2.714 2.171 2.171 0 001.988.932zm13.172-14a3.585 3.585 0 013.026 1.35 6.245 6.245 0 011.038 3.871v5.37a6.268 6.268 0 01-1.038 3.842 3.522 3.522 0 01-3 1.379 3.3 3.3 0 01-2.937-1.6v5.874h-2.014V83.707h2.021v1.483a3.192 3.192 0 012.9-1.72zm2.047 5.463q0-3.649-2.4-3.649a2.1 2.1 0 00-1.973.994 5.33 5.33 0 00-.578 2.685v4.895a5.086 5.086 0 00.593 2.625 2.1 2.1 0 001.958.994 1.97 1.97 0 001.869-.934 5.562 5.562 0 00.534-2.714zm9.909 10.35q-4.628 0-4.628-5.459v-4.954a6.209 6.209 0 011.142-3.96 4.075 4.075 0 013.4-1.439 4.173 4.173 0 013.441 1.424 6.141 6.141 0 011.157 3.975v3.115h-7.12v1.81a5.136 5.136 0 00.623 2.759 2.241 2.241 0 002.047.979q2.433 0 2.433-3.056v-.119h1.988v.089a5.11 5.11 0 01-1.143 3.62 4.36 4.36 0 01-3.34 1.216zm-2.611-8.84h5.132v-1.573a4.934 4.934 0 00-.593-2.685 2.2 2.2 0 00-1.988-.9 2.129 2.129 0 00-1.988.934 5.315 5.315 0 00-.564 2.714zm14.418 8.84a3.581 3.581 0 01-2.952-1.35 6.057 6.057 0 01-1.083-3.871v-5.37a6.417 6.417 0 011.009-3.827 3.4 3.4 0 012.937-1.394 3.287 3.287 0 013.022 1.721v-6.616h2.017v20.47h-2.017v-1.394a3.248 3.248 0 01-2.933 1.631zm.386-1.81a2.1 2.1 0 001.958-.994 5.086 5.086 0 00.593-2.625v-4.895q0-3.679-2.551-3.679-2.4 0-2.4 3.649v4.895a5.607 5.607 0 00.534 2.67 1.946 1.946 0 001.866.98zm17.77 1.81a3.464 3.464 0 01-2.923-1.25 5.084 5.084 0 01-.964-3.2 4.812 4.812 0 011.1-3.278 4.369 4.369 0 013.471-1.261h2.373v-2.461q0-2.581-2.373-2.581a2.288 2.288 0 00-1.691.593 2.246 2.246 0 00-.593 1.661v.237h-1.9v-.267a3.825 3.825 0 011.142-2.937 4.445 4.445 0 013.159-1.068 5.018 5.018 0 011.9.326 3.583 3.583 0 011.335.92 3.715 3.715 0 01.786 1.409 6.056 6.056 0 01.252 1.795v11.125h-1.93v-1.424a3.458 3.458 0 01-3.144 1.661zm.5-1.75a2.45 2.45 0 001.854-.727 2.994 2.994 0 00.7-2.151v-2.848h-2.164q-2.759 0-2.759 2.878 0 2.848 2.373 2.848zm13.647-14.062a3.467 3.467 0 012.892 1.216 5.108 5.108 0 01.964 3.263v11.1h-2.017v-11.01a2.98 2.98 0 00-.638-2.032 2.226 2.226 0 00-1.765-.727 2.184 2.184 0 00-1.765.756 3 3 0 00-.638 2v11.009h-2.013V83.707h1.958v1.395a3.079 3.079 0 011.261-1.2 3.727 3.727 0 011.765-.432zm11.455 15.812a3.581 3.581 0 01-2.952-1.35 6.057 6.057 0 01-1.083-3.871v-5.37a6.417 6.417 0 011.009-3.827 3.4 3.4 0 012.937-1.394 3.287 3.287 0 013.026 1.721v-6.616h2.017v20.47h-2.017v-1.394a3.248 3.248 0 01-2.937 1.631zm.386-1.81a2.1 2.1 0 001.958-.994 5.086 5.086 0 00.593-2.625v-4.895q0-3.679-2.551-3.679-2.4 0-2.4 3.649v4.895a5.608 5.608 0 00.534 2.67 1.946 1.946 0 001.866.98zM11.689 115.923a3.66 3.66 0 013 1.187 5.03 5.03 0 01.979 3.293v11.1h-2.047v-11.011a3.016 3.016 0 00-.623-2.047 2.167 2.167 0 00-1.721-.712 2.249 2.249 0 00-1.78.742 2.9 2.9 0 00-.653 1.987v11.036H6.827v-11.006a3.05 3.05 0 00-.623-2 2.175 2.175 0 00-1.78-.757 2.212 2.212 0 00-1.736.712 2.969 2.969 0 00-.644 2.045v11.006H-.003V116.16h1.988v1.394a3.455 3.455 0 011.159-1.142 3.36 3.36 0 011.839-.489 3.633 3.633 0 012.047.549 3.779 3.779 0 011.276 1.379 4.083 4.083 0 011.469-1.439 3.854 3.854 0 011.914-.489zm11.273 15.809a3.464 3.464 0 01-2.918-1.243 5.084 5.084 0 01-.964-3.2 4.812 4.812 0 011.1-3.278 4.369 4.369 0 013.464-1.265h2.373v-2.462q0-2.581-2.373-2.581a2.288 2.288 0 00-1.691.593 2.246 2.246 0 00-.593 1.661v.237h-1.9v-.262a3.825 3.825 0 011.142-2.937 4.445 4.445 0 013.159-1.068 5.018 5.018 0 011.9.326 3.583 3.583 0 011.335.92 3.715 3.715 0 01.786 1.409 6.057 6.057 0 01.252 1.795v11.121h-1.928v-1.424a3.458 3.458 0 01-3.144 1.658zm.5-1.75a2.45 2.45 0 001.854-.727 2.994 2.994 0 00.7-2.151v-2.845H23.85q-2.759 0-2.759 2.878.002 2.848 2.375 2.848zm12.282 1.75a3.581 3.581 0 01-2.952-1.35 6.057 6.057 0 01-1.083-3.871v-5.37a6.417 6.417 0 011.009-3.827 3.4 3.4 0 012.937-1.394 3.287 3.287 0 013.026 1.721v-6.609h2.017v20.47h-2.017v-1.399a3.248 3.248 0 01-2.937 1.629zm.386-1.81a2.1 2.1 0 001.958-.994 5.085 5.085 0 00.593-2.625v-4.892q0-3.679-2.551-3.679-2.4 0-2.4 3.649v4.895a5.607 5.607 0 00.534 2.67 1.946 1.946 0 001.87.979zm12.879 1.81q-4.628 0-4.628-5.459v-4.951a6.209 6.209 0 011.142-3.96 4.075 4.075 0 013.4-1.439 4.173 4.173 0 013.441 1.424 6.141 6.141 0 011.154 3.975v3.115h-7.12v1.81a5.136 5.136 0 00.623 2.759 2.241 2.241 0 002.047.979q2.433 0 2.433-3.056v-.119h1.988v.089a5.11 5.11 0 01-1.145 3.62 4.36 4.36 0 01-3.335 1.213zm-2.611-8.841h5.132v-1.569a4.934 4.934 0 00-.593-2.685 2.2 2.2 0 00-1.988-.9 2.129 2.129 0 00-1.988.934 5.315 5.315 0 00-.564 2.714zm16.732-8.9v-2.67h2.047v2.67zm.03 17.5V116.16h2.017v15.338zm11.273-15.568a3.467 3.467 0 012.892 1.216 5.108 5.108 0 01.964 3.263v11.1h-2.016v-11.01a2.98 2.98 0 00-.638-2.032 2.226 2.226 0 00-1.765-.727 2.184 2.184 0 00-1.765.757 3 3 0 00-.638 2v11.008h-2.018V116.16h1.958v1.394a3.079 3.079 0 011.261-1.2 3.727 3.727 0 011.765-.431zm18.987 15.809a6.663 6.663 0 01-2.121-.341 4.573 4.573 0 01-1.78-1.083 5.392 5.392 0 01-1.216-1.913 7.86 7.86 0 01-.459-2.863v-8.541a6.67 6.67 0 011.454-4.613 5.259 5.259 0 014.124-1.617 6.9 6.9 0 012.136.326 4.813 4.813 0 011.765 1.009 4.633 4.633 0 011.187 1.765 6.937 6.937 0 01.43 2.566v.356h-2.168v-.351a3.942 3.942 0 00-.875-2.744 3.175 3.175 0 00-2.477-.964q-3.412 0-3.412 4.48v8.366q0 4.213 3.412 4.213a2.97 2.97 0 002.536-1.083 4.964 4.964 0 00.816-3.041v-2.853H93.39v-1.81h5.548v4.569a8.1 8.1 0 01-.445 2.863 5.089 5.089 0 01-1.2 1.9 4.7 4.7 0 01-1.75 1.068 6.488 6.488 0 01-2.123.336zm13.617 0q-4.628 0-4.628-5.459v-4.951a6.209 6.209 0 011.142-3.96 4.075 4.075 0 013.4-1.439 4.173 4.173 0 013.441 1.424 6.141 6.141 0 011.152 3.975v3.115h-7.12v1.81a5.136 5.136 0 00.623 2.759 2.241 2.241 0 002.047.979q2.433 0 2.433-3.056v-.119h1.988v.089a5.11 5.11 0 01-1.142 3.619 4.359 4.359 0 01-3.336 1.214zm-2.611-8.841h5.132v-1.569a4.934 4.934 0 00-.593-2.685 2.2 2.2 0 00-1.988-.9 2.129 2.129 0 00-1.988.934 5.315 5.315 0 00-.564 2.714zm15.961-6.972a4.328 4.328 0 011.1.119v1.958a4.714 4.714 0 00-1.483-.267 2.762 2.762 0 00-1.973.742 2.8 2.8 0 00-.786 2.136v10.891h-2.02V116.16h1.958v1.513a3.1 3.1 0 011.335-1.335 4.121 4.121 0 011.869-.415zm15.575 0a3.66 3.66 0 013 1.187 5.03 5.03 0 01.979 3.293v11.1h-2.051v-11.007a3.016 3.016 0 00-.623-2.047 2.167 2.167 0 00-1.723-.713 2.249 2.249 0 00-1.78.742 2.9 2.9 0 00-.653 1.988v11.036h-2.015v-11.006a3.05 3.05 0 00-.623-2 2.175 2.175 0 00-1.78-.757 2.212 2.212 0 00-1.735.712 2.969 2.969 0 00-.638 2.047v11.004h-2.047V116.16h1.988v1.394a3.455 3.455 0 011.157-1.142 3.36 3.36 0 011.839-.489 3.633 3.633 0 012.047.549 3.778 3.778 0 011.276 1.379 4.083 4.083 0 011.464-1.439 3.854 3.854 0 011.918-.489zm11.273 15.813a3.464 3.464 0 01-2.922-1.246 5.084 5.084 0 01-.964-3.2 4.812 4.812 0 011.1-3.278 4.369 4.369 0 013.471-1.261h2.373v-2.463q0-2.581-2.373-2.581a2.288 2.288 0 00-1.691.593 2.246 2.246 0 00-.593 1.661v.237h-1.9v-.262a3.825 3.825 0 011.142-2.937 4.445 4.445 0 013.159-1.068 5.018 5.018 0 011.9.326 3.583 3.583 0 011.335.92 3.715 3.715 0 01.786 1.409 6.056 6.056 0 01.252 1.795v11.121h-1.931v-1.424a3.458 3.458 0 01-3.144 1.658zm.5-1.75a2.45 2.45 0 001.854-.727 2.994 2.994 0 00.7-2.151v-2.845h-2.164q-2.759 0-2.759 2.878 0 2.848 2.378 2.848zm13.647-14.062a3.467 3.467 0 012.892 1.216 5.108 5.108 0 01.964 3.263v11.1h-2.017v-11.007a2.98 2.98 0 00-.638-2.032 2.226 2.226 0 00-1.765-.727 2.184 2.184 0 00-1.765.757 3 3 0 00-.638 2v11.008h-2.017V116.16h1.958v1.394a3.079 3.079 0 011.261-1.2 3.727 3.727 0 011.769-.431zm14.448.237h2.2l-4.486 16.794a3.727 3.727 0 01-1.513 2.4 5.622 5.622 0 01-2.937.653h-.3v-1.81h.5a3.215 3.215 0 001.765-.415 2.231 2.231 0 00.885-1.447l.119-.475-4.153-15.694h2.2l2.907 11.689z" opacity=".88"/></svg>