<svg xmlns="http://www.w3.org/2000/svg" width="200" height="53.198"><path d="M7.018 45.124q2.182.594 2.182 3.762a4.68 4.68 0 01-.979 3.223A3.93 3.93 0 015.148 53.2a4.3 4.3 0 01-2.926-.891 3.359 3.359 0 01-1.056-2.563l-.022-.7h1.584l.022.572a2.277 2.277 0 00.627 1.573 2.375 2.375 0 001.749.583A2.244 2.244 0 007 51.02a3.482 3.482 0 00.594-2.2 3.94 3.94 0 00-.3-1.716 2.256 2.256 0 00-.715-.88 1.818 1.818 0 00-.836-.33q-.418-.044-.66-.044H3.608v-1.43H5.06a6.359 6.359 0 00.649-.044 1.782 1.782 0 00.792-.3 2 2 0 00.66-.8 3.57 3.57 0 00.275-1.562 3.02 3.02 0 00-.561-2.024 2.211 2.211 0 00-1.749-.638 2.353 2.353 0 00-1.826.594 2.264 2.264 0 00-.528 1.562v.616H1.188v-.638a3.318 3.318 0 011.045-2.673 4.356 4.356 0 012.915-.891 3.91 3.91 0 012.948.99 4.255 4.255 0 01.946 3.036 4.556 4.556 0 01-.473 2.244 2.805 2.805 0 01-1.551 1.232zM12.276 53V37.82h3.938a3.543 3.543 0 013.014 1.166 5.3 5.3 0 01.88 3.256q0 4.334-3.894 4.334h-2.332V53zm1.606-7.854h2.244a2.185 2.185 0 001.859-.715 3.631 3.631 0 00.539-2.189 3.828 3.828 0 00-.539-2.255 2.153 2.153 0 00-1.859-.737h-2.244zm12.848 8.03a3.96 3.96 0 01-2.992-1.166 4.765 4.765 0 01-1.122-3.432v-6.336a4.972 4.972 0 011.067-3.432 3.884 3.884 0 013.047-1.188 3.884 3.884 0 013.047 1.188 4.972 4.972 0 011.067 3.432v6.336a6 6 0 01-.33 2.123 3.807 3.807 0 01-.9 1.419 3.516 3.516 0 01-1.309.8 4.812 4.812 0 01-1.575.256zm.022-1.452a2.2 2.2 0 001.87-.814 3.765 3.765 0 00.616-2.31v-6.2a4.389 4.389 0 00-.583-2.442 2.113 2.113 0 00-1.9-.88 2.146 2.146 0 00-1.958.891 4.466 4.466 0 00-.575 2.431v6.2q0 3.124 2.53 3.124zm11.242-7.3a5.229 5.229 0 012.112.363 3.208 3.208 0 011.276.968 3.414 3.414 0 01.627 1.375 7.539 7.539 0 01.165 1.584 6.275 6.275 0 01-.231 1.76 3.57 3.57 0 01-.715 1.353 3.2 3.2 0 01-1.243.869 4.754 4.754 0 01-1.793.304h-4.048V37.82h7.106v1.43h-5.5v5.17zm.066 7.15a2.342 2.342 0 001.94-.719 3.389 3.389 0 00.572-2.145 3.29 3.29 0 00-.594-2.156 2.618 2.618 0 00-2.09-.7H35.75v5.72zm9.064-13.754h7V53h-1.61V39.25H48.62l-.682 10.582a6.316 6.316 0 01-.22 1.364 2.4 2.4 0 01-1.639 1.7 5.4 5.4 0 01-1.727.231h-.022V51.7h.044a3.2 3.2 0 00.913-.11 1.052 1.052 0 00.583-.44 2.485 2.485 0 00.33-.913 13.669 13.669 0 00.176-1.507zM57.6 53V37.82h6.75v1.43h-5.17v5.3h4.444V46H59.18v5.57h5.17V53zm9.7 0V37.82h1.6v6.732h4.664V37.82h1.606V53h-1.602v-7.018H68.9V53zm15.29.176a3.96 3.96 0 01-2.99-1.166 4.765 4.765 0 01-1.122-3.432v-6.336a4.972 4.972 0 011.063-3.432 4.5 4.5 0 016.094 0 4.972 4.972 0 011.065 3.432v6.336a6 6 0 01-.33 2.123 3.807 3.807 0 01-.9 1.419 3.516 3.516 0 01-1.309.8 4.812 4.812 0 01-1.573.256zm.022-1.452a2.2 2.2 0 001.87-.814 3.765 3.765 0 00.618-2.31v-6.2a4.389 4.389 0 00-.583-2.442 2.113 2.113 0 00-1.9-.88 2.146 2.146 0 00-1.958.891 4.466 4.466 0 00-.579 2.431v6.2q0 3.124 2.53 3.124zm17.8-6.6q2.156.594 2.156 3.7a4.54 4.54 0 01-.946 3.135A3.913 3.913 0 0198.582 53h-3.894V37.82h3.872a3.9 3.9 0 012.948.957 4.263 4.263 0 01.9 3q.002 2.599-2 3.347zm-4.118-5.874v5.17h2.134q2.376 0 2.376-2.552a3.058 3.058 0 00-.528-2 2.3 2.3 0 00-1.826-.618zm2.156 12.32a2.342 2.342 0 001.936-.715 3.389 3.389 0 00.572-2.145q0-2.86-2.508-2.86h-2.156v5.72zM110.33 53V37.82h1.606v6.732h4.664V37.82h1.606V53H116.6v-7.018h-4.664V53zm11.484 0V37.82h1.586V53zm14.1-15.18h1.606V53h-1.606V41.34l-3.124 8.14h-1.056l-3.124-8.1V53h-1.606V37.82h1.606l3.674 9.394zM141 53V37.82h6.754v1.43h-5.17v5.3h4.444V46h-4.444v5.57h5.17V53zm15.51-15.18h1.606V53h-1.606v-6.974a5.991 5.991 0 01-2.31.484 3.5 3.5 0 01-2.838-1.177 4.781 4.781 0 01-.99-3.179V37.82h1.606v4a4.106 4.106 0 00.594 2.4 2.136 2.136 0 001.87.836 4.838 4.838 0 001.111-.132 5.451 5.451 0 00.957-.308zm10.89 0h1.6V53h-1.6v-6.974a5.991 5.991 0 01-2.31.484 3.5 3.5 0 01-2.838-1.177 4.781 4.781 0 01-.99-3.179V37.82h1.606v4a4.106 4.106 0 00.594 2.4 2.136 2.136 0 001.87.836 4.838 4.838 0 001.111-.132 5.451 5.451 0 00.957-.308zm11.88 0h1.606V53h-1.606V41.318L174.086 53h-1.606V37.82h1.606V49.5zM184.36 53V37.82h1.606v6.732h4.664V37.82h1.606V53h-1.606v-7.018h-4.664V53zm11.484 0V37.82h1.584V53zM0 0h67v23H0z"/><path fill="#fd0000" d="M67 0h66v23H67z"/><path fill="#fdca00" d="M133 0h67v23h-67z"/></svg>