<svg xmlns="http://www.w3.org/2000/svg" width="175.534" height="155.896" viewBox="0 0 175.534 155.896"><g transform="translate(-1116.078 -3103.348)"><g transform="translate(901.47 2706.146)"><path d="M279.685,401.039c.166,0,.333.008.5.024a.835.835,0,0,1,.1-.006h15.873a.747.747,0,0,1,.469.164,4.712,4.712,0,0,1,1.836.488l14.293,7.225L329.272,403a5.013,5.013,0,0,1,1.72-.3h0a5.126,5.126,0,0,1,4.809,3.386,5.1,5.1,0,0,1-3.079,6.525l-18.581,6.675a4.99,4.99,0,0,1-1.721.3,5.109,5.109,0,0,1-2.3-.545l-13.207-6.676v25.1l4.625,45.783a5.112,5.112,0,0,1-4.562,5.59,4.588,4.588,0,0,1-.521.026,5.109,5.109,0,0,1-5.079-4.588l-4.626-45.813h-.363l-4.2,45.383a5.1,5.1,0,0,1-5.076,4.635c-.156,0-.305-.009-.449-.018h-.007l-.022,0a5.11,5.11,0,0,1-4.61-5.554l4.334-46.813v-1.854l-2.792,9.034a5.075,5.075,0,0,1-1.875,2.624,5.079,5.079,0,0,1-4.505.75,5.106,5.106,0,0,1-3.375-6.386l11.031-35.7A5.016,5.016,0,0,1,279.685,401.039Zm.523,1.53a.746.746,0,0,1-.086,0,3.816,3.816,0,0,0-.437-.025A3.524,3.524,0,0,0,276.27,405L265.239,440.7a3.606,3.606,0,0,0,2.383,4.51,3.634,3.634,0,0,0,1.063.163,3.59,3.59,0,0,0,3.442-2.546l4.259-13.778a.75.75,0,0,1,1.467.221v6.854q0,.035,0,.069l-4.337,46.848a3.608,3.608,0,0,0,3.244,3.921c.125.008.243.015.35.015a3.585,3.585,0,0,0,3.582-3.273l4.263-46.064a.75.75,0,0,1,.747-.681h1.725a.75.75,0,0,1,.746.675l4.694,46.487a3.6,3.6,0,0,0,3.587,3.24,2.99,2.99,0,0,0,.352-.017h.013a3.61,3.61,0,0,0,3.226-3.948l-4.629-45.82c0-.025,0-.05,0-.075V411.143a.75.75,0,0,1,1.088-.669L310.79,417.7a3.618,3.618,0,0,0,1.63.385,3.5,3.5,0,0,0,1.209-.211l18.586-6.677a3.6,3.6,0,0,0,2.174-4.605,3.622,3.622,0,0,0-3.4-2.394,3.522,3.522,0,0,0-1.209.214l-16.821,6.045a.75.75,0,0,1-.592-.036l-14.584-7.372a3.461,3.461,0,0,0-1.626-.342.747.747,0,0,1-.448-.148H280.357A.875.875,0,0,1,280.208,402.569Z" transform="translate(0 12.873)"/><path d="M312.031,405.964a3.8,3.8,0,0,1,3.8,3.8v9.8a3.8,3.8,0,0,1-1.221,2.785l-7.14,6.605v16.734l4.515,6.063a3.748,3.748,0,0,1,.758,2.268v12.833a3.8,3.8,0,0,1-7.6,0v-11.57l-6.09-8.173-2.221,20.16a3.788,3.788,0,0,1-3.772,3.381,3.655,3.655,0,0,1-.421-.022,3.8,3.8,0,0,1-3.355-4.192l2.1-20.429V429.6l-4.566,2.182a3.82,3.82,0,0,1-1.639.374c-.137,0-.271-.011-.379-.02l-.018,0-9.611-1.019a3.8,3.8,0,1,1,.8-7.557l8.541.909,6.349-3.035a3.19,3.19,0,0,1,.906-.269.746.746,0,0,1,.367-.1h.167a1,1,0,0,1,.12,0h12.4l3.42-3.166v-8.138A3.8,3.8,0,0,1,312.031,405.964Zm-3.092,63.187a2.3,2.3,0,0,0,2.3-2.3V454.019a2.262,2.262,0,0,0-.459-1.369l-4.666-6.265a.75.75,0,0,1-.148-.448v-17.31a.75.75,0,0,1,.241-.551l7.381-6.828a2.3,2.3,0,0,0,.739-1.683v-9.8a2.3,2.3,0,1,0-4.6,0v8.466a.75.75,0,0,1-.24.55l-3.876,3.588a.75.75,0,0,1-.51.2h-12.7a.75.75,0,0,1-.185.047,2.245,2.245,0,0,0-.713.17l-6.545,3.129a.751.751,0,0,1-.4.069l-8.753-.932a2.278,2.278,0,0,0-.244-.013,2.3,2.3,0,0,0-.236,4.588l9.6,1.018c.086.007.175.014.248.014a2.311,2.311,0,0,0,.991-.227l5.64-2.7a.75.75,0,0,1,1.073.677v17.637a.748.748,0,0,1,0,.077l-2.1,20.472v.007a2.3,2.3,0,0,0,2.033,2.538,2.193,2.193,0,0,0,.252.013,2.29,2.29,0,0,0,2.281-2.044l2.33-21.143a.75.75,0,0,1,.745-.668h.779a.75.75,0,0,1,.6.3l6.7,8.988a.75.75,0,0,1,.149.448v11.819A2.3,2.3,0,0,0,308.939,469.151Z" transform="translate(27.471 29.395)"/><path d="M5.749-.75a6.5,6.5,0,1,1-6.5,6.5A6.507,6.507,0,0,1,5.749-.75Zm0,11.5a5,5,0,1,0-5-5A5,5,0,0,0,5.749,10.749Z" transform="translate(321.269 439.007)"/><path d="M7.4-.75A8.152,8.152,0,1,1-.75,7.4,8.162,8.162,0,0,1,7.4-.75Zm0,14.8A6.652,6.652,0,1,0,.75,7.4,6.66,6.66,0,0,0,7.4,14.055Z" transform="translate(279.355 397.952)"/><path d="M0-.75H17.222a.75.75,0,0,1,.75.75V11.139a.75.75,0,0,1-.75.75H0a.75.75,0,0,1-.75-.75V0A.75.75,0,0,1,0-.75ZM16.472.75H.75v9.639H16.472Z" transform="translate(319.74 403.523)"/></g><g transform="translate(-13588 3247)"><path d="M175,.5h-5v-1h5Zm-10,0h-5v-1h5Zm-10,0h-5v-1h5Zm-10,0h-5v-1h5Zm-10,0h-5v-1h5Zm-10,0h-5v-1h5Zm-10,0h-5v-1h5Zm-10,0h-5v-1h5ZM95,.5H90v-1h5ZM85,.5H80v-1h5ZM75,.5H70v-1h5ZM65,.5H60v-1h5ZM55,.5H50v-1h5ZM45,.5H40v-1h5ZM35,.5H30v-1h5ZM25,.5H20v-1h5ZM15,.5H10v-1h5ZM5,.5H0v-1H5Z" transform="translate(14704.612 -2.429)"/><g transform="translate(14740.63 -17.078) rotate(90)"><path d="M7.2,20.19a2.862,2.862,0,0,1-2.532-1.523,2.608,2.608,0,0,1-.242-.6L.063,2.22a1.754,1.754,0,0,1,1.2-2.15A1.6,1.6,0,0,1,1.611.006,1.75,1.75,0,0,1,3.375,1.094L10.2,17.82a.522.522,0,0,1,.011.366,2.9,2.9,0,0,1-2.484,1.97l-.266.023C7.377,20.185,7.289,20.19,7.2,20.19ZM1.751,1.045H1.687a.685.685,0,0,0-.136.028.708.708,0,0,0-.482.866L5.434,17.79a1.591,1.591,0,0,0,.15.369,1.848,1.848,0,0,0,1.787.975l.273-.023A1.853,1.853,0,0,0,9.162,18.02L2.41,1.489a.709.709,0,0,0-.659-.444Z" transform="translate(7.351)"/><path d="M2.03,5.285a.522.522,0,0,1-.488-.337L.672,2.663H.522a.522.522,0,0,1,0-1.044H1.03a.522.522,0,0,1,.486.337L2.331,4.1l.982-.348L2.076.72A.522.522,0,0,1,3.043.325L4.491,3.864a.522.522,0,0,1-.309.69l-1.98.7A.535.535,0,0,1,2.03,5.285Z" transform="translate(14.512 17.493)"/><path d="M8.569,15.644a5.77,5.77,0,0,1-3.6-1.271A6.6,6.6,0,0,1,3.5,12.7C2.319,10.822.534,3.867.015,1.781a.522.522,0,0,1,.327-.616L3.439.032A.522.522,0,0,1,4.089.3c.569,1.184,1.862,3.185,4.13,3.3A6.2,6.2,0,0,1,13.47,7.635a5.7,5.7,0,0,1-2.579,7.482,5.456,5.456,0,0,1-.838.313A5.274,5.274,0,0,1,8.569,15.644ZM1.143,1.982C2.18,6.1,3.545,10.8,4.388,12.147A5.558,5.558,0,0,0,5.63,13.555a4.619,4.619,0,0,0,4.133.871,4.476,4.476,0,0,0,.679-.256A4.666,4.666,0,0,0,12.508,8.04,5.246,5.246,0,0,0,8.169,4.632a5.972,5.972,0,0,1-4.8-3.464Z" transform="translate(15.35 20.908)"/><path d="M2.9,18.454a.515.515,0,0,1-.139-.019.522.522,0,0,1-.366-.642L6.763,1.943a.709.709,0,0,0-.486-.869.736.736,0,0,0-.116-.026.721.721,0,0,0-.738.44L1.006,12.3a.522.522,0,1,1-.967-.394L4.455,1.094A1.748,1.748,0,0,1,6.235.007a1.514,1.514,0,0,1,.327.062A1.755,1.755,0,0,1,7.769,2.222L3.405,18.07A.522.522,0,0,1,2.9,18.454Z" transform="translate(14.139 0)"/><path d="M2.5,5.282a.522.522,0,0,1-.174-.03l-1.98-.7a.522.522,0,0,1-.309-.69L1.483.325A.522.522,0,1,1,2.45.72L1.213,3.748,2.2,4.1,3.05,1.864a.522.522,0,1,1,.975.373L2.989,4.945a.522.522,0,0,1-.488.338Z" transform="translate(10.28 17.495)"/><path d="M5.4,15.645a5.284,5.284,0,0,1-1.487-.209,5.432,5.432,0,0,1-.835-.313A5.7,5.7,0,0,1,.5,7.64,6.2,6.2,0,0,1,5.755,3.6C8.021,3.487,9.314,1.485,9.883.3a.522.522,0,0,1,.653-.268l3.1,1.133a.522.522,0,0,1,.327.616c-.518,2.086-2.3,9.039-3.488,10.924A6.6,6.6,0,0,1,9,14.372a5.768,5.768,0,0,1-3.6,1.273Zm5.2-14.472A5.978,5.978,0,0,1,5.8,4.637a5.246,5.246,0,0,0-4.34,3.409,4.666,4.666,0,0,0,2.066,6.13,4.45,4.45,0,0,0,.679.255,4.619,4.619,0,0,0,4.134-.875A5.552,5.552,0,0,0,9.582,12.15c.847-1.347,2.21-6.051,3.247-10.169Z" transform="translate(0 20.907)"/><path d="M3.419,6.837q-.151,0-.3-.014a3.416,3.416,0,1,1,.3.014ZM3.414,1.045a2.374,2.374,0,1,0,.213.009q-.106-.009-.213-.009Z" transform="translate(2.153 27.224)"/><path d="M3.422,6.837a3.42,3.42,0,1,1,.3-.014C3.624,6.832,3.522,6.837,3.422,6.837Zm0-5.793c-.071,0-.142,0-.214.009a2.372,2.372,0,1,0,.211-.009Z" transform="translate(20.329 27.225)"/><path d="M.709,0a.709.709,0,1,0,.708.708A.709.709,0,0,0,.709,0Z" transform="translate(13.705 16.177)"/><path d="M.97,1.939A.97.97,0,1,1,1.939.97.97.97,0,0,1,.97,1.939ZM.97.523A.447.447,0,1,0,1.417.97.447.447,0,0,0,.97.523Z" transform="translate(13.444 15.915)"/></g></g></g></svg>