<svg version="1.1" id="Слой_1" xmlns="http://www.w3.org/2000/svg" x="0" y="0" viewBox="0 0 304.9 295.9" xml:space="preserve"><style>.st0{fill:#166147}</style><path class="st0" d="M91.3 47.9c9.8-5.7 20.5-9.8 31.6-12.2 10.7-2.3 21.8-3 32.7-2 10.8 1 21.5 3.6 31.6 7.6 10.2 4.1 19.7 9.8 28.2 16.7 1.1.9 1.2 2.4.4 3.5-.9 1.1-2.4 1.2-3.5.4-33.7-27.4-80.7-31.2-118.4-9.7-49.9 28.9-67 92.7-38.2 142.6.7 1.2.3 2.7-.9 3.4s-2.7.3-3.4-.9c-3.7-6.4-6.8-13.2-9.1-20.2-2.3-6.8-3.9-13.8-4.7-21-.9-7-1.1-14.1-.6-21.1.5-7 1.7-13.9 3.5-20.7 1.8-6.8 4.3-13.4 7.3-19.7 3.1-6.4 6.8-12.4 11-18 4.3-5.7 9.2-11 14.6-15.8 5.5-4.9 11.5-9.2 17.9-12.9z" transform="translate(3.415 3.416)"/><path class="st0" d="M214.9 62.9l-28.1 5.5c-1.4.3-2.7-.6-2.9-2-.3-1.4.6-2.7 2-2.9l25.6-5-4.7-24.1c-.3-1.4.6-2.7 2-2.9s2.7.6 2.9 2l5.2 26.5c.3 1.3-.6 2.6-2 2.9z" transform="translate(3.415 3.416)"/><path class="st0" d="M91.3 47.9c9.8-5.7 20.5-9.8 31.6-12.2 10.7-2.3 21.8-3 32.7-2 10.8 1 21.5 3.6 31.6 7.6 10.2 4.1 19.7 9.8 28.2 16.7 1.1.9 1.2 2.4.4 3.5-.9 1.1-2.4 1.2-3.5.4-33.7-27.4-80.7-31.2-118.4-9.7-49.9 28.9-67 92.7-38.2 142.6.7 1.2.3 2.7-.9 3.4-1.2.7-2.7.3-3.4-.9-3.7-6.4-6.8-13.2-9.1-20.2-2.3-6.8-3.9-13.8-4.7-21-.9-7-1.1-14.1-.6-21.1.5-7 1.7-13.9 3.5-20.7 1.8-6.8 4.3-13.4 7.3-19.7 3.1-6.4 6.8-12.4 11-18 4.3-5.7 9.2-11 14.6-15.8 5.5-4.9 11.5-9.2 17.9-12.9z" transform="rotate(180 150.728 146.253)"/><path class="st0" d="M214.9 62.9l-28.1 5.5c-1.4.3-2.7-.6-2.9-2-.3-1.4.6-2.7 2-2.9l25.6-5-4.7-24.1c-.3-1.4.6-2.7 2-2.9s2.7.6 2.9 2l5.2 26.5c.3 1.3-.6 2.6-2 2.9z" transform="rotate(180 150.728 146.253)"/><path d="M1578.1 2149.4c3 1.8 5.3 4.2 7 7.2 1.7 3 2.5 6.3 2.5 9.8v2.6c0 3.5-.6 6.7-1.8 9.6-1.2 2.9-2.9 5.3-5.1 7.3-2.2 2-4.8 3.5-7.8 4.7-3 1.1-6.3 1.7-9.9 1.7-3.5 0-6.8-.6-9.8-1.7-3-1.1-5.6-2.7-7.7-4.7-2.1-2-3.8-4.4-5.1-7.2-1.2-2.8-1.8-6-1.8-9.5v-2.6c0-3.6.8-6.9 2.5-9.9s4.1-5.4 7.1-7.2c-2.7-1.5-4.7-3.7-6.1-6.4-1.4-2.7-2.1-5.7-2.1-8.9v-2.1c0-3.1.6-6 1.7-8.7 1.1-2.6 2.7-4.9 4.8-6.8 2-1.9 4.5-3.4 7.3-4.5s5.9-1.6 9.2-1.6c3.4 0 6.5.5 9.3 1.6 2.8 1.1 5.3 2.6 7.3 4.5s3.6 4.2 4.7 6.8c1.1 2.6 1.7 5.5 1.7 8.7v2.1c0 3.3-.7 6.3-2.2 9-1.3 2.5-3.3 4.6-5.7 6.2zm-5 16.8c0-3.1-.9-5.6-2.6-7.5-1.8-1.9-4.2-2.9-7.2-2.9s-5.4 1-7.2 2.9c-1.8 2-2.7 4.4-2.7 7.4v2.8c0 3.1.9 5.7 2.6 7.6 1.7 2 4.2 2.9 7.3 2.9 3.1 0 5.6-1 7.3-2.9 1.7-2 2.6-4.5 2.6-7.6v-2.7zm-18.4-32c0 2.7.7 4.9 2.2 6.6 1.5 1.7 3.6 2.6 6.3 2.6 2.8 0 5-.9 6.4-2.8 1.4-1.8 2.1-4 2.1-6.4v-2.2c0-2.5-.8-4.6-2.4-6.3-1.6-1.7-3.6-2.5-6.2-2.5s-4.6.8-6.2 2.5c-1.6 1.7-2.4 3.8-2.4 6.3v2.2zm90.4 56.8h-14.8l-11-19-9.9 19h-15l17.9-30.8-16.9-29h14.9l9.9 17 8.9-17h15l-17.1 28.5 18.1 31.3z" transform="translate(-1442.585 -2009.584)"/></svg>