<svg version="1.1" id="Слой_1" xmlns="http://www.w3.org/2000/svg" x="0" y="0" viewBox="0 0 54.2 94.4" xml:space="preserve"><style>.st0{fill:#166147}</style><path class="st0" d="M39.7 94.4H14.3c-4 0-7.3-3.3-7.3-7.3V73.7h3.6v13.5c0 2 1.6 3.6 3.6 3.6h25.4c2 0 3.6-1.6 3.6-3.6V73.7h3.6v13.5c.1 4-3.1 7.2-7.1 7.2zM7 35V14.5c0-4 3.3-7.3 7.3-7.3h3.6V3.6c0-2 1.6-3.6 3.6-3.6h10.9c2 0 3.6 1.6 3.6 3.6v3.6h3.6c4 0 7.3 3.3 7.3 7.3v14.3h-3.6V14.5c0-2-1.6-3.6-3.6-3.6H14.3c-2 0-3.6 1.6-3.6 3.6v19.8L7 35z"/><path class="st0" d="M19.5 50.8c.2.9-.4 1.8-1.3 2-.4.1-.9 0-1.3-.2L12.7 50l-5.4 8.6c-1 1.6-.5 3.7 1.1 4.7.5.3 1.1.5 1.8.5h5.5c.7 0 1.3.6 1.3 1.3v4.2c0 .7-.6 1.3-1.3 1.3h-5.5C4.5 70.5 0 66 0 60.4c0-1.9.5-3.8 1.5-5.4l5.4-8.6-4.3-2.7c-.8-.5-1-1.6-.5-2.3.2-.4.6-.6 1-.7L14.8 38c.9-.2 1.8.4 2 1.3l2.7 11.5zM30 31.5l4.4 7-4.4 2.7c-.8.5-1 1.6-.5 2.3.2.4.6.6 1 .7L42.2 47c.9.2 1.8-.4 2-1.3L47 34c.2-.9-.4-1.8-1.3-2-.4-.1-.9 0-1.3.2l-4.3 2.7-4.4-7c-3-4.8-9.3-6.2-14-3.2-1.3.8-2.4 1.9-3.2 3.2l-1.9 3c-.4.6-.2 1.4.4 1.7l3.6 2.2c.6.4 1.4.2 1.8-.4l1.9-3c1-1.6 3.1-2.1 4.7-1.1.3.4.7.7 1 1.2zM52.7 55l-2.9-4.7c-.4-.6-1.2-.8-1.8-.4l-3.6 2.2c-.6.4-.8 1.2-.4 1.8l2.9 4.7c1 1.6.5 3.7-1.1 4.7-.5.3-1.1.5-1.8.5H33.9v-5.1c0-.9-.8-1.7-1.7-1.7-.4 0-.9.2-1.2.5L22.5 66c-.7.7-.7 1.7 0 2.4l8.5 8.5c.7.7 1.7.7 2.4 0 .3-.3.5-.7.5-1.2v-5.1H44c5.6 0 10.2-4.6 10.2-10.2 0-1.9-.5-3.8-1.5-5.4z"/></svg>