<svg xmlns="http://www.w3.org/2000/svg" width="228" height="48.851"><path d="M85.951 10.098L75.364 27.525 64.458 10.098h-9.29L74.12 39.691a1.574 1.574 0 002.661-.017l18.413-29.576zm19.384.827l-18.436 28.7h9.521l1.646-2.674a2.466 2.466 0 012.1-1.17h13.312a2.93 2.93 0 012.483 1.371l1.558 2.473h9.525l-18.88-28.716a1.685 1.685 0 00-2.829.016zm-3.281 18.537l4.769-7.6 4.9 7.6zm55.982-9.816c0-6.23-4.4-9.548-11.784-9.548h-16.227v29.533h8.63V29.597h4.5a2.789 2.789 0 012.286 1.19l6.207 8.848h9.7l-8.193-11.51c3.2-1.629 4.881-4.551 4.881-8.479zm-13.657 3.222h-5.6v-5.249h5.6c4.159 0 5.235.54 5.235 2.624s-1.076 2.625-5.235 2.625zm49.9-5.652v-7.118h-33.042v7.521h10.5a1.617 1.617 0 011.619 1.615v20.4h8.633v-20.42a1.6 1.6 0 011.6-1.6h10.694zm12.014-6.291l-18.436 28.7h9.521l1.646-2.674a2.466 2.466 0 012.1-1.17h13.312a2.93 2.93 0 012.483 1.371l1.558 2.473h9.525l-18.88-28.716a1.685 1.685 0 00-2.829.016zm-3.278 18.537l4.769-7.6 4.9 7.6zM0 0l21.834 42.261L43.669 0v48.85H0z" fill="#1a428a"/><path d="M0 0l21.834 42.261L43.669 0z" fill="#fdca00"/></svg>