<svg xmlns="http://www.w3.org/2000/svg" width="200" height="53.198" viewBox="0 0 200 53.198"><g transform="translate(-1381 -2230)"><path d="M7.018,12.124Q9.2,12.718,9.2,15.886a4.68,4.68,0,0,1-.979,3.223A3.93,3.93,0,0,1,5.148,20.2a4.3,4.3,0,0,1-2.926-.891,3.359,3.359,0,0,1-1.056-2.563l-.022-.7H2.728l.022.572a2.277,2.277,0,0,0,.627,1.573,2.375,2.375,0,0,0,1.749.583A2.244,2.244,0,0,0,7,18.02a3.482,3.482,0,0,0,.594-2.2,3.94,3.94,0,0,0-.3-1.716,2.256,2.256,0,0,0-.715-.88,1.818,1.818,0,0,0-.836-.33q-.418-.044-.66-.044H3.608V11.42H5.06a6.359,6.359,0,0,0,.649-.044,1.782,1.782,0,0,0,.792-.3,2,2,0,0,0,.66-.8,3.57,3.57,0,0,0,.275-1.562A3.02,3.02,0,0,0,6.875,6.69a2.211,2.211,0,0,0-1.749-.638A2.353,2.353,0,0,0,3.3,6.646a2.264,2.264,0,0,0-.528,1.562v.616H1.188V8.186A3.318,3.318,0,0,1,2.233,5.513a4.356,4.356,0,0,1,2.915-.891,3.91,3.91,0,0,1,2.948.99,4.255,4.255,0,0,1,.946,3.036,4.556,4.556,0,0,1-.473,2.244A2.805,2.805,0,0,1,7.018,12.124ZM12.276,20V4.82h3.938a3.543,3.543,0,0,1,3.014,1.166,5.3,5.3,0,0,1,.88,3.256q0,4.334-3.894,4.334H13.882V20Zm1.606-7.854h2.244a2.185,2.185,0,0,0,1.859-.715,3.631,3.631,0,0,0,.539-2.189,3.828,3.828,0,0,0-.539-2.255,2.153,2.153,0,0,0-1.859-.737H13.882Zm12.848,8.03a3.96,3.96,0,0,1-2.992-1.166,4.765,4.765,0,0,1-1.122-3.432V9.242A4.972,4.972,0,0,1,23.683,5.81,3.884,3.884,0,0,1,26.73,4.622,3.884,3.884,0,0,1,29.777,5.81a4.972,4.972,0,0,1,1.067,3.432v6.336a6,6,0,0,1-.33,2.123,3.807,3.807,0,0,1-.9,1.419,3.516,3.516,0,0,1-1.309.8A4.812,4.812,0,0,1,26.73,20.176Zm.022-1.452a2.2,2.2,0,0,0,1.87-.814,3.765,3.765,0,0,0,.616-2.31V9.4a4.389,4.389,0,0,0-.583-2.442,2.113,2.113,0,0,0-1.9-.88,2.146,2.146,0,0,0-1.958.891A4.466,4.466,0,0,0,24.222,9.4v6.2Q24.222,18.724,26.752,18.724Zm11.242-7.3a5.229,5.229,0,0,1,2.112.363,3.208,3.208,0,0,1,1.276.968,3.414,3.414,0,0,1,.627,1.375,7.539,7.539,0,0,1,.165,1.584,6.275,6.275,0,0,1-.231,1.76,3.57,3.57,0,0,1-.715,1.353,3.2,3.2,0,0,1-1.243.869A4.754,4.754,0,0,1,38.192,20H34.144V4.82H41.25V6.25h-5.5v5.17Zm.066,7.15A2.342,2.342,0,0,0,40,17.855a3.389,3.389,0,0,0,.572-2.145,3.29,3.29,0,0,0-.594-2.156,2.618,2.618,0,0,0-2.09-.7H35.75v5.72ZM47.124,4.82h7V20H52.514V6.25H48.62l-.682,10.582a6.316,6.316,0,0,1-.22,1.364,2.4,2.4,0,0,1-1.639,1.7,5.4,5.4,0,0,1-1.727.231H44.33V18.7h.044a3.2,3.2,0,0,0,.913-.11,1.052,1.052,0,0,0,.583-.44,2.485,2.485,0,0,0,.33-.913,13.669,13.669,0,0,0,.176-1.507ZM57.6,20V4.82H64.35V6.25H59.18v5.3h4.444V13H59.18V18.57h5.17V20Zm9.7,0V4.82H68.9v6.732h4.664V4.82h1.606V20H73.568V12.982H68.9V20Zm15.29.176A3.96,3.96,0,0,1,79.6,19.01a4.765,4.765,0,0,1-1.122-3.432V9.242A4.972,4.972,0,0,1,79.541,5.81a4.5,4.5,0,0,1,6.094,0A4.972,4.972,0,0,1,86.7,9.242v6.336a6,6,0,0,1-.33,2.123,3.807,3.807,0,0,1-.9,1.419,3.516,3.516,0,0,1-1.309.8A4.812,4.812,0,0,1,82.588,20.176Zm.022-1.452a2.2,2.2,0,0,0,1.87-.814A3.765,3.765,0,0,0,85.1,15.6V9.4a4.389,4.389,0,0,0-.583-2.442,2.113,2.113,0,0,0-1.9-.88,2.146,2.146,0,0,0-1.958.891A4.466,4.466,0,0,0,80.08,9.4v6.2Q80.08,18.724,82.61,18.724Zm17.8-6.6q2.156.594,2.156,3.7a4.54,4.54,0,0,1-.946,3.135A3.913,3.913,0,0,1,98.582,20H94.688V4.82H98.56a3.9,3.9,0,0,1,2.948.957,4.263,4.263,0,0,1,.9,3Q102.41,11.376,100.408,12.124ZM96.294,6.25v5.17h2.134q2.376,0,2.376-2.552a3.058,3.058,0,0,0-.528-2A2.3,2.3,0,0,0,98.45,6.25ZM98.45,18.57a2.342,2.342,0,0,0,1.936-.715,3.389,3.389,0,0,0,.572-2.145q0-2.86-2.508-2.86H96.294v5.72ZM110.33,20V4.82h1.606v6.732H116.6V4.82h1.606V20H116.6V12.982h-4.664V20Zm11.484,0V4.82H123.4V20Zm14.1-15.18h1.606V20h-1.606V8.34l-3.124,8.14h-1.056l-3.124-8.1V20h-1.606V4.82h1.606l3.674,9.394ZM141,20V4.82h6.754V6.25h-5.17v5.3h4.444V13h-4.444V18.57h5.17V20Zm15.51-15.18h1.606V20h-1.606V13.026a5.991,5.991,0,0,1-2.31.484,3.5,3.5,0,0,1-2.838-1.177,4.781,4.781,0,0,1-.99-3.179V4.82h1.606v4a4.106,4.106,0,0,0,.594,2.4,2.136,2.136,0,0,0,1.87.836,4.838,4.838,0,0,0,1.111-.132,5.451,5.451,0,0,0,.957-.308Zm10.89,0H169V20H167.4V13.026a5.991,5.991,0,0,1-2.31.484,3.5,3.5,0,0,1-2.838-1.177,4.781,4.781,0,0,1-.99-3.179V4.82h1.606v4a4.106,4.106,0,0,0,.594,2.4,2.136,2.136,0,0,0,1.87.836,4.838,4.838,0,0,0,1.111-.132,5.451,5.451,0,0,0,.957-.308Zm11.88,0h1.606V20h-1.606V8.318L174.086,20H172.48V4.82h1.606V16.5ZM184.36,20V4.82h1.606v6.732h4.664V4.82h1.606V20H190.63V12.982h-4.664V20Zm11.484,0V4.82h1.584V20Z" transform="translate(1381 2263)"/><rect width="67" height="23" transform="translate(1381 2230)"/><rect width="66" height="23" transform="translate(1448 2230)" fill="#fd0000"/><rect width="67" height="23" transform="translate(1514 2230)" fill="#fdca00"/></g></svg>