<svg xmlns="http://www.w3.org/2000/svg" width="175.534" height="155.896"><path d="M65.077 16.71c.166 0 .333.008.5.024a.835.835 0 01.1-.006H81.55a.747.747 0 01.469.164 4.712 4.712 0 011.836.488l14.293 7.225 16.516-5.934a5.013 5.013 0 011.72-.3 5.126 5.126 0 014.809 3.386 5.1 5.1 0 01-3.079 6.525l-18.581 6.675a4.99 4.99 0 01-1.721.3 5.109 5.109 0 01-2.3-.545l-13.207-6.676v25.1l4.625 45.783a5.112 5.112 0 01-4.562 5.59 4.588 4.588 0 01-.521.026 5.109 5.109 0 01-5.079-4.588l-4.626-45.813h-.363l-4.2 45.383a5.1 5.1 0 01-5.076 4.635c-.156 0-.305-.009-.449-.018h-.029a5.11 5.11 0 01-4.61-5.554l4.334-46.813v-1.854l-2.792 9.034a5.075 5.075 0 01-1.875 2.624 5.079 5.079 0 01-4.505.75 5.106 5.106 0 01-3.375-6.386l11.031-35.7a5.016 5.016 0 014.844-3.525zm.523 1.53a.746.746 0 01-.086 0 3.816 3.816 0 00-.437-.025 3.524 3.524 0 00-3.415 2.456l-11.031 35.7a3.606 3.606 0 002.383 4.51 3.634 3.634 0 001.063.163 3.59 3.59 0 003.442-2.546l4.259-13.778a.75.75 0 011.467.221v6.923l-4.337 46.848a3.608 3.608 0 003.244 3.921c.125.008.243.015.35.015a3.585 3.585 0 003.582-3.273l4.263-46.064a.75.75 0 01.747-.681h1.725a.75.75 0 01.746.675l4.694 46.487a3.6 3.6 0 003.587 3.24 2.99 2.99 0 00.352-.017h.013a3.61 3.61 0 003.226-3.948l-4.629-45.82V26.814a.75.75 0 011.088-.669l14.286 7.226a3.618 3.618 0 001.63.385 3.5 3.5 0 001.209-.211l18.586-6.677a3.6 3.6 0 002.174-4.605 3.622 3.622 0 00-3.4-2.394 3.522 3.522 0 00-1.209.214l-16.821 6.045a.75.75 0 01-.592-.036L83.175 18.72a3.461 3.461 0 00-1.626-.342.747.747 0 01-.448-.148H65.749a.875.875 0 01-.149.01z"/><path d="M124.894 38.157a3.8 3.8 0 013.8 3.8v9.8a3.8 3.8 0 01-1.221 2.785l-7.14 6.605v16.734l4.515 6.063a3.748 3.748 0 01.758 2.268v12.833a3.8 3.8 0 01-7.6 0v-11.57l-6.09-8.173-2.221 20.16a3.788 3.788 0 01-3.772 3.381 3.655 3.655 0 01-.421-.022 3.8 3.8 0 01-3.355-4.192l2.1-20.429V61.793l-4.566 2.182a3.82 3.82 0 01-1.639.374c-.137 0-.271-.011-.379-.02h-.018l-9.611-1.019a3.8 3.8 0 11.8-7.557l8.541.909 6.349-3.035a3.19 3.19 0 01.906-.269.746.746 0 01.367-.1h.167a1 1 0 01.12 0h12.4l3.42-3.166v-8.138a3.8 3.8 0 013.79-3.797zm-3.092 63.187a2.3 2.3 0 002.3-2.3V86.212a2.262 2.262 0 00-.459-1.369l-4.666-6.265a.75.75 0 01-.148-.448V60.82a.75.75 0 01.241-.551l7.381-6.828a2.3 2.3 0 00.739-1.683v-9.8a2.3 2.3 0 10-4.6 0v8.466a.75.75 0 01-.24.55l-3.876 3.588a.75.75 0 01-.51.2h-12.7a.75.75 0 01-.185.047 2.245 2.245 0 00-.713.17l-6.545 3.129a.751.751 0 01-.4.069l-8.753-.932a2.278 2.278 0 00-.244-.013 2.3 2.3 0 00-.236 4.588l9.6 1.018c.086.007.175.014.248.014a2.311 2.311 0 00.991-.227l5.64-2.7a.75.75 0 011.073.677v17.637a.748.748 0 010 .077l-2.1 20.472v.007a2.3 2.3 0 002.033 2.538 2.193 2.193 0 00.252.013 2.29 2.29 0 002.281-2.044l2.33-21.143a.75.75 0 01.745-.668h.779a.75.75 0 01.6.3l6.7 8.988a.75.75 0 01.149.448v11.819a2.3 2.3 0 002.293 2.298z"/><path d="M112.41 41.055a6.5 6.5 0 11-6.5 6.5 6.507 6.507 0 016.5-6.5zm0 11.5a5 5 0 10-5-5 5 5 0 005 4.999zM72.147 0a8.152 8.152 0 11-8.15 8.15A8.162 8.162 0 0172.147 0zm0 14.8a6.652 6.652 0 10-6.65-6.65 6.66 6.66 0 006.65 6.655zm32.985-9.229h17.222a.75.75 0 01.75.75V17.46a.75.75 0 01-.75.75h-17.222a.75.75 0 01-.75-.75V6.321a.75.75 0 01.75-.75zm16.472 1.5h-15.722v9.639h15.722zm53.93 134.652h-5v-1h5zm-10 0h-5v-1h5zm-10 0h-5v-1h5zm-10 0h-5v-1h5zm-10 0h-5v-1h5zm-10 0h-5v-1h5zm-10 0h-5v-1h5zm-10 0h-5v-1h5zm-10 0h-5v-1h5zm-10 0h-5v-1h5zm-10 0h-5v-1h5zm-10 0h-5v-1h5zm-10 0h-5v-1h5zm-10 0h-5v-1h5zm-10 0h-5v-1h5zm-10 0h-5v-1h5zm-10 0h-5v-1h5zm-10 0h-5v-1h5z"/><path d="M16.362 141.125a2.862 2.862 0 011.523-2.532 2.608 2.608 0 01.6-.242l15.847-4.363a1.754 1.754 0 012.15 1.2 1.6 1.6 0 01.064.348 1.75 1.75 0 01-1.088 1.764l-16.726 6.825a.522.522 0 01-.366.011 2.9 2.9 0 01-1.97-2.484l-.023-.266a3.666 3.666 0 01-.011-.261zm19.145-5.449v-.064a.685.685 0 00-.028-.136.708.708 0 00-.866-.482l-15.851 4.365a1.591 1.591 0 00-.369.15 1.848 1.848 0 00-.975 1.787l.023.273a1.853 1.853 0 001.091 1.518l16.531-6.752a.709.709 0 00.444-.659z"/><path d="M13.774 143.116a.522.522 0 01.337-.488l2.285-.87v-.15a.522.522 0 011.044 0v.508a.522.522 0 01-.337.486l-2.144.815.348.982 3.032-1.237a.522.522 0 01.395.967l-3.539 1.448a.522.522 0 01-.69-.309l-.7-1.98a.535.535 0 01-.031-.172z"/><path d="M0 150.493a5.77 5.77 0 011.271-3.6 6.6 6.6 0 011.673-1.469c1.878-1.181 8.833-2.966 10.919-3.485a.522.522 0 01.616.327l1.133 3.097a.522.522 0 01-.268.65c-1.184.569-3.185 1.862-3.3 4.13a6.2 6.2 0 01-4.035 5.251 5.7 5.7 0 01-7.482-2.579 5.456 5.456 0 01-.313-.838A5.274 5.274 0 010 150.493zm13.662-7.426c-4.118 1.037-8.818 2.402-10.165 3.245a5.558 5.558 0 00-1.408 1.242 4.619 4.619 0 00-.871 4.133 4.476 4.476 0 00.256.679 4.666 4.666 0 006.13 2.066 5.246 5.246 0 003.408-4.339 5.972 5.972 0 013.464-4.8zm4.436.546a.515.515 0 01.019-.139.522.522 0 01.642-.366l15.85 4.368a.709.709 0 00.869-.486.736.736 0 00.026-.116.721.721 0 00-.44-.738l-10.812-4.417a.522.522 0 11.394-.967l10.812 4.416a1.748 1.748 0 011.087 1.78 1.514 1.514 0 01-.062.327 1.755 1.755 0 01-2.153 1.207l-15.848-4.364a.522.522 0 01-.384-.505zm-4.323-4.259a.522.522 0 01.03-.174l.7-1.98a.522.522 0 01.69-.309l3.537 1.446a.522.522 0 11-.395.967l-3.028-1.237-.352.987 2.236.85a.522.522 0 11-.373.975l-2.708-1.036a.522.522 0 01-.338-.488z"/><path d="M0 131.974a5.284 5.284 0 01.209-1.487 5.432 5.432 0 01.313-.835 5.7 5.7 0 017.483-2.578 6.2 6.2 0 014.04 5.255c.113 2.266 2.115 3.559 3.3 4.128a.522.522 0 01.268.653l-1.133 3.1a.522.522 0 01-.616.327c-2.086-.518-9.039-2.3-10.924-3.488a6.6 6.6 0 01-1.667-1.475 5.768 5.768 0 01-1.273-3.6zm14.472 5.2a5.978 5.978 0 01-3.464-4.8 5.246 5.246 0 00-3.409-4.34 4.666 4.666 0 00-6.13 2.066 4.45 4.45 0 00-.255.679 4.619 4.619 0 00.875 4.134 5.552 5.552 0 001.406 1.243c1.347.847 6.051 2.21 10.169 3.247z"/><path d="M2.491 132.146q0-.151.014-.3a3.416 3.416 0 11-.014.3zm5.792-.005a2.374 2.374 0 10-.009.213q.009-.106.009-.213zM2.49 150.325a3.42 3.42 0 11.014.3 3.312 3.312 0 01-.014-.3zm5.793 0c0-.071 0-.142-.009-.214a2.372 2.372 0 10.009.211zm12.092-9.337a.709.709 0 10-.708.708.709.709 0 00.708-.708z"/><path d="M18.698 140.988a.97.97 0 11.969.969.97.97 0 01-.969-.969zm1.416 0a.447.447 0 10-.447.447.447.447 0 00.447-.447z"/></svg>